<?xml version="1.0" encoding="utf-8"?>
<!-- Generator: Adobe Illustrator 16.0.0, SVG Export Plug-In . SVG Version: 6.00 Build 0)  -->
<!DOCTYPE svg PUBLIC "-//W3C//DTD SVG 1.1//EN" "http://www.w3.org/Graphics/SVG/1.1/DTD/svg11.dtd">
<svg version="1.1" id="Layer_1" xmlns="http://www.w3.org/2000/svg" xmlns:xlink="http://www.w3.org/1999/xlink" x="0px" y="0px"
	 width="213.75px" height="155px" viewBox="0 0 213.75 155" enable-background="new 0 0 213.75 155" xml:space="preserve">
<image overflow="visible" width="1024" height="640" xlink:href="53CFCB37A4121CC3.jpg"  transform="matrix(0.2093 0 0 -0.2552 0.0459 163.3447)">
</image>
<rect x="0.046" opacity="0.85" fill="#363636" fill-opacity="0.85" width="214.081" height="163.345"/>
<g>
	<polygon fill="#FFFFFF" points="214.127,163.345 0.046,163.345 0.046,91.713 155.103,91.781 214.127,91.713 	"/>
</g>
<g>
	<path fill="#FFFFFF" d="M19.619,14.988V13.27c0-0.304-0.062-0.518-0.216-0.7c-0.077-0.076-0.201-0.122-0.339-0.122
		c-0.293,0-0.432,0.213-0.494,0.411c-0.046,0.122-0.062,0.258-0.062,0.411v6.724c0,0.319,0.077,0.532,0.231,0.7
		c0.077,0.076,0.185,0.122,0.324,0.122c0.293,0,0.432-0.183,0.494-0.411c0.046-0.106,0.062-0.243,0.062-0.411V17.97h-0.663v-1.384
		h2.33v5.568h-0.987l-0.201-0.532c-0.309,0.38-0.756,0.654-1.296,0.654s-0.91-0.137-1.188-0.38
		c-0.277-0.228-0.463-0.517-0.586-0.821c-0.139-0.35-0.201-0.761-0.185-1.217V13.27c0.015-0.441,0.108-0.852,0.277-1.202
		c0.139-0.304,0.339-0.608,0.648-0.836c0.309-0.229,0.741-0.38,1.296-0.38s0.972,0.152,1.28,0.38
		c0.309,0.228,0.525,0.532,0.664,0.836c0.169,0.35,0.262,0.761,0.278,1.202v1.719H19.619z"/>
	<path fill="#FFFFFF" d="M22.504,10.972h3.81v1.689H24.17v2.936h1.542v1.795H24.17v3.073h2.144v1.688h-3.81V10.972z"/>
	<path fill="#FFFFFF" d="M26.654,12.661v-1.689h4.813v1.689h-1.573v9.493h-1.666v-9.493H26.654z"/>
	<path fill="#FFFFFF" d="M38.825,18.32v1.536c-0.016,0.457-0.108,0.867-0.278,1.217c-0.139,0.304-0.355,0.593-0.664,0.821
		c-0.309,0.244-0.725,0.38-1.28,0.38s-0.987-0.137-1.296-0.38c-0.309-0.228-0.509-0.517-0.648-0.821
		c-0.169-0.35-0.262-0.761-0.277-1.217V13.27c0.015-0.441,0.108-0.852,0.277-1.202c0.139-0.304,0.339-0.608,0.648-0.836
		c0.309-0.229,0.741-0.38,1.296-0.38s0.972,0.152,1.28,0.38c0.309,0.228,0.525,0.532,0.664,0.836
		c0.169,0.35,0.262,0.761,0.278,1.202v1.537h-1.558V13.27c0-0.304-0.077-0.518-0.247-0.7c-0.077-0.076-0.216-0.122-0.386-0.122
		c-0.293,0-0.432,0.213-0.509,0.411c-0.046,0.122-0.062,0.258-0.077,0.411v6.587c0.015,0.32,0.108,0.533,0.262,0.7
		c0.077,0.076,0.185,0.122,0.324,0.122c0.355,0,0.494-0.183,0.571-0.411c0.046-0.106,0.062-0.244,0.062-0.411V18.32H38.825z"/>
	<path fill="#FFFFFF" d="M44.163,19.856c-0.016,0.457-0.108,0.867-0.278,1.217c-0.139,0.304-0.355,0.593-0.664,0.821
		c-0.309,0.244-0.725,0.38-1.28,0.38s-0.987-0.137-1.296-0.38c-0.309-0.228-0.509-0.517-0.648-0.821
		c-0.169-0.35-0.262-0.761-0.277-1.217V13.27c0.015-0.441,0.108-0.852,0.277-1.202c0.139-0.304,0.339-0.608,0.648-0.836
		c0.309-0.229,0.741-0.38,1.296-0.38s0.972,0.152,1.28,0.38c0.309,0.228,0.525,0.532,0.664,0.836
		c0.169,0.35,0.262,0.761,0.278,1.202V19.856z M42.497,13.27c0-0.304-0.062-0.518-0.216-0.7c-0.077-0.076-0.201-0.122-0.339-0.122
		c-0.293,0-0.432,0.213-0.494,0.411c-0.046,0.122-0.062,0.258-0.062,0.411v6.587c0,0.32,0.077,0.533,0.231,0.7
		c0.077,0.076,0.185,0.122,0.324,0.122c0.293,0,0.432-0.183,0.494-0.411c0.046-0.106,0.062-0.244,0.062-0.411V13.27z"/>
	<path fill="#FFFFFF" d="M47.047,16.327l-0.139-0.517h-0.092v6.344h-1.527V10.972h1.481l1.62,5.827l0.139,0.517h0.093v-6.344h1.527
		v11.182h-1.481L47.047,16.327z"/>
	<path fill="#FFFFFF" d="M53.141,16.327l-0.139-0.517H52.91v6.344h-1.527V10.972h1.481l1.62,5.827l0.139,0.517h0.093v-6.344h1.527
		v11.182h-1.481L53.141,16.327z"/>
	<path fill="#FFFFFF" d="M57.476,10.972h3.81v1.689h-2.144v2.936h1.542v1.795h-1.542v3.073h2.144v1.688h-3.81V10.972z"/>
	<path fill="#FFFFFF" d="M66.546,18.32v1.536c-0.016,0.457-0.108,0.867-0.278,1.217c-0.139,0.304-0.355,0.593-0.664,0.821
		c-0.308,0.244-0.725,0.38-1.28,0.38s-0.987-0.137-1.296-0.38c-0.309-0.228-0.509-0.517-0.648-0.821
		c-0.169-0.35-0.262-0.761-0.277-1.217V13.27c0.015-0.441,0.108-0.852,0.277-1.202c0.139-0.304,0.339-0.608,0.648-0.836
		c0.309-0.229,0.741-0.38,1.296-0.38s0.972,0.152,1.28,0.38c0.309,0.228,0.525,0.532,0.664,0.836
		c0.169,0.35,0.262,0.761,0.278,1.202v1.537h-1.558V13.27c0-0.304-0.077-0.518-0.247-0.7c-0.077-0.076-0.216-0.122-0.386-0.122
		c-0.293,0-0.432,0.213-0.509,0.411c-0.046,0.122-0.062,0.258-0.077,0.411v6.587c0.015,0.32,0.108,0.533,0.262,0.7
		c0.077,0.076,0.185,0.122,0.324,0.122c0.355,0,0.494-0.183,0.571-0.411c0.046-0.106,0.062-0.244,0.062-0.411V18.32H66.546z"/>
	<path fill="#FFFFFF" d="M66.963,12.661v-1.689h4.813v1.689h-1.573v9.493h-1.666v-9.493H66.963z"/>
	<path fill="#FFFFFF" d="M72.424,10.972h3.81v1.689H74.09v2.936h1.542v1.795H74.09v3.073h2.144v1.688h-3.81V10.972z"/>
	<path fill="#FFFFFF" d="M77.16,22.154V10.972h1.311c1.543,0,2.376,0.304,2.823,1.156c0.432,0.852,0.494,2.251,0.494,4.442
		c0,2.19-0.062,3.575-0.494,4.427c-0.447,0.852-1.28,1.156-2.823,1.156H77.16z M78.826,20.511c0.571,0,0.895-0.061,1.064-0.608
		c0.077-0.259,0.139-0.654,0.154-1.187c0.015-0.533,0.015-1.248,0.015-2.16c0-0.913,0-1.628-0.015-2.161
		c-0.016-0.517-0.077-0.913-0.154-1.187c-0.17-0.532-0.494-0.593-1.064-0.593V20.511z"/>
	<path fill="#FFFFFF" d="M82.682,20.465h1.62v1.688h-1.62V20.465z"/>
</g>
<g>
	<path fill="#FFFFFF" d="M16.231,39.77v-3.787h0.374v3.787H16.231z"/>
	<path fill="#FFFFFF" d="M19.86,39.77h-0.368v-1.554c0-0.657-0.19-0.945-0.602-0.945c-0.438,0-0.894,0.336-1.035,0.796v1.704h-0.368
		v-2.782h0.336v0.63c0.228-0.406,0.699-0.678,1.197-0.678c0.634,0,0.84,0.47,0.84,1.202V39.77z"/>
	<path fill="#FFFFFF" d="M21.823,38.386c0-0.78,0.596-1.447,1.403-1.447s1.403,0.667,1.403,1.447c0,0.774-0.59,1.437-1.403,1.437
		C22.403,39.823,21.823,39.161,21.823,38.386z M23.221,39.502c0.563,0,1.029-0.502,1.029-1.122c0-0.619-0.466-1.122-1.024-1.122
		c-0.563,0-1.024,0.507-1.024,1.132C22.202,39.011,22.657,39.502,23.221,39.502z"/>
	<path fill="#FFFFFF" d="M26.636,37.308c-0.493,0.016-0.888,0.283-1.04,0.731v1.73h-0.368v-2.782h0.347v0.667
		c0.195-0.39,0.536-0.684,0.899-0.684c0.065,0,0.125,0,0.163,0.005V37.308z"/>
	<path fill="#FFFFFF" d="M26.819,38.386c0-0.785,0.542-1.447,1.289-1.447c0.477,0,0.856,0.283,1.073,0.63v-1.698h0.368V39.3
		c0,0.101,0.038,0.149,0.13,0.149v0.32c-0.06,0.011-0.108,0.016-0.146,0.016c-0.179,0-0.309-0.118-0.309-0.262V39.23
		c-0.228,0.363-0.639,0.593-1.051,0.593C27.388,39.823,26.819,39.134,26.819,38.386z M29.181,38.813v-0.86
		c-0.146-0.384-0.591-0.694-0.975-0.694c-0.607,0-1.008,0.556-1.008,1.127c0,0.604,0.46,1.116,1.051,1.116
		C28.623,39.502,29.121,39.193,29.181,38.813z"/>
	<path fill="#FFFFFF" d="M30.191,38.37c0-0.779,0.596-1.431,1.414-1.431c0.823,0,1.392,0.662,1.397,1.426
		c0,0.054-0.005,0.123-0.011,0.145h-2.411c0.043,0.598,0.499,1.036,1.04,1.036c0.374,0,0.737-0.203,0.867-0.502l0.32,0.086
		c-0.173,0.406-0.655,0.694-1.197,0.694C30.787,39.823,30.191,39.161,30.191,38.37z M32.65,38.231
		c-0.049-0.593-0.493-1.009-1.045-1.009c-0.552,0-0.997,0.422-1.035,1.009H32.65z"/>
	<path fill="#FFFFFF" d="M34.961,37.308c-0.493,0.016-0.888,0.283-1.04,0.731v1.73h-0.368v-2.782h0.347v0.667
		c0.195-0.39,0.536-0.684,0.899-0.684c0.065,0,0.125,0,0.163,0.005V37.308z"/>
	<path fill="#FFFFFF" d="M38.084,39.636c-0.086,0.037-0.335,0.166-0.639,0.166c-0.319,0-0.596-0.176-0.596-0.534v-1.992h-0.39
		v-0.288h0.39v-0.94h0.368v0.94h0.65v0.288h-0.65v1.891c0.017,0.203,0.163,0.299,0.341,0.299c0.206,0,0.385-0.096,0.428-0.123
		L38.084,39.636z"/>
	<path fill="#FFFFFF" d="M38.273,38.386c0-0.78,0.596-1.447,1.403-1.447s1.403,0.667,1.403,1.447c0,0.774-0.59,1.437-1.403,1.437
		C38.853,39.823,38.273,39.161,38.273,38.386z M39.67,39.502c0.563,0,1.029-0.502,1.029-1.122c0-0.619-0.466-1.122-1.024-1.122
		c-0.563,0-1.024,0.507-1.024,1.132C38.652,39.011,39.107,39.502,39.67,39.502z"/>
	<path fill="#FFFFFF" d="M42.825,39.406l0.168-0.246c0.314,0.256,0.639,0.385,1.013,0.385c0.45,0,0.748-0.192,0.748-0.523
		c0-0.31-0.282-0.396-0.851-0.529c-0.655-0.16-0.948-0.272-0.948-0.71c0-0.561,0.477-0.844,1.056-0.844
		c0.434,0,0.802,0.155,1.019,0.379l-0.179,0.213c-0.211-0.213-0.531-0.32-0.851-0.32c-0.385,0-0.693,0.155-0.693,0.518
		c0,0.293,0.201,0.358,0.704,0.475c0.726,0.171,1.1,0.31,1.1,0.785c0,0.507-0.433,0.833-1.1,0.833
		C43.572,39.823,43.128,39.679,42.825,39.406z"/>
	<path fill="#FFFFFF" d="M47.059,39.636c-0.086,0.037-0.335,0.166-0.639,0.166c-0.319,0-0.596-0.176-0.596-0.534v-1.992h-0.39
		v-0.288h0.39v-0.94h0.368v0.94h0.65v0.288h-0.65v1.891c0.017,0.203,0.163,0.299,0.341,0.299c0.206,0,0.385-0.096,0.428-0.123
		L47.059,39.636z"/>
	<path fill="#FFFFFF" d="M47.269,38.974c0-0.518,0.487-0.854,1.192-0.854c0.282,0,0.596,0.054,0.829,0.145v-0.251
		c0-0.492-0.309-0.801-0.791-0.801c-0.298,0-0.601,0.118-0.91,0.331l-0.13-0.24c0.363-0.24,0.704-0.363,1.078-0.363
		c0.683,0,1.121,0.417,1.121,1.105V39.3c0,0.101,0.038,0.149,0.13,0.149v0.32c-0.06,0.005-0.108,0.011-0.146,0.011
		c-0.146,0-0.287-0.085-0.298-0.256l-0.011-0.219c-0.244,0.326-0.688,0.518-1.094,0.518C47.659,39.823,47.269,39.433,47.269,38.974z
		 M49.197,39.155c0.049-0.064,0.092-0.144,0.092-0.208v-0.454c-0.244-0.091-0.52-0.144-0.774-0.144
		c-0.526,0-0.889,0.224-0.889,0.593c0,0.293,0.233,0.604,0.704,0.604C48.655,39.545,49.013,39.396,49.197,39.155z"/>
	<path fill="#FFFFFF" d="M50.528,40.629c0.032,0.005,0.07,0.011,0.108,0.011c0.07,0,0.167-0.016,0.206-0.032
		c0.076-0.032,0.141-0.133,0.428-0.838l-1.229-2.782h0.385l1.045,2.446l0.964-2.446h0.352l-1.468,3.589
		c-0.108,0.262-0.276,0.39-0.606,0.39c-0.07,0-0.13-0.005-0.184-0.016V40.629z"/>
	<path fill="#FFFFFF" d="M54.539,36.405v-0.534h0.368v0.534H54.539z M54.539,39.77v-2.782h0.368v2.782H54.539z"/>
	<path fill="#FFFFFF" d="M58.069,39.77h-0.368v-1.554c0-0.657-0.19-0.945-0.602-0.945c-0.438,0-0.894,0.336-1.035,0.796v1.704
		h-0.368v-2.782h0.336v0.63c0.228-0.406,0.699-0.678,1.197-0.678c0.634,0,0.84,0.47,0.84,1.202V39.77z"/>
	<path fill="#FFFFFF" d="M61.581,39.636c-0.086,0.037-0.335,0.166-0.639,0.166c-0.319,0-0.596-0.176-0.596-0.534v-1.992h-0.39
		v-0.288h0.39v-0.94h0.368v0.94h0.65v0.288h-0.65v1.891c0.017,0.203,0.163,0.299,0.341,0.299c0.206,0,0.385-0.096,0.428-0.123
		L61.581,39.636z"/>
	<path fill="#FFFFFF" d="M61.77,38.386c0-0.78,0.596-1.447,1.403-1.447s1.403,0.667,1.403,1.447c0,0.774-0.59,1.437-1.403,1.437
		C62.35,39.823,61.77,39.161,61.77,38.386z M63.167,39.502c0.563,0,1.029-0.502,1.029-1.122c0-0.619-0.466-1.122-1.024-1.122
		c-0.563,0-1.024,0.507-1.024,1.132C62.149,39.011,62.604,39.502,63.167,39.502z"/>
	<path fill="#FFFFFF" d="M65.147,38.621v-1.634h0.369v1.57c0,0.636,0.217,0.945,0.655,0.945c0.439,0,0.851-0.299,1.019-0.764v-1.751
		h0.368V39.3c0,0.101,0.043,0.149,0.135,0.149v0.32c-0.07,0.011-0.114,0.016-0.151,0.016c-0.168,0-0.303-0.112-0.303-0.262v-0.385
		c-0.25,0.433-0.699,0.684-1.192,0.684C65.456,39.823,65.147,39.412,65.147,38.621z"/>
	<path fill="#FFFFFF" d="M69.619,36.939c0.531,0,0.948,0.256,1.148,0.662l-0.357,0.112c-0.157-0.283-0.46-0.454-0.802-0.454
		c-0.574,0-1.024,0.476-1.024,1.111c0,0.63,0.466,1.132,1.029,1.132c0.357,0,0.737-0.219,0.823-0.475l0.357,0.106
		c-0.151,0.401-0.628,0.689-1.17,0.689c-0.818,0-1.419-0.662-1.419-1.453C68.206,37.58,68.785,36.939,69.619,36.939z"/>
	<path fill="#FFFFFF" d="M73.739,39.77h-0.368v-1.554c0-0.63-0.228-0.945-0.65-0.945c-0.417,0-0.856,0.342-0.986,0.796v1.704h-0.368
		v-3.898h0.368v1.746c0.228-0.417,0.656-0.678,1.11-0.678c0.65,0,0.894,0.486,0.894,1.202V39.77z"/>
	<path fill="#FFFFFF" d="M75.665,38.974c0-0.518,0.487-0.854,1.192-0.854c0.281,0,0.596,0.054,0.829,0.145v-0.251
		c0-0.492-0.309-0.801-0.791-0.801c-0.298,0-0.601,0.118-0.91,0.331l-0.13-0.24c0.363-0.24,0.704-0.363,1.078-0.363
		c0.683,0,1.121,0.417,1.121,1.105V39.3c0,0.101,0.038,0.149,0.13,0.149v0.32c-0.06,0.005-0.108,0.011-0.146,0.011
		c-0.146,0-0.287-0.085-0.298-0.256l-0.011-0.219c-0.244,0.326-0.688,0.518-1.094,0.518C76.055,39.823,75.665,39.433,75.665,38.974z
		 M77.593,39.155c0.049-0.064,0.092-0.144,0.092-0.208v-0.454c-0.244-0.091-0.52-0.144-0.774-0.144
		c-0.526,0-0.889,0.224-0.889,0.593c0,0.293,0.233,0.604,0.704,0.604C77.051,39.545,77.409,39.396,77.593,39.155z"/>
	<path fill="#FFFFFF" d="M81.225,39.77h-0.368v-1.554c0-0.657-0.19-0.945-0.602-0.945c-0.438,0-0.894,0.336-1.035,0.796v1.704
		h-0.368v-2.782h0.336v0.63c0.228-0.406,0.699-0.678,1.197-0.678c0.634,0,0.84,0.47,0.84,1.202V39.77z"/>
	<path fill="#FFFFFF" d="M81.803,38.386c0-0.785,0.542-1.447,1.289-1.447c0.477,0,0.856,0.283,1.073,0.63v-1.698h0.368V39.3
		c0,0.101,0.038,0.149,0.13,0.149v0.32c-0.06,0.011-0.108,0.016-0.146,0.016c-0.179,0-0.309-0.118-0.309-0.262V39.23
		c-0.228,0.363-0.639,0.593-1.051,0.593C82.371,39.823,81.803,39.134,81.803,38.386z M84.165,38.813v-0.86
		c-0.146-0.384-0.591-0.694-0.975-0.694c-0.607,0-1.008,0.556-1.008,1.127c0,0.604,0.46,1.116,1.051,1.116
		C83.606,39.502,84.104,39.193,84.165,38.813z"/>
	<path fill="#FFFFFF" d="M86.522,38.974c0-0.518,0.487-0.854,1.192-0.854c0.282,0,0.596,0.054,0.829,0.145v-0.251
		c0-0.492-0.309-0.801-0.791-0.801c-0.298,0-0.601,0.118-0.91,0.331l-0.13-0.24c0.363-0.24,0.704-0.363,1.078-0.363
		c0.683,0,1.121,0.417,1.121,1.105V39.3c0,0.101,0.038,0.149,0.13,0.149v0.32c-0.06,0.005-0.108,0.011-0.146,0.011
		c-0.146,0-0.287-0.085-0.298-0.256l-0.011-0.219c-0.244,0.326-0.688,0.518-1.094,0.518C86.913,39.823,86.522,39.433,86.522,38.974z
		 M88.451,39.155c0.049-0.064,0.092-0.144,0.092-0.208v-0.454c-0.244-0.091-0.52-0.144-0.774-0.144
		c-0.526,0-0.889,0.224-0.889,0.593c0,0.293,0.233,0.604,0.704,0.604C87.909,39.545,88.267,39.396,88.451,39.155z"/>
	<path fill="#FFFFFF" d="M92.083,39.77h-0.368v-1.554c0-0.657-0.19-0.945-0.602-0.945c-0.438,0-0.894,0.336-1.035,0.796v1.704
		h-0.368v-2.782h0.336v0.63c0.228-0.406,0.699-0.678,1.197-0.678c0.634,0,0.84,0.47,0.84,1.202V39.77z"/>
	<path fill="#FFFFFF" d="M92.606,39.406l0.168-0.246c0.314,0.256,0.639,0.385,1.013,0.385c0.45,0,0.748-0.192,0.748-0.523
		c0-0.31-0.282-0.396-0.851-0.529c-0.655-0.16-0.948-0.272-0.948-0.71c0-0.561,0.477-0.844,1.056-0.844
		c0.434,0,0.802,0.155,1.019,0.379l-0.179,0.213c-0.211-0.213-0.531-0.32-0.851-0.32c-0.385,0-0.693,0.155-0.693,0.518
		c0,0.293,0.201,0.358,0.704,0.475c0.726,0.171,1.1,0.31,1.1,0.785c0,0.507-0.433,0.833-1.1,0.833
		C93.354,39.823,92.91,39.679,92.606,39.406z"/>
	<path fill="#FFFFFF" d="M98.991,36.987h0.357l-1.208,2.782h-0.309l-0.602-1.42l-0.601,1.42H96.32l-1.208-2.782h0.352l1.029,2.408
		l0.536-1.271l-0.482-1.132h0.314L97.23,37.9l0.363-0.908h0.314l-0.477,1.132l0.536,1.271L98.991,36.987z"/>
	<path fill="#FFFFFF" d="M99.644,38.37c0-0.779,0.596-1.431,1.414-1.431c0.823,0,1.392,0.662,1.397,1.426
		c0,0.054-0.005,0.123-0.011,0.145h-2.411c0.043,0.598,0.499,1.036,1.04,1.036c0.374,0,0.737-0.203,0.867-0.502l0.32,0.086
		c-0.173,0.406-0.655,0.694-1.197,0.694C100.239,39.823,99.644,39.161,99.644,38.37z M102.103,38.231
		c-0.049-0.593-0.493-1.009-1.045-1.009c-0.552,0-0.997,0.422-1.035,1.009H102.103z"/>
	<path fill="#FFFFFF" d="M104.413,37.308c-0.493,0.016-0.888,0.283-1.04,0.731v1.73h-0.368v-2.782h0.347v0.667
		c0.195-0.39,0.536-0.684,0.899-0.684c0.065,0,0.125,0,0.163,0.005V37.308z"/>
	<path fill="#FFFFFF" d="M106.188,40.629c0.032,0.005,0.07,0.011,0.108,0.011c0.07,0,0.167-0.016,0.206-0.032
		c0.076-0.032,0.141-0.133,0.428-0.838l-1.229-2.782h0.385l1.045,2.446l0.964-2.446h0.352l-1.468,3.589
		c-0.108,0.262-0.276,0.39-0.606,0.39c-0.07,0-0.13-0.005-0.184-0.016V40.629z"/>
	<path fill="#FFFFFF" d="M108.666,38.386c0-0.78,0.596-1.447,1.403-1.447c0.807,0,1.403,0.667,1.403,1.447
		c0,0.774-0.591,1.437-1.403,1.437C109.246,39.823,108.666,39.161,108.666,38.386z M110.063,39.502c0.563,0,1.029-0.502,1.029-1.122
		c0-0.619-0.466-1.122-1.023-1.122c-0.563,0-1.023,0.507-1.023,1.132C109.046,39.011,109.501,39.502,110.063,39.502z"/>
	<path fill="#FFFFFF" d="M112.044,38.621v-1.634h0.368v1.57c0,0.636,0.217,0.945,0.656,0.945c0.438,0,0.85-0.299,1.018-0.764v-1.751
		h0.369V39.3c0,0.101,0.043,0.149,0.135,0.149v0.32c-0.07,0.011-0.113,0.016-0.151,0.016c-0.168,0-0.304-0.112-0.304-0.262v-0.385
		c-0.249,0.433-0.698,0.684-1.191,0.684C112.353,39.823,112.044,39.412,112.044,38.621z"/>
	<path fill="#FFFFFF" d="M116.695,37.308c-0.493,0.016-0.889,0.283-1.04,0.731v1.73h-0.368v-2.782h0.347v0.667
		c0.195-0.39,0.536-0.684,0.899-0.684c0.064,0,0.124,0,0.162,0.005V37.308z"/>
	<path fill="#FFFFFF" d="M118.269,38.381c0-0.774,0.591-1.442,1.344-1.442c0.438,0,0.834,0.251,1.051,0.593v-0.544h0.33v3.434
		c0,0.102,0.038,0.15,0.131,0.155v0.315c-0.049,0.011-0.108,0.016-0.157,0.016c-0.189,0-0.342-0.145-0.342-0.331v-1.383
		c-0.271,0.411-0.645,0.63-1.078,0.63C118.783,39.823,118.269,39.134,118.269,38.381z M120.625,38.846v-0.86
		c-0.06-0.385-0.536-0.727-0.937-0.727c-0.612,0-1.04,0.561-1.04,1.127c0,0.604,0.422,1.116,1.013,1.116
		C120.105,39.502,120.431,39.204,120.625,38.846z"/>
	<path fill="#FFFFFF" d="M121.755,38.621v-1.634h0.368v1.57c0,0.636,0.217,0.945,0.656,0.945c0.438,0,0.85-0.299,1.018-0.764v-1.751
		h0.369V39.3c0,0.101,0.043,0.149,0.135,0.149v0.32c-0.07,0.011-0.113,0.016-0.151,0.016c-0.168,0-0.304-0.112-0.304-0.262v-0.385
		c-0.249,0.433-0.698,0.684-1.191,0.684C122.063,39.823,121.755,39.412,121.755,38.621z"/>
	<path fill="#FFFFFF" d="M124.812,38.37c0-0.779,0.596-1.431,1.414-1.431c0.823,0,1.393,0.662,1.397,1.426
		c0,0.054-0.005,0.123-0.011,0.145h-2.41c0.043,0.598,0.498,1.036,1.04,1.036c0.373,0,0.736-0.203,0.866-0.502l0.319,0.086
		c-0.173,0.406-0.655,0.694-1.196,0.694C125.408,39.823,124.812,39.161,124.812,38.37z M127.272,38.231
		c-0.049-0.593-0.493-1.009-1.046-1.009s-0.997,0.422-1.034,1.009H127.272z"/>
	<path fill="#FFFFFF" d="M127.937,39.406l0.168-0.246c0.314,0.256,0.639,0.385,1.013,0.385c0.449,0,0.748-0.192,0.748-0.523
		c0-0.31-0.282-0.396-0.851-0.529c-0.655-0.16-0.948-0.272-0.948-0.71c0-0.561,0.477-0.844,1.057-0.844
		c0.433,0,0.802,0.155,1.018,0.379l-0.179,0.213c-0.211-0.213-0.53-0.32-0.85-0.32c-0.385,0-0.693,0.155-0.693,0.518
		c0,0.293,0.2,0.358,0.704,0.475c0.726,0.171,1.1,0.31,1.1,0.785c0,0.507-0.434,0.833-1.1,0.833
		C128.684,39.823,128.239,39.679,127.937,39.406z"/>
	<path fill="#FFFFFF" d="M132.171,39.636c-0.087,0.037-0.336,0.166-0.64,0.166c-0.319,0-0.596-0.176-0.596-0.534v-1.992h-0.39
		v-0.288h0.39v-0.94h0.368v0.94h0.65v0.288h-0.65v1.891c0.017,0.203,0.163,0.299,0.342,0.299c0.205,0,0.385-0.096,0.428-0.123
		L132.171,39.636z"/>
	<path fill="#FFFFFF" d="M132.603,36.405v-0.534h0.368v0.534H132.603z M132.603,39.77v-2.782h0.368v2.782H132.603z"/>
	<path fill="#FFFFFF" d="M133.576,38.386c0-0.78,0.596-1.447,1.403-1.447c0.807,0,1.403,0.667,1.403,1.447
		c0,0.774-0.591,1.437-1.403,1.437C134.156,39.823,133.576,39.161,133.576,38.386z M134.974,39.502c0.563,0,1.029-0.502,1.029-1.122
		c0-0.619-0.466-1.122-1.023-1.122c-0.563,0-1.023,0.507-1.023,1.132C133.956,39.011,134.411,39.502,134.974,39.502z"/>
	<path fill="#FFFFFF" d="M139.354,39.77h-0.368v-1.554c0-0.657-0.189-0.945-0.601-0.945c-0.439,0-0.895,0.336-1.035,0.796v1.704
		h-0.368v-2.782h0.336v0.63c0.228-0.406,0.698-0.678,1.197-0.678c0.634,0,0.839,0.47,0.839,1.202V39.77z"/>
	<path fill="#FFFFFF" d="M139.877,39.406l0.168-0.246c0.314,0.256,0.639,0.385,1.013,0.385c0.449,0,0.748-0.192,0.748-0.523
		c0-0.31-0.282-0.396-0.851-0.529c-0.655-0.16-0.948-0.272-0.948-0.71c0-0.561,0.477-0.844,1.057-0.844
		c0.433,0,0.802,0.155,1.018,0.379l-0.179,0.213c-0.211-0.213-0.53-0.32-0.85-0.32c-0.385,0-0.693,0.155-0.693,0.518
		c0,0.293,0.2,0.358,0.704,0.475c0.726,0.171,1.1,0.31,1.1,0.785c0,0.507-0.434,0.833-1.1,0.833
		C140.624,39.823,140.18,39.679,139.877,39.406z"/>
	<path fill="#FFFFFF" d="M142.653,39.85c0.049,0,0.114-0.021,0.114-0.112v-0.491h0.313v0.545c0,0.246-0.222,0.336-0.428,0.336V39.85
		z"/>
	<path fill="#FFFFFF" d="M148.67,36.987h0.357l-1.208,2.782h-0.309l-0.602-1.42l-0.602,1.42h-0.309l-1.208-2.782h0.353l1.029,2.408
		l0.536-1.271l-0.482-1.132h0.314l0.368,0.908l0.363-0.908h0.313l-0.477,1.132l0.537,1.271L148.67,36.987z"/>
	<path fill="#FFFFFF" d="M149.322,38.37c0-0.779,0.596-1.431,1.414-1.431c0.823,0,1.393,0.662,1.397,1.426
		c0,0.054-0.005,0.123-0.011,0.145h-2.41c0.043,0.598,0.498,1.036,1.04,1.036c0.373,0,0.736-0.203,0.866-0.502l0.319,0.086
		c-0.173,0.406-0.655,0.694-1.196,0.694C149.918,39.823,149.322,39.161,149.322,38.37z M151.782,38.231
		c-0.049-0.593-0.493-1.009-1.046-1.009s-0.997,0.422-1.034,1.009H151.782z"/>
	<path fill="#FFFFFF" d="M155.478,37.308c-0.493,0.016-0.889,0.283-1.04,0.731v1.73h-0.368v-2.782h0.347v0.667
		c0.195-0.39,0.536-0.684,0.899-0.684c0.064,0,0.124,0,0.162,0.005V37.308z"/>
	<path fill="#FFFFFF" d="M155.785,38.37c0-0.779,0.596-1.431,1.414-1.431c0.823,0,1.393,0.662,1.397,1.426
		c0,0.054-0.005,0.123-0.011,0.145h-2.41c0.043,0.598,0.498,1.036,1.04,1.036c0.373,0,0.736-0.203,0.866-0.502l0.319,0.086
		c-0.173,0.406-0.655,0.694-1.196,0.694C156.381,39.823,155.785,39.161,155.785,38.37z M158.245,38.231
		c-0.049-0.593-0.493-1.009-1.046-1.009s-0.997,0.422-1.034,1.009H158.245z"/>
	<path fill="#FFFFFF" d="M159.163,35.871h0.368v3.268c0,0.208,0.124,0.332,0.33,0.332c0.081,0,0.2-0.021,0.293-0.059l0.064,0.294
		c-0.135,0.053-0.362,0.096-0.509,0.096c-0.336,0-0.547-0.203-0.547-0.54V35.871z"/>
	<path fill="#FFFFFF" d="M160.651,40.629c0.033,0.005,0.07,0.011,0.108,0.011c0.07,0,0.168-0.016,0.206-0.032
		c0.076-0.032,0.141-0.133,0.428-0.838l-1.229-2.782h0.385l1.045,2.446l0.965-2.446h0.352l-1.468,3.589
		c-0.108,0.262-0.276,0.39-0.606,0.39c-0.07,0-0.13-0.005-0.185-0.016V40.629z"/>
	<path fill="#FFFFFF" d="M164.479,38.386c0-0.78,0.596-1.447,1.403-1.447c0.807,0,1.403,0.667,1.403,1.447
		c0,0.774-0.591,1.437-1.403,1.437C165.059,39.823,164.479,39.161,164.479,38.386z M165.876,39.502c0.563,0,1.029-0.502,1.029-1.122
		c0-0.619-0.466-1.122-1.023-1.122c-0.563,0-1.023,0.507-1.023,1.132C164.858,39.011,165.313,39.502,165.876,39.502z"/>
	<path fill="#FFFFFF" d="M170.255,39.77h-0.368v-1.554c0-0.657-0.189-0.945-0.601-0.945c-0.439,0-0.895,0.336-1.035,0.796v1.704
		h-0.368v-2.782h0.336v0.63c0.228-0.406,0.698-0.678,1.197-0.678c0.634,0,0.839,0.47,0.839,1.202V39.77z"/>
	<path fill="#FFFFFF" d="M172.182,38.974c0-0.518,0.487-0.854,1.191-0.854c0.281,0,0.596,0.054,0.828,0.145v-0.251
		c0-0.492-0.309-0.801-0.79-0.801c-0.298,0-0.602,0.118-0.91,0.331l-0.13-0.24c0.362-0.24,0.704-0.363,1.077-0.363
		c0.683,0,1.122,0.417,1.122,1.105V39.3c0,0.101,0.037,0.149,0.13,0.149v0.32c-0.06,0.005-0.108,0.011-0.146,0.011
		c-0.146,0-0.287-0.085-0.298-0.256l-0.011-0.219c-0.244,0.326-0.688,0.518-1.095,0.518
		C172.571,39.823,172.182,39.433,172.182,38.974z M174.109,39.155c0.049-0.064,0.092-0.144,0.092-0.208v-0.454
		c-0.243-0.091-0.52-0.144-0.774-0.144c-0.525,0-0.888,0.224-0.888,0.593c0,0.293,0.232,0.604,0.704,0.604
		C173.568,39.545,173.926,39.396,174.109,39.155z"/>
	<path fill="#FFFFFF" d="M177.741,39.77h-0.368v-1.554c0-0.657-0.189-0.945-0.601-0.945c-0.439,0-0.895,0.336-1.035,0.796v1.704
		h-0.368v-2.782h0.336v0.63c0.228-0.406,0.698-0.678,1.197-0.678c0.634,0,0.839,0.47,0.839,1.202V39.77z"/>
	<path fill="#FFFFFF" d="M179.704,38.386c0-0.78,0.596-1.447,1.403-1.447c0.807,0,1.403,0.667,1.403,1.447
		c0,0.774-0.591,1.437-1.403,1.437C180.284,39.823,179.704,39.161,179.704,38.386z M181.102,39.502c0.563,0,1.029-0.502,1.029-1.122
		c0-0.619-0.466-1.122-1.023-1.122c-0.563,0-1.023,0.507-1.023,1.132C180.084,39.011,180.539,39.502,181.102,39.502z"/>
	<path fill="#FFFFFF" d="M183.126,35.871h0.368v3.268c0,0.208,0.124,0.332,0.33,0.332c0.081,0,0.2-0.021,0.293-0.059l0.064,0.294
		c-0.135,0.053-0.362,0.096-0.509,0.096c-0.336,0-0.547-0.203-0.547-0.54V35.871z"/>
	<path fill="#FFFFFF" d="M184.349,38.386c0-0.785,0.542-1.447,1.289-1.447c0.478,0,0.856,0.283,1.073,0.63v-1.698h0.368V39.3
		c0,0.101,0.038,0.149,0.13,0.149v0.32c-0.06,0.011-0.108,0.016-0.146,0.016c-0.179,0-0.309-0.118-0.309-0.262V39.23
		c-0.228,0.363-0.639,0.593-1.051,0.593C184.918,39.823,184.349,39.134,184.349,38.386z M186.711,38.813v-0.86
		c-0.146-0.384-0.591-0.694-0.976-0.694c-0.606,0-1.007,0.556-1.007,1.127c0,0.604,0.46,1.116,1.051,1.116
		C186.152,39.502,186.651,39.193,186.711,38.813z"/>
	<path fill="#FFFFFF" d="M187.721,38.37c0-0.779,0.596-1.431,1.414-1.431c0.823,0,1.393,0.662,1.397,1.426
		c0,0.054-0.005,0.123-0.011,0.145h-2.41c0.043,0.598,0.498,1.036,1.04,1.036c0.373,0,0.736-0.203,0.866-0.502l0.319,0.086
		c-0.173,0.406-0.655,0.694-1.196,0.694C188.316,39.823,187.721,39.161,187.721,38.37z M190.181,38.231
		c-0.049-0.593-0.493-1.009-1.046-1.009s-0.997,0.422-1.034,1.009H190.181z"/>
	<path fill="#FFFFFF" d="M192.491,37.308c-0.493,0.016-0.889,0.283-1.04,0.731v1.73h-0.368v-2.782h0.347v0.667
		c0.195-0.39,0.536-0.684,0.899-0.684c0.064,0,0.124,0,0.162,0.005V37.308z"/>
	<path fill="#FFFFFF" d="M17.504,46.042c-0.086,0.037-0.335,0.166-0.639,0.166c-0.319,0-0.596-0.176-0.596-0.534v-1.992h-0.39
		v-0.288h0.39v-0.94h0.368v0.94h0.65v0.288h-0.65v1.891c0.017,0.203,0.163,0.299,0.341,0.299c0.206,0,0.385-0.096,0.428-0.123
		L17.504,46.042z"/>
	<path fill="#FFFFFF" d="M17.752,44.776c0-0.78,0.596-1.431,1.414-1.431c0.823,0,1.392,0.662,1.397,1.426
		c0,0.054-0.005,0.123-0.011,0.145h-2.411c0.043,0.598,0.499,1.036,1.04,1.036c0.374,0,0.737-0.203,0.867-0.502l0.32,0.085
		c-0.173,0.406-0.655,0.694-1.197,0.694C18.348,46.229,17.752,45.566,17.752,44.776z M20.211,44.637
		c-0.049-0.593-0.493-1.009-1.045-1.009c-0.552,0-0.997,0.422-1.035,1.009H20.211z"/>
	<path fill="#FFFFFF" d="M22.343,43.345c0.531,0,0.948,0.256,1.148,0.662l-0.357,0.112c-0.157-0.283-0.46-0.454-0.802-0.454
		c-0.574,0-1.024,0.476-1.024,1.111c0,0.63,0.466,1.132,1.029,1.132c0.357,0,0.737-0.219,0.823-0.475l0.357,0.106
		c-0.151,0.401-0.628,0.689-1.17,0.689c-0.818,0-1.419-0.662-1.419-1.453C20.93,43.986,21.509,43.345,22.343,43.345z"/>
	<path fill="#FFFFFF" d="M26.463,46.175h-0.368v-1.554c0-0.63-0.228-0.945-0.65-0.945c-0.417,0-0.856,0.342-0.986,0.796v1.704
		h-0.368v-3.898h0.368v1.746c0.228-0.417,0.656-0.678,1.11-0.678c0.65,0,0.894,0.486,0.894,1.202V46.175z"/>
	<path fill="#FFFFFF" d="M29.598,46.175h-0.368v-1.554c0-0.657-0.19-0.945-0.602-0.945c-0.438,0-0.894,0.336-1.035,0.796v1.704
		h-0.368v-2.782h0.336v0.63c0.228-0.406,0.699-0.678,1.197-0.678c0.634,0,0.84,0.47,0.84,1.202V46.175z"/>
	<path fill="#FFFFFF" d="M30.175,44.792c0-0.78,0.596-1.447,1.403-1.447s1.403,0.667,1.403,1.447c0,0.774-0.59,1.437-1.403,1.437
		C30.754,46.229,30.175,45.566,30.175,44.792z M31.572,45.908c0.563,0,1.029-0.502,1.029-1.122s-0.466-1.122-1.024-1.122
		c-0.563,0-1.024,0.507-1.024,1.132C30.554,45.417,31.009,45.908,31.572,45.908z"/>
	<path fill="#FFFFFF" d="M33.596,42.277h0.368v3.268c0,0.208,0.125,0.331,0.331,0.331c0.082,0,0.201-0.021,0.292-0.059l0.065,0.294
		c-0.135,0.053-0.363,0.096-0.509,0.096c-0.336,0-0.547-0.203-0.547-0.54V42.277z"/>
	<path fill="#FFFFFF" d="M34.819,44.792c0-0.78,0.596-1.447,1.403-1.447s1.403,0.667,1.403,1.447c0,0.774-0.59,1.437-1.403,1.437
		C35.399,46.229,34.819,45.566,34.819,44.792z M36.217,45.908c0.563,0,1.029-0.502,1.029-1.122s-0.466-1.122-1.024-1.122
		c-0.563,0-1.024,0.507-1.024,1.132C35.198,45.417,35.653,45.908,36.217,45.908z"/>
	<path fill="#FFFFFF" d="M38.045,44.792c0-0.774,0.536-1.447,1.311-1.447c0.482,0,0.834,0.272,1.083,0.63v-0.582h0.331v2.793
		c0,0.774-0.628,1.18-1.387,1.18c-0.645,0-1.013-0.246-1.262-0.63l0.228-0.176c0.222,0.353,0.618,0.518,1.035,0.518
		c0.552,0,1.019-0.293,1.019-0.892v-0.55c-0.222,0.353-0.628,0.577-1.035,0.577C38.592,46.213,38.045,45.524,38.045,44.792z
		 M40.402,45.219v-0.86c-0.163-0.4-0.574-0.694-0.98-0.694c-0.628,0-1.002,0.583-1.002,1.132c0,0.598,0.46,1.111,1.051,1.111
		C39.909,45.908,40.336,45.561,40.402,45.219z"/>
	<path fill="#FFFFFF" d="M41.721,47.035c0.032,0.005,0.07,0.011,0.108,0.011c0.07,0,0.167-0.016,0.206-0.032
		c0.076-0.032,0.141-0.133,0.428-0.838l-1.23-2.782h0.385l1.045,2.446l0.964-2.446h0.352l-1.468,3.589
		c-0.108,0.261-0.276,0.39-0.606,0.39c-0.07,0-0.13-0.005-0.184-0.016V47.035z"/>
	<path fill="#FFFFFF" d="M44.395,46.255c0.049,0,0.114-0.021,0.114-0.112v-0.491h0.314v0.545c0,0.246-0.222,0.336-0.428,0.336
		V46.255z"/>
	<path fill="#FFFFFF" d="M49.002,46.175l-1.04-1.426l-0.607,0.555v0.871h-0.368v-3.898h0.368v2.649l1.587-1.527h0.417l-1.154,1.137
		l1.197,1.64H49.002z"/>
	<path fill="#FFFFFF" d="M52.212,46.175h-0.368v-1.554c0-0.657-0.19-0.945-0.602-0.945c-0.438,0-0.894,0.336-1.035,0.796v1.704
		H49.84v-2.782h0.336v0.63c0.228-0.406,0.699-0.678,1.197-0.678c0.634,0,0.84,0.47,0.84,1.202V46.175z"/>
	<path fill="#FFFFFF" d="M52.79,44.792c0-0.78,0.596-1.447,1.403-1.447s1.403,0.667,1.403,1.447c0,0.774-0.59,1.437-1.403,1.437
		C53.369,46.229,52.79,45.566,52.79,44.792z M54.187,45.908c0.563,0,1.029-0.502,1.029-1.122s-0.466-1.122-1.024-1.122
		c-0.563,0-1.024,0.507-1.024,1.132C53.168,45.417,53.624,45.908,54.187,45.908z"/>
	<path fill="#FFFFFF" d="M59.662,43.393h0.357l-1.208,2.782h-0.309l-0.602-1.42l-0.601,1.42h-0.309l-1.208-2.782h0.352l1.029,2.408
		l0.537-1.271l-0.482-1.132h0.314l0.368,0.908l0.363-0.908h0.314l-0.477,1.132l0.536,1.271L59.662,43.393z"/>
	<path fill="#FFFFFF" d="M62.87,46.175h-0.368v-1.554c0-0.657-0.19-0.945-0.602-0.945c-0.438,0-0.894,0.336-1.035,0.796v1.704
		h-0.368v-2.782h0.336v0.63c0.228-0.406,0.699-0.678,1.197-0.678c0.634,0,0.84,0.47,0.84,1.202V46.175z"/>
	<path fill="#FFFFFF" d="M64.795,45.379c0-0.518,0.487-0.854,1.192-0.854c0.281,0,0.596,0.054,0.829,0.145v-0.251
		c0-0.492-0.309-0.801-0.791-0.801c-0.298,0-0.601,0.118-0.91,0.331l-0.13-0.24c0.363-0.24,0.704-0.363,1.078-0.363
		c0.683,0,1.121,0.417,1.121,1.105v1.255c0,0.102,0.038,0.15,0.13,0.15v0.32c-0.06,0.005-0.108,0.011-0.146,0.011
		c-0.146,0-0.287-0.085-0.298-0.256l-0.011-0.219c-0.244,0.326-0.688,0.518-1.094,0.518C65.186,46.229,64.795,45.839,64.795,45.379z
		 M66.724,45.561c0.049-0.064,0.092-0.144,0.092-0.208v-0.454c-0.244-0.091-0.52-0.144-0.774-0.144
		c-0.526,0-0.889,0.224-0.889,0.593c0,0.293,0.233,0.604,0.704,0.604C66.182,45.951,66.54,45.801,66.724,45.561z"/>
	<path fill="#FFFFFF" d="M67.745,45.812l0.168-0.246c0.314,0.256,0.639,0.385,1.013,0.385c0.45,0,0.748-0.192,0.748-0.523
		c0-0.31-0.282-0.396-0.851-0.529c-0.655-0.16-0.948-0.272-0.948-0.71c0-0.561,0.477-0.844,1.056-0.844
		c0.434,0,0.802,0.155,1.019,0.379l-0.179,0.213c-0.211-0.213-0.531-0.32-0.851-0.32c-0.385,0-0.693,0.155-0.693,0.518
		c0,0.293,0.201,0.358,0.704,0.475c0.726,0.171,1.1,0.31,1.1,0.785c0,0.507-0.433,0.833-1.1,0.833
		C68.493,46.229,68.048,46.084,67.745,45.812z"/>
	<path fill="#FFFFFF" d="M72.374,45.599v1.714h-0.368v-3.92h0.331v0.539c0.228-0.347,0.623-0.587,1.051-0.587
		c0.78,0,1.343,0.7,1.343,1.442c0,0.785-0.52,1.442-1.278,1.442C72.975,46.229,72.596,45.957,72.374,45.599z M74.351,44.787
		c0-0.598-0.46-1.122-1.051-1.122c-0.368,0-0.867,0.315-0.926,0.689v0.854c0.168,0.396,0.553,0.7,0.975,0.7
		C73.956,45.908,74.351,45.353,74.351,44.787z"/>
	<path fill="#FFFFFF" d="M75.112,45.379c0-0.518,0.487-0.854,1.192-0.854c0.282,0,0.596,0.054,0.829,0.145v-0.251
		c0-0.492-0.309-0.801-0.791-0.801c-0.298,0-0.601,0.118-0.91,0.331l-0.13-0.24c0.363-0.24,0.704-0.363,1.078-0.363
		c0.683,0,1.121,0.417,1.121,1.105v1.255c0,0.102,0.038,0.15,0.13,0.15v0.32c-0.06,0.005-0.108,0.011-0.146,0.011
		c-0.146,0-0.287-0.085-0.298-0.256l-0.011-0.219c-0.244,0.326-0.688,0.518-1.094,0.518C75.502,46.229,75.112,45.839,75.112,45.379z
		 M77.041,45.561c0.049-0.064,0.092-0.144,0.092-0.208v-0.454c-0.244-0.091-0.52-0.144-0.774-0.144
		c-0.526,0-0.889,0.224-0.889,0.593c0,0.293,0.233,0.604,0.704,0.604C76.499,45.951,76.856,45.801,77.041,45.561z"/>
	<path fill="#FFFFFF" d="M78.668,45.599v1.714H78.3v-3.92h0.331v0.539c0.228-0.347,0.623-0.587,1.051-0.587
		c0.78,0,1.343,0.7,1.343,1.442c0,0.785-0.52,1.442-1.278,1.442C79.27,46.229,78.891,45.957,78.668,45.599z M80.646,44.787
		c0-0.598-0.46-1.122-1.051-1.122c-0.368,0-0.867,0.315-0.926,0.689v0.854c0.168,0.396,0.553,0.7,0.975,0.7
		C80.25,45.908,80.646,45.353,80.646,44.787z"/>
	<path fill="#FFFFFF" d="M81.445,44.776c0-0.78,0.596-1.431,1.414-1.431c0.823,0,1.392,0.662,1.397,1.426
		c0,0.054-0.005,0.123-0.011,0.145h-2.411c0.043,0.598,0.499,1.036,1.04,1.036c0.374,0,0.737-0.203,0.867-0.502l0.32,0.085
		c-0.173,0.406-0.655,0.694-1.197,0.694C82.041,46.229,81.445,45.566,81.445,44.776z M83.904,44.637
		c-0.049-0.593-0.493-1.009-1.045-1.009c-0.552,0-0.997,0.422-1.035,1.009H83.904z"/>
	<path fill="#FFFFFF" d="M86.215,43.713c-0.493,0.016-0.888,0.283-1.04,0.731v1.73h-0.368v-2.782h0.347v0.667
		c0.195-0.39,0.536-0.684,0.899-0.684c0.065,0,0.125,0,0.163,0.005V43.713z"/>
	<path fill="#FFFFFF" d="M87.751,45.379c0-0.518,0.487-0.854,1.192-0.854c0.282,0,0.596,0.054,0.829,0.145v-0.251
		c0-0.492-0.309-0.801-0.791-0.801c-0.298,0-0.601,0.118-0.91,0.331l-0.13-0.24c0.363-0.24,0.704-0.363,1.078-0.363
		c0.683,0,1.121,0.417,1.121,1.105v1.255c0,0.102,0.038,0.15,0.13,0.15v0.32c-0.06,0.005-0.108,0.011-0.146,0.011
		c-0.146,0-0.287-0.085-0.298-0.256l-0.011-0.219c-0.244,0.326-0.688,0.518-1.094,0.518C88.141,46.229,87.751,45.839,87.751,45.379z
		 M89.679,45.561c0.049-0.064,0.092-0.144,0.092-0.208v-0.454c-0.244-0.091-0.52-0.144-0.774-0.144
		c-0.526,0-0.889,0.224-0.889,0.593c0,0.293,0.233,0.604,0.704,0.604C89.138,45.951,89.495,45.801,89.679,45.561z"/>
	<path fill="#FFFFFF" d="M93.312,46.175h-0.368v-1.554c0-0.657-0.19-0.945-0.602-0.945c-0.438,0-0.894,0.336-1.035,0.796v1.704
		h-0.368v-2.782h0.336v0.63c0.228-0.406,0.699-0.678,1.197-0.678c0.634,0,0.84,0.47,0.84,1.202V46.175z"/>
	<path fill="#FFFFFF" d="M93.89,44.792c0-0.785,0.542-1.447,1.289-1.447c0.477,0,0.856,0.283,1.073,0.63v-1.698h0.368v3.428
		c0,0.102,0.038,0.15,0.13,0.15v0.32c-0.06,0.011-0.108,0.016-0.146,0.016c-0.179,0-0.309-0.118-0.309-0.262v-0.294
		c-0.228,0.363-0.639,0.593-1.051,0.593C94.458,46.229,93.89,45.54,93.89,44.792z M96.251,45.219v-0.86
		c-0.146-0.384-0.591-0.694-0.975-0.694c-0.607,0-1.008,0.556-1.008,1.127c0,0.604,0.46,1.116,1.051,1.116
		C95.693,45.908,96.191,45.599,96.251,45.219z"/>
	<path fill="#FFFFFF" d="M99.2,45.599v1.714h-0.368v-3.92h0.331v0.539c0.228-0.347,0.623-0.587,1.051-0.587
		c0.78,0,1.343,0.7,1.343,1.442c0,0.785-0.52,1.442-1.278,1.442C99.801,46.229,99.422,45.957,99.2,45.599z M101.177,44.787
		c0-0.598-0.46-1.122-1.051-1.122c-0.368,0-0.867,0.315-0.926,0.689v0.854c0.168,0.396,0.553,0.7,0.975,0.7
		C100.782,45.908,101.177,45.353,101.177,44.787z"/>
	<path fill="#FFFFFF" d="M101.976,44.776c0-0.78,0.596-1.431,1.414-1.431c0.823,0,1.392,0.662,1.397,1.426
		c0,0.054-0.005,0.123-0.011,0.145h-2.411c0.043,0.598,0.499,1.036,1.04,1.036c0.374,0,0.737-0.203,0.867-0.502l0.32,0.085
		c-0.173,0.406-0.655,0.694-1.197,0.694C102.572,46.229,101.976,45.566,101.976,44.776z M104.435,44.637
		c-0.049-0.593-0.493-1.009-1.045-1.009c-0.552,0-0.997,0.422-1.035,1.009H104.435z"/>
	<path fill="#FFFFFF" d="M107.71,46.175h-0.368v-1.554c0-0.657-0.19-0.945-0.602-0.945c-0.438,0-0.894,0.336-1.035,0.796v1.704
		h-0.368v-2.782h0.336v0.63c0.228-0.406,0.699-0.678,1.197-0.678c0.634,0,0.84,0.47,0.84,1.202V46.175z"/>
	<path fill="#FFFFFF" d="M108.434,46.175v-0.523h0.314v0.523H108.434z"/>
	<path fill="#FFFFFF" d="M113.562,42.715h-1.37v3.46h-0.379v-3.46h-1.371v-0.332h3.12V42.715z"/>
	<path fill="#FFFFFF" d="M116.43,46.175h-0.368v-1.554c0-0.63-0.228-0.945-0.649-0.945c-0.417,0-0.856,0.342-0.986,0.796v1.704
		h-0.368v-3.898h0.368v1.746c0.228-0.417,0.655-0.678,1.11-0.678c0.65,0,0.894,0.486,0.894,1.202V46.175z"/>
	<path fill="#FFFFFF" d="M116.969,45.379c0-0.518,0.488-0.854,1.192-0.854c0.281,0,0.596,0.054,0.828,0.145v-0.251
		c0-0.492-0.309-0.801-0.79-0.801c-0.298,0-0.602,0.118-0.91,0.331l-0.13-0.24c0.362-0.24,0.704-0.363,1.077-0.363
		c0.683,0,1.122,0.417,1.122,1.105v1.255c0,0.102,0.038,0.15,0.13,0.15v0.32c-0.06,0.005-0.108,0.011-0.146,0.011
		c-0.146,0-0.287-0.085-0.298-0.256l-0.011-0.219c-0.244,0.326-0.688,0.518-1.095,0.518
		C117.359,46.229,116.969,45.839,116.969,45.379z M118.897,45.561c0.049-0.064,0.092-0.144,0.092-0.208v-0.454
		c-0.243-0.091-0.52-0.144-0.774-0.144c-0.525,0-0.888,0.224-0.888,0.593c0,0.293,0.232,0.604,0.704,0.604
		C118.355,45.951,118.714,45.801,118.897,45.561z"/>
	<path fill="#FFFFFF" d="M121.485,46.042c-0.087,0.037-0.336,0.166-0.64,0.166c-0.319,0-0.596-0.176-0.596-0.534v-1.992h-0.39
		v-0.288h0.39v-0.94h0.368v0.94h0.65v0.288h-0.65v1.891c0.017,0.203,0.163,0.299,0.342,0.299c0.205,0,0.385-0.096,0.428-0.123
		L121.485,46.042z"/>
	<path fill="#FFFFFF" d="M121.738,42.95v-0.598h0.325v0.598H121.738z"/>
	<path fill="#FFFFFF" d="M122.496,45.812l0.168-0.246c0.314,0.256,0.639,0.385,1.013,0.385c0.449,0,0.748-0.192,0.748-0.523
		c0-0.31-0.282-0.396-0.851-0.529c-0.655-0.16-0.948-0.272-0.948-0.71c0-0.561,0.477-0.844,1.057-0.844
		c0.433,0,0.802,0.155,1.018,0.379l-0.179,0.213c-0.211-0.213-0.53-0.32-0.85-0.32c-0.385,0-0.693,0.155-0.693,0.518
		c0,0.293,0.2,0.358,0.704,0.475c0.726,0.171,1.1,0.31,1.1,0.785c0,0.507-0.434,0.833-1.1,0.833
		C123.243,46.229,122.799,46.084,122.496,45.812z"/>
	<path fill="#FFFFFF" d="M130.18,43.393h0.357l-1.208,2.782h-0.309l-0.602-1.42l-0.602,1.42h-0.309l-1.208-2.782h0.353l1.029,2.408
		l0.536-1.271l-0.482-1.132h0.314l0.368,0.908l0.363-0.908h0.313l-0.477,1.132l0.537,1.271L130.18,43.393z"/>
	<path fill="#FFFFFF" d="M133.389,46.175h-0.368v-1.554c0-0.63-0.228-0.945-0.649-0.945c-0.417,0-0.856,0.342-0.986,0.796v1.704
		h-0.368v-3.898h0.368v1.746c0.228-0.417,0.655-0.678,1.11-0.678c0.65,0,0.894,0.486,0.894,1.202V46.175z"/>
	<path fill="#FFFFFF" d="M133.928,45.379c0-0.518,0.488-0.854,1.192-0.854c0.281,0,0.596,0.054,0.828,0.145v-0.251
		c0-0.492-0.309-0.801-0.79-0.801c-0.298,0-0.602,0.118-0.91,0.331l-0.13-0.24c0.362-0.24,0.704-0.363,1.077-0.363
		c0.683,0,1.122,0.417,1.122,1.105v1.255c0,0.102,0.038,0.15,0.13,0.15v0.32c-0.06,0.005-0.108,0.011-0.146,0.011
		c-0.146,0-0.287-0.085-0.298-0.256l-0.011-0.219c-0.244,0.326-0.688,0.518-1.095,0.518
		C134.318,46.229,133.928,45.839,133.928,45.379z M135.856,45.561c0.049-0.064,0.092-0.144,0.092-0.208v-0.454
		c-0.243-0.091-0.52-0.144-0.774-0.144c-0.525,0-0.888,0.224-0.888,0.593c0,0.293,0.232,0.604,0.704,0.604
		C135.314,45.951,135.673,45.801,135.856,45.561z"/>
	<path fill="#FFFFFF" d="M138.444,46.042c-0.087,0.037-0.336,0.166-0.64,0.166c-0.319,0-0.596-0.176-0.596-0.534v-1.992h-0.39
		v-0.288h0.39v-0.94h0.368v0.94h0.65v0.288h-0.65v1.891c0.017,0.203,0.163,0.299,0.342,0.299c0.205,0,0.385-0.096,0.428-0.123
		L138.444,46.042z"/>
	<path fill="#FFFFFF" d="M141.627,46.042c-0.087,0.037-0.336,0.166-0.64,0.166c-0.319,0-0.596-0.176-0.596-0.534v-1.992h-0.39
		v-0.288h0.39v-0.94h0.368v0.94h0.65v0.288h-0.65v1.891c0.017,0.203,0.163,0.299,0.342,0.299c0.205,0,0.385-0.096,0.428-0.123
		L141.627,46.042z"/>
	<path fill="#FFFFFF" d="M144.431,46.175h-0.368v-1.554c0-0.63-0.228-0.945-0.649-0.945c-0.417,0-0.856,0.342-0.986,0.796v1.704
		h-0.368v-3.898h0.368v1.746c0.228-0.417,0.655-0.678,1.11-0.678c0.65,0,0.894,0.486,0.894,1.202V46.175z"/>
	<path fill="#FFFFFF" d="M145.192,42.811v-0.534h0.368v0.534H145.192z M145.192,46.175v-2.782h0.368v2.782H145.192z"/>
	<path fill="#FFFFFF" d="M146.112,45.812l0.168-0.246c0.314,0.256,0.639,0.385,1.013,0.385c0.449,0,0.748-0.192,0.748-0.523
		c0-0.31-0.282-0.396-0.851-0.529c-0.655-0.16-0.948-0.272-0.948-0.71c0-0.561,0.477-0.844,1.057-0.844
		c0.433,0,0.802,0.155,1.018,0.379l-0.179,0.213c-0.211-0.213-0.53-0.32-0.85-0.32c-0.385,0-0.693,0.155-0.693,0.518
		c0,0.293,0.2,0.358,0.704,0.475c0.726,0.171,1.1,0.31,1.1,0.785c0,0.507-0.434,0.833-1.1,0.833
		C146.859,46.229,146.415,46.084,146.112,45.812z"/>
	<path fill="#0091D0" d="M153.248,45.625c-0.357,0.385-0.769,0.577-1.229,0.577c-1.034,0-1.798-0.967-1.798-1.928
		c0-1.015,0.747-1.917,1.776-1.917c0.759,0,1.219,0.342,1.468,0.828l-0.292,0.192c-0.249-0.47-0.672-0.684-1.182-0.684
		c-0.855,0-1.392,0.78-1.392,1.586c0,0.854,0.628,1.586,1.446,1.586c0.438,0,0.834-0.198,1.202-0.63V44.6h-0.851v-0.288h1.176v1.864
		h-0.325V45.625z"/>
	<path fill="#0091D0" d="M154.096,44.776c0-0.78,0.596-1.431,1.414-1.431c0.823,0,1.393,0.662,1.397,1.426
		c0,0.054-0.005,0.123-0.011,0.145h-2.41c0.043,0.598,0.498,1.036,1.04,1.036c0.373,0,0.736-0.203,0.866-0.502l0.319,0.085
		c-0.173,0.406-0.655,0.694-1.196,0.694C154.691,46.229,154.096,45.566,154.096,44.776z M156.556,44.637
		c-0.049-0.593-0.493-1.009-1.046-1.009s-0.997,0.422-1.034,1.009H156.556z"/>
	<path fill="#0091D0" d="M158.796,46.042c-0.087,0.037-0.336,0.166-0.64,0.166c-0.319,0-0.596-0.176-0.596-0.534v-1.992h-0.39
		v-0.288h0.39v-0.94h0.368v0.94h0.65v0.288h-0.65v1.891c0.017,0.203,0.163,0.299,0.342,0.299c0.205,0,0.385-0.096,0.428-0.123
		L158.796,46.042z"/>
	<path fill="#0091D0" d="M162.281,42.362c0.683,0,1.182,0.342,1.42,0.828l-0.304,0.182c-0.244-0.502-0.721-0.673-1.138-0.673
		c-0.921,0-1.425,0.812-1.425,1.575c0,0.838,0.623,1.597,1.441,1.597c0.434,0,0.942-0.214,1.187-0.705l0.313,0.16
		c-0.249,0.566-0.932,0.881-1.521,0.881c-1.057,0-1.799-0.994-1.799-1.955C160.456,43.339,161.122,42.362,162.281,42.362z"/>
	<path fill="#0091D0" d="M164.147,44.792c0-0.78,0.596-1.447,1.403-1.447c0.807,0,1.403,0.667,1.403,1.447
		c0,0.774-0.591,1.437-1.403,1.437C164.728,46.229,164.147,45.566,164.147,44.792z M165.545,45.908c0.563,0,1.029-0.502,1.029-1.122
		s-0.466-1.122-1.023-1.122c-0.563,0-1.023,0.507-1.023,1.132C164.527,45.417,164.982,45.908,165.545,45.908z"/>
	<path fill="#0091D0" d="M169.925,46.175h-0.368v-1.554c0-0.657-0.189-0.945-0.601-0.945c-0.439,0-0.895,0.336-1.035,0.796v1.704
		h-0.368v-2.782h0.336v0.63c0.228-0.406,0.698-0.678,1.197-0.678c0.634,0,0.839,0.47,0.839,1.202V46.175z"/>
	<path fill="#0091D0" d="M173.059,46.175h-0.368v-1.554c0-0.657-0.189-0.945-0.601-0.945c-0.439,0-0.895,0.336-1.035,0.796v1.704
		h-0.368v-2.782h0.336v0.63c0.228-0.406,0.698-0.678,1.197-0.678c0.634,0,0.839,0.47,0.839,1.202V46.175z"/>
	<path fill="#0091D0" d="M173.637,44.776c0-0.78,0.596-1.431,1.414-1.431c0.823,0,1.393,0.662,1.397,1.426
		c0,0.054-0.005,0.123-0.011,0.145h-2.41c0.043,0.598,0.498,1.036,1.04,1.036c0.373,0,0.736-0.203,0.866-0.502l0.319,0.085
		c-0.173,0.406-0.655,0.694-1.196,0.694C174.232,46.229,173.637,45.566,173.637,44.776z M176.097,44.637
		c-0.049-0.593-0.493-1.009-1.046-1.009s-0.997,0.422-1.034,1.009H176.097z"/>
	<path fill="#0091D0" d="M178.228,43.345c0.531,0,0.948,0.256,1.148,0.662l-0.357,0.112c-0.157-0.283-0.461-0.454-0.802-0.454
		c-0.574,0-1.023,0.476-1.023,1.111c0,0.63,0.466,1.132,1.029,1.132c0.357,0,0.736-0.219,0.823-0.475l0.357,0.106
		c-0.152,0.401-0.629,0.689-1.17,0.689c-0.818,0-1.42-0.662-1.42-1.453C176.813,43.986,177.394,43.345,178.228,43.345z"/>
	<path fill="#0091D0" d="M181.341,46.042c-0.087,0.037-0.336,0.166-0.64,0.166c-0.319,0-0.596-0.176-0.596-0.534v-1.992h-0.39
		v-0.288h0.39v-0.94h0.368v0.94h0.65v0.288h-0.65v1.891c0.017,0.203,0.163,0.299,0.342,0.299c0.205,0,0.385-0.096,0.428-0.123
		L181.341,46.042z"/>
	<path fill="#0091D0" d="M181.588,44.776c0-0.78,0.596-1.431,1.414-1.431c0.823,0,1.393,0.662,1.397,1.426
		c0,0.054-0.005,0.123-0.011,0.145h-2.41c0.043,0.598,0.498,1.036,1.04,1.036c0.373,0,0.736-0.203,0.866-0.502l0.319,0.085
		c-0.173,0.406-0.655,0.694-1.196,0.694C182.184,46.229,181.588,45.566,181.588,44.776z M184.048,44.637
		c-0.049-0.593-0.493-1.009-1.046-1.009s-0.997,0.422-1.034,1.009H184.048z"/>
	<path fill="#0091D0" d="M184.765,44.792c0-0.785,0.542-1.447,1.289-1.447c0.478,0,0.856,0.283,1.073,0.63v-1.698h0.368v3.428
		c0,0.102,0.038,0.15,0.13,0.15v0.32c-0.06,0.011-0.108,0.016-0.146,0.016c-0.179,0-0.309-0.118-0.309-0.262v-0.294
		c-0.228,0.363-0.639,0.593-1.051,0.593C185.334,46.229,184.765,45.54,184.765,44.792z M187.127,45.219v-0.86
		c-0.146-0.384-0.591-0.694-0.976-0.694c-0.606,0-1.007,0.556-1.007,1.127c0,0.604,0.46,1.116,1.051,1.116
		C186.568,45.908,187.067,45.599,187.127,45.219z"/>
	<path fill="#FFFFFF" d="M190.937,43.345c0.531,0,0.948,0.256,1.148,0.662l-0.357,0.112c-0.157-0.283-0.461-0.454-0.802-0.454
		c-0.574,0-1.023,0.476-1.023,1.111c0,0.63,0.466,1.132,1.029,1.132c0.357,0,0.736-0.219,0.823-0.475l0.357,0.106
		c-0.152,0.401-0.629,0.689-1.17,0.689c-0.818,0-1.42-0.662-1.42-1.453C189.522,43.986,190.103,43.345,190.937,43.345z"/>
	<path fill="#FFFFFF" d="M192.463,45.379c0-0.518,0.487-0.854,1.191-0.854c0.281,0,0.596,0.054,0.828,0.145v-0.251
		c0-0.492-0.309-0.801-0.79-0.801c-0.298,0-0.602,0.118-0.91,0.331l-0.13-0.24c0.362-0.24,0.704-0.363,1.077-0.363
		c0.683,0,1.122,0.417,1.122,1.105v1.255c0,0.102,0.037,0.15,0.13,0.15v0.32c-0.06,0.005-0.108,0.011-0.146,0.011
		c-0.146,0-0.287-0.085-0.298-0.256l-0.011-0.219c-0.244,0.326-0.688,0.518-1.095,0.518
		C192.853,46.229,192.463,45.839,192.463,45.379z M194.391,45.561c0.049-0.064,0.092-0.144,0.092-0.208v-0.454
		c-0.243-0.091-0.52-0.144-0.774-0.144c-0.525,0-0.888,0.224-0.888,0.593c0,0.293,0.232,0.604,0.704,0.604
		C193.85,45.951,194.207,45.801,194.391,45.561z"/>
	<path fill="#FFFFFF" d="M197.059,43.713c-0.493,0.016-0.889,0.283-1.04,0.731v1.73h-0.368v-2.782h0.347v0.667
		c0.195-0.39,0.536-0.684,0.899-0.684c0.064,0,0.124,0,0.162,0.005V43.713z"/>
	<path fill="#FFFFFF" d="M197.241,44.792c0-0.785,0.542-1.447,1.289-1.447c0.478,0,0.856,0.283,1.073,0.63v-1.698h0.368v3.428
		c0,0.102,0.038,0.15,0.13,0.15v0.32c-0.06,0.011-0.108,0.016-0.146,0.016c-0.179,0-0.309-0.118-0.309-0.262v-0.294
		c-0.228,0.363-0.639,0.593-1.051,0.593C197.811,46.229,197.241,45.54,197.241,44.792z M199.604,45.219v-0.86
		c-0.146-0.384-0.591-0.694-0.976-0.694c-0.606,0-1.007,0.556-1.007,1.127c0,0.604,0.46,1.116,1.051,1.116
		C199.045,45.908,199.544,45.599,199.604,45.219z"/>
	<path fill="#FFFFFF" d="M16.14,49.216v-0.534h0.368v0.534H16.14z M16.14,52.581v-2.782h0.368v2.782H16.14z"/>
	<path fill="#FFFFFF" d="M17.06,52.218l0.168-0.246c0.314,0.256,0.639,0.385,1.013,0.385c0.45,0,0.748-0.192,0.748-0.523
		c0-0.31-0.282-0.396-0.851-0.529c-0.655-0.16-0.948-0.272-0.948-0.71c0-0.561,0.477-0.844,1.056-0.844
		c0.434,0,0.802,0.155,1.019,0.379l-0.179,0.213c-0.211-0.213-0.531-0.32-0.851-0.32c-0.385,0-0.693,0.155-0.693,0.518
		c0,0.293,0.201,0.358,0.704,0.475c0.726,0.171,1.1,0.31,1.1,0.785c0,0.507-0.433,0.833-1.1,0.833
		C17.807,52.634,17.363,52.49,17.06,52.218z"/>
	<path fill="#FFFFFF" d="M21.471,52.581v-2.168h-0.39v-0.288h0.39v-0.401c0-0.678,0.32-1.095,0.834-1.095
		c0.217,0,0.438,0.069,0.59,0.176l-0.114,0.262c-0.098-0.075-0.26-0.123-0.406-0.123c-0.347,0-0.536,0.272-0.536,0.769v0.411h0.78
		v0.288h-0.78v2.168H21.471z"/>
	<path fill="#FFFFFF" d="M22.965,51.198c0-0.78,0.596-1.447,1.403-1.447s1.403,0.667,1.403,1.447c0,0.774-0.59,1.437-1.403,1.437
		C23.545,52.634,22.965,51.972,22.965,51.198z M24.363,52.314c0.563,0,1.029-0.502,1.029-1.122c0-0.619-0.466-1.122-1.024-1.122
		c-0.563,0-1.024,0.507-1.024,1.132C23.344,51.823,23.799,52.314,24.363,52.314z"/>
	<path fill="#FFFFFF" d="M27.778,50.119c-0.493,0.016-0.888,0.283-1.04,0.731v1.73H26.37v-2.782h0.347v0.667
		c0.195-0.39,0.536-0.684,0.899-0.684c0.065,0,0.125,0,0.163,0.005V50.119z"/>
	<path fill="#FFFFFF" d="M27.972,52.581v-0.523h0.314v0.523H27.972z"/>
	<path fill="#FFFFFF" d="M30.511,52.581v-3.792h1.593c0.661,0,1.138,0.604,1.138,1.191c0,0.62-0.444,1.202-1.105,1.202h-1.251v1.399
		H30.511z M30.885,50.851h1.229c0.455,0,0.748-0.411,0.748-0.871c0-0.475-0.357-0.86-0.78-0.86h-1.197V50.851z"/>
	<path fill="#FFFFFF" d="M33.796,48.683h0.369v3.268c0,0.208,0.125,0.332,0.33,0.332c0.082,0,0.201-0.021,0.292-0.059l0.065,0.294
		c-0.135,0.053-0.363,0.096-0.509,0.096c-0.336,0-0.547-0.203-0.547-0.54V48.683z"/>
	<path fill="#FFFFFF" d="M35.025,51.182c0-0.779,0.596-1.431,1.414-1.431c0.823,0,1.392,0.662,1.397,1.426
		c0,0.054-0.005,0.123-0.011,0.145h-2.411c0.043,0.598,0.499,1.036,1.04,1.036c0.374,0,0.737-0.203,0.867-0.502l0.32,0.086
		c-0.173,0.406-0.655,0.694-1.197,0.694C35.621,52.634,35.025,51.972,35.025,51.182z M37.484,51.043
		c-0.049-0.593-0.493-1.009-1.045-1.009c-0.552,0-0.997,0.422-1.035,1.009H37.484z"/>
	<path fill="#FFFFFF" d="M38.164,51.785c0-0.518,0.487-0.854,1.192-0.854c0.282,0,0.596,0.054,0.829,0.145v-0.251
		c0-0.492-0.309-0.801-0.791-0.801c-0.298,0-0.601,0.118-0.91,0.331l-0.13-0.24c0.363-0.24,0.704-0.363,1.078-0.363
		c0.683,0,1.121,0.417,1.121,1.105v1.255c0,0.101,0.038,0.149,0.13,0.149v0.32c-0.06,0.005-0.108,0.011-0.146,0.011
		c-0.146,0-0.287-0.085-0.298-0.256l-0.011-0.219c-0.244,0.326-0.688,0.518-1.094,0.518C38.554,52.634,38.164,52.245,38.164,51.785z
		 M40.092,51.967c0.049-0.064,0.092-0.144,0.092-0.208v-0.454c-0.244-0.091-0.52-0.144-0.774-0.144
		c-0.526,0-0.889,0.224-0.889,0.593c0,0.293,0.233,0.604,0.704,0.604C39.551,52.357,39.908,52.207,40.092,51.967z"/>
	<path fill="#FFFFFF" d="M41.114,52.218l0.168-0.246c0.314,0.256,0.639,0.385,1.013,0.385c0.45,0,0.748-0.192,0.748-0.523
		c0-0.31-0.282-0.396-0.851-0.529c-0.655-0.16-0.948-0.272-0.948-0.71c0-0.561,0.477-0.844,1.056-0.844
		c0.434,0,0.802,0.155,1.019,0.379l-0.179,0.213c-0.211-0.213-0.531-0.32-0.851-0.32c-0.385,0-0.693,0.155-0.693,0.518
		c0,0.293,0.201,0.358,0.704,0.475c0.726,0.171,1.1,0.31,1.1,0.785c0,0.507-0.433,0.833-1.1,0.833
		C41.862,52.634,41.417,52.49,41.114,52.218z"/>
	<path fill="#FFFFFF" d="M43.805,51.182c0-0.779,0.596-1.431,1.414-1.431c0.823,0,1.392,0.662,1.397,1.426
		c0,0.054-0.005,0.123-0.011,0.145h-2.411c0.043,0.598,0.499,1.036,1.04,1.036c0.374,0,0.737-0.203,0.867-0.502l0.32,0.086
		c-0.173,0.406-0.655,0.694-1.197,0.694C44.4,52.634,43.805,51.972,43.805,51.182z M46.264,51.043
		c-0.049-0.593-0.493-1.009-1.045-1.009c-0.552,0-0.997,0.422-1.035,1.009H46.264z"/>
	<path fill="#FFFFFF" d="M48.703,50.413h-0.39v-0.288h0.39v-0.401c0-0.518,0.304-1.095,0.997-1.095c0.401,0,0.693,0.16,0.818,0.251
		l-0.168,0.262c-0.119-0.106-0.363-0.192-0.628-0.192c-0.46,0-0.65,0.401-0.65,0.764v0.411h1.414v2.457h-0.368v-2.168h-1.045v2.168
		h-0.369V50.413z"/>
	<path fill="#FFFFFF" d="M51.291,48.683h0.369v3.268c0,0.208,0.125,0.332,0.33,0.332c0.082,0,0.201-0.021,0.292-0.059l0.065,0.294
		c-0.135,0.053-0.363,0.096-0.509,0.096c-0.336,0-0.547-0.203-0.547-0.54V48.683z"/>
	<path fill="#FFFFFF" d="M52.719,48.683h0.369v3.268c0,0.208,0.125,0.332,0.33,0.332c0.082,0,0.201-0.021,0.292-0.059l0.065,0.294
		c-0.135,0.053-0.363,0.096-0.509,0.096c-0.336,0-0.547-0.203-0.547-0.54V48.683z"/>
	<path fill="#FFFFFF" d="M55.182,51.198c0-0.78,0.596-1.447,1.403-1.447s1.403,0.667,1.403,1.447c0,0.774-0.59,1.437-1.403,1.437
		C55.762,52.634,55.182,51.972,55.182,51.198z M56.58,52.314c0.563,0,1.029-0.502,1.029-1.122c0-0.619-0.466-1.122-1.024-1.122
		c-0.563,0-1.024,0.507-1.024,1.132C55.561,51.823,56.016,52.314,56.58,52.314z"/>
	<path fill="#FFFFFF" d="M60.959,52.581h-0.368v-1.554c0-0.657-0.19-0.945-0.602-0.945c-0.438,0-0.894,0.336-1.035,0.796v1.704
		h-0.368v-2.782h0.336v0.63c0.228-0.406,0.699-0.678,1.197-0.678c0.634,0,0.84,0.47,0.84,1.202V52.581z"/>
	<path fill="#FFFFFF" d="M61.537,51.182c0-0.779,0.596-1.431,1.414-1.431c0.823,0,1.392,0.662,1.397,1.426
		c0,0.054-0.005,0.123-0.011,0.145h-2.411c0.043,0.598,0.499,1.036,1.04,1.036c0.374,0,0.737-0.203,0.867-0.502l0.32,0.086
		c-0.173,0.406-0.655,0.694-1.197,0.694C62.132,52.634,61.537,51.972,61.537,51.182z M63.996,51.043
		c-0.049-0.593-0.493-1.009-1.045-1.009c-0.552,0-0.997,0.422-1.035,1.009H63.996z"/>
	<path fill="#FFFFFF" d="M66.1,51.198c0-0.78,0.596-1.447,1.403-1.447s1.403,0.667,1.403,1.447c0,0.774-0.59,1.437-1.403,1.437
		C66.68,52.634,66.1,51.972,66.1,51.198z M67.498,52.314c0.563,0,1.029-0.502,1.029-1.122c0-0.619-0.466-1.122-1.024-1.122
		c-0.563,0-1.024,0.507-1.024,1.132C66.479,51.823,66.934,52.314,67.498,52.314z"/>
	<path fill="#FFFFFF" d="M69.477,51.433v-1.634h0.369v1.57c0,0.636,0.217,0.945,0.655,0.945c0.439,0,0.851-0.299,1.019-0.764v-1.751
		h0.368v2.312c0,0.101,0.043,0.149,0.135,0.149v0.32c-0.07,0.011-0.114,0.016-0.151,0.016c-0.168,0-0.303-0.112-0.303-0.262v-0.385
		c-0.25,0.433-0.699,0.684-1.192,0.684C69.786,52.634,69.477,52.223,69.477,51.433z"/>
	<path fill="#FFFFFF" d="M74.079,52.448c-0.086,0.037-0.335,0.166-0.639,0.166c-0.319,0-0.596-0.176-0.596-0.534v-1.992h-0.39
		v-0.288h0.39v-0.94h0.368v0.94h0.65v0.288h-0.65v1.891c0.017,0.203,0.163,0.299,0.341,0.299c0.206,0,0.385-0.096,0.428-0.123
		L74.079,52.448z"/>
	<path fill="#FFFFFF" d="M75.675,51.785c0-0.518,0.487-0.854,1.192-0.854c0.282,0,0.596,0.054,0.829,0.145v-0.251
		c0-0.492-0.309-0.801-0.791-0.801c-0.298,0-0.601,0.118-0.91,0.331l-0.13-0.24c0.363-0.24,0.704-0.363,1.078-0.363
		c0.683,0,1.121,0.417,1.121,1.105v1.255c0,0.101,0.038,0.149,0.13,0.149v0.32c-0.06,0.005-0.108,0.011-0.146,0.011
		c-0.146,0-0.287-0.085-0.298-0.256l-0.011-0.219c-0.244,0.326-0.688,0.518-1.094,0.518C76.065,52.634,75.675,52.245,75.675,51.785z
		 M77.603,51.967c0.049-0.064,0.092-0.144,0.092-0.208v-0.454c-0.244-0.091-0.52-0.144-0.774-0.144
		c-0.526,0-0.889,0.224-0.889,0.593c0,0.293,0.233,0.604,0.704,0.604C77.062,52.357,77.419,52.207,77.603,51.967z"/>
	<path fill="#FFFFFF" d="M81.236,52.581h-0.368v-1.554c0-0.657-0.19-0.945-0.602-0.945c-0.438,0-0.894,0.336-1.035,0.796v1.704
		h-0.368v-2.782h0.336v0.63c0.228-0.406,0.699-0.678,1.197-0.678c0.634,0,0.84,0.47,0.84,1.202V52.581z"/>
	<path fill="#FFFFFF" d="M81.813,51.198c0-0.785,0.542-1.447,1.289-1.447c0.477,0,0.856,0.283,1.073,0.63v-1.698h0.368v3.429
		c0,0.101,0.038,0.149,0.13,0.149v0.32c-0.06,0.011-0.108,0.016-0.146,0.016c-0.179,0-0.309-0.118-0.309-0.262v-0.294
		c-0.228,0.363-0.639,0.593-1.051,0.593C82.382,52.634,81.813,51.945,81.813,51.198z M84.175,51.625v-0.86
		c-0.146-0.384-0.591-0.694-0.975-0.694c-0.607,0-1.008,0.556-1.008,1.127c0,0.604,0.46,1.116,1.051,1.116
		C83.617,52.314,84.115,52.004,84.175,51.625z"/>
	<path fill="#FFFFFF" d="M86.577,51.198c0-0.774,0.536-1.447,1.311-1.447c0.482,0,0.834,0.272,1.083,0.63v-0.582h0.331v2.793
		c0,0.774-0.628,1.18-1.387,1.18c-0.645,0-1.013-0.246-1.262-0.63l0.228-0.176c0.222,0.352,0.618,0.518,1.035,0.518
		c0.552,0,1.019-0.293,1.019-0.892v-0.55c-0.222,0.353-0.628,0.577-1.035,0.577C87.124,52.619,86.577,51.93,86.577,51.198z
		 M88.933,51.625v-0.86c-0.163-0.4-0.574-0.694-0.98-0.694c-0.628,0-1.002,0.583-1.002,1.132c0,0.598,0.46,1.111,1.051,1.111
		C88.44,52.314,88.868,51.967,88.933,51.625z"/>
	<path fill="#FFFFFF" d="M90.089,49.216v-0.534h0.368v0.534H90.089z M90.089,52.581v-2.782h0.368v2.782H90.089z"/>
	<path fill="#FFFFFF" d="M92.093,52.581l-1.148-2.782h0.384l0.97,2.446l0.975-2.446h0.357l-1.148,2.782H92.093z"/>
	<path fill="#FFFFFF" d="M93.933,51.182c0-0.779,0.596-1.431,1.414-1.431c0.823,0,1.392,0.662,1.397,1.426
		c0,0.054-0.005,0.123-0.011,0.145h-2.411c0.043,0.598,0.499,1.036,1.04,1.036c0.374,0,0.737-0.203,0.867-0.502l0.32,0.086
		c-0.173,0.406-0.655,0.694-1.197,0.694C94.528,52.634,93.933,51.972,93.933,51.182z M96.392,51.043
		c-0.049-0.593-0.493-1.009-1.045-1.009c-0.552,0-0.997,0.422-1.035,1.009H96.392z"/>
	<path fill="#FFFFFF" d="M98.68,49.216v-0.534h0.368v0.534H98.68z M98.68,52.581v-2.782h0.368v2.782H98.68z"/>
	<path fill="#FFFFFF" d="M101.203,52.448c-0.086,0.037-0.335,0.166-0.639,0.166c-0.319,0-0.596-0.176-0.596-0.534v-1.992h-0.39
		v-0.288h0.39v-0.94h0.368v0.94h0.65v0.288h-0.65v1.891c0.017,0.203,0.163,0.299,0.341,0.299c0.206,0,0.385-0.096,0.428-0.123
		L101.203,52.448z"/>
	<path fill="#FFFFFF" d="M104.385,52.448c-0.086,0.037-0.335,0.166-0.639,0.166c-0.319,0-0.596-0.176-0.596-0.534v-1.992h-0.39
		v-0.288h0.39v-0.94h0.368v0.94h0.65v0.288h-0.65v1.891c0.017,0.203,0.163,0.299,0.341,0.299c0.206,0,0.385-0.096,0.428-0.123
		L104.385,52.448z"/>
	<path fill="#FFFFFF" d="M104.574,51.198c0-0.78,0.596-1.447,1.403-1.447s1.403,0.667,1.403,1.447c0,0.774-0.59,1.437-1.403,1.437
		C105.154,52.634,104.574,51.972,104.574,51.198z M105.972,52.314c0.563,0,1.029-0.502,1.029-1.122c0-0.619-0.466-1.122-1.024-1.122
		c-0.563,0-1.024,0.507-1.024,1.132C104.953,51.823,105.408,52.314,105.972,52.314z"/>
	<path fill="#FFFFFF" d="M110.729,52.448c-0.087,0.037-0.336,0.166-0.64,0.166c-0.319,0-0.596-0.176-0.596-0.534v-1.992h-0.39
		v-0.288h0.39v-0.94h0.368v0.94h0.65v0.288h-0.65v1.891c0.017,0.203,0.163,0.299,0.342,0.299c0.205,0,0.385-0.096,0.428-0.123
		L110.729,52.448z"/>
	<path fill="#FFFFFF" d="M113.533,52.581h-0.368v-1.554c0-0.63-0.228-0.945-0.649-0.945c-0.417,0-0.856,0.342-0.986,0.796v1.704
		h-0.368v-3.898h0.368v1.746c0.228-0.417,0.655-0.678,1.11-0.678c0.65,0,0.894,0.486,0.894,1.202V52.581z"/>
	<path fill="#FFFFFF" d="M114.111,51.182c0-0.779,0.596-1.431,1.414-1.431c0.823,0,1.393,0.662,1.397,1.426
		c0,0.054-0.005,0.123-0.011,0.145h-2.41c0.043,0.598,0.498,1.036,1.04,1.036c0.373,0,0.736-0.203,0.866-0.502l0.319,0.086
		c-0.173,0.406-0.655,0.694-1.196,0.694C114.707,52.634,114.111,51.972,114.111,51.182z M116.571,51.043
		c-0.049-0.593-0.493-1.009-1.046-1.009s-0.997,0.422-1.034,1.009H116.571z"/>
	<path fill="#FFFFFF" d="M120.76,52.581h-1.81v-3.792h1.848c0.541,0,0.877,0.492,0.877,0.967c0,0.379-0.205,0.727-0.552,0.881
		c0.438,0.128,0.715,0.507,0.715,0.966C121.838,52.17,121.35,52.581,120.76,52.581z M119.324,49.115v1.399h1.321
		c0.38,0,0.661-0.331,0.661-0.7c0-0.384-0.266-0.699-0.628-0.699H119.324z M120.798,50.819h-1.474v1.437h1.436
		c0.396,0,0.698-0.342,0.698-0.716C121.458,51.166,121.177,50.819,120.798,50.819z"/>
	<path fill="#FFFFFF" d="M122.475,49.216v-0.534h0.368v0.534H122.475z M122.475,52.581v-2.782h0.368v2.782H122.475z"/>
	<path fill="#FFFFFF" d="M123.963,52.042v0.54h-0.33v-3.898h0.368v1.698c0.255-0.374,0.606-0.63,1.078-0.63
		c0.785,0,1.278,0.721,1.278,1.447c0,0.78-0.585,1.437-1.344,1.437C124.575,52.634,124.175,52.389,123.963,52.042z M125.979,51.198
		c0-0.582-0.412-1.127-1.002-1.127c-0.444,0-0.797,0.321-0.976,0.694v0.865c0.06,0.385,0.558,0.684,0.927,0.684
		C125.545,52.314,125.979,51.77,125.979,51.198z"/>
	<path fill="#FFFFFF" d="M126.983,48.683h0.368v3.268c0,0.208,0.124,0.332,0.33,0.332c0.081,0,0.2-0.021,0.293-0.059l0.064,0.294
		c-0.135,0.053-0.362,0.096-0.509,0.096c-0.336,0-0.547-0.203-0.547-0.54V48.683z"/>
	<path fill="#FFFFFF" d="M128.211,51.182c0-0.779,0.596-1.431,1.414-1.431c0.823,0,1.393,0.662,1.397,1.426
		c0,0.054-0.005,0.123-0.011,0.145h-2.41c0.043,0.598,0.498,1.036,1.04,1.036c0.373,0,0.736-0.203,0.866-0.502l0.319,0.086
		c-0.173,0.406-0.655,0.694-1.196,0.694C128.807,52.634,128.211,51.972,128.211,51.182z M130.671,51.043
		c-0.049-0.593-0.493-1.009-1.046-1.009s-0.997,0.422-1.034,1.009H130.671z"/>
	<path fill="#FFFFFF" d="M135.31,49.5c-0.217-0.24-0.596-0.406-1.051-0.406c-0.683,0-0.98,0.272-0.98,0.705
		c0,0.448,0.331,0.566,1.072,0.726c0.818,0.171,1.327,0.385,1.327,1.063c0,0.699-0.579,1.025-1.381,1.025
		c-0.602,0-1.121-0.187-1.544-0.55l0.185-0.304c0.281,0.288,0.779,0.523,1.365,0.523c0.611,0,0.98-0.219,0.98-0.657
		c0-0.464-0.396-0.614-1.165-0.785c-0.802-0.182-1.225-0.374-1.225-0.988c0-0.705,0.563-1.089,1.371-1.089
		c0.504,0,0.904,0.16,1.224,0.438L135.31,49.5z"/>
	<path fill="#FFFFFF" d="M137.577,52.448c-0.087,0.037-0.336,0.166-0.64,0.166c-0.319,0-0.596-0.176-0.596-0.534v-1.992h-0.39
		v-0.288h0.39v-0.94h0.368v0.94h0.65v0.288h-0.65v1.891c0.017,0.203,0.163,0.299,0.342,0.299c0.205,0,0.385-0.096,0.428-0.123
		L137.577,52.448z"/>
	<path fill="#FFFFFF" d="M137.981,51.433v-1.634h0.368v1.57c0,0.636,0.217,0.945,0.656,0.945c0.438,0,0.85-0.299,1.018-0.764v-1.751
		h0.369v2.312c0,0.101,0.043,0.149,0.135,0.149v0.32c-0.07,0.011-0.113,0.016-0.151,0.016c-0.168,0-0.304-0.112-0.304-0.262v-0.385
		c-0.249,0.433-0.698,0.684-1.191,0.684C138.29,52.634,137.981,52.223,137.981,51.433z"/>
	<path fill="#FFFFFF" d="M141.04,51.198c0-0.785,0.542-1.447,1.289-1.447c0.478,0,0.856,0.283,1.073,0.63v-1.698h0.368v3.429
		c0,0.101,0.038,0.149,0.13,0.149v0.32c-0.06,0.011-0.108,0.016-0.146,0.016c-0.179,0-0.309-0.118-0.309-0.262v-0.294
		c-0.228,0.363-0.639,0.593-1.051,0.593C141.609,52.634,141.04,51.945,141.04,51.198z M143.402,51.625v-0.86
		c-0.146-0.384-0.591-0.694-0.976-0.694c-0.606,0-1.007,0.556-1.007,1.127c0,0.604,0.46,1.116,1.051,1.116
		C142.844,52.314,143.343,52.004,143.402,51.625z"/>
	<path fill="#FFFFFF" d="M144.753,53.441c0.033,0.005,0.07,0.011,0.108,0.011c0.07,0,0.168-0.016,0.206-0.032
		c0.076-0.032,0.141-0.133,0.428-0.838l-1.229-2.782h0.385l1.045,2.446l0.965-2.446h0.352l-1.468,3.589
		c-0.108,0.262-0.276,0.39-0.606,0.39c-0.07,0-0.13-0.005-0.185-0.016V53.441z"/>
	<path fill="#FFFFFF" d="M148.781,48.683h0.368v3.268c0,0.208,0.124,0.332,0.33,0.332c0.081,0,0.2-0.021,0.293-0.059l0.064,0.294
		c-0.135,0.053-0.362,0.096-0.509,0.096c-0.336,0-0.547-0.203-0.547-0.54V48.683z"/>
	<path fill="#FFFFFF" d="M150.009,51.182c0-0.779,0.596-1.431,1.414-1.431c0.823,0,1.393,0.662,1.397,1.426
		c0,0.054-0.005,0.123-0.011,0.145h-2.41c0.043,0.598,0.498,1.036,1.04,1.036c0.373,0,0.736-0.203,0.866-0.502l0.319,0.086
		c-0.173,0.406-0.655,0.694-1.196,0.694C150.604,52.634,150.009,51.972,150.009,51.182z M152.469,51.043
		c-0.049-0.593-0.493-1.009-1.046-1.009s-0.997,0.422-1.034,1.009H152.469z"/>
	<path fill="#FFFFFF" d="M153.148,51.785c0-0.518,0.488-0.854,1.192-0.854c0.281,0,0.596,0.054,0.828,0.145v-0.251
		c0-0.492-0.309-0.801-0.79-0.801c-0.298,0-0.602,0.118-0.91,0.331l-0.13-0.24c0.362-0.24,0.704-0.363,1.077-0.363
		c0.683,0,1.122,0.417,1.122,1.105v1.255c0,0.101,0.038,0.149,0.13,0.149v0.32c-0.06,0.005-0.108,0.011-0.146,0.011
		c-0.146,0-0.287-0.085-0.298-0.256l-0.011-0.219c-0.244,0.326-0.688,0.518-1.095,0.518
		C153.539,52.634,153.148,52.245,153.148,51.785z M155.077,51.967c0.049-0.064,0.092-0.144,0.092-0.208v-0.454
		c-0.243-0.091-0.52-0.144-0.774-0.144c-0.525,0-0.888,0.224-0.888,0.593c0,0.293,0.232,0.604,0.704,0.604
		C154.535,52.357,154.894,52.207,155.077,51.967z"/>
	<path fill="#FFFFFF" d="M156.152,51.198c0-0.785,0.542-1.447,1.289-1.447c0.478,0,0.856,0.283,1.073,0.63v-1.698h0.368v3.429
		c0,0.101,0.038,0.149,0.13,0.149v0.32c-0.06,0.011-0.108,0.016-0.146,0.016c-0.179,0-0.309-0.118-0.309-0.262v-0.294
		c-0.228,0.363-0.639,0.593-1.051,0.593C156.722,52.634,156.152,51.945,156.152,51.198z M158.515,51.625v-0.86
		c-0.146-0.384-0.591-0.694-0.976-0.694c-0.606,0-1.007,0.556-1.007,1.127c0,0.604,0.46,1.116,1.051,1.116
		C157.956,52.314,158.455,52.004,158.515,51.625z"/>
	<path fill="#FFFFFF" d="M159.524,51.182c0-0.779,0.596-1.431,1.414-1.431c0.823,0,1.393,0.662,1.397,1.426
		c0,0.054-0.005,0.123-0.011,0.145h-2.41c0.043,0.598,0.498,1.036,1.04,1.036c0.373,0,0.736-0.203,0.866-0.502l0.319,0.086
		c-0.173,0.406-0.655,0.694-1.196,0.694C160.12,52.634,159.524,51.972,159.524,51.182z M161.984,51.043
		c-0.049-0.593-0.493-1.009-1.046-1.009s-0.997,0.422-1.034,1.009H161.984z"/>
	<path fill="#FFFFFF" d="M164.295,50.119c-0.493,0.016-0.889,0.283-1.04,0.731v1.73h-0.368v-2.782h0.347v0.667
		c0.195-0.39,0.536-0.684,0.899-0.684c0.064,0,0.124,0,0.162,0.005V50.119z"/>
	<path fill="#FFFFFF" d="M164.488,52.581v-0.523h0.314v0.523H164.488z"/>
</g>
<g>
	<polygon fill="#FFFFFF" points="0,91.729 0.175,83.373 0.955,83.375 0.961,81.044 5.728,81.058 5.734,79.072 8.681,79.081 
		8.674,81.326 10.32,81.331 10.329,79.086 12.061,79.092 12.076,74.169 12.856,74.172 12.859,73.05 14.766,73.055 14.763,74.179 
		15.543,74.18 15.529,78.497 16.223,78.499 16.212,82.169 17.772,82.174 17.792,75.568 18.833,75.571 18.848,70.477 19.541,70.48 
		19.552,67.199 20.071,67.2 20.079,64.696 20.6,64.698 20.609,62.021 21.389,62.023 21.379,64.615 21.986,64.616 21.979,66.688 
		22.498,66.69 22.486,70.662 23.18,70.664 23.162,75.844 23.942,75.847 23.92,83.272 25.219,83.277 25.226,81.549 27.999,81.559 
		27.997,82.422 29.037,82.425 29.055,76.381 29.835,76.383 29.842,74.224 32.268,74.232 32.262,76.304 32.801,76.846 32.79,80.364 
		33.723,80.367 33.727,79.244 36.152,79.252 36.149,80.461 37.622,80.466 37.618,81.588 39.178,81.593 39.183,80.039 40.309,80.042 
		40.32,76.719 46.646,76.737 46.635,80.062 47.762,80.065 47.773,76.741 53.146,76.758 53.141,78.096 54.613,78.1 54.598,83.023 
		56.68,83.029 56.692,78.797 63.711,78.819 63.703,81.064 64.743,81.067 64.735,83.916 65.427,83.92 65.423,85.646 68.456,85.656 
		68.473,80.476 71.418,80.484 71.413,82.21 72.454,82.213 72.459,80.488 75.926,80.497 75.915,83.607 76.607,83.608 76.601,85.681 
		78.249,85.686 78.259,82.146 81.986,82.156 81.988,81.295 82.77,81.296 82.772,80.26 83.553,80.264 83.549,81.125 84.416,81.128 
		84.42,80.092 86.413,80.099 86.41,81.048 87.276,81.052 87.267,83.814 88.913,83.819 88.926,80.021 92.219,80.031 92.214,81.152 
		93.601,81.156 93.617,76.408 94.663,74.511 94.669,72.439 95.104,72.44 95.096,74.599 96.304,76.329 96.28,83.841 97.753,83.846 
		97.799,69.599 102.218,69.613 102.176,82.824 103.042,82.827 103.05,80.582 104.958,80.588 104.953,81.968 108.938,81.98 
		108.933,83.709 112.052,83.719 112.062,81.042 113.708,81.047 113.702,82.601 114.916,82.604 114.92,81.654 116.652,81.66 
		116.657,80.536 118.735,80.543 118.726,83.48 120.286,83.484 120.303,77.786 121.348,76.406 122.817,77.88 122.808,80.471 
		124.541,80.476 124.534,82.807 126.701,82.812 126.709,80.223 128.182,80.228 128.187,79.104 130.18,79.111 130.177,79.888 
		131.563,79.893 131.566,78.684 136.679,78.7 136.667,82.76 137.1,82.76 137.103,81.896 139.097,81.902 139.08,86.824 
		140.553,86.828 140.557,85.188 141.166,85.189 141.182,80.009 143.176,80.016 143.152,87.354 144.192,87.357 144.188,88.825 
		146.268,88.832 146.271,87.623 150.605,87.636 150.631,79.435 154.009,79.444 153.983,87.819 160.917,87.841 160.901,92.072 	"/>
</g>
<g>
	<polygon fill="#FFFFFF" points="321.95,91.729 321.775,83.373 320.994,83.375 320.986,81.044 316.221,81.058 316.215,79.072 
		313.268,79.081 313.275,81.326 311.629,81.331 311.622,79.086 309.89,79.092 309.874,74.169 309.094,74.172 309.09,73.05 
		307.184,73.055 307.188,74.179 306.407,74.18 306.42,78.497 305.726,78.499 305.738,82.169 304.178,82.174 304.157,75.568 
		303.118,75.571 303.101,70.477 302.408,70.48 302.398,67.199 301.878,67.2 301.869,64.696 301.35,64.698 301.342,62.021 
		300.562,62.023 300.569,64.615 299.963,64.616 299.971,66.688 299.45,66.69 299.463,70.662 298.771,70.664 298.786,75.844 
		298.007,75.847 298.03,83.272 296.729,83.277 296.726,81.549 293.95,81.559 293.953,82.422 292.912,82.425 292.893,76.381 
		292.114,76.383 292.106,74.224 289.681,74.232 289.688,76.304 289.147,76.846 289.158,80.364 288.227,80.367 288.224,79.244 
		285.798,79.252 285.802,80.461 284.327,80.466 284.33,81.588 282.771,81.593 282.766,80.039 281.64,80.042 281.629,76.719 
		275.303,76.737 275.313,80.062 274.187,80.065 274.177,76.741 268.803,76.758 268.808,78.096 267.335,78.1 267.352,83.023 
		265.271,83.029 265.256,78.797 258.238,78.819 258.246,81.064 257.206,81.067 257.216,83.916 256.521,83.92 256.527,85.646 
		253.493,85.656 253.478,80.476 250.53,80.484 250.537,82.21 249.497,82.213 249.489,80.488 246.023,80.497 246.033,83.607 
		245.342,83.608 245.348,85.681 243.699,85.686 243.688,82.146 239.963,82.156 239.96,81.295 239.181,81.296 239.177,80.26 
		238.397,80.264 238.4,81.125 237.533,81.128 237.53,80.092 235.537,80.099 235.538,81.048 234.675,81.052 234.683,83.814 
		233.035,83.819 233.024,80.021 229.731,80.031 229.734,81.152 228.348,81.156 228.334,76.408 227.287,74.511 227.281,72.439 
		226.847,72.44 226.854,74.599 225.645,76.329 225.669,83.841 224.196,83.846 224.152,69.599 219.73,69.613 219.773,82.824 
		218.906,82.827 218.899,80.582 216.992,80.588 216.997,81.968 213.012,81.98 213.018,83.709 209.896,83.719 209.888,81.042 
		208.242,81.047 208.246,82.601 207.034,82.604 207.03,81.654 205.297,81.66 205.293,80.536 203.213,80.543 203.223,83.48 
		201.664,83.484 201.646,77.786 200.603,76.406 199.133,77.88 199.141,80.471 197.408,80.476 197.416,82.807 195.247,82.812 
		195.239,80.223 193.767,80.228 193.764,79.104 191.77,79.111 191.772,79.888 190.386,79.893 190.382,78.684 185.27,78.7 
		185.282,82.76 184.85,82.76 184.848,81.896 182.853,81.902 182.869,86.824 181.396,86.828 181.392,85.188 180.784,85.189 
		180.768,80.009 178.772,80.016 178.797,87.354 177.757,87.357 177.762,88.825 175.683,88.832 175.678,87.623 171.345,87.636 
		171.317,79.435 167.939,79.444 167.967,87.819 161.033,87.841 161.047,92.072 	"/>
</g>
<g>
	<path fill="#F37927" d="M16.735,134.949v-25.38h3.327c2.241,0,3.992,0.414,5.148,1.484c1.155,1.07,1.751,2.729,1.751,5.249
		c0,1.209-0.105,2.106-0.49,2.935c-0.385,0.829-0.981,1.52-1.856,2.314c0.946,0.518,1.646,1.484,2.207,3.107
		c0.28,0.794,0.42,1.83,0.42,3.107c0,1.899-0.35,3.592-1.226,4.903c-0.875,1.312-2.381,2.176-4.623,2.279H16.735z M20.517,120.032
		c0.315,0,1.051,0.034,1.681-0.38c0.63-0.415,1.121-1.243,1.121-3.004c0-1.762-0.49-2.59-1.121-3.005
		c-0.63-0.414-1.366-0.38-1.681-0.38V120.032z M20.517,131.255c0.315,0,1.051,0.068,1.681-0.38c0.63-0.449,1.121-1.451,1.121-3.522
		c0-2.072-0.49-3.073-1.121-3.522c-0.63-0.448-1.366-0.38-1.681-0.38V131.255z"/>
	<path fill="#F37927" d="M29.481,109.569h3.782v25.38h-3.782V109.569z"/>
	<path fill="#F37927" d="M36.065,134.949v-25.38h3.327c2.241,0,3.992,0.414,5.148,1.484c1.155,1.07,1.751,2.729,1.751,5.249
		c0,1.209-0.105,2.106-0.49,2.935c-0.385,0.829-0.981,1.52-1.856,2.314c0.946,0.518,1.646,1.484,2.207,3.107
		c0.28,0.794,0.42,1.83,0.42,3.107c0,1.899-0.35,3.592-1.226,4.903c-0.875,1.312-2.381,2.176-4.623,2.279H36.065z M39.847,120.032
		c0.315,0,1.051,0.034,1.681-0.38c0.63-0.415,1.121-1.243,1.121-3.004c0-1.762-0.49-2.59-1.121-3.005
		c-0.63-0.414-1.366-0.38-1.681-0.38V120.032z M39.847,131.255c0.315,0,1.051,0.068,1.681-0.38c0.63-0.449,1.121-1.451,1.121-3.522
		c0-2.072-0.49-3.073-1.121-3.522c-0.63-0.448-1.366-0.38-1.681-0.38V131.255z"/>
	<path fill="#F37927" d="M48.812,109.569h3.782v21.927h5.008v3.453h-8.79V109.569z"/>
	<path fill="#F37927" d="M59.142,109.569h8.649v3.833h-4.868v6.664h3.502v4.075h-3.502v6.975h4.868v3.833h-8.649V109.569z"/>
</g>
<g>
	<path fill="#FFFFFF" d="M20.986,142.49c-0.467-0.518-1.284-0.874-2.264-0.874c-1.471,0-2.113,0.587-2.113,1.519
		c0,0.967,0.712,1.22,2.311,1.564c1.763,0.368,2.86,0.828,2.86,2.29c0,1.507-1.249,2.209-2.977,2.209
		c-1.296,0-2.417-0.403-3.327-1.186l0.397-0.655c0.607,0.621,1.681,1.127,2.941,1.127c1.319,0,2.113-0.472,2.113-1.415
		c0-1.001-0.852-1.323-2.51-1.691c-1.728-0.391-2.638-0.805-2.638-2.128c0-1.519,1.214-2.348,2.954-2.348
		c1.085,0,1.949,0.346,2.638,0.943L20.986,142.49z"/>
	<path fill="#FFFFFF" d="M32.566,141.674h-2.953v7.455h-0.817v-7.455h-2.954v-0.714h6.724V141.674z"/>
	<path fill="#FFFFFF" d="M43.375,145.079v-4.119h0.817v4.119c0,2.197-0.946,4.107-3.49,4.107c-2.638,0-3.49-2.025-3.49-4.107v-4.119
		h0.805v4.119c0,1.714,0.619,3.383,2.673,3.383C42.792,148.462,43.375,146.747,43.375,145.079z"/>
	<path fill="#FFFFFF" d="M49.655,149.129v-8.169h2.801c2.65,0,3.969,1.818,3.969,4.073c0,2.474-1.541,4.096-3.969,4.096H49.655z
		 M52.457,141.674H50.46v6.742h1.996c2.066,0,3.152-1.462,3.152-3.383C55.608,143.077,54.476,141.674,52.457,141.674z"/>
	<path fill="#FFFFFF" d="M61.013,140.96l2.72,4.396l2.731-4.396h0.887l-3.222,5.132v3.037h-0.805v-3.061l-3.199-5.108H61.013z"/>
</g>
<g>
	<path fill="#464545" d="M97.238,110.017h1.243l0.431,1.5l0.437-1.5h1.243l-0.812,2.322l0.354,1.015l1.062-3.337h1.472l-1.93,4.864
		h-1.125l-0.701-1.74l-0.694,1.74h-1.125l-1.93-4.864h1.465l1.069,3.337l0.34-1.015L97.238,110.017z"/>
	<path fill="#464545" d="M107.916,113.716v1.165h-3.513v-4.864h3.451v1.165h-2.097v0.685h1.791v1.083h-1.791v0.767H107.916z"/>
	<path fill="#464545" d="M109.937,114.881v-4.864h1.896c1.638,0,2.485,1.082,2.485,2.425c0,1.474-0.986,2.439-2.485,2.439H109.937z
		 M111.832,111.182h-0.542v2.534h0.542c0.708,0,1.11-0.541,1.11-1.274C112.942,111.688,112.525,111.182,111.832,111.182z"/>
	<path fill="#464545" d="M117.656,112.49v2.391h-1.354v-4.864h1.055l1.979,2.474v-2.474h1.354v4.864h-1.076L117.656,112.49z"/>
	<path fill="#464545" d="M126.439,113.716v1.165h-3.513v-4.864h3.45v1.165h-2.097v0.685h1.791v1.083h-1.791v0.767H126.439z"/>
	<path fill="#464545" d="M131.403,111.606c0,0-0.716-0.445-1.306-0.445c-0.236,0-0.396,0.068-0.396,0.239
		c0,0.254,0.347,0.309,0.916,0.486c0.91,0.281,1.486,0.597,1.486,1.508c0,1.171-0.958,1.548-1.875,1.548
		c-0.715,0-1.555-0.226-2.146-0.568l0.584-1.172c0,0,0.826,0.534,1.583,0.534c0.291,0,0.396-0.082,0.396-0.212
		c0-0.281-0.507-0.343-1.098-0.541c-0.867-0.288-1.249-0.651-1.249-1.363c0-1.076,0.867-1.645,1.84-1.645
		c0.715,0,1.402,0.309,1.847,0.527L131.403,111.606z"/>
	<path fill="#464545" d="M134.09,114.881v-4.864h1.896c1.638,0,2.485,1.082,2.485,2.425c0,1.474-0.986,2.439-2.485,2.439H134.09z
		 M135.985,111.182h-0.542v2.534h0.542c0.708,0,1.11-0.541,1.11-1.274C137.096,111.688,136.679,111.182,135.985,111.182z"/>
	<path fill="#464545" d="M139.797,114.881l1.84-4.864h1.097l1.833,4.864h-1.43l-0.299-0.952h-1.312l-0.291,0.952H139.797z
		 M142.186,111.407l-0.458,1.631h0.896L142.186,111.407z"/>
	<path fill="#464545" d="M146.823,110.017l0.882,2.104l0.902-2.104h1.472l-1.701,3.254v1.61h-1.347v-1.624l-1.673-3.24H146.823z"/>
	<path fill="#464545" d="M154.571,111.606c0,0-0.716-0.445-1.306-0.445c-0.236,0-0.396,0.068-0.396,0.239
		c0,0.254,0.347,0.309,0.916,0.486c0.91,0.281,1.486,0.597,1.486,1.508c0,1.171-0.958,1.548-1.875,1.548
		c-0.715,0-1.555-0.226-2.146-0.568l0.584-1.172c0,0,0.826,0.534,1.583,0.534c0.291,0,0.396-0.082,0.396-0.212
		c0-0.281-0.507-0.343-1.098-0.541c-0.867-0.288-1.249-0.651-1.249-1.363c0-1.076,0.867-1.645,1.84-1.645
		c0.715,0,1.402,0.309,1.847,0.527L154.571,111.606z"/>
	<path fill="#464545" d="M165.395,113.367c0,0.376-0.055,1.623-1.124,1.623c-0.521,0-0.688-0.294-0.723-0.5
		c-0.312,0.288-0.722,0.479-1.215,0.479c-0.764,0-1.117-0.452-1.117-1.021c0-0.815,0.715-1.09,1.354-1.09
		c0.375,0,0.604,0.097,0.729,0.158c0-0.37-0.152-0.624-0.735-0.624c-0.389,0-0.694,0.11-0.882,0.281l-0.223-0.665
		c0.354-0.232,0.778-0.335,1.236-0.335c1.34,0,1.367,0.863,1.367,1.459v0.459c0,0.404,0.015,0.85,0.341,0.85
		c0.438,0,0.485-0.809,0.485-1.104c0-1.226-0.84-2.109-2.187-2.109c-1.34,0-2.139,0.877-2.139,2.082c0,1.151,0.736,2.09,2.027,2.09
		c0.479,0,0.75-0.13,1.097-0.26l0.14,0.466c-0.396,0.185-0.841,0.273-1.257,0.273c-1.389,0-2.521-1-2.521-2.583
		c0-1.678,1.271-2.548,2.694-2.548C164.104,110.75,165.395,111.544,165.395,113.367z M163.291,113.743v-0.157
		c-0.139-0.055-0.416-0.13-0.688-0.13c-0.375,0-0.604,0.137-0.604,0.438c0,0.13,0.042,0.397,0.409,0.397
		c0.181,0,0.403-0.062,0.576-0.145C163.201,114.045,163.291,113.922,163.291,113.743z"/>
	<path fill="#464545" d="M172.08,112.065h-1.882v-1.186h3.958l-2.409,4.864h-1.493L172.08,112.065z"/>
	<path fill="#464545" d="M175.934,114.881v-4.864h2.124c0.965,0,1.659,0.856,1.659,1.686c0,0.863-0.652,1.686-1.624,1.686h-0.806
		v1.493H175.934z M177.287,112.223h0.715c0.167,0,0.341-0.13,0.341-0.521c0-0.404-0.209-0.521-0.375-0.521h-0.681V112.223z"/>
	<path fill="#464545" d="M185.354,114.881v-2.562l-0.826,1.802h-0.722l-0.826-1.802v2.562h-1.354v-4.864h1.479l1.062,2.288
		l1.069-2.288h1.472v4.864H185.354z"/>
</g>
<g>
	<path fill="#434343" d="M98.24,122.104v0.348h-1.924v-0.348h0.806v-2.396c-0.131,0.174-0.63,0.448-0.925,0.448v-0.37
		c0.352,0,0.891-0.465,0.925-0.531h0.397v2.85H98.24z"/>
	<path fill="#434343" d="M99.788,122.451c0-0.56,0.165-1.064,0.942-1.467c0.414-0.213,1.016-0.415,1.016-0.857
		c0-0.291-0.255-0.588-0.743-0.588c-0.505,0-0.795,0.325-0.908,0.465l-0.256-0.274c0.085-0.095,0.522-0.532,1.232-0.532
		c0.681,0,1.09,0.409,1.09,0.885c0,0.622-0.687,0.902-0.982,1.03c-0.687,0.303-0.874,0.532-0.942,0.991h1.987v0.348H99.788z"/>
	<path fill="#434343" d="M106.434,122.144c0,0.677-0.528,1.131-1.312,1.131c-0.573,0-1.027-0.241-1.243-0.644l0.267-0.241
		c0.159,0.325,0.488,0.537,0.976,0.537c0.562,0,0.914-0.285,0.914-0.789c0-0.51-0.357-0.835-0.993-0.835h-0.142v-0.324h0.153
		c0.579,0,0.902-0.297,0.902-0.723c0-0.442-0.352-0.683-0.823-0.683c-0.432,0-0.778,0.201-0.942,0.537l-0.25-0.235
		c0.188-0.392,0.676-0.649,1.226-0.649c0.698,0,1.192,0.409,1.192,1.002c0,0.454-0.284,0.835-0.749,0.902
		C106.11,121.208,106.434,121.605,106.434,122.144z"/>
	<path fill="#434343" d="M114.502,122.451v-3.265l-1.47,2.525h-0.233l-1.476-2.525v3.265h-0.392v-3.976h0.403l1.578,2.722
		l1.578-2.722h0.402v3.976H114.502z"/>
	<path fill="#434343" d="M116.622,122.451l1.687-3.976h0.323l1.686,3.976h-0.426l-0.522-1.243h-1.811l-0.517,1.243H116.622z
		 M118.473,118.935l-0.829,1.966h1.635L118.473,118.935z"/>
	<path fill="#434343" d="M122.035,122.451v-3.971h0.392v3.971H122.035z"/>
	<path fill="#434343" d="M124.975,119.203v3.248h-0.392v-3.976h0.307l2.668,3.31v-3.305h0.392v3.971h-0.341L124.975,119.203z"/>
	<path fill="#434343" d="M135.058,119.22c-0.228-0.252-0.624-0.426-1.102-0.426c-0.715,0-1.027,0.286-1.027,0.739
		c0,0.471,0.347,0.594,1.124,0.762c0.857,0.18,1.391,0.403,1.391,1.114c0,0.734-0.607,1.075-1.447,1.075
		c-0.63,0-1.175-0.195-1.618-0.576l0.193-0.319c0.295,0.303,0.817,0.549,1.431,0.549c0.642,0,1.027-0.229,1.027-0.688
		c0-0.487-0.414-0.645-1.221-0.823c-0.84-0.19-1.282-0.393-1.282-1.036c0-0.739,0.59-1.143,1.436-1.143
		c0.528,0,0.948,0.168,1.283,0.459L135.058,119.22z"/>
	<path fill="#434343" d="M140.118,118.822h-1.436v3.629h-0.397v-3.629h-1.437v-0.347h3.27V118.822z"/>
	<path fill="#434343" d="M141.871,122.451v-3.976h1.697c0.698,0,1.197,0.633,1.197,1.248c0,0.577-0.363,1.087-0.902,1.193
		l0.994,1.534h-0.449l-0.953-1.467h-1.192v1.467H141.871z M142.263,120.637h1.323c0.477,0,0.783-0.442,0.783-0.913
		c0-0.481-0.375-0.901-0.817-0.901h-1.289V120.637z"/>
	<path fill="#434343" d="M149.458,122.104v0.348h-2.708v-3.976h2.656v0.347h-2.265v1.434h1.976v0.33h-1.976v1.518H149.458z"/>
	<path fill="#434343" d="M154.071,122.104v0.348h-2.708v-3.976h2.656v0.347h-2.265v1.434h1.976v0.33h-1.976v1.518H154.071z"/>
	<path fill="#434343" d="M158.842,118.822h-1.436v3.629h-0.397v-3.629h-1.437v-0.347h3.27V118.822z"/>
	<path fill="#434343" d="M98.813,125.059c-0.227-0.252-0.625-0.426-1.101-0.426c-0.715,0-1.028,0.286-1.028,0.739
		c0,0.471,0.347,0.594,1.124,0.762c0.857,0.18,1.391,0.403,1.391,1.114c0,0.734-0.607,1.075-1.447,1.075
		c-0.63,0-1.175-0.195-1.618-0.576l0.193-0.319c0.295,0.303,0.817,0.549,1.431,0.549c0.641,0,1.027-0.229,1.027-0.688
		c0-0.487-0.415-0.645-1.221-0.823c-0.84-0.19-1.283-0.393-1.283-1.036c0-0.739,0.59-1.143,1.436-1.143
		c0.528,0,0.948,0.168,1.283,0.459L98.813,125.059z"/>
	<path fill="#434343" d="M103.875,124.661h-1.436v3.629h-0.397v-3.629h-1.436v-0.347h3.27V124.661z"/>
	<path fill="#434343" d="M104.798,128.29l1.686-3.976h0.324l1.686,3.976h-0.426l-0.522-1.243h-1.811l-0.516,1.243H104.798z
		 M106.648,124.773l-0.829,1.966h1.635L106.648,124.773z"/>
	<path fill="#434343" d="M113.781,128.29v-3.265l-1.47,2.525h-0.233l-1.476-2.525v3.265h-0.392v-3.976h0.403l1.578,2.721
		l1.578-2.721h0.402v3.976H113.781z"/>
	<path fill="#434343" d="M116.327,128.29v-3.976h2.64v0.347h-2.248v1.462h1.901v0.324h-1.901v1.843H116.327z"/>
	<path fill="#434343" d="M120.43,126.302c0-1.058,0.817-2.016,1.896-2.016c1.124,0,1.885,1.024,1.885,2.021
		c0,1.059-0.812,2.011-1.891,2.011C121.195,128.318,120.43,127.321,120.43,126.302z M122.319,127.965
		c0.914,0,1.493-0.845,1.493-1.663c0-0.862-0.619-1.657-1.493-1.657c-0.914,0-1.493,0.834-1.493,1.657
		C120.826,127.164,121.434,127.965,122.319,127.965z"/>
	<path fill="#434343" d="M126.109,128.29v-3.976h1.697c0.698,0,1.197,0.633,1.197,1.248c0,0.577-0.363,1.087-0.902,1.193
		l0.994,1.534h-0.449l-0.953-1.467h-1.192v1.467H126.109z M126.501,126.476h1.323c0.477,0,0.783-0.442,0.783-0.913
		c0-0.481-0.375-0.901-0.817-0.901h-1.289V126.476z"/>
	<path fill="#434343" d="M130.988,128.29v-3.976h1.362c1.289,0,1.93,0.885,1.93,1.982c0,1.203-0.749,1.993-1.93,1.993H130.988z
		 M132.351,124.661h-0.971v3.281h0.971c1.005,0,1.532-0.711,1.532-1.646C133.883,125.345,133.333,124.661,132.351,124.661z"/>
	<path fill="#434343" d="M135.999,128.374c0.051,0,0.119-0.022,0.119-0.117v-0.516h0.329v0.571c0,0.258-0.232,0.353-0.448,0.353
		V128.374z"/>
	<path fill="#434343" d="M142.734,124.292c0.715,0,1.237,0.358,1.486,0.867l-0.317,0.19c-0.256-0.526-0.755-0.705-1.192-0.705
		c-0.965,0-1.492,0.852-1.492,1.652c0,0.879,0.652,1.674,1.51,1.674c0.454,0,0.987-0.224,1.243-0.739l0.329,0.168
		c-0.262,0.594-0.977,0.924-1.596,0.924c-1.106,0-1.884-1.041-1.884-2.049C140.821,125.316,141.52,124.292,142.734,124.292z"/>
	<path fill="#434343" d="M148.947,124.661h-1.436v3.629h-0.397v-3.629h-1.437v-0.347h3.27V124.661z"/>
	<path fill="#434343" d="M154.371,128.346c-0.823,0-1.425-0.711-1.425-1.696s0.602-1.702,1.425-1.702
		c0.817,0,1.425,0.717,1.425,1.702S155.188,128.346,154.371,128.346z M154.371,125.306c-0.613,0-1.038,0.543-1.038,1.344
		s0.425,1.338,1.038,1.338c0.607,0,1.033-0.537,1.033-1.338S154.979,125.306,154.371,125.306z"/>
	<path fill="#434343" d="M159.007,128.346c-0.852,0-1.447-0.627-1.447-1.663c0-1.618,0.596-2.396,1.487-2.396
		c0.527,0,0.976,0.28,1.197,0.739l-0.25,0.224c-0.153-0.381-0.527-0.627-0.953-0.627c-0.664,0-1.107,0.639-1.113,1.736
		c0.165-0.438,0.607-0.723,1.119-0.723c0.771,0,1.385,0.594,1.385,1.344C160.432,127.735,159.807,128.346,159.007,128.346z
		 M160.062,126.979c0-0.565-0.482-1.03-1.05-1.03c-0.579,0-1.056,0.465-1.056,1.03c0,0.561,0.482,1.03,1.056,1.03
		S160.062,127.545,160.062,126.979z"/>
	<path fill="#434343" d="M163.461,125.093c0.852,0,1.447,0.627,1.447,1.663c0,1.618-0.596,2.396-1.487,2.396
		c-0.527,0-0.977-0.28-1.197-0.739l0.249-0.224c0.153,0.381,0.528,0.627,0.954,0.627c0.664,0,1.106-0.639,1.112-1.736
		c-0.164,0.438-0.607,0.723-1.118,0.723c-0.771,0-1.385-0.594-1.385-1.344C162.036,125.703,162.66,125.093,163.461,125.093z
		 M162.405,126.459c0,0.565,0.482,1.03,1.05,1.03c0.579,0,1.056-0.465,1.056-1.03c0-0.561-0.482-1.03-1.056-1.03
		S162.405,125.894,162.405,126.459z"/>
	<path fill="#434343" d="M168.045,128.346c-0.823,0-1.425-0.711-1.425-1.696s0.602-1.702,1.425-1.702
		c0.817,0,1.425,0.717,1.425,1.702S168.862,128.346,168.045,128.346z M168.045,125.306c-0.613,0-1.038,0.543-1.038,1.344
		s0.425,1.338,1.038,1.338c0.607,0,1.033-0.537,1.033-1.338S168.652,125.306,168.045,125.306z"/>
	<path fill="#434343" d="M173.226,127.942v0.348h-1.925v-0.348h0.807v-2.396c-0.131,0.174-0.63,0.448-0.926,0.448v-0.37
		c0.353,0,0.892-0.465,0.926-0.531h0.397v2.85H173.226z"/>
	<path fill="#434343" d="M96.98,129.99l0.295,0.141c-0.312,0.453-0.727,1.36-0.727,2.077c0,0.582,0.272,1.305,0.721,1.977
		l-0.29,0.151c-0.477-0.7-0.794-1.434-0.794-2.145C96.186,131.43,96.537,130.719,96.98,129.99z"/>
	<path fill="#434343" d="M100.896,133.781v0.348h-1.924v-0.348h0.806v-2.396c-0.131,0.174-0.63,0.448-0.925,0.448v-0.37
		c0.352,0,0.891-0.465,0.925-0.531h0.397v2.85H100.896z"/>
	<path fill="#434343" d="M102.443,134.129c0-0.56,0.165-1.064,0.942-1.467c0.414-0.213,1.016-0.415,1.016-0.857
		c0-0.291-0.255-0.588-0.743-0.588c-0.505,0-0.795,0.325-0.908,0.465l-0.256-0.274c0.085-0.095,0.522-0.532,1.232-0.532
		c0.681,0,1.09,0.409,1.09,0.885c0,0.622-0.687,0.902-0.982,1.03c-0.687,0.303-0.874,0.532-0.942,0.991h1.987v0.348H102.443z"/>
	<path fill="#434343" d="M109.089,133.821c0,0.677-0.528,1.131-1.312,1.131c-0.573,0-1.027-0.241-1.243-0.644l0.267-0.241
		c0.159,0.325,0.488,0.537,0.976,0.537c0.562,0,0.914-0.285,0.914-0.789c0-0.51-0.357-0.835-0.993-0.835h-0.142v-0.324h0.153
		c0.579,0,0.903-0.297,0.903-0.723c0-0.442-0.353-0.683-0.823-0.683c-0.432,0-0.778,0.201-0.942,0.537l-0.25-0.235
		c0.188-0.392,0.676-0.649,1.226-0.649c0.699,0,1.192,0.409,1.192,1.002c0,0.454-0.283,0.835-0.749,0.902
		C108.766,132.886,109.089,133.283,109.089,133.821z"/>
	<path fill="#434343" d="M110.966,134.336l-0.289-0.151c0.448-0.672,0.721-1.395,0.721-1.977c0-0.717-0.42-1.624-0.727-2.077
		l0.295-0.141c0.443,0.729,0.795,1.439,0.795,2.201C111.761,132.902,111.443,133.636,110.966,134.336z"/>
	<path fill="#434343" d="M117.746,134.84v-0.996h-1.896v-0.337l2.015-2.575h0.268v2.564h0.499v0.348h-0.499v0.996H117.746z
		 M116.26,133.496h1.521v-1.966L116.26,133.496z"/>
	<path fill="#434343" d="M122.848,133.647c0,0.789-0.63,1.315-1.402,1.315c-0.567,0-1.062-0.302-1.288-0.761l0.255-0.19
		c0.211,0.363,0.603,0.61,1.039,0.61c0.562,0,0.999-0.398,0.999-0.969c0-0.549-0.42-0.93-0.959-0.93
		c-0.357,0-0.692,0.156-0.892,0.447h-0.357c0.04-0.195,0.448-2.239,0.448-2.239h1.947v0.353h-1.657l-0.278,1.428
		c0.192-0.207,0.494-0.33,0.829-0.33C122.269,132.382,122.848,132.902,122.848,133.647z"/>
	<path fill="#434343" d="M125.962,134.185c-0.852,0-1.447-0.627-1.447-1.663c0-1.618,0.596-2.396,1.487-2.396
		c0.527,0,0.976,0.28,1.197,0.739l-0.25,0.224c-0.153-0.381-0.527-0.627-0.953-0.627c-0.664,0-1.107,0.639-1.113,1.736
		c0.165-0.438,0.607-0.723,1.119-0.723c0.771,0,1.385,0.594,1.385,1.344C127.387,133.574,126.762,134.185,125.962,134.185z
		 M127.018,132.818c0-0.565-0.482-1.03-1.05-1.03c-0.579,0-1.056,0.465-1.056,1.03c0,0.561,0.482,1.03,1.056,1.03
		S127.018,133.384,127.018,132.818z"/>
	<path fill="#434343" d="M129.15,132.779v-0.353h1.651v0.353H129.15z"/>
	<path fill="#434343" d="M134.575,131.217H132.4v-0.353h2.787l-2.037,3.976h-0.443L134.575,131.217z"/>
	<path fill="#434343" d="M138.07,134.174c-0.807,0-1.386-0.526-1.386-1.171c0-0.509,0.415-0.867,0.807-1.002
		c-0.357-0.146-0.664-0.442-0.664-0.834c0-0.655,0.658-1.014,1.26-1.014s1.261,0.358,1.261,1.008c0,0.392-0.312,0.694-0.676,0.84
		c0.442,0.151,0.812,0.521,0.812,1.024C139.483,133.72,138.831,134.174,138.07,134.174z M138.081,132.163
		c-0.499,0-0.999,0.331-0.999,0.84c0,0.521,0.534,0.829,1.011,0.829c0.488,0,0.999-0.33,0.999-0.834
		C139.092,132.466,138.553,132.163,138.081,132.163z M138.087,131.861c0.397,0,0.868-0.252,0.868-0.689
		c0-0.426-0.426-0.672-0.874-0.672s-0.862,0.258-0.862,0.684C137.219,131.62,137.684,131.861,138.087,131.861z"/>
	<path fill="#434343" d="M142.553,130.932c0.852,0,1.447,0.627,1.447,1.663c0,1.618-0.596,2.396-1.487,2.396
		c-0.527,0-0.977-0.28-1.197-0.739l0.249-0.224c0.153,0.381,0.528,0.627,0.954,0.627c0.664,0,1.106-0.639,1.112-1.736
		c-0.164,0.438-0.607,0.723-1.118,0.723c-0.771,0-1.385-0.594-1.385-1.344C141.128,131.542,141.752,130.932,142.553,130.932z
		 M141.497,132.298c0,0.565,0.482,1.03,1.05,1.03c0.579,0,1.056-0.465,1.056-1.03c0-0.561-0.482-1.03-1.056-1.03
		S141.497,131.732,141.497,132.298z"/>
	<path fill="#434343" d="M147.137,134.185c-0.823,0-1.425-0.711-1.425-1.696s0.602-1.702,1.425-1.702
		c0.817,0,1.425,0.717,1.425,1.702S147.954,134.185,147.137,134.185z M147.137,131.145c-0.613,0-1.038,0.543-1.038,1.344
		s0.425,1.338,1.038,1.338c0.607,0,1.033-0.537,1.033-1.338S147.744,131.145,147.137,131.145z"/>
</g>
<g>
	<path fill="#434343" d="M98.104,144.519c0.147,0.106,0.469,0.231,0.851,0.231c0.824,0,0.931-0.581,0.931-1.711v-2.379h0.757v2.379
		c0,1.427-0.188,2.378-1.688,2.378c-0.409,0-0.75-0.099-1.032-0.29L98.104,144.519z"/>
	<path fill="#434343" d="M102.71,142.999c0-1.249,0.964-2.378,2.264-2.378c1.339,0,2.237,1.209,2.237,2.385
		c0,1.249-0.958,2.372-2.258,2.372C103.614,145.378,102.71,144.202,102.71,142.999z M104.96,144.711
		c0.938,0,1.487-0.873,1.487-1.712c0-0.892-0.59-1.704-1.487-1.704c-0.931,0-1.487,0.858-1.487,1.704
		C103.474,143.885,104.049,144.711,104.96,144.711z"/>
	<path fill="#434343" d="M109.331,145.345v-4.685h0.75v4.685H109.331z"/>
	<path fill="#434343" d="M113.24,142.041v3.304h-0.75v-4.691h0.589l2.72,3.383v-3.376h0.757v4.685h-0.623L113.24,142.041z"/>
	<path fill="#434343" d="M125.219,143.032v-2.379h0.757v2.379c0,1.282-0.59,2.346-2.057,2.346c-1.514,0-2.05-1.13-2.05-2.346v-2.379
		h0.751v2.379c0,0.859,0.314,1.679,1.299,1.679C124.917,144.711,125.219,143.871,125.219,143.032z"/>
	<path fill="#434343" d="M131.123,141.757c-0.182-0.191-0.69-0.476-1.313-0.476c-0.583,0-0.897,0.244-0.897,0.654
		c0,0.449,0.389,0.548,1.179,0.746c0.938,0.238,1.567,0.482,1.567,1.349c0,0.978-0.797,1.36-1.741,1.36
		c-0.724,0-1.427-0.225-1.97-0.634l0.349-0.635c0.228,0.231,0.897,0.602,1.647,0.602c0.569,0,0.904-0.211,0.904-0.607
		c0-0.47-0.476-0.602-1.299-0.813c-0.938-0.244-1.414-0.521-1.414-1.255c0-0.925,0.751-1.427,1.715-1.427
		c0.656,0,1.206,0.23,1.614,0.528L131.123,141.757z"/>
	<path fill="#434343" d="M139.993,144.69v0.654h-3.262v-4.691h3.202v0.654h-2.452v1.335h2.123v0.614h-2.123v1.434H139.993z"/>
	<path fill="#434343" d="M142.422,140.653l1.439,3.76l1.428-3.76h0.79l-1.896,4.691h-0.644l-1.916-4.691H142.422z"/>
	<path fill="#434343" d="M151.254,144.69v0.654h-3.262v-4.691h3.202v0.654h-2.452v1.335h2.123v0.614h-2.123v1.434H151.254z"/>
	<path fill="#434343" d="M153.395,145.345v-4.691h2.069c0.857,0,1.474,0.773,1.474,1.526c0,0.628-0.368,1.203-0.931,1.381
		l1.132,1.784h-0.851l-1.045-1.632h-1.099v1.632H153.395z M154.145,143.059h1.312c0.423,0,0.717-0.403,0.717-0.879
		c0-0.482-0.361-0.872-0.757-0.872h-1.272V143.059z"/>
	<path fill="#434343" d="M159.286,140.653l1.319,2.353l1.326-2.353h0.817l-1.769,3.014v1.678h-0.757v-1.691l-1.762-3H159.286z"/>
	<path fill="#434343" d="M168.799,140.674h0.704l0.582,1.592l0.59-1.592h0.71l-0.817,2.088l0.717,1.724l1.48-3.832h0.817
		l-1.956,4.691h-0.649l-0.885-2.101l-0.891,2.101h-0.644l-1.956-4.691h0.811l1.494,3.832l0.703-1.724L168.799,140.674z"/>
	<path fill="#434343" d="M178.741,144.69v0.654h-3.262v-4.691h3.202v0.654h-2.452v1.335h2.123v0.614h-2.123v1.434H178.741z"/>
	<path fill="#434343" d="M184.144,144.69v0.654h-3.262v-4.691h3.202v0.654h-2.452v1.335h2.123v0.614h-2.123v1.434H184.144z"/>
	<path fill="#434343" d="M186.284,145.345v-4.685h0.75v2.444l2.264-2.451h0.805l-1.876,2.075l1.982,2.616h-0.811l-1.621-2.193
		l-0.743,0.767v1.427H186.284z"/>
	<path fill="#434343" d="M192.041,143.673v-3.065h0.737v3.065H192.041z M192.041,145.345v-0.905h0.737v0.905H192.041z"/>
</g>
<rect x="95.314" y="137.723" fill="none" stroke="#FFFFFF" stroke-width="2" stroke-miterlimit="10" width="102.304" height="10.675"/>
</svg>
