<?xml version="1.0" encoding="utf-8"?>
<!-- Generator: Adobe Illustrator 16.0.0, SVG Export Plug-In . SVG Version: 6.00 Build 0)  -->
<!DOCTYPE svg PUBLIC "-//W3C//DTD SVG 1.1//EN" "http://www.w3.org/Graphics/SVG/1.1/DTD/svg11.dtd">
<svg version="1.1" id="Layer_1" xmlns="http://www.w3.org/2000/svg" xmlns:xlink="http://www.w3.org/1999/xlink" x="0px" y="0px"
	 width="213.75px" height="155px" viewBox="0 0 213.75 155" enable-background="new 0 0 213.75 155" xml:space="preserve">
<rect y="94" fill="#FFFFFF" width="215" height="67"/>
<rect x="13.137" y="199.462" fill="#02429E" width="199.795" height="71.872"/>
<path opacity="0.5" fill="#02429E" d="M68.292,234.431l-20.475-23.887l-23.728,20.657l8.407,9.657l7.157-6.232
	c0.338,10.594-7.176,20.077-17.916,21.899c-11.731,1.993-22.855-5.898-24.848-17.63c-1.993-11.729,5.9-22.854,17.629-24.848
	c2.206-0.374,4.388-0.399,6.493-0.115l11.179-10.01c-6.161-2.87-13.229-3.967-20.438-2.741
	c-18.894,3.209-31.608,21.131-28.398,40.023c3.209,18.895,21.128,31.608,40.024,28.398c16.933-2.876,28.901-17.57,28.891-34.188
	l6.3,7.348L68.292,234.431z"/>
<text transform="matrix(1 0 0 1 28.7949 220.9365)" fill="#FFFFFF" font-family="'Novecentosanswide-Bold'" font-size="7.4598">JOin the Campaign.</text>
<text transform="matrix(1 0 0 1 134.835 220.9365)" fill="#FFFFFF" font-family="'Novecentosanswide-Bold'" font-size="7.4598">Then Donate.</text>
<path fill="#FFFFFF" d="M120,238.58c0,0.231-0.188,0.42-0.419,0.42H30.419c-0.231,0-0.419-0.188-0.419-0.42v-10.16
	c0-0.231,0.188-0.42,0.419-0.42h89.162c0.231,0,0.419,0.188,0.419,0.42V238.58z"/>
<path fill="#EF5500" d="M117.58,255.483c0,0.168-0.096,0.301-0.213,0.301H79.578c-0.116,0-0.21-0.133-0.21-0.301v-10.4
	c0-0.165,0.094-0.298,0.21-0.298h37.789c0.117,0,0.213,0.133,0.213,0.298V255.483z"/>
<text transform="matrix(1 0 0 1 91.1885 252.3242)" fill="#FFFFFF" font-family="'Novecentosanswide-Bold'" font-size="5.0321">Next</text>
<path fill="#EF5500" d="M197.244,255.483c0,0.168-0.094,0.301-0.212,0.301h-37.787c-0.116,0-0.212-0.133-0.212-0.301v-10.4
	c0-0.165,0.096-0.298,0.212-0.298h37.787c0.118,0,0.212,0.133,0.212,0.298V255.483z"/>
<text transform="matrix(1 0 0 1 170.8555 252.3242)" fill="#FFFFFF" font-family="'Novecentosanswide-Bold'" font-size="5.0321">Next</text>
<path fill="none" stroke="#FFFFFF" stroke-width="2" stroke-miterlimit="10" d="M151,239.353c0,0.254,0.409,0.647,0.189,0.647
	h-16.495c-0.22,0,0.306-0.394,0.306-0.647v-10.892c0-0.251-0.525-0.461-0.306-0.461h16.495c0.22,0-0.189,0.21-0.189,0.461V239.353z"
	/>
<text transform="matrix(1 0 0 1 137.7148 236.0156)" fill="#FFFFFF" font-family="'Novecentosanswide-Bold'" font-size="5.5021">$10</text>
<path fill="none" stroke="#FFFFFF" stroke-width="2" stroke-miterlimit="10" d="M174,239.353c0,0.254-1.27,0.647-1.49,0.647h-16.494
	c-0.221,0-0.016-0.394-0.016-0.647v-10.892c0-0.251-0.205-0.461,0.016-0.461h16.494c0.221,0,1.49,0.21,1.49,0.461V239.353z"/>
<text transform="matrix(1 0 0 1 159.0361 236.0156)" fill="#FFFFFF" font-family="'Novecentosanswide-Bold'" font-size="5.5021">$25</text>
<path fill="none" stroke="#FFFFFF" stroke-width="2" stroke-miterlimit="10" d="M196,239.353c0,0.254,0.966,0.647,0.709,0.647
	h-19.306c-0.257,0,0.597-0.394,0.597-0.647v-10.892c0-0.251-0.854-0.461-0.597-0.461h19.306c0.257,0-0.709,0.21-0.709,0.461V239.353
	z"/>
<text transform="matrix(1 0 0 1 180.3564 236.0156)" fill="#FFFFFF" font-family="'Novecentosanswide-Bold'" font-size="5.5021">$100</text>
<g>
	<rect x="59.307" y="126.752" fill="none" width="107.912" height="7.912"/>
	
		<text transform="matrix(1 0 0 1 59.3066 134.4551)" fill="#02429E" font-family="'Novecentosanswide-Bold'" font-size="13.7553" letter-spacing="1">Meet Landis</text>
</g>
<rect x="72.606" y="144.711" fill="none" width="88.73" height="18.811"/>
<text transform="matrix(1 0 0 1 72.6064 150.4883)"><tspan x="0" y="0" fill="#333333" font-family="'QuicksandBook-Regular'" font-size="8.2532">Landis has a vision </tspan><tspan x="0" y="9.903" fill="#333333" font-family="'QuicksandBook-Regular'" font-size="8.2532">for a better Vallejo.</tspan></text>
<rect y="-1.938" fill="#FFFFFF" width="213.16" height="19.201"/>
<path fill="#EF5500" d="M207.169,12.32c0,0.178-0.144,0.322-0.322,0.322H185.81c-0.177,0-0.323-0.144-0.323-0.322V4.131
	c0-0.178,0.146-0.321,0.323-0.321h21.037c0.179,0,0.322,0.143,0.322,0.321V12.32z"/>
<text transform="matrix(1 0 0 1 188.9277 9.6084)" fill="#FFFFFF" font-family="'QuicksandBook-Regular'" font-size="3.2922">Donate</text>
<text transform="matrix(1 0 0 1 113.7109 9.9746)" font-family="'QuicksandBook-Regular'" font-size="5.0141">Meet Landis | The issues</text>
<g>
	<g>
		<path fill="#184798" d="M18.872,3.413h1.167v3.776h2.18v1.083h-3.347V3.413z"/>
		<path fill="#184798" d="M24.107,7.467l-0.292,0.806h-1.229l1.875-4.86h1.326l1.882,4.86h-1.25l-0.292-0.806H24.107z M25.398,5.44
			c-0.153-0.403-0.264-0.708-0.271-0.715h-0.021C25.1,4.732,24.989,5.03,24.836,5.433l-0.347,0.972h1.256L25.398,5.44z"/>
		<path fill="#184798" d="M29.321,5.371H29.3c0,0.007,0.014,0.604,0.014,1.236v1.667h-1.167v-4.86h1.181l2.069,2.846h0.021
			c0-0.007-0.007-0.632-0.007-1.16V3.413h1.167v4.86H31.39L29.321,5.371z"/>
		<path fill="#184798" d="M35.424,3.413c1.452,0,2.562,0.986,2.562,2.45c0,1.472-1.118,2.41-2.555,2.41h-2.076v-4.86H35.424z
			 M35.361,7.189c0.722,0,1.451-0.368,1.451-1.326c0-0.951-0.729-1.368-1.451-1.368h-0.84v2.694H35.361z"/>
		<path fill="#184798" d="M38.569,3.413h1.167v4.86h-1.167V3.413z"/>
		<path fill="#184798" d="M41.422,6.759c0.098,0.368,0.438,0.583,0.965,0.583c0.445,0,0.716-0.153,0.716-0.465
			c0-0.465-0.583-0.437-1.181-0.583c-0.66-0.16-1.479-0.465-1.479-1.493c0-0.993,0.75-1.486,1.84-1.486
			c0.992,0,1.701,0.403,1.972,1.271l-1.111,0.299c-0.118-0.354-0.396-0.549-0.881-0.549c-0.444,0-0.632,0.174-0.632,0.431
			c0,0.41,0.465,0.472,1.146,0.611c0.715,0.139,1.507,0.444,1.507,1.493c0,1-0.701,1.5-1.889,1.5c-0.847,0-1.805-0.257-2.083-1.312
			L41.422,6.759z"/>
	</g>
	<path fill="#F05E22" d="M21.882,13.577c0-0.245,0.006-0.27,0.006-0.3h-0.012c-0.245,0.208-0.71,0.385-1.206,0.385
		c-1.193,0-2.204-0.899-2.204-2.234c0-1.31,0.943-2.222,2.222-2.222c0.973,0,1.72,0.539,1.996,1.236l-1.016,0.275
		c-0.166-0.275-0.484-0.544-1.028-0.544c-0.692,0-1.139,0.514-1.139,1.261c0,0.759,0.496,1.255,1.255,1.255
		c0.587,0,0.955-0.257,1.089-0.44v-0.202h-1.077v-0.955H22.8v2.485H21.882z"/>
	<path fill="#F05E22" d="M24.9,12.163h-0.214h-0.245v1.414h-1.028V9.292h1.628c1.077,0,1.708,0.563,1.708,1.451
		c0,0.587-0.288,1.022-0.808,1.218l0.979,1.616h-1.218L24.9,12.163z M25.108,11.342c0.38,0,0.588-0.19,0.588-0.55
		c0-0.355-0.196-0.57-0.594-0.57h-0.661v1.12H25.108z"/>
	<path fill="#F05E22" d="M28.518,12.867l-0.257,0.71h-1.083l1.653-4.285h1.169l1.659,4.285h-1.102l-0.257-0.71H28.518z
		 M29.656,11.079c-0.135-0.355-0.233-0.624-0.239-0.63h-0.019c-0.006,0.006-0.104,0.269-0.239,0.625l-0.306,0.857h1.108
		L29.656,11.079z"/>
	<path fill="#F05E22" d="M33.904,9.292c1.279,0,2.258,0.869,2.258,2.161c0,1.298-0.985,2.124-2.252,2.124H32.08V9.292H33.904z
		 M33.849,12.622c0.637,0,1.279-0.324,1.279-1.169c0-0.839-0.643-1.206-1.279-1.206h-0.741v2.375H33.849z"/>
	<path fill="#F05E22" d="M36.677,9.292h3.122v0.955h-2.093v0.735h1.542v0.857h-1.542v0.783h2.124v0.955h-3.152V9.292z"/>
	<path fill="#F05E22" d="M41.464,11.018h-0.018c0,0.006,0.012,0.532,0.012,1.089v1.469H40.43V9.292h1.041l1.824,2.509h0.018
		c0-0.006-0.006-0.557-0.006-1.022V9.292h1.028v4.285h-1.046L41.464,11.018z"/>
</g>
<g>
	<path fill="#58595B" d="M18.832,14.501h0.791v0.112h-0.667v0.469h0.621v0.112h-0.621v0.626h-0.123V14.501z"/>
	<path fill="#58595B" d="M20.211,15.161c0-0.101,0.017-0.193,0.05-0.278c0.034-0.084,0.08-0.158,0.14-0.219
		c0.06-0.061,0.131-0.109,0.215-0.144c0.084-0.035,0.176-0.052,0.277-0.052s0.193,0.017,0.277,0.052s0.156,0.083,0.215,0.144
		c0.06,0.062,0.106,0.135,0.14,0.219c0.033,0.084,0.05,0.177,0.05,0.278c0,0.1-0.017,0.193-0.05,0.279
		c-0.034,0.085-0.08,0.158-0.14,0.219c-0.059,0.062-0.131,0.11-0.215,0.144s-0.176,0.051-0.277,0.051s-0.193-0.017-0.277-0.051
		c-0.083-0.034-0.155-0.082-0.215-0.144c-0.06-0.061-0.106-0.134-0.14-0.219C20.228,15.354,20.211,15.261,20.211,15.161z
		 M20.334,15.161c0,0.082,0.013,0.158,0.039,0.229c0.026,0.071,0.063,0.132,0.112,0.185s0.107,0.093,0.176,0.123
		c0.069,0.03,0.146,0.045,0.232,0.045s0.163-0.015,0.232-0.045c0.069-0.03,0.128-0.071,0.176-0.123s0.086-0.114,0.112-0.185
		s0.039-0.147,0.039-0.229s-0.013-0.159-0.039-0.229c-0.026-0.071-0.063-0.133-0.112-0.185c-0.048-0.052-0.107-0.093-0.176-0.123
		c-0.069-0.03-0.146-0.044-0.232-0.044s-0.163,0.014-0.232,0.044c-0.069,0.03-0.128,0.071-0.176,0.123
		c-0.048,0.052-0.085,0.113-0.112,0.185C20.347,15.002,20.334,15.079,20.334,15.161z"/>
	<path fill="#58595B" d="M22.279,14.501h0.347c0.018,0,0.041,0,0.071,0.001c0.03,0.001,0.062,0.005,0.097,0.012
		c0.035,0.006,0.07,0.016,0.106,0.03s0.068,0.033,0.097,0.06c0.028,0.026,0.052,0.059,0.07,0.099
		c0.019,0.04,0.028,0.088,0.028,0.145c0,0.064-0.011,0.116-0.033,0.157c-0.022,0.041-0.049,0.074-0.082,0.1
		c-0.033,0.025-0.069,0.044-0.109,0.057c-0.04,0.012-0.078,0.021-0.114,0.026l0.384,0.634h-0.14l-0.371-0.626h-0.229v0.626h-0.123
		V14.501z M22.402,15.083h0.261c0.064,0,0.117-0.008,0.157-0.024s0.072-0.036,0.094-0.06c0.022-0.023,0.038-0.049,0.045-0.077
		c0.008-0.027,0.012-0.052,0.012-0.075c0-0.022-0.004-0.047-0.012-0.074c-0.008-0.027-0.023-0.053-0.045-0.077
		c-0.022-0.023-0.054-0.043-0.094-0.06s-0.093-0.024-0.157-0.024h-0.261V15.083z"/>
	<path fill="#58595B" d="M24.54,14.501h0.132l0.425,1.157l0.428-1.157h0.131l-0.501,1.319h-0.123L24.54,14.501z"/>
	<path fill="#58595B" d="M26.562,14.501h0.127l0.555,1.319h-0.138l-0.144-0.351h-0.698l-0.149,0.351h-0.128L26.562,14.501z
		 M26.62,14.636l-0.308,0.723h0.605L26.62,14.636z"/>
	<path fill="#58595B" d="M27.862,14.501h0.123v1.208H28.6v0.112h-0.738V14.501z"/>
	<path fill="#58595B" d="M29.223,14.501h0.123v1.208h0.615v0.112h-0.738V14.501z"/>
	<path fill="#58595B" d="M30.583,14.501h0.807v0.112h-0.684v0.469h0.641v0.112h-0.641v0.514h0.714v0.112h-0.837V14.501z"/>
	<path fill="#58595B" d="M32.653,15.433c0,0.04-0.003,0.084-0.009,0.132c-0.005,0.048-0.021,0.094-0.044,0.137
		c-0.024,0.043-0.061,0.079-0.108,0.108c-0.048,0.029-0.114,0.043-0.2,0.043c-0.097,0-0.173-0.024-0.23-0.073
		c-0.057-0.049-0.094-0.115-0.113-0.197l0.123-0.022c0.03,0.121,0.103,0.181,0.22,0.181c0.043,0,0.081-0.007,0.111-0.021
		s0.055-0.034,0.074-0.059c0.019-0.024,0.032-0.054,0.041-0.088s0.013-0.071,0.013-0.11v-0.962h0.123V15.433z"/>
	<path fill="#58595B" d="M33.357,15.161c0-0.101,0.017-0.193,0.05-0.278c0.034-0.084,0.08-0.158,0.14-0.219
		c0.06-0.061,0.132-0.109,0.215-0.144c0.084-0.035,0.176-0.052,0.277-0.052c0.101,0,0.193,0.017,0.277,0.052
		c0.083,0.035,0.155,0.083,0.215,0.144c0.06,0.062,0.106,0.135,0.14,0.219c0.033,0.084,0.05,0.177,0.05,0.278
		c0,0.1-0.017,0.193-0.05,0.279c-0.034,0.085-0.081,0.158-0.14,0.219c-0.06,0.062-0.131,0.11-0.215,0.144
		c-0.084,0.034-0.176,0.051-0.277,0.051c-0.101,0-0.193-0.017-0.277-0.051c-0.083-0.034-0.155-0.082-0.215-0.144
		c-0.06-0.061-0.106-0.134-0.14-0.219C33.374,15.354,33.357,15.261,33.357,15.161z M33.48,15.161c0,0.082,0.013,0.158,0.039,0.229
		c0.026,0.071,0.063,0.132,0.112,0.185s0.107,0.093,0.176,0.123c0.069,0.03,0.146,0.045,0.232,0.045s0.163-0.015,0.232-0.045
		c0.069-0.03,0.128-0.071,0.176-0.123s0.085-0.114,0.112-0.185c0.026-0.071,0.039-0.147,0.039-0.229s-0.013-0.159-0.039-0.229
		c-0.026-0.071-0.063-0.133-0.112-0.185c-0.048-0.052-0.107-0.093-0.176-0.123c-0.069-0.03-0.146-0.044-0.232-0.044
		s-0.163,0.014-0.232,0.044c-0.069,0.03-0.128,0.071-0.176,0.123c-0.048,0.052-0.085,0.113-0.112,0.185
		C33.494,15.002,33.48,15.079,33.48,15.161z"/>
	<path fill="#58595B" d="M36.326,14.501h0.185l0.481,1.107l0.48-1.107h0.175v1.319h-0.123v-1.163h-0.003l-0.503,1.163h-0.054
		l-0.511-1.163h-0.004v1.163h-0.123V14.501z"/>
	<path fill="#58595B" d="M38.828,14.501h0.127l0.556,1.319h-0.138l-0.144-0.351H38.53l-0.149,0.351h-0.128L38.828,14.501z
		 M38.886,14.636l-0.308,0.723h0.606L38.886,14.636z"/>
	<path fill="#58595B" d="M40.284,15.252l-0.484-0.751h0.147l0.398,0.626l0.408-0.626h0.138l-0.484,0.751v0.568h-0.123V15.252z"/>
	<path fill="#58595B" d="M41.404,15.161c0-0.101,0.017-0.193,0.05-0.278c0.034-0.084,0.08-0.158,0.14-0.219
		c0.06-0.061,0.131-0.109,0.215-0.144c0.083-0.035,0.176-0.052,0.277-0.052s0.192,0.017,0.276,0.052s0.156,0.083,0.215,0.144
		c0.06,0.062,0.106,0.135,0.14,0.219c0.034,0.084,0.05,0.177,0.05,0.278c0,0.1-0.017,0.193-0.05,0.279
		c-0.033,0.085-0.08,0.158-0.14,0.219c-0.06,0.062-0.131,0.11-0.215,0.144s-0.176,0.051-0.276,0.051s-0.193-0.017-0.277-0.051
		c-0.084-0.034-0.156-0.082-0.215-0.144c-0.06-0.061-0.106-0.134-0.14-0.219C41.42,15.354,41.404,15.261,41.404,15.161z
		 M41.527,15.161c0,0.082,0.013,0.158,0.039,0.229c0.026,0.071,0.063,0.132,0.112,0.185c0.048,0.052,0.107,0.093,0.176,0.123
		c0.069,0.03,0.146,0.045,0.232,0.045c0.085,0,0.163-0.015,0.232-0.045c0.069-0.03,0.127-0.071,0.176-0.123s0.086-0.114,0.112-0.185
		c0.026-0.071,0.039-0.147,0.039-0.229s-0.013-0.159-0.039-0.229c-0.026-0.071-0.063-0.133-0.112-0.185
		c-0.048-0.052-0.107-0.093-0.176-0.123c-0.069-0.03-0.146-0.044-0.232-0.044c-0.086,0-0.164,0.014-0.232,0.044
		c-0.069,0.03-0.127,0.071-0.176,0.123c-0.049,0.052-0.086,0.113-0.112,0.185C41.54,15.002,41.527,15.079,41.527,15.161z"/>
	<path fill="#58595B" d="M43.472,14.501h0.347c0.017,0,0.041,0,0.07,0.001c0.03,0.001,0.062,0.005,0.097,0.012
		c0.035,0.006,0.07,0.016,0.106,0.03c0.036,0.014,0.068,0.033,0.097,0.06c0.028,0.026,0.052,0.059,0.071,0.099
		s0.028,0.088,0.028,0.145c0,0.064-0.011,0.116-0.033,0.157c-0.021,0.041-0.049,0.074-0.082,0.1
		c-0.033,0.025-0.069,0.044-0.109,0.057c-0.04,0.012-0.078,0.021-0.114,0.026l0.384,0.634h-0.14l-0.371-0.626h-0.229v0.626h-0.123
		V14.501z M43.595,15.083h0.261c0.064,0,0.117-0.008,0.157-0.024s0.072-0.036,0.094-0.06c0.022-0.023,0.038-0.049,0.046-0.077
		c0.008-0.027,0.012-0.052,0.012-0.075c0-0.022-0.004-0.047-0.012-0.074c-0.008-0.027-0.023-0.053-0.046-0.077
		c-0.022-0.023-0.054-0.043-0.094-0.06s-0.093-0.024-0.157-0.024h-0.261V15.083z"/>
</g>
<g>
	<circle fill="#184798" cx="10.476" cy="9.229" r="6.536"/>
	<g>
		<defs>
			<circle id="SVGID_1_" cx="10.476" cy="9.229" r="6.536"/>
		</defs>
		<clipPath id="SVGID_2_">
			<use xlink:href="#SVGID_1_"  overflow="visible"/>
		</clipPath>
		<path clip-path="url(#SVGID_2_)" fill="#172A53" d="M14.968,20.135l6.048-5.057l-4.692-6.083c0,0-1.623-2.263-3.716,1.268
			c-1.762,2.973-5.274,1.845-5.274,1.845L14.968,20.135z"/>
	</g>
	<path fill="#FFFFFF" d="M16.324,8.995l-2.459-2.869l-2.85,2.481l1.01,1.16l0.859-0.749c0.041,1.272-0.862,2.411-2.152,2.63
		c-1.409,0.239-2.745-0.708-2.984-2.118C7.508,8.122,8.457,6.786,9.865,6.546c0.265-0.045,0.527-0.048,0.78-0.014l1.343-1.203
		c-0.74-0.345-1.589-0.476-2.455-0.329C7.264,5.386,5.736,7.539,6.122,9.808c0.386,2.27,2.538,3.797,4.807,3.411
		c2.034-0.345,3.471-2.11,3.47-4.106l0.757,0.883L16.324,8.995z"/>
</g>
<g>
	<defs>
		<rect id="SVGID_3_" x="-1" y="16" width="216" height="78"/>
	</defs>
	<clipPath id="SVGID_4_">
		<use xlink:href="#SVGID_3_"  overflow="visible"/>
	</clipPath>
	<rect x="-1.205" y="15.777" clip-path="url(#SVGID_4_)" fill="#02429E" width="215.934" height="84.593"/>
	<path opacity="0.5" clip-path="url(#SVGID_4_)" fill="#02429E" d="M95.959,57.121L70.565,27.528L41.134,53.119L51.56,65.084
		l8.878-7.718c0.419,13.121-8.9,24.87-22.222,27.129C23.667,86.966,9.87,77.186,7.397,62.653
		c-2.47-14.534,7.319-28.316,21.868-30.785c2.735-0.465,5.442-0.494,8.053-0.143l13.866-12.401
		c-7.644-3.558-16.408-4.915-25.35-3.397C2.399,19.906-13.373,42.104-9.389,65.517c3.981,23.407,26.207,39.161,49.641,35.184
		c21.003-3.566,35.848-21.77,35.833-42.363l7.815,9.105L95.959,57.121z"/>
	<path opacity="0.5" clip-path="url(#SVGID_4_)" fill="#02429E" d="M240.702,29.484L215.305-0.111l-29.43,25.594l10.431,11.966
		l8.875-7.719c0.421,13.119-8.896,24.869-22.223,27.131c-14.549,2.468-28.344-7.311-30.818-21.843
		c-2.467-14.533,7.32-28.316,21.87-30.784c2.73-0.465,5.439-0.494,8.05-0.144l13.866-12.401c-7.646-3.558-16.409-4.915-25.35-3.396
		c-23.436,3.975-39.207,26.176-35.223,49.589c3.979,23.407,26.209,39.161,49.64,35.18c21.005-3.563,35.848-21.767,35.838-42.36
		l7.812,9.106L240.702,29.484z"/>
	<g clip-path="url(#SVGID_4_)">
		<g>
			<g>
				<path fill="#FFFFFF" d="M67.276,42.731h3.784v12.248h7.08v3.513H67.276V42.731z"/>
				<path fill="#FFFFFF" d="M84.267,55.876l-0.946,2.615h-3.989l6.083-15.76h4.307l6.11,15.76h-4.054l-0.948-2.615H84.267z
					 M88.46,49.299c-0.493-1.303-0.853-2.295-0.876-2.315h-0.072c-0.019,0.02-0.378,0.989-0.874,2.298l-1.13,3.148h4.078
					L88.46,49.299z"/>
				<path fill="#FFFFFF" d="M101.192,49.079h-0.066c0,0.024,0.048,1.959,0.048,4.009v5.404h-3.792v-15.76h3.834l6.717,9.229h0.066
					c0-0.023-0.022-2.05-0.022-3.759v-5.47h3.788v15.76h-3.854L101.192,49.079z"/>
				<path fill="#FFFFFF" d="M121.002,42.731c4.714,0,8.32,3.197,8.32,7.943c0,4.774-3.63,7.817-8.298,7.817h-6.733v-15.76H121.002z
					 M120.804,54.979c2.341,0,4.708-1.197,4.708-4.305c0-3.082-2.367-4.435-4.708-4.435h-2.729v8.739H120.804z"/>
				<path fill="#FFFFFF" d="M131.216,42.731h3.783v15.76h-3.783V42.731z"/>
				<path fill="#FFFFFF" d="M140.479,53.583c0.312,1.192,1.421,1.889,3.131,1.889c1.44,0,2.32-0.493,2.32-1.51
					c0-1.507-1.896-1.417-3.835-1.888c-2.135-0.52-4.797-1.508-4.797-4.841c0-3.222,2.433-4.817,5.971-4.817
					c3.224,0,5.522,1.303,6.401,4.116l-3.603,0.97c-0.389-1.149-1.286-1.775-2.865-1.775c-1.442,0-2.052,0.563-2.052,1.393
					c0,1.328,1.516,1.531,3.722,1.985c2.32,0.446,4.892,1.439,4.892,4.839c0,3.239-2.276,4.859-6.132,4.859
					c-2.753,0-5.856-0.831-6.766-4.254L140.479,53.583z"/>
			</g>
			<path fill="#F05E22" d="M77.569,74.839c0-0.779,0.025-0.854,0.025-0.953h-0.042c-0.781,0.661-2.27,1.227-3.853,1.227
				c-3.812,0-7.038-2.866-7.038-7.126c0-4.177,3.01-7.085,7.096-7.085c3.107,0,5.497,1.716,6.375,3.942l-3.25,0.875
				c-0.526-0.875-1.54-1.737-3.283-1.737c-2.209,0-3.633,1.639-3.633,4.025c0,2.422,1.581,4.004,4.004,4.004
				c1.877,0,3.05-0.823,3.479-1.407v-0.643H74.01v-3.05h6.495v7.928H77.569z"/>
			<path fill="#F05E22" d="M87.209,70.329h-0.685h-0.779v4.51h-3.288V61.174h5.202c3.44,0,5.449,1.794,5.449,4.627
				c0,1.874-0.917,3.258-2.577,3.886l3.125,5.152H89.77L87.209,70.329z M87.871,67.712c1.214,0,1.88-0.605,1.88-1.755
				c0-1.134-0.631-1.818-1.898-1.818h-2.109v3.573H87.871z"/>
			<path fill="#F05E22" d="M98.762,72.579l-0.822,2.26H94.48l5.276-13.665h3.731l5.307,13.665h-3.521l-0.82-2.26H98.762z
				 M102.398,66.873c-0.429-1.135-0.743-1.994-0.76-2.013h-0.058c-0.024,0.019-0.336,0.858-0.767,1.993l-0.974,2.734h3.536
				L102.398,66.873z"/>
			<path fill="#F05E22" d="M115.966,61.174c4.091,0,7.216,2.771,7.216,6.891c0,4.14-3.143,6.774-7.192,6.774h-5.852V61.174H115.966z
				 M115.794,71.792c2.03,0,4.081-1.033,4.081-3.728c0-2.675-2.051-3.846-4.081-3.846h-2.366v7.574H115.794z"/>
			<path fill="#F05E22" d="M124.823,61.174h9.973v3.045h-6.688v2.342h4.931v2.735h-4.931v2.497h6.783v3.046h-10.067V61.174z"/>
			<path fill="#F05E22" d="M140.108,66.68h-0.057c0,0.016,0.039,1.699,0.039,3.476v4.683h-3.281V61.174h3.32l5.829,8.004h0.061
				c0-0.02-0.019-1.777-0.019-3.259v-4.745h3.282v13.665h-3.345L140.108,66.68z"/>
		</g>
		<g>
			<polygon fill="#FFFFFF" points="69.73,86 67.523,79 68.774,79 70.265,84.795 71.77,79 73.01,79 70.762,86 			"/>
			<path fill="#FFFFFF" d="M67.962,77.628h0.546l1.755,6.812l1.768-6.812h0.535l-2.065,7.766h-0.51L67.962,77.628z"/>
			<path fill="#FFFFFF" d="M78.293,86l-0.598-2h-2.37l-0.615,2h-1.24l2.58-7h1.03l2.489,7H78.293z M77.318,84l-0.783-2.71L75.729,84
				H77.318z"/>
			<path fill="#FFFFFF" d="M76.306,77.628h0.523l2.285,7.766h-0.566l-0.591-2.063h-2.883l-0.616,2.063H73.93L76.306,77.628z
				 M76.544,78.419l-1.266,4.256h2.496L76.544,78.419z"/>
			<polygon fill="#FFFFFF" points="82,86 82,79 83,79 83,86 84.785,86 84.785,86 			"/>
			<path fill="#FFFFFF" d="M81.667,77.628h0.51v7.109h2.536v0.656h-3.046V77.628z"/>
			<polygon fill="#FFFFFF" points="87,86 87,79 90,79 90,86 91.354,86 91.354,86 			"/>
			<path fill="#FFFFFF" d="M87.279,77.628h0.507v7.109h2.537v0.656h-3.044V77.628z"/>
			<polygon fill="#FFFFFF" points="93,86 93,79 96,79 96,80 93,80 93,82 95.736,82 95.736,82 93,82 93,86 95.736,86 95.736,86 			
				"/>
			<path fill="#FFFFFF" d="M92.893,77.628h3.327v0.658h-2.817v2.764h2.64v0.657h-2.64v3.03h2.94v0.656h-3.449V77.628z"/>
			<path fill="#FFFFFF" d="M99.941,85.932c-0.498,0-0.919-0.193-1.214-0.561c-0.271-0.333-0.452-0.778-0.536-1.319l-0.05-0.302
				l1.163-0.302l0.067,0.364c0.131,0.78,0.453,0.78,0.571,0.78c0.107,0,0.198-0.02,0.267-0.069c0.078-0.05,0.144-0.121,0.189-0.221
				c0.062-0.114-0.682-0.254-0.654-0.421C99.776,83.699,99,83.504,99,83.288V79h2v4.114c0,0.233,0.375,0.499,0.349,0.807
				c-0.026,0.316,0.098,0.617-0.017,0.901c-0.114,0.305-0.202,0.558-0.444,0.766C100.634,85.812,100.377,85.932,99.941,85.932z"/>
			<path fill="#FFFFFF" d="M101.43,83.114c0,0.233-0.01,0.49-0.034,0.775c-0.024,0.287-0.085,0.555-0.184,0.811
				c-0.098,0.25-0.246,0.462-0.445,0.632s-0.473,0.26-0.826,0.26c-0.404,0-0.716-0.145-0.95-0.434S98.603,84.481,98.527,84
				l0.507-0.131c0.121,0.708,0.424,1.065,0.907,1.065c0.178,0,0.329-0.041,0.457-0.126c0.124-0.087,0.229-0.199,0.304-0.344
				c0.077-0.147,0.134-0.323,0.17-0.52c0.033-0.21,0.053-0.422,0.053-0.657v-5.66h0.506V83.114z"/>
			<path fill="#FFFFFF" d="M107.15,85.932c-0.475,0-0.916-0.119-1.315-0.35c-0.387-0.222-0.717-0.544-0.991-0.948
				c-0.27-0.388-0.479-0.859-0.624-1.393c-0.147-0.523-0.222-1.111-0.222-1.73c0-0.621,0.075-1.204,0.222-1.726
				c0.145-0.53,0.354-0.999,0.624-1.392c0.274-0.4,0.604-0.718,0.991-0.948c0.399-0.235,0.841-0.354,1.315-0.354
				c0.476,0,0.916,0.118,1.314,0.354c0.387,0.23,0.723,0.548,0.989,0.948c0.269,0.393,0.48,0.861,0.626,1.392
				c0.148,0.521,0.219,1.104,0.219,1.726c0,0.619-0.07,1.207-0.219,1.73c-0.146,0.533-0.357,1.005-0.626,1.393
				c-0.273,0.404-0.603,0.727-0.989,0.948C108.066,85.812,107.626,85.932,107.15,85.932z M107.15,78.429
				c-0.295,0-0.551,0.065-0.775,0.211c-0.246,0.151-0.449,0.354-0.625,0.62c-0.18,0.272-0.321,0.604-0.416,0.986
				c-0.1,0.388-0.151,0.812-0.151,1.265c0,0.456,0.052,0.877,0.151,1.262c0.095,0.382,0.236,0.712,0.416,0.992
				c0.171,0.26,0.378,0.473,0.621,0.616c0.229,0.143,0.484,0.212,0.779,0.212c0.294,0,0.549-0.069,0.775-0.212
				c0.246-0.144,0.451-0.356,0.623-0.616c0.181-0.28,0.316-0.61,0.415-0.992c0.101-0.385,0.152-0.812,0.152-1.262
				c0-0.452-0.052-0.877-0.152-1.265c-0.099-0.383-0.234-0.714-0.415-0.986c-0.172-0.26-0.377-0.474-0.623-0.62
				C107.699,78.494,107.444,78.429,107.15,78.429z"/>
			<path fill="#FFFFFF" d="M104.337,81.511c0-0.594,0.071-1.137,0.208-1.633c0.139-0.493,0.325-0.932,0.573-1.289
				c0.25-0.363,0.548-0.647,0.889-0.851c0.348-0.208,0.728-0.305,1.144-0.305c0.417,0,0.795,0.097,1.143,0.305
				c0.343,0.203,0.638,0.487,0.884,0.851c0.247,0.357,0.441,0.796,0.578,1.289c0.137,0.496,0.209,1.039,0.209,1.633
				c0,0.591-0.072,1.141-0.209,1.64c-0.137,0.501-0.331,0.936-0.578,1.294c-0.246,0.364-0.541,0.646-0.884,0.845
				c-0.348,0.203-0.726,0.303-1.143,0.303c-0.416,0-0.796-0.1-1.144-0.303c-0.341-0.199-0.64-0.48-0.889-0.845
				c-0.248-0.358-0.434-0.793-0.573-1.294C104.408,82.651,104.337,82.102,104.337,81.511z M104.844,81.511
				c0,0.483,0.054,0.93,0.159,1.349c0.109,0.417,0.266,0.776,0.461,1.086c0.202,0.31,0.445,0.551,0.73,0.728
				c0.285,0.171,0.602,0.262,0.956,0.262s0.67-0.091,0.953-0.262c0.286-0.177,0.532-0.418,0.728-0.728
				c0.201-0.31,0.35-0.669,0.465-1.086c0.106-0.419,0.158-0.865,0.158-1.349c0-0.481-0.052-0.935-0.158-1.349
				c-0.115-0.415-0.264-0.777-0.465-1.086c-0.195-0.308-0.441-0.548-0.728-0.724c-0.283-0.18-0.599-0.266-0.953-0.266
				s-0.671,0.086-0.956,0.266c-0.285,0.176-0.528,0.416-0.73,0.724c-0.195,0.309-0.352,0.671-0.461,1.086
				C104.898,80.576,104.844,81.029,104.844,81.511z"/>
			<polygon fill="#FFFFFF" points="122,85.341 122,80.79 119.682,86 118.962,86 117,80.755 117,86 115,86 115,79 117.592,79 
				119.329,84.686 121.058,79 122,79 122,85.341 			"/>
			<path fill="#FFFFFF" d="M116.582,77.628h0.762l1.985,6.514l1.979-6.514h0.724v7.766h-0.512v-6.841h-0.014l-2.075,6.841h-0.221
				l-2.104-6.841h-0.021v6.841h-0.505V77.628z"/>
			<path fill="#FFFFFF" d="M128.893,86l-0.59-2h-2.375l-0.614,2h-1.244l2.58-7h1.029l2.494,7H128.893z M127.924,84l-0.786-2.71
				L126.33,84H127.924z"/>
			<path fill="#FFFFFF" d="M126.898,77.628h0.529l2.291,7.766h-0.57l-0.593-2.063h-2.883l-0.616,2.063h-0.528L126.898,77.628z
				 M127.143,78.419l-1.271,4.256h2.5L127.143,78.419z"/>
			<polygon fill="#FFFFFF" points="135,85.341 135,82.121 130.381,79 131.735,79 133.16,82.2 134.628,79 135.94,79 135,82.121 
				135,85.341 			"/>
			<path fill="#FFFFFF" d="M132.905,82.05l-1.993-4.422h0.604l1.645,3.686l1.683-3.686h0.571l-1.998,4.422v3.344h-0.511V82.05z"/>
			<path fill="#FFFFFF" d="M140.337,85.932c-0.474,0-0.918-0.119-1.308-0.35c-0.39-0.222-0.723-0.544-0.999-0.948
				c-0.264-0.384-0.474-0.855-0.624-1.393c-0.145-0.523-0.217-1.111-0.217-1.73c0-0.621,0.072-1.204,0.217-1.726
				c0.15-0.535,0.36-1.003,0.624-1.392c0.276-0.4,0.605-0.718,0.994-0.948c0.395-0.235,0.839-0.354,1.312-0.354
				c0.477,0,0.917,0.118,1.316,0.354c0.386,0.228,0.722,0.548,0.995,0.948c0.268,0.393,0.479,0.861,0.624,1.392
				c0.146,0.526,0.22,1.108,0.22,1.726c0,0.619-0.073,1.199-0.22,1.73c-0.146,0.533-0.356,1.001-0.624,1.393
				c-0.277,0.404-0.609,0.727-0.995,0.948C141.254,85.812,140.809,85.932,140.337,85.932z M140.337,78.429
				c-0.294,0-0.549,0.065-0.772,0.211c-0.246,0.151-0.449,0.354-0.626,0.62c-0.179,0.272-0.315,0.604-0.416,0.986
				c-0.098,0.388-0.151,0.812-0.151,1.265c0,0.45,0.054,0.877,0.151,1.262c0.101,0.382,0.237,0.712,0.416,0.992
				c0.177,0.26,0.384,0.473,0.626,0.616c0.224,0.143,0.479,0.212,0.772,0.212c0.293,0,0.549-0.069,0.78-0.212
				c0.242-0.144,0.449-0.356,0.618-0.62c0.182-0.276,0.323-0.606,0.418-0.988c0.104-0.389,0.152-0.812,0.152-1.262
				c0-0.452-0.049-0.877-0.152-1.265c-0.095-0.38-0.236-0.714-0.418-0.986c-0.169-0.266-0.376-0.469-0.618-0.62
				C140.886,78.494,140.63,78.429,140.337,78.429z"/>
			<path fill="#FFFFFF" d="M137.528,81.511c0-0.594,0.068-1.137,0.204-1.633c0.138-0.493,0.332-0.932,0.578-1.289
				c0.246-0.363,0.543-0.647,0.888-0.851c0.346-0.208,0.724-0.305,1.139-0.305c0.418,0,0.793,0.097,1.144,0.305
				c0.345,0.203,0.645,0.487,0.891,0.851c0.246,0.357,0.436,0.796,0.575,1.289c0.136,0.496,0.209,1.039,0.209,1.633
				c0,0.591-0.073,1.141-0.209,1.64c-0.14,0.501-0.329,0.936-0.575,1.294c-0.246,0.364-0.546,0.646-0.891,0.845
				c-0.351,0.203-0.726,0.303-1.144,0.303c-0.415,0-0.793-0.1-1.139-0.303c-0.345-0.199-0.642-0.48-0.888-0.845
				c-0.246-0.358-0.44-0.793-0.578-1.294C137.597,82.651,137.528,82.102,137.528,81.511z M138.035,81.511
				c0,0.483,0.052,0.93,0.16,1.349c0.111,0.417,0.26,0.776,0.458,1.086c0.204,0.31,0.446,0.551,0.73,0.728
				c0.281,0.171,0.602,0.262,0.953,0.262c0.36,0,0.674-0.091,0.96-0.262c0.282-0.177,0.524-0.418,0.725-0.728
				c0.199-0.31,0.354-0.669,0.463-1.086c0.11-0.419,0.159-0.865,0.159-1.349c0-0.481-0.049-0.935-0.159-1.349
				c-0.109-0.415-0.264-0.777-0.463-1.086c-0.2-0.308-0.442-0.548-0.725-0.724c-0.286-0.18-0.6-0.266-0.96-0.266
				c-0.352,0-0.672,0.086-0.953,0.266c-0.284,0.176-0.526,0.416-0.73,0.724c-0.198,0.309-0.347,0.671-0.458,1.086
				C138.087,80.576,138.035,81.029,138.035,81.511z"/>
			<path fill="#FFFFFF" d="M148.815,86l-1.528-4H146v3.341l0,0V79h1.487c0.076,0,1.125-0.711,1.294-0.621
				c0.189,0.102,0.359-0.144,0.506,0.043c0.143,0.186,0.261,0.217,0.346,0.485c0.083,0.265,0.131,0.486,0.131,0.859
				c0,0.422-0.051,0.713-0.154,0.99c-0.109,0.285-0.243,0.494-0.403,0.674c-0.17,0.189-0.359,0.311-0.566,0.4
				c-0.048,0.023-0.095,0.171-0.141,0.188l1.634,3.98H148.815z M147.642,81c0.204,0,0.366-0.176,0.481-0.242
				c0.118-0.07,0.211-0.217,0.271-0.315c0.069-0.102,0.117-0.251,0.141-0.367c0.03-0.141,0.04-0.282,0.04-0.39
				c0-0.106-0.01-0.238-0.04-0.381c-0.023-0.116-0.071-0.228-0.141-0.339c-0.061-0.088-0.153,0.018-0.271-0.048
				c-0.115-0.069-0.277,0.082-0.481,0.082H147v2H147.642z"/>
			<path fill="#FFFFFF" d="M146.059,77.628h1.429c0.076,0,0.169,0,0.293,0.012c0.122,0.004,0.254,0.029,0.402,0.066
				c0.141,0.032,0.286,0.094,0.438,0.175c0.147,0.079,0.281,0.199,0.398,0.351c0.116,0.154,0.217,0.347,0.294,0.58
				c0.074,0.235,0.112,0.52,0.112,0.858c0,0.373-0.045,0.676-0.134,0.922c-0.094,0.241-0.202,0.434-0.341,0.586
				c-0.133,0.15-0.282,0.258-0.447,0.333c-0.169,0.072-0.318,0.124-0.469,0.153l1.584,3.729h-0.576l-1.527-3.687h-0.945v3.687
				h-0.511V77.628z M146.569,81.05h1.072c0.27,0,0.481-0.048,0.647-0.143c0.171-0.095,0.299-0.215,0.388-0.35
				c0.096-0.138,0.162-0.285,0.19-0.449c0.037-0.165,0.05-0.312,0.05-0.438c0-0.134-0.013-0.278-0.05-0.438
				c-0.028-0.164-0.095-0.312-0.19-0.454c-0.089-0.138-0.217-0.253-0.388-0.349c-0.166-0.097-0.378-0.143-0.647-0.143h-1.072V81.05z
				"/>
		</g>
		<rect x="65" y="24" fill="#F05E22" width="39" height="15"/>
		<g>
			<path fill="#FFFFFF" d="M72.119,34.873l-2.967-8.292h2.268l1.279,3.933c0.509,1.555,0.71,2.192,0.724,2.229h0.033
				c0.017-0.036,0.217-0.673,0.713-2.19l1.295-3.971h2.16l-2.967,8.292H72.119z"/>
			<path fill="#FFFFFF" d="M82.104,26.416c2.534,0,4.376,1.776,4.376,4.313c0,2.534-1.842,4.312-4.376,4.312
				c-2.537,0-4.378-1.778-4.378-4.312C77.726,28.192,79.567,26.416,82.104,26.416z M82.104,33.16c1.376,0,2.37-0.95,2.37-2.432
				c0-1.494-0.994-2.439-2.37-2.439c-1.378,0-2.376,0.945-2.376,2.439C79.728,32.21,80.726,33.16,82.104,33.16z"/>
			<path fill="#FFFFFF" d="M91.425,28.431v6.441H89.43v-6.441h-2.536v-1.85h7.066v1.85H91.425z"/>
			<path fill="#FFFFFF" d="M94.991,26.581h6.048v1.85h-4.054v1.422h2.99v1.657h-2.99v1.516h4.112v1.846h-6.106V26.581z"/>
		</g>
		<g>
			<path fill="#FFFFFF" d="M106.726,31.616l4.086-2.666c1.549-1.024,2.381-1.411,2.381-2.322c0-0.894-0.7-1.414-1.911-1.414
				c-1.02,0-1.74,0.506-1.854,1.398l-2.911-0.693c0.322-1.583,1.588-3.117,4.975-3.117c3.272,0,4.949,1.365,4.949,3.589
				c0,2.242-1.659,3.372-3.704,4.481l-2.304,1.333l0.018,0.065c0.207-0.015,0.644-0.065,1.814-0.065h4.214v2.624h-9.752V31.616z"/>
			<path fill="#FFFFFF" d="M128.707,28.938c0,3.604-1.569,6.129-5.426,6.129c-3.855,0-5.404-2.525-5.404-6.129
				c0-3.406,1.549-6.135,5.404-6.135C127.138,22.803,128.707,25.519,128.707,28.938z M121.069,28.938c0,2.342,0.529,3.47,2.212,3.47
				c1.702,0,2.23-1.128,2.23-3.47c0-2.343-0.528-3.473-2.23-3.473C121.599,25.465,121.069,26.595,121.069,28.938z"/>
			<path fill="#FFFFFF" d="M133.337,29.495c0-1.502,0.131-3.169,0.113-3.169h-0.075c-0.021,0-0.305,0.288-0.796,0.624l-0.719,0.59
				l-1.758-1.818l3.46-2.683h2.944V34.83h-3.17V29.495z"/>
			<path fill="#FFFFFF" d="M143.543,27.691c0.336-0.236,0.94-0.421,1.735-0.421c2.214,0,4.119,1.431,4.119,3.708
				c0,2.44-2.058,4.088-5.196,4.088c-2.966,0-5.196-1.481-5.196-4.311c0-1.649,0.831-3.051,2.249-4.7l2.529-3.018h3.518
				l-3.832,4.601L143.543,27.691z M146.263,30.893c0-0.997-0.814-1.62-2.004-1.62c-1.171,0-2.002,0.609-2.002,1.62
				c0,1.009,0.831,1.634,2.002,1.634S146.263,31.917,146.263,30.893z"/>
		</g>
		<rect x="104" y="35" fill="#F05E22" width="49" height="4"/>
	</g>
</g>
</svg>
