<?xml version="1.0" encoding="utf-8"?>
<!-- Generator: Adobe Illustrator 16.0.0, SVG Export Plug-In . SVG Version: 6.00 Build 0)  -->
<!DOCTYPE svg PUBLIC "-//W3C//DTD SVG 1.1//EN" "http://www.w3.org/Graphics/SVG/1.1/DTD/svg11.dtd">
<svg version="1.1" id="Layer_1" xmlns="http://www.w3.org/2000/svg" xmlns:xlink="http://www.w3.org/1999/xlink" x="0px" y="0px"
	 width="292.5px" height="244px" viewBox="0 0 292.5 244" enable-background="new 0 0 292.5 244" xml:space="preserve">
<rect x="-7" y="-6" fill="#ED4424" width="305" height="255"/>
<g>
	<g>
		<defs>
			<circle id="SVGID_1_" cx="77.721" cy="122" r="64.103"/>
		</defs>
		<use xlink:href="#SVGID_1_"  overflow="visible" fill="#FFFFFF"/>
		<clipPath id="SVGID_2_">
			<use xlink:href="#SVGID_1_"  overflow="visible"/>
		</clipPath>
		<g clip-path="url(#SVGID_2_)">
			<g>
				<polygon fill="#ED4424" points="46.977,119.325 37.961,119.325 37.961,162.091 0.279,197.384 0.279,209.248 12.454,209.096 
					47.207,162.091 				"/>
			</g>
			<g>
				<polygon fill="#ED4424" points="59.457,100.714 62.118,100.714 55.028,88.771 47.785,100.714 50.443,100.714 50.443,162.091 
					21.7,208.942 46.359,208.942 59.228,162.091 				"/>
			</g>
			<g>
				<polygon fill="#ED4424" points="73.098,81.907 63.62,81.907 63.62,162.091 56.53,209.248 80.726,209.248 72.868,162.098 				"/>
			</g>
			<g>
				<polygon fill="#ED4424" points="86.736,110.506 77.722,110.506 77.722,162.091 91.51,209.25 115.089,209.248 86.274,162.091 
									"/>
			</g>
			<g>
				<polygon fill="#ED4424" points="98.988,124.847 90.204,124.847 90.204,162.091 124.489,209.248 148.531,209.25 98.988,162.091 
									"/>
			</g>
			<g>
				<polygon fill="#ED4424" points="112.164,162.091 112.393,97.679 115.054,97.679 107.965,85.735 100.722,97.679 103.38,97.679 
					103.38,162.091 158.702,209.25 183.669,209.25 				"/>
			</g>
		</g>
		<use xlink:href="#SVGID_1_"  overflow="visible" fill="none" stroke="#ED4424" stroke-miterlimit="10"/>
	</g>
	<g>
		<path fill="#FFFFFF" d="M163.955,136.604V99.744h2.863v34.481h18.214v2.378H163.955z"/>
		<path fill="#FFFFFF" d="M213.46,131.632c-3.748,3.639-8.377,5.457-13.89,5.457c-5.549,0-10.18-1.801-13.89-5.403
			c-3.748-3.64-5.62-8.143-5.62-13.512c0-5.368,1.854-9.854,5.566-13.457c3.746-3.639,8.395-5.459,13.943-5.459
			c5.477,0,10.106,1.802,13.89,5.404c3.747,3.64,5.62,8.144,5.62,13.512C219.08,123.507,217.207,127.992,213.46,131.632z
			 M211.19,106.662c-3.171-3.17-7.045-4.756-11.62-4.756c-4.576,0-8.449,1.586-11.619,4.756c-3.208,3.207-4.811,7.044-4.811,11.512
			c0,4.504,1.585,8.342,4.756,11.511c3.171,3.172,7.062,4.756,11.674,4.756c4.575,0,8.449-1.584,11.62-4.756
			c3.206-3.205,4.811-7.043,4.811-11.511S214.396,109.869,211.19,106.662z"/>
		<path fill="#FFFFFF" d="M227.241,102.122v13.998h14.538v2.378h-14.538v18.105h-2.865V99.744h19.079v2.378H227.241z"/>
		<path fill="#FFFFFF" d="M260.749,102.122v34.481h-2.864v-34.481h-13.836v-2.378h30.535v2.378H260.749z"/>
	</g>
	<g>
		<path fill="#FFFFFF" d="M166.416,76.786v13.792h-1.146V76.786h-5.535v-0.951h12.216v0.951H166.416z"/>
		<path fill="#FFFFFF" d="M184.704,90.578v-6.982h-9.813v6.982h-1.146V75.835h1.146v6.81h9.813v-6.81h1.146v14.743H184.704z"/>
		<path fill="#FFFFFF" d="M188.229,90.578V75.835h8.064v0.951h-6.919v5.901h6.723v0.93l-6.723,0.021v5.988h7.069v0.951H188.229z"/>
	</g>
	<g>
		<path fill="#FFFFFF" d="M169.988,153.936l-1.166-2.549h-3.597l-1.166,2.549h-0.594l3.402-7.421h0.312l3.392,7.421H169.988z
			 M167.019,147.444l-1.577,3.467h3.164L167.019,147.444z"/>
		<path fill="#FFFFFF" d="M177.009,147.045v6.891h-0.573v-6.891h-2.765v-0.476h6.102v0.476H177.009z"/>
		<path fill="#FFFFFF" d="M181.231,150.047c-0.094-0.086-0.183-0.162-0.266-0.227c-0.082-0.065-0.163-0.123-0.242-0.173
			c-0.166-0.101-0.317-0.151-0.454-0.151c-0.303,0-0.604,0.169-0.907,0.508c-0.295,0.324-0.515,0.615-0.658,0.874v3.058h-0.519
			v-4.85h0.519v1.091c0.13-0.216,0.264-0.392,0.404-0.529c0.141-0.137,0.283-0.267,0.427-0.389c0.151-0.122,0.301-0.198,0.448-0.227
			c0.147-0.029,0.293-0.044,0.438-0.044c0.238,0,0.472,0.083,0.702,0.249c0.223,0.158,0.36,0.27,0.41,0.334L181.231,150.047z"/>
		<path fill="#FFFFFF" d="M185.4,153.956v-0.291c-0.216,0.101-0.458,0.188-0.725,0.259c-0.244,0.072-0.521,0.108-0.831,0.108
			c-0.678,0-1.238-0.223-1.685-0.669c-0.439-0.447-0.658-1.02-0.658-1.718c0-0.777,0.226-1.414,0.68-1.912
			c0.461-0.496,1.051-0.745,1.771-0.745c0.245,0,0.486,0.036,0.724,0.108c0.26,0.08,0.505,0.188,0.735,0.324v-0.335h0.508v4.87
			H185.4z M185.411,149.929c-0.095-0.065-0.267-0.155-0.519-0.271c-0.253-0.107-0.529-0.162-0.832-0.162
			c-0.575,0-1.055,0.201-1.437,0.605c-0.382,0.402-0.572,0.914-0.572,1.533c0,0.584,0.173,1.048,0.519,1.393
			c0.345,0.354,0.803,0.53,1.371,0.53c0.332,0,0.616-0.044,0.854-0.13c0.252-0.101,0.457-0.202,0.616-0.303V149.929z"/>
		<path fill="#FFFFFF" d="M190.713,153.936v-2.766c0-0.519-0.111-0.929-0.335-1.23c-0.23-0.296-0.561-0.443-0.993-0.443
			c-0.396,0-0.716,0.101-0.961,0.303c-0.237,0.202-0.447,0.438-0.626,0.713v3.424h-0.519v-4.85h0.507v0.886
			c0.245-0.375,0.49-0.631,0.734-0.767c0.252-0.145,0.541-0.217,0.864-0.217c0.562,0,1.012,0.181,1.35,0.54
			c0.332,0.354,0.498,0.847,0.498,1.479v2.928H190.713z"/>
		<path fill="#FFFFFF" d="M194.936,153.644c-0.295,0.267-0.665,0.399-1.111,0.399c-0.354,0-0.659-0.054-0.918-0.161
			c-0.245-0.116-0.433-0.214-0.562-0.292v-0.519c0.188,0.122,0.418,0.227,0.692,0.312c0.272,0.094,0.536,0.141,0.788,0.141
			c0.303,0,0.557-0.075,0.767-0.227c0.201-0.158,0.303-0.367,0.303-0.627c0-0.187-0.076-0.355-0.228-0.507
			c-0.165-0.151-0.511-0.324-1.037-0.519c-0.396-0.137-0.705-0.313-0.929-0.529c-0.216-0.202-0.323-0.475-0.323-0.82
			c0-0.375,0.154-0.685,0.465-0.929c0.316-0.253,0.669-0.379,1.058-0.379c0.158,0,0.304,0.013,0.438,0.038
			c0.133,0.025,0.261,0.06,0.383,0.103c0.238,0.094,0.411,0.188,0.519,0.281v0.551c-0.086-0.065-0.179-0.126-0.275-0.184
			s-0.203-0.112-0.318-0.162c-0.237-0.101-0.472-0.151-0.702-0.151c-0.338,0-0.598,0.079-0.777,0.237
			c-0.194,0.166-0.291,0.36-0.291,0.584c0,0.236,0.097,0.425,0.291,0.561c0.216,0.145,0.481,0.274,0.8,0.389
			c0.402,0.138,0.744,0.317,1.025,0.54c0.266,0.217,0.399,0.519,0.399,0.908C195.39,153.057,195.238,153.378,194.936,153.644z"/>
		<path fill="#FFFFFF" d="M199.511,147.131c-0.054-0.014-0.124-0.036-0.211-0.064c-0.194-0.058-0.393-0.087-0.594-0.087
			c-0.374,0-0.659,0.119-0.854,0.356s-0.291,0.608-0.291,1.112v0.638h0.939v0.421h-0.939v4.429h-0.519v-4.429h-0.896v-0.421h0.896
			v-0.8c0-0.532,0.158-0.968,0.476-1.307c0.316-0.338,0.724-0.507,1.22-0.507c0.188,0,0.375,0.028,0.562,0.086
			c0.174,0.051,0.277,0.09,0.313,0.118v0.486C199.599,147.156,199.565,147.146,199.511,147.131z"/>
		<path fill="#FFFFFF" d="M202.972,153.31c-0.475,0.482-1.064,0.723-1.771,0.723c-0.713,0-1.3-0.24-1.76-0.723
			c-0.477-0.483-0.714-1.081-0.714-1.794c0-0.712,0.233-1.313,0.702-1.803c0.476-0.482,1.066-0.725,1.771-0.725
			c0.712,0,1.299,0.242,1.761,0.725c0.475,0.489,0.713,1.091,0.713,1.803C203.675,152.222,203.44,152.819,202.972,153.31z
			 M202.562,150.09c-0.374-0.396-0.828-0.594-1.36-0.594c-0.533,0-0.987,0.194-1.361,0.583c-0.374,0.396-0.561,0.875-0.561,1.437
			s0.187,1.033,0.561,1.415c0.374,0.396,0.828,0.594,1.361,0.594c0.525,0,0.979-0.194,1.36-0.583
			c0.374-0.396,0.562-0.871,0.562-1.426C203.124,150.947,202.936,150.472,202.562,150.09z"/>
		<path fill="#FFFFFF" d="M207.854,150.047c-0.094-0.086-0.183-0.162-0.265-0.227c-0.082-0.065-0.164-0.123-0.242-0.173
			c-0.166-0.101-0.318-0.151-0.454-0.151c-0.303,0-0.604,0.169-0.907,0.508c-0.296,0.324-0.516,0.615-0.659,0.874v3.058h-0.519
			v-4.85h0.519v1.091c0.13-0.216,0.265-0.392,0.405-0.529c0.141-0.137,0.282-0.267,0.427-0.389c0.151-0.122,0.3-0.198,0.448-0.227
			c0.147-0.029,0.293-0.044,0.437-0.044c0.238,0,0.472,0.083,0.702,0.249c0.224,0.158,0.36,0.27,0.41,0.334L207.854,150.047z"/>
		<path fill="#FFFFFF" d="M215.38,153.936v-2.766c0-0.532-0.11-0.942-0.334-1.23c-0.23-0.296-0.551-0.443-0.961-0.443
			c-0.317,0-0.595,0.123-0.832,0.367c-0.237,0.252-0.436,0.508-0.594,0.767v3.306h-0.519v-2.766c0-0.525-0.104-0.936-0.313-1.23
			c-0.216-0.296-0.528-0.443-0.939-0.443c-0.354,0-0.647,0.101-0.886,0.303c-0.115,0.101-0.222,0.212-0.318,0.335
			c-0.098,0.122-0.189,0.252-0.275,0.388v3.414h-0.519v-4.85h0.508v0.886c0.23-0.367,0.468-0.623,0.713-0.767
			c0.252-0.145,0.532-0.217,0.842-0.217h0.13c0.273,0,0.533,0.08,0.777,0.238c0.252,0.158,0.479,0.464,0.681,0.917
			c0.137-0.259,0.346-0.519,0.626-0.776c0.274-0.253,0.62-0.379,1.037-0.379h0.13c0.475,0,0.853,0.188,1.134,0.562
			c0.287,0.374,0.432,0.86,0.432,1.457v2.928H215.38z"/>
		<path fill="#FFFFFF" d="M220.867,153.956v-0.291c-0.216,0.101-0.458,0.188-0.725,0.259c-0.244,0.072-0.521,0.108-0.831,0.108
			c-0.678,0-1.238-0.223-1.685-0.669c-0.439-0.447-0.658-1.02-0.658-1.718c0-0.777,0.226-1.414,0.68-1.912
			c0.461-0.496,1.051-0.745,1.771-0.745c0.244,0,0.485,0.036,0.723,0.108c0.26,0.08,0.505,0.188,0.735,0.324v-0.335h0.508v4.87
			H220.867z M220.878,149.929c-0.095-0.065-0.267-0.155-0.519-0.271c-0.253-0.107-0.529-0.162-0.832-0.162
			c-0.575,0-1.055,0.201-1.437,0.605c-0.382,0.402-0.572,0.914-0.572,1.533c0,0.584,0.173,1.048,0.519,1.393
			c0.346,0.354,0.803,0.53,1.371,0.53c0.332,0,0.616-0.044,0.854-0.13c0.252-0.101,0.457-0.202,0.616-0.303V149.929z"/>
		<path fill="#FFFFFF" d="M225.5,153.892c-0.08,0.029-0.159,0.055-0.238,0.076c-0.151,0.043-0.32,0.064-0.508,0.064
			c-0.345,0-0.622-0.094-0.831-0.28c-0.202-0.194-0.302-0.461-0.302-0.8v-3.445h-1.308v-0.421h1.308v-1.372l0.356-0.237h0.161v1.609
			h1.361v0.421h-1.361v3.089c0,0.382,0.047,0.63,0.141,0.746c0.101,0.122,0.306,0.183,0.615,0.183c0.13,0,0.267-0.021,0.41-0.064
			c0.145-0.043,0.292-0.101,0.443-0.173v0.507C225.662,153.83,225.578,153.863,225.5,153.892z"/>
		<path fill="#FFFFFF" d="M226.601,147.455v-0.886h0.519v0.886H226.601z M226.601,153.936v-4.85h0.519v4.85H226.601z"/>
		<path fill="#FFFFFF" d="M232.573,153.31c-0.475,0.482-1.064,0.723-1.771,0.723c-0.713,0-1.3-0.24-1.76-0.723
			c-0.477-0.483-0.714-1.081-0.714-1.794c0-0.712,0.233-1.313,0.702-1.803c0.476-0.482,1.066-0.725,1.771-0.725
			c0.712,0,1.299,0.242,1.761,0.725c0.475,0.489,0.713,1.091,0.713,1.803C233.276,152.222,233.042,152.819,232.573,153.31z
			 M232.163,150.09c-0.374-0.396-0.828-0.594-1.36-0.594c-0.533,0-0.987,0.194-1.361,0.583c-0.374,0.396-0.561,0.875-0.561,1.437
			s0.187,1.033,0.561,1.415c0.374,0.396,0.828,0.594,1.361,0.594c0.525,0,0.979-0.194,1.36-0.583
			c0.374-0.396,0.562-0.871,0.562-1.426C232.726,150.947,232.537,150.472,232.163,150.09z"/>
		<path fill="#FFFFFF" d="M237.833,153.936v-2.766c0-0.519-0.112-0.929-0.335-1.23c-0.23-0.296-0.562-0.443-0.994-0.443
			c-0.396,0-0.716,0.101-0.961,0.303c-0.237,0.202-0.446,0.438-0.626,0.713v3.424h-0.519v-4.85h0.508v0.886
			c0.245-0.375,0.489-0.631,0.734-0.767c0.252-0.145,0.54-0.217,0.863-0.217c0.562,0,1.013,0.181,1.351,0.54
			c0.331,0.354,0.497,0.847,0.497,1.479v2.928H237.833z"/>
		<path fill="#FFFFFF" d="M243.319,153.956v-0.291c-0.216,0.101-0.457,0.188-0.724,0.259c-0.245,0.072-0.521,0.108-0.832,0.108
			c-0.677,0-1.238-0.223-1.685-0.669c-0.438-0.447-0.658-1.02-0.658-1.718c0-0.777,0.227-1.414,0.68-1.912
			c0.461-0.496,1.051-0.745,1.771-0.745c0.245,0,0.486,0.036,0.724,0.108c0.259,0.08,0.505,0.188,0.735,0.324v-0.335h0.507v4.87
			H243.319z M243.331,149.929c-0.095-0.065-0.267-0.155-0.519-0.271c-0.253-0.107-0.53-0.162-0.832-0.162
			c-0.576,0-1.055,0.201-1.438,0.605c-0.381,0.402-0.572,0.914-0.572,1.533c0,0.584,0.174,1.048,0.52,1.393
			c0.345,0.354,0.803,0.53,1.371,0.53c0.331,0,0.615-0.044,0.854-0.13c0.252-0.101,0.457-0.202,0.616-0.303V149.929z"/>
		<path fill="#FFFFFF" d="M245.026,153.936v-7.366h0.519v7.366H245.026z"/>
		<path fill="#FFFFFF" d="M253.299,153.449c-0.41,0.389-0.899,0.583-1.469,0.583c-0.431,0-0.82-0.079-1.165-0.238
			c-0.181-0.078-0.334-0.152-0.46-0.221s-0.229-0.131-0.308-0.189v-0.669c0.18,0.137,0.353,0.254,0.519,0.351
			c0.165,0.098,0.32,0.179,0.465,0.244c0.287,0.128,0.572,0.193,0.853,0.193c0.446,0,0.821-0.14,1.123-0.421
			c0.303-0.281,0.454-0.631,0.454-1.048c0-0.439-0.145-0.777-0.433-1.015c-0.302-0.245-0.748-0.468-1.339-0.67
			c-0.604-0.209-1.044-0.454-1.318-0.734c-0.28-0.28-0.42-0.688-0.42-1.221c0-0.519,0.205-0.969,0.615-1.35
			c0.425-0.382,0.918-0.572,1.479-0.572c0.41,0,0.781,0.061,1.112,0.184c0.165,0.064,0.299,0.12,0.399,0.167
			c0.102,0.048,0.17,0.084,0.206,0.113l0.01,0.627c-0.078-0.051-0.178-0.104-0.297-0.162s-0.25-0.122-0.394-0.194
			c-0.28-0.138-0.604-0.206-0.973-0.206c-0.438,0-0.803,0.134-1.091,0.4c-0.302,0.273-0.453,0.597-0.453,0.972
			c0,0.403,0.119,0.706,0.356,0.907c0.244,0.209,0.647,0.417,1.209,0.627c0.749,0.272,1.257,0.558,1.523,0.853
			c0.273,0.31,0.41,0.745,0.41,1.307C253.915,152.6,253.71,153.06,253.299,153.449z"/>
		<path fill="#FFFFFF" d="M258.743,153.276c-0.461,0.504-1.016,0.756-1.664,0.756c-0.273,0-0.536-0.028-0.788-0.086
			c-0.122-0.036-0.242-0.078-0.362-0.124c-0.118-0.048-0.238-0.1-0.36-0.157v2.755h-0.52v-7.334h0.529v0.271
			c0.194-0.115,0.421-0.206,0.681-0.271c0.244-0.065,0.482-0.098,0.713-0.098c0.713,0,1.303,0.234,1.771,0.702
			c0.46,0.469,0.69,1.073,0.69,1.814C259.434,152.183,259.203,152.772,258.743,153.276z M258.289,150.079
			c-0.389-0.389-0.871-0.583-1.447-0.583c-0.31,0-0.572,0.043-0.789,0.129c-0.114,0.044-0.212,0.084-0.29,0.12
			c-0.08,0.036-0.145,0.068-0.194,0.097v3.326c0.15,0.08,0.33,0.155,0.539,0.228c0.224,0.086,0.489,0.129,0.8,0.129
			c0.59,0,1.062-0.187,1.415-0.562c0.358-0.382,0.539-0.864,0.539-1.447C258.861,150.94,258.671,150.462,258.289,150.079z"/>
		<path fill="#FFFFFF" d="M264.175,153.956v-0.291c-0.216,0.101-0.457,0.188-0.724,0.259c-0.245,0.072-0.521,0.108-0.832,0.108
			c-0.677,0-1.238-0.223-1.685-0.669c-0.438-0.447-0.658-1.02-0.658-1.718c0-0.777,0.227-1.414,0.68-1.912
			c0.461-0.496,1.051-0.745,1.771-0.745c0.245,0,0.486,0.036,0.724,0.108c0.259,0.08,0.505,0.188,0.735,0.324v-0.335h0.507v4.87
			H264.175z M264.187,149.929c-0.095-0.065-0.267-0.155-0.519-0.271c-0.253-0.107-0.53-0.162-0.832-0.162
			c-0.576,0-1.055,0.201-1.438,0.605c-0.381,0.402-0.572,0.914-0.572,1.533c0,0.584,0.174,1.048,0.519,1.393
			c0.346,0.354,0.804,0.53,1.372,0.53c0.331,0,0.615-0.044,0.854-0.13c0.252-0.101,0.457-0.202,0.616-0.303V149.929z"/>
		<path fill="#FFFFFF" d="M269.364,153.844c-0.083,0.024-0.186,0.056-0.309,0.092c-0.252,0.064-0.515,0.097-0.788,0.097
			c-0.755,0-1.35-0.227-1.781-0.681c-0.433-0.453-0.648-1.064-0.648-1.836c0-0.698,0.212-1.292,0.638-1.782
			c0.432-0.496,1.011-0.745,1.738-0.745c0.237,0,0.461,0.022,0.67,0.064c0.101,0.029,0.2,0.057,0.297,0.082
			c0.098,0.025,0.195,0.056,0.297,0.092v0.572c-0.072-0.036-0.153-0.068-0.243-0.098c-0.09-0.028-0.185-0.061-0.286-0.097
			c-0.194-0.072-0.436-0.108-0.724-0.108c-0.554,0-0.997,0.188-1.328,0.562c-0.339,0.382-0.508,0.868-0.508,1.458
			c0,0.612,0.169,1.098,0.508,1.458c0.331,0.368,0.796,0.551,1.393,0.551c0.267,0,0.515-0.032,0.746-0.097
			c0.223-0.064,0.399-0.126,0.529-0.184v0.54C269.514,153.798,269.447,153.818,269.364,153.844z"/>
		<path fill="#FFFFFF" d="M270.428,151.332c-0.007,0.028-0.011,0.062-0.011,0.098s0,0.075,0,0.118c0,0.569,0.191,1.037,0.572,1.404
			c0.382,0.382,0.856,0.572,1.426,0.572c0.389,0,0.741-0.087,1.058-0.259c0.159-0.094,0.296-0.179,0.411-0.254
			c0.115-0.076,0.209-0.146,0.281-0.211v0.583c-0.094,0.072-0.2,0.145-0.318,0.216c-0.12,0.072-0.258,0.145-0.416,0.217
			c-0.324,0.144-0.677,0.216-1.059,0.216c-0.734,0-1.333-0.24-1.793-0.723c-0.469-0.49-0.702-1.113-0.702-1.869
			c0-0.691,0.209-1.271,0.626-1.739c0.418-0.475,0.954-0.713,1.609-0.713c0.634,0,1.148,0.221,1.545,0.659
			c0.403,0.446,0.604,1.008,0.604,1.685H270.428z M273.149,149.875c-0.252-0.252-0.594-0.379-1.026-0.379
			c-0.518,0-0.933,0.191-1.242,0.573c-0.165,0.208-0.299,0.488-0.398,0.842h3.143C273.545,150.457,273.387,150.111,273.149,149.875z
			"/>
		<path fill="#FFFFFF" d="M167.154,160.53c-0.058-0.015-0.134-0.038-0.227-0.069c-0.208-0.062-0.42-0.093-0.636-0.093
			c-0.401,0-0.706,0.128-0.914,0.382c-0.208,0.255-0.313,0.652-0.313,1.192v0.683h1.008v0.451h-1.008v4.744h-0.555v-4.744h-0.961
			v-0.451h0.961v-0.855c0-0.572,0.17-1.038,0.509-1.401c0.34-0.362,0.776-0.544,1.309-0.544c0.2,0,0.401,0.031,0.601,0.093
			c0.186,0.055,0.298,0.097,0.337,0.128v0.521C167.248,160.558,167.211,160.546,167.154,160.53z"/>
		<path fill="#FFFFFF" d="M170.862,167.149c-0.509,0.517-1.142,0.774-1.898,0.774c-0.763,0-1.392-0.258-1.885-0.774
			c-0.51-0.517-0.764-1.157-0.764-1.921s0.25-1.407,0.752-1.933c0.509-0.517,1.142-0.774,1.896-0.774
			c0.765,0,1.394,0.258,1.887,0.774c0.51,0.525,0.764,1.169,0.764,1.933C171.614,165.984,171.363,166.625,170.862,167.149z
			 M170.423,163.701c-0.401-0.425-0.887-0.637-1.459-0.637c-0.57,0-1.056,0.208-1.457,0.625c-0.401,0.424-0.602,0.938-0.602,1.539
			s0.2,1.106,0.602,1.516c0.401,0.425,0.887,0.637,1.457,0.637c0.563,0,1.05-0.209,1.459-0.625c0.401-0.425,0.602-0.934,0.602-1.527
			C171.024,164.619,170.824,164.11,170.423,163.701z"/>
		<path fill="#FFFFFF" d="M176.093,163.654c-0.1-0.093-0.194-0.173-0.283-0.242s-0.176-0.132-0.261-0.186
			c-0.178-0.108-0.34-0.162-0.486-0.162c-0.323,0-0.647,0.182-0.972,0.544c-0.315,0.347-0.551,0.66-0.706,0.938v3.274h-0.556v-5.195
			h0.556v1.168c0.14-0.231,0.283-0.42,0.435-0.566c0.15-0.146,0.303-0.285,0.456-0.417c0.162-0.13,0.322-0.212,0.481-0.242
			c0.158-0.03,0.313-0.046,0.468-0.046c0.255,0,0.505,0.089,0.752,0.266c0.239,0.17,0.387,0.289,0.44,0.359L176.093,163.654z"/>
		<path fill="#FFFFFF" d="M187.941,167.901h-0.149l-2.65-6.665l-2.65,6.665h-0.162l-3.17-7.973h0.625l2.614,6.538l2.65-6.538h0.186
			l2.638,6.549l2.615-6.549h0.614L187.941,167.901z"/>
		<path fill="#FFFFFF" d="M194.978,167.149c-0.509,0.517-1.142,0.774-1.898,0.774c-0.763,0-1.392-0.258-1.885-0.774
			c-0.51-0.517-0.765-1.157-0.765-1.921s0.25-1.407,0.752-1.933c0.51-0.517,1.142-0.774,1.897-0.774
			c0.765,0,1.393,0.258,1.887,0.774c0.509,0.525,0.764,1.169,0.764,1.933C195.729,165.984,195.479,166.625,194.978,167.149z
			 M194.538,163.701c-0.401-0.425-0.888-0.637-1.459-0.637c-0.57,0-1.057,0.208-1.457,0.625c-0.401,0.424-0.603,0.938-0.603,1.539
			s0.201,1.106,0.603,1.516c0.4,0.425,0.887,0.637,1.457,0.637c0.563,0,1.05-0.209,1.459-0.625c0.4-0.425,0.602-0.934,0.602-1.527
			C195.14,164.619,194.938,164.11,194.538,163.701z"/>
		<path fill="#FFFFFF" d="M203.864,167.82v-2.962c0-0.57-0.119-1.011-0.358-1.319c-0.247-0.316-0.591-0.475-1.03-0.475
			c-0.339,0-0.637,0.132-0.891,0.394c-0.255,0.271-0.467,0.544-0.637,0.821v3.541h-0.556v-2.962c0-0.563-0.111-1.003-0.335-1.319
			c-0.231-0.316-0.567-0.475-1.007-0.475c-0.379,0-0.694,0.108-0.949,0.324c-0.123,0.108-0.236,0.228-0.342,0.358
			c-0.104,0.132-0.201,0.271-0.294,0.417v3.656h-0.556v-5.195h0.544v0.949c0.247-0.394,0.502-0.668,0.764-0.821
			c0.27-0.155,0.57-0.231,0.902-0.231h0.139c0.293,0,0.571,0.085,0.833,0.254c0.271,0.17,0.513,0.497,0.729,0.983
			c0.147-0.277,0.371-0.556,0.672-0.833c0.293-0.27,0.664-0.404,1.111-0.404h0.139c0.509,0,0.914,0.2,1.215,0.602
			c0.309,0.4,0.463,0.921,0.463,1.562v3.135H203.864z"/>
		<path fill="#FFFFFF" d="M206.189,165.031c-0.007,0.031-0.011,0.065-0.011,0.104s0,0.081,0,0.127c0,0.61,0.203,1.111,0.613,1.505
			c0.408,0.409,0.917,0.613,1.526,0.613c0.417,0,0.795-0.093,1.135-0.278c0.169-0.1,0.316-0.19,0.439-0.271
			c0.123-0.082,0.224-0.157,0.301-0.227v0.625c-0.101,0.077-0.214,0.154-0.342,0.231c-0.126,0.077-0.275,0.154-0.445,0.231
			c-0.347,0.154-0.725,0.23-1.134,0.23c-0.786,0-1.427-0.258-1.921-0.774c-0.502-0.524-0.752-1.192-0.752-2.002
			c0-0.74,0.224-1.361,0.672-1.862c0.447-0.51,1.021-0.764,1.724-0.764c0.679,0,1.229,0.234,1.654,0.705
			c0.433,0.479,0.648,1.08,0.648,1.805H206.189z M209.105,163.469c-0.271-0.269-0.636-0.404-1.099-0.404
			c-0.556,0-0.999,0.205-1.331,0.613c-0.178,0.224-0.32,0.524-0.428,0.902h3.367C209.529,164.095,209.36,163.724,209.105,163.469z"
			/>
		<path fill="#FFFFFF" d="M215.077,167.82v-2.962c0-0.556-0.12-0.996-0.359-1.319c-0.247-0.316-0.602-0.475-1.063-0.475
			c-0.425,0-0.769,0.108-1.031,0.324c-0.254,0.216-0.478,0.471-0.67,0.764v3.668h-0.556v-5.195h0.544v0.949
			c0.262-0.401,0.524-0.676,0.787-0.821c0.27-0.155,0.578-0.231,0.926-0.231c0.601,0,1.083,0.192,1.446,0.578
			c0.354,0.378,0.531,0.906,0.531,1.586v3.135H215.077z"/>
		<path fill="#FFFFFF" d="M220.377,160.877v-0.948h0.556v0.948H220.377z M220.377,167.82v-5.195h0.556v5.195H220.377z"/>
		<path fill="#FFFFFF" d="M225.873,167.82v-2.962c0-0.556-0.121-0.996-0.359-1.319c-0.247-0.316-0.603-0.475-1.064-0.475
			c-0.425,0-0.769,0.108-1.03,0.324c-0.255,0.216-0.478,0.471-0.671,0.764v3.668h-0.556v-5.195h0.544v0.949
			c0.262-0.401,0.525-0.676,0.787-0.821c0.27-0.155,0.579-0.231,0.926-0.231c0.602,0,1.084,0.192,1.446,0.578
			c0.355,0.378,0.532,0.906,0.532,1.586v3.135H225.873z"/>
		<path fill="#FFFFFF" d="M231.276,167.82v-7.892h0.612v7.383h3.9v0.509H231.276z"/>
		<path fill="#FFFFFF" d="M236.16,165.031c-0.008,0.031-0.012,0.065-0.012,0.104s0,0.081,0,0.127c0,0.61,0.204,1.111,0.613,1.505
			c0.408,0.409,0.918,0.613,1.527,0.613c0.416,0,0.794-0.093,1.134-0.278c0.17-0.1,0.316-0.19,0.44-0.271
			c0.123-0.082,0.223-0.157,0.301-0.227v0.625c-0.102,0.077-0.214,0.154-0.342,0.231c-0.127,0.077-0.276,0.154-0.445,0.231
			c-0.348,0.154-0.726,0.23-1.135,0.23c-0.786,0-1.427-0.258-1.92-0.774c-0.502-0.524-0.752-1.192-0.752-2.002
			c0-0.74,0.223-1.361,0.671-1.862c0.447-0.51,1.021-0.764,1.725-0.764c0.679,0,1.229,0.234,1.653,0.705
			c0.433,0.479,0.648,1.08,0.648,1.805H236.16z M239.076,163.469c-0.271-0.269-0.637-0.404-1.1-0.404
			c-0.556,0-0.999,0.205-1.331,0.613c-0.178,0.224-0.32,0.524-0.428,0.902h3.367C239.5,164.095,239.33,163.724,239.076,163.469z"/>
		<path fill="#FFFFFF" d="M245.255,167.844v-0.312c-0.23,0.107-0.49,0.2-0.775,0.278c-0.262,0.077-0.559,0.114-0.891,0.114
			c-0.725,0-1.327-0.238-1.805-0.717c-0.472-0.479-0.706-1.091-0.706-1.84c0-0.833,0.243-1.516,0.729-2.048
			c0.493-0.532,1.126-0.798,1.897-0.798c0.262,0,0.521,0.038,0.774,0.115c0.278,0.085,0.54,0.2,0.787,0.348v-0.359h0.544v5.219
			H245.255z M245.267,163.527c-0.1-0.069-0.285-0.166-0.556-0.289c-0.27-0.115-0.566-0.174-0.891-0.174
			c-0.617,0-1.131,0.216-1.539,0.648c-0.409,0.433-0.612,0.979-0.612,1.643c0,0.625,0.185,1.122,0.555,1.493
			c0.37,0.378,0.859,0.567,1.469,0.567c0.356,0,0.661-0.047,0.915-0.139c0.27-0.108,0.49-0.216,0.659-0.324V163.527z"/>
		<path fill="#FFFFFF" d="M251.203,167.82v-0.404c-0.263,0.177-0.509,0.309-0.74,0.394c-0.231,0.077-0.498,0.114-0.799,0.114
			c-0.74,0-1.365-0.258-1.875-0.774c-0.509-0.517-0.764-1.157-0.764-1.921c0-0.802,0.251-1.454,0.753-1.956
			c0.501-0.501,1.156-0.751,1.967-0.751c0.255,0,0.521,0.042,0.798,0.126c0.294,0.102,0.514,0.197,0.66,0.29v-3.009h0.555v7.892
			H251.203z M251.191,163.562c-0.123-0.093-0.32-0.2-0.59-0.323c-0.255-0.115-0.552-0.174-0.892-0.174
			c-0.624,0-1.126,0.201-1.504,0.602c-0.394,0.41-0.59,0.93-0.59,1.562c0,0.609,0.204,1.119,0.613,1.527
			c0.416,0.416,0.937,0.625,1.562,0.625c0.394,0,0.702-0.062,0.927-0.186c0.123-0.061,0.223-0.117,0.301-0.167
			c0.077-0.051,0.134-0.091,0.173-0.122V163.562z"/>
		<path fill="#FFFFFF" d="M253.506,165.031c-0.008,0.031-0.012,0.065-0.012,0.104s0,0.081,0,0.127c0,0.61,0.204,1.111,0.613,1.505
			c0.408,0.409,0.918,0.613,1.527,0.613c0.416,0,0.794-0.093,1.134-0.278c0.17-0.1,0.317-0.19,0.44-0.271
			c0.123-0.082,0.223-0.157,0.301-0.227v0.625c-0.101,0.077-0.214,0.154-0.342,0.231c-0.127,0.077-0.276,0.154-0.445,0.231
			c-0.348,0.154-0.726,0.23-1.135,0.23c-0.786,0-1.427-0.258-1.92-0.774c-0.502-0.524-0.752-1.192-0.752-2.002
			c0-0.74,0.223-1.361,0.671-1.862c0.447-0.51,1.021-0.764,1.725-0.764c0.679,0,1.229,0.234,1.653,0.705
			c0.433,0.479,0.648,1.08,0.648,1.805H253.506z M256.422,163.469c-0.271-0.269-0.637-0.404-1.1-0.404
			c-0.556,0-0.999,0.205-1.33,0.613c-0.178,0.224-0.32,0.524-0.428,0.902h3.366C256.846,164.095,256.676,163.724,256.422,163.469z"
			/>
		<path fill="#FFFFFF" d="M261.988,163.654c-0.101-0.093-0.195-0.173-0.284-0.242s-0.176-0.132-0.26-0.186
			c-0.178-0.108-0.34-0.162-0.486-0.162c-0.324,0-0.648,0.182-0.972,0.544c-0.316,0.347-0.552,0.66-0.706,0.938v3.274h-0.556v-5.195
			h0.556v1.168c0.139-0.231,0.283-0.42,0.435-0.566c0.149-0.146,0.303-0.285,0.456-0.417c0.162-0.13,0.322-0.212,0.48-0.242
			s0.314-0.046,0.469-0.046c0.255,0,0.505,0.089,0.752,0.266c0.239,0.17,0.386,0.289,0.439,0.359L261.988,163.654z"/>
		<path fill="#FFFFFF" d="M265.574,167.509c-0.315,0.285-0.713,0.428-1.191,0.428c-0.378,0-0.706-0.059-0.983-0.174
			c-0.263-0.124-0.463-0.228-0.603-0.312v-0.556c0.201,0.132,0.447,0.243,0.741,0.336c0.293,0.101,0.575,0.15,0.845,0.15
			c0.324,0,0.598-0.081,0.822-0.243c0.216-0.169,0.323-0.394,0.323-0.671c0-0.201-0.081-0.382-0.243-0.544
			c-0.178-0.162-0.548-0.347-1.111-0.556c-0.424-0.146-0.755-0.336-0.994-0.566c-0.231-0.217-0.348-0.51-0.348-0.88
			c0-0.4,0.166-0.733,0.498-0.995c0.34-0.27,0.717-0.404,1.134-0.404c0.17,0,0.326,0.013,0.469,0.04s0.279,0.063,0.41,0.109
			c0.255,0.101,0.439,0.201,0.556,0.301v0.59c-0.093-0.069-0.19-0.134-0.295-0.196c-0.104-0.062-0.218-0.119-0.342-0.173
			c-0.254-0.108-0.505-0.162-0.752-0.162c-0.362,0-0.641,0.084-0.833,0.255c-0.208,0.177-0.312,0.385-0.312,0.624
			c0,0.255,0.104,0.455,0.312,0.602c0.231,0.155,0.517,0.294,0.856,0.417c0.432,0.146,0.799,0.34,1.1,0.579
			c0.285,0.231,0.428,0.556,0.428,0.971C266.061,166.88,265.898,167.223,265.574,167.509z"/>
		<path fill="#FFFFFF" d="M270.816,167.82v-2.962c0-0.556-0.12-0.996-0.359-1.319c-0.247-0.316-0.602-0.475-1.063-0.475
			c-0.426,0-0.769,0.108-1.031,0.324c-0.255,0.216-0.478,0.471-0.67,0.764v3.668h-0.556v-7.892h0.556v3.646
			c0.262-0.401,0.523-0.676,0.786-0.821c0.271-0.155,0.575-0.231,0.915-0.231c0.601,0,1.083,0.192,1.446,0.578
			c0.354,0.378,0.531,0.906,0.531,1.586v3.135H270.816z"/>
		<path fill="#FFFFFF" d="M272.367,160.877v-0.948h0.556v0.948H272.367z M272.367,167.82v-5.195h0.556v5.195H272.367z"/>
		<path fill="#FFFFFF" d="M278.141,167.115c-0.493,0.539-1.088,0.809-1.781,0.809c-0.294,0-0.575-0.03-0.846-0.092
			c-0.13-0.038-0.26-0.083-0.387-0.133c-0.128-0.05-0.257-0.106-0.388-0.168v2.95h-0.556v-7.856h0.567v0.289
			c0.207-0.124,0.451-0.22,0.729-0.289c0.263-0.069,0.517-0.104,0.765-0.104c0.763,0,1.395,0.25,1.896,0.751
			c0.494,0.502,0.741,1.149,0.741,1.944C278.882,165.942,278.635,166.575,278.141,167.115z M277.655,163.689
			c-0.417-0.417-0.934-0.625-1.551-0.625c-0.332,0-0.613,0.047-0.845,0.139c-0.124,0.047-0.228,0.089-0.312,0.128
			c-0.085,0.038-0.154,0.073-0.208,0.104v3.564c0.162,0.085,0.354,0.166,0.578,0.243c0.239,0.092,0.524,0.139,0.856,0.139
			c0.633,0,1.138-0.2,1.517-0.603c0.385-0.408,0.577-0.925,0.577-1.55C278.268,164.611,278.064,164.099,277.655,163.689z"/>
	</g>
</g>
<g>
	<defs>
		<circle id="SVGID_3_" cx="95.487" cy="-108.178" r="67.603"/>
	</defs>
	<use xlink:href="#SVGID_3_"  overflow="visible" fill="#ED4424"/>
	<clipPath id="SVGID_4_">
		<use xlink:href="#SVGID_3_"  overflow="visible"/>
	</clipPath>
	<g clip-path="url(#SVGID_4_)">
		<polygon fill="#FFFFFF" points="53.555,-65.899 63.306,-65.899 63.063,-110.999 53.555,-110.999 		"/>
		<polygon fill="#FFFFFF" points="66.719,-65.899 75.983,-65.899 76.226,-130.99 66.719,-130.99 		"/>
		<polygon fill="#FFFFFF" points="80.615,-65.448 90.367,-65.448 90.611,-150.459 80.615,-150.459 		"/>
		<polygon fill="#FFFFFF" points="95.487,-65.899 104.506,-65.899 104.994,-120.299 95.487,-120.299 		"/>
		<rect x="108.651" y="-105.176" fill="#FFFFFF" width="9.263" height="39.277"/>
		<polygon fill="#FFFFFF" points="122.547,-65.899 131.811,-65.899 132.055,-134.646 122.547,-134.646 		"/>
		<polygon fill="#FFFFFF" points="53.555,-65.899 13.816,-28.678 13.816,-16.167 26.656,-16.327 63.306,-65.899 		"/>
		<polygon fill="#FFFFFF" points="66.719,-65.899 36.407,-16.489 62.412,-16.489 75.983,-65.899 		"/>
		<polygon fill="#FFFFFF" points="80.615,-65.899 73.138,-16.167 98.655,-16.167 90.367,-65.899 		"/>
		<polygon fill="#FFFFFF" points="95.487,-65.899 110.028,-16.165 134.895,-16.167 104.506,-65.899 		"/>
		<polygon fill="#FFFFFF" points="108.651,-65.899 144.809,-16.167 170.162,-16.165 117.914,-65.899 		"/>
		<polygon fill="#FFFFFF" points="122.547,-65.899 180.889,-16.165 207.219,-16.165 131.811,-65.899 		"/>
		<polygon fill="#FFFFFF" points="63.916,-130.625 79.031,-130.625 71.554,-143.221 		"/>
		<polygon fill="#FFFFFF" points="119.742,-133.827 134.857,-133.827 127.381,-146.422 		"/>
		<g>
			<g>
				<path fill="#FFFFFF" d="M100.478-63.895c3.224,0,3.224-5,0-5S97.254-63.895,100.478-63.895L100.478-63.895z"/>
			</g>
		</g>
		<g>
			<g>
				<path fill="#FFFFFF" d="M98.737-63.262c3.224,0,3.224-5,0-5S95.513-63.262,98.737-63.262L98.737-63.262z"/>
			</g>
		</g>
		<g>
			<g>
				<path fill="#FFFFFF" d="M100.795-64.901c0.806,0,0.806-1.25,0-1.25S99.989-64.901,100.795-64.901L100.795-64.901z"/>
			</g>
		</g>
		<g>
			<g>
				<path fill="#FFFFFF" d="M100.249-66.159c0,0.396,0,0.792,0,1.188c0.409-0.056,0.818-0.11,1.228-0.166
					c-0.32-0.813-0.635-1.646-1.217-2.314c-0.668-0.769-1.904-0.497-1.903,0.593c0.001,0.887,0.435,2.087,1.036,2.742
					c0.897,0.978,2.418-0.337,3.144-0.869c0.643-0.472,0.02-1.558-0.631-1.08c-0.292,0.214-0.574,0.439-0.872,0.646
					c-0.14,0.097-0.289,0.179-0.439,0.26c-0.104,0.056-0.429,0.065-0.318,0.16c-0.36-0.307-0.528-1.136-0.631-1.59
					c-0.021-0.093-0.032-0.174-0.039-0.269c-0.016-0.235-0.083,0.235-0.333,0.187c0.127,0.024,0.296,0.369,0.355,0.467
					c0.27,0.439,0.455,0.923,0.643,1.4c0.247,0.627,1.228,0.583,1.228-0.166c0-0.396,0-0.792,0-1.188
					C101.499-66.964,100.249-66.964,100.249-66.159L100.249-66.159z"/>
			</g>
		</g>
		<g>
			<g>
				<path fill="#FFFFFF" d="M102.853-65.217c0.806,0,0.806-1.25,0-1.25S102.047-65.217,102.853-65.217L102.853-65.217z"/>
			</g>
		</g>
		<g>
			<g>
				<path fill="#FFFFFF" d="M103.724-65.217c0.806,0,0.806-1.25,0-1.25S102.918-65.217,103.724-65.217L103.724-65.217z"/>
			</g>
		</g>
		<g>
			<g>
				<path fill="#FFFFFF" d="M109.344-65.295c1.391,0.003,2.729,0.453,4.128,0.486c0.515,0.012,1.069,0.082,1.578-0.034
					c0.642-0.146,1.226-0.5,1.893-0.532c0.803-0.038,0.806-1.288,0-1.25c-1.214,0.058-2.207,0.614-3.471,0.566
					c-1.398-0.054-2.73-0.483-4.128-0.486C108.538-66.547,108.538-65.297,109.344-65.295L109.344-65.295z"/>
			</g>
		</g>
		<g>
			<g>
				<path fill="#FFFFFF" d="M123.594-65.454c0.806,0,0.806-1.25,0-1.25S122.788-65.454,123.594-65.454L123.594-65.454z"/>
			</g>
		</g>
		<g>
			<g>
				<path fill="#FFFFFF" d="M124.623-66.625c-0.23,0.101-0.426,0.056-0.587-0.134c-0.147,0.356-0.295,0.712-0.442,1.067
					c2.647-0.156,5.193,1.445,7.755,0.153c0.72-0.363,0.087-1.441-0.631-1.08c-2.201,1.11-4.802-0.46-7.124-0.323
					c-0.564,0.033-0.801,0.646-0.442,1.067c0.414,0.483,0.851,0.575,1.472,0.499C125.412-65.472,125.422-66.723,124.623-66.625
					L124.623-66.625z"/>
			</g>
		</g>
		<g>
			<g>
				<path fill="#FFFFFF" d="M67.309-65.295c2.619,0.059,5.676,1.164,8.153-0.085c0.72-0.363,0.087-1.441-0.631-1.08
					c-2.163,1.091-5.222-0.033-7.522-0.085C66.502-66.564,66.504-65.314,67.309-65.295L67.309-65.295z"/>
			</g>
		</g>
		<g>
			<g>
				<path fill="#FFFFFF" d="M54.168-65.217c1.685,0.001,3.346,0.075,5.023,0.234c1.169,0.111,2.301,0.147,3.367-0.397
					c0.718-0.367,0.085-1.446-0.631-1.08c-1.069,0.547-2.417,0.25-3.562,0.153c-1.401-0.118-2.79-0.159-4.196-0.16
					C53.362-66.468,53.362-65.218,54.168-65.217L54.168-65.217z"/>
			</g>
		</g>
	</g>
</g>
</svg>
