<?xml version="1.0" encoding="utf-8"?>
<!-- Generator: Adobe Illustrator 16.0.0, SVG Export Plug-In . SVG Version: 6.00 Build 0)  -->
<!DOCTYPE svg PUBLIC "-//W3C//DTD SVG 1.1//EN" "http://www.w3.org/Graphics/SVG/1.1/DTD/svg11.dtd">
<svg version="1.1" id="Layer_1" xmlns="http://www.w3.org/2000/svg" xmlns:xlink="http://www.w3.org/1999/xlink" x="0px" y="0px"
	 width="68.408px" height="69px" viewBox="0 0 68.408 69" enable-background="new 0 0 68.408 69" xml:space="preserve">
<text transform="matrix(1 0 0 1 77.9468 60.5078)" fill="#FFFFFF" font-family="'AvenirNext-Regular'" font-size="10.2004" letter-spacing="1">community development corporation</text>
<g>
	<circle fill="#C4C4C3" cx="87.56" cy="-62.519" r="32.75"/>
	<g>
		<defs>
			<circle id="SVGID_1_" cx="87.56" cy="-62.519" r="32.75"/>
		</defs>
		<clipPath id="SVGID_2_">
			<use xlink:href="#SVGID_1_"  overflow="visible"/>
		</clipPath>
		<path clip-path="url(#SVGID_2_)" fill="#AEADAE" d="M110.07-7.873l30.305-25.338l-23.512-30.484c0,0-8.134-11.339-18.62,6.355
			c-8.826,14.896-26.426,9.244-26.426,9.244L110.07-7.873z"/>
	</g>
	<path fill="#FFFFFF" d="M116.863-63.695L104.541-78.07L90.26-65.637l5.061,5.812l4.308-3.75
		c0.203,6.374-4.318,12.081-10.783,13.179c-7.059,1.2-13.755-3.55-14.954-10.609c-1.199-7.06,3.551-13.754,10.61-14.954
		c1.326-0.225,2.639-0.24,3.907-0.069l6.729-6.024c-3.709-1.729-7.963-2.388-12.301-1.651c-11.371,1.932-19.023,12.718-17.09,24.088
		c1.931,11.371,12.715,19.023,24.085,17.09c10.192-1.73,17.395-10.574,17.388-20.576l3.792,4.425L116.863-63.695z"/>
</g>
<g>
	<g>
		<path fill="#C4C4C3" d="M61.101,47.727c-3.402,5.543-8.785,8.66-15.23,10.332c-0.586,0.152-1.029,0.221-1.364,0.171
			c0.009,0,0.021,0,0.029,0c-0.594-0.103-0.815-0.614-0.798-1.806c0.093-6.858,0.327-22.685,0.331-22.934l1.419,0.042l8.184,0.064
			v-0.003l0.325,0.003v-0.001l0.066,0.001L53.99,28.74h-0.066l0,0h-0.325l0,0l-15.09,0.029c0,0,0.054,14.957,0.054,21.416
			c0,3.693-0.016,9.527-0.03,13.778c0,0,0.474,0.12,1.485,0.112c1.443,0.034,4.29-0.199,8.872-1.793
			c7.712-2.682,13.841-8.081,17.477-14.835C64.499,47.661,62.603,47.726,61.101,47.727z"/>
		<rect x="38.509" y="2" fill="#C4C4C3" width="4.962" height="22.236"/>
	</g>
	<path fill="#FFFFFF" d="M33.677,28.769L18.585,28.74l-0.072,4.857L28.82,33.57c0,0-0.025,15.892,0.02,22.854
		c0.008,1.191-0.206,1.703-0.799,1.806c-0.184,0.032-0.403,0.025-0.664-0.014c-0.218-0.033-0.461-0.084-0.737-0.157
		C15.398,55.141,7.382,44.521,7.483,32.542c0.08-9.348,5.615-18.102,13.567-22.476c0.01-0.006,0.021-0.012,0.03-0.018
		c1.833-1.005,3.793-1.777,5.846-2.271c1.465-0.352,1.931-0.125,1.903,1.436c-0.08,4.184-0.07,15.033-0.07,15.033l4.912-0.022
		c0,0-0.027-8.633-0.042-14.067c-0.006-1.862-0.009-3.641-0.01-5.059c0-3.294-0.004-3.294-3.365-2.95
		C15.963,3.611,4.218,15.274,2.651,29.556C1.069,43.972,9.81,57.48,23.619,62.282c7.073,2.46,10.032,1.681,10.032,1.681
		L33.677,28.769z"/>
</g>
</svg>
