<?xml version="1.0" encoding="utf-8"?>
<!-- Generator: Adobe Illustrator 16.0.0, SVG Export Plug-In . SVG Version: 6.00 Build 0)  -->
<!DOCTYPE svg PUBLIC "-//W3C//DTD SVG 1.1//EN" "http://www.w3.org/Graphics/SVG/1.1/DTD/svg11.dtd">
<svg version="1.1" id="Layer_1" xmlns="http://www.w3.org/2000/svg" xmlns:xlink="http://www.w3.org/1999/xlink" x="0px" y="0px"
	 width="68.408px" height="69px" viewBox="0 0 68.408 69" enable-background="new 0 0 68.408 69" xml:space="preserve">
<text transform="matrix(1 0 0 1 77.9468 60.5078)" fill="#FFFFFF" font-family="'AvenirNext-Regular'" font-size="10.2004" letter-spacing="1">community development corporation</text>
<path fill="#FFFFFF" d="M34.176,2C16.406,2,2,16.405,2,34.176c0,17.77,14.406,32.176,32.176,32.176
	c17.771,0,32.176-14.406,32.176-32.176C66.353,16.405,51.947,2,34.176,2z M51.209,49.529c-0.032,0.102-0.065,0.2-0.098,0.298
	c-0.225,1.23-0.712,2.291-1.529,2.979c-0.352,0.385-0.705,0.593-1.055,0.654c-3.094,1.539-8.703,2.157-14.063,2.157
	c-3.475,0-6.845-0.26-9.357-0.7c-0.698-0.122-1.314-0.259-1.854-0.406c-1.566-0.29-2.863-0.895-3.48-1.898
	c-2.485-4.04-2.244-15.704-2.031-21.401c0.027-0.735,0.467-10.782,1.37-11.58c4.408-3.895,13.621-8.549,14.763-8.549
	c0.164,0,0.162,0.098-0.048,0.308c-0.71,0.711-3.244,3.346-5.349,5.91c0.096,0.028,0.196,0.041,0.29,0.082
	c1.574,0.699,2.036,3.091,1.034,5.345c-0.812,1.824-2.335,2.976-3.72,2.981l0.341,7.804c0.039,0.446,0.405,8.445,0.405,8.445
	c0.109,2.497,0.455,4.064,0.949,5.07c1.859-0.567,3.782-0.942,5.43-1.013l2.813-0.009c0.972,0.079,1.818,0.117,2.556,0.117
	c5.318,0,5.006-1.95,5.384-3.928l0.4-21.03c-1.659-2.906-8.228-7.715-8.996-9.633c-0.034-0.086,0-0.125,0.094-0.125
	c0.599,0,3.648,1.661,6.942,3.779c-0.299-2.396,0.787-4.508,2.464-4.747c1.704-0.243,3.367,1.538,3.715,3.978
	c0.251,1.766-0.262,3.381-1.206,4.237c1.768,1.356,3.221,2.657,3.888,3.646C52.752,24.507,52.958,44.103,51.209,49.529z"/>
</svg>
