<?xml version="1.0" encoding="utf-8"?>
<!-- Generator: Adobe Illustrator 16.0.0, SVG Export Plug-In . SVG Version: 6.00 Build 0)  -->
<!DOCTYPE svg PUBLIC "-//W3C//DTD SVG 1.1//EN" "http://www.w3.org/Graphics/SVG/1.1/DTD/svg11.dtd">
<svg version="1.1" id="Layer_1" xmlns="http://www.w3.org/2000/svg" xmlns:xlink="http://www.w3.org/1999/xlink" x="0px" y="0px"
	 width="68.408px" height="69px" viewBox="0 0 68.408 69" enable-background="new 0 0 68.408 69" xml:space="preserve">
<text transform="matrix(1 0 0 1 77.9468 60.5078)" fill="#FFFFFF" font-family="'AvenirNext-Regular'" font-size="10.2004" letter-spacing="1">community development corporation</text>
<path fill="#FFFFFF" d="M31.193,48.722h-1.874v-9.72H1.76c2.195,15.96,15.883,28.252,32.444,28.252c1.016,0,2.019-0.049,3.01-0.14
	V37.54h11.594v1.875h-9.719v27.477C54.86,64.534,66.958,50.929,66.958,34.5c0-1.056-0.052-2.102-0.15-3.133H37.214V19.772h1.875
	v9.719h27.489C64.166,13.78,50.59,1.746,34.204,1.746c-1.015,0-2.018,0.049-3.011,0.139v29.574H19.6v-1.875h9.719V2.109
	C13.547,4.467,1.451,18.07,1.451,34.5c0,0.885,0.036,1.761,0.104,2.628h29.638"/>
</svg>
