<?xml version="1.0" encoding="utf-8"?>
<!-- Generator: Adobe Illustrator 16.0.0, SVG Export Plug-In . SVG Version: 6.00 Build 0)  -->
<!DOCTYPE svg PUBLIC "-//W3C//DTD SVG 1.1//EN" "http://www.w3.org/Graphics/SVG/1.1/DTD/svg11.dtd">
<svg version="1.1" xmlns="http://www.w3.org/2000/svg" xmlns:xlink="http://www.w3.org/1999/xlink" x="0px" y="0px"
	 width="200.75px" height="38.25px" viewBox="0 0 200.75 38.25" enable-background="new 0 0 200.75 38.25" xml:space="preserve">
<g id="Layer_2">
</g>
<g id="Layer_1">
	<g>
		<path fill="#FFFFFF" d="M39.085,25.522c0,0-0.212,0.569-0.615,1.55c-0.251,0.47-0.529,1.073-0.938,1.703
			c-0.209,0.312-0.432,0.644-0.667,0.994c-0.244,0.344-0.538,0.678-0.836,1.033c-0.287,0.368-0.651,0.688-1.004,1.044
			c-0.347,0.365-0.75,0.69-1.166,1.027c-0.4,0.357-0.86,0.657-1.335,0.958c-0.461,0.324-0.975,0.581-1.49,0.854
			c-1.044,0.525-2.187,0.927-3.368,1.24c-0.596,0.137-1.202,0.25-1.81,0.354c-0.616,0.049-1.229,0.154-1.849,0.156
			c-1.236,0.034-2.479-0.017-3.672-0.246l-0.893-0.157l-0.864-0.237c-0.291-0.084-0.562-0.145-0.862-0.248
			c-0.27-0.102-0.537-0.203-0.802-0.303c-0.534-0.18-1.048-0.431-1.549-0.68c-0.513-0.227-0.976-0.508-1.422-0.788
			c-0.458-0.261-0.877-0.554-1.268-0.859c-0.399-0.293-0.785-0.574-1.115-0.894c-0.703-0.59-1.269-1.211-1.766-1.763
			c-0.487-0.559-0.85-1.099-1.179-1.515c-0.554-0.907-0.871-1.425-0.871-1.425l0.088-0.05c0,0,0.335,0.501,0.921,1.377
			c0.344,0.399,0.722,0.917,1.226,1.448c0.513,0.523,1.092,1.11,1.806,1.66c0.335,0.3,0.726,0.559,1.127,0.829
			c0.393,0.283,0.813,0.551,1.271,0.786c0.447,0.253,0.906,0.512,1.4,0.713c0.484,0.223,0.979,0.448,1.527,0.615
			c0.268,0.092,0.538,0.185,0.811,0.278c0.247,0.076,0.545,0.136,0.817,0.205l0.839,0.203l0.864,0.124
			c1.152,0.185,2.344,0.195,3.521,0.127c0.59-0.023,1.172-0.149,1.754-0.217c0.573-0.124,1.145-0.252,1.703-0.404
			c1.104-0.349,2.175-0.745,3.146-1.262c0.49-0.25,0.98-0.483,1.418-0.783c0.45-0.28,0.892-0.552,1.292-0.862
			c0.41-0.295,0.812-0.582,1.159-0.91c0.354-0.319,0.722-0.604,1.013-0.939c0.298-0.328,0.613-0.617,0.88-0.922
			c0.259-0.314,0.503-0.611,0.733-0.891c0.446-0.57,0.771-1.108,1.091-1.529c0.535-0.917,0.842-1.44,0.842-1.44L39.085,25.522z"/>
		<path fill="#FFFFFF" d="M5.58,20.755c0,0-0.019-0.221-0.054-0.635c-0.031-0.415-0.114-1.02-0.074-1.804
			c-0.013-0.784,0.088-1.729,0.266-2.803c0.208-1.067,0.506-2.269,1.029-3.507C7.22,10.745,7.965,9.48,8.829,8.203
			c0.905-1.253,2.025-2.451,3.317-3.542c1.317-1.06,2.827-1.973,4.471-2.663c1.64-0.708,3.449-1.076,5.24-1.213
			c1.835-0.14,3.656,0.021,5.397,0.466c1.738,0.434,3.395,1.097,4.87,1.964c1.451,0.902,2.773,1.915,3.843,3.062
			c1.048,1.161,1.961,2.337,2.595,3.546c0.687,1.178,1.096,2.368,1.412,3.419c0.297,1.092,0.391,2,0.538,2.774
			c0.028,1.573,0.045,2.472,0.045,2.472h-0.1c0,0-0.105-0.872-0.289-2.397c-0.101-0.375-0.211-0.791-0.332-1.244
			c-0.131-0.437-0.203-0.983-0.407-1.431c-0.365-0.998-0.859-2.092-1.553-3.193c-0.646-1.129-1.562-2.214-2.595-3.274
			c-1.064-1.036-2.299-2.008-3.688-2.837c-1.383-0.841-2.94-1.485-4.575-1.948c-1.63-0.468-3.389-0.665-5.093-0.581
			c-1.74,0.096-3.466,0.409-5.055,1.055c-1.591,0.629-3.065,1.477-4.363,2.477c-1.275,1.028-2.381,2.175-3.301,3.369
			c-0.875,1.221-1.642,2.437-2.139,3.66c-0.548,1.201-0.873,2.373-1.109,3.419c-0.204,1.052-0.33,1.986-0.339,2.755
			c-0.062,0.769,0.003,1.38,0.022,1.795c0.023,0.415,0.036,0.637,0.036,0.637L5.58,20.755z"/>
		<path fill="#FFFFFF" d="M44.183,17.976c-0.609,0.477-1.421,1.113-2.232,1.75c-0.793,0.611-1.545,1.203-2.096,1.654
			c-0.106,0.082-0.198,0.152-0.291,0.223c-0.021,0.013-0.035,0.021-0.056,0.035c-0.833,0.536-1.465,0.889-1.896,1.059
			c-0.556,0.221-1.071,0.268-1.547,0.139c-0.701-0.183-0.835-2.402-0.401-6.662c0.083-0.872-0.081-1.375-0.492-1.508
			c-0.322-0.105-0.688,0.006-1.092,0.33c-0.29,0.238-0.979,1.282-2.069,3.134c-1.065,1.807-1.694,2.984-1.89,3.528
			c-0.176,0.501-0.312,0.701-0.404,0.601c-0.086-0.087-0.119-0.432-0.102-1.035c0.05-1.515,0.114-2.636,0.194-3.367
			c0.101-0.932,0.137-1.488,0.108-1.672c-0.062-0.347-0.34-0.637-0.83-0.873c-0.417-0.21-1.165,0.401-2.244,1.837
			c-0.35,0.472-0.783,1.091-1.297,1.861c-0.655,0.974-1.012,1.507-1.069,1.597c-0.258,0.372-0.438,0.592-0.541,0.664
			c-0.169,0.121-0.231-0.036-0.186-0.469c0.15-1.959,0.315-3.261,0.496-3.904c0.276-0.981,0.188-1.472-0.263-1.474
			c-0.259-0.002-0.456,0.229-0.593,0.69c-0.017,0.052-0.148,0.674-0.394,1.868c-0.133,0.613-0.304,1.458-0.51,2.526
			c-0.049,0.023-0.1,0.05-0.16,0.092c-0.143,0.104-0.283,0.23-0.423,0.376c-0.837,0.845-2.022,1.737-3.555,2.678
			c-0.779,0.483-1.5,0.745-2.163,0.788c-0.641,0.049-1.146-0.109-1.518-0.474c-0.256-0.252-0.258-0.836-0.006-1.75
			c0.225-0.812,0.434-1.315,0.626-1.51c2.924-2.972,5.011-5.495,6.264-7.567c1.513-2.5,2.401-4.409,2.666-5.725
			c0.29-1.455-0.135-2.36-1.271-2.718c-0.99-0.311-2.015,0.208-3.071,1.556c-0.543,0.679-1.184,1.752-1.923,3.22
			c-0.685,1.355-1.797,4.08-3.339,8.172c-0.271,0.72-0.51,1.374-0.725,1.978c-0.223,0.189-0.448,0.382-0.677,0.579
			c-0.483,0.413-0.983,0.84-1.49,1.274c-0.502,0.425-1.035,0.86-1.557,1.212c-0.544,0.378-1.113,0.694-1.703,0.988
			c-0.585,0.282-1.166,0.542-1.743,0.71c-0.576,0.164-1.145,0.261-1.661,0.212c-0.518-0.045-0.976-0.234-1.341-0.52
			c-0.726-0.587-1.104-1.39-1.323-1.927c-0.223-0.548-0.328-0.879-0.328-0.879s0.015,0.342,0.14,0.938
			c0.063,0.296,0.16,0.655,0.323,1.056c0.16,0.4,0.399,0.849,0.803,1.247c0.392,0.404,0.972,0.727,1.622,0.832
			c0.647,0.121,1.332,0.057,1.991-0.102c0.66-0.16,1.312-0.396,1.938-0.695c0.617-0.296,1.255-0.626,1.832-1.028
			c0.976-0.692,1.808-1.456,2.594-2.203c-0.199,0.61-0.354,1.129-0.464,1.554c-0.14,0.519-0.178,1.045-0.116,1.577
			c0.081,0.688,0.336,1.11,0.763,1.263c1.532,0.556,3.259,0.192,5.18-1.095c0.382-0.258,1.572-1.212,3.573-2.861
			c0.002-0.001,0.003-0.002,0.004-0.004c-0.142,0.737-0.253,1.305-0.328,1.672c-0.114,0.566-0.116,0.954-0.008,1.161
			c0.169,0.331,0.617,0.39,1.346,0.177c0.75-0.215,1.609-1.334,2.579-3.356c0.814-1.716,1.479-2.763,1.994-3.138
			c0.298-0.218,0.459-0.085,0.48,0.392c0.012,0.336-0.049,0.949-0.181,1.84c-0.186,1.225-0.295,1.956-0.326,2.195
			c-0.078,0.759-0.054,1.228,0.075,1.413c0.259,0.387,0.618,0.629,1.076,0.722c0.466,0.094,0.844-0.003,1.138-0.29
			c0.227-0.226,0.732-1.105,1.517-2.641c0.904-1.752,1.521-2.877,1.847-3.374c0.379-0.574,0.606-0.875,0.684-0.902
			c0.062-0.026,0.059,0.158-0.012,0.549c-0.31,1.664-0.46,2.975-0.451,3.933c0.022,1.789,0.521,2.704,1.499,2.744
			c1.655,0.05,3.214-0.757,4.677-2.416c0.085-0.081,0.166-0.159,0.262-0.251c0.611-0.567,1.409-1.333,2.165-2.081
			c0.729-0.731,1.46-1.461,2.007-2.01c0.537-0.558,0.895-0.93,0.895-0.93S44.782,17.486,44.183,17.976z M19.42,9.693
			c0.612-1.085,1.104-1.774,1.475-2.068c0.406-0.317,0.625-0.115,0.659,0.605c0.042,1.114-0.879,3.064-2.764,5.851
			c-0.946,1.39-1.898,2.67-2.854,3.838C16.955,14.77,18.117,12.028,19.42,9.693z"/>
	</g>
	<g>
		<path fill="#FFFFFF" d="M54.894,22.374V11.249h0.783v11.125H54.894z"/>
		<path fill="#FFFFFF" d="M63.311,22.406v-0.44c-0.326,0.152-0.69,0.283-1.093,0.392c-0.37,0.108-0.789,0.163-1.256,0.163
			c-1.022,0-1.871-0.337-2.545-1.012c-0.663-0.674-0.995-1.539-0.995-2.593c0-1.175,0.343-2.137,1.027-2.887
			c0.696-0.75,1.588-1.126,2.676-1.126c0.369,0,0.733,0.055,1.093,0.163c0.392,0.12,0.761,0.283,1.109,0.49v-0.506h0.767v7.357
			H63.311z M63.327,16.322c-0.142-0.098-0.402-0.234-0.783-0.408c-0.381-0.163-0.799-0.245-1.256-0.245
			c-0.87,0-1.594,0.304-2.17,0.913c-0.576,0.609-0.864,1.381-0.864,2.316c0,0.881,0.261,1.583,0.783,2.104
			c0.521,0.533,1.212,0.799,2.071,0.799c0.5,0,0.93-0.065,1.289-0.196c0.38-0.152,0.69-0.304,0.93-0.457V16.322z"/>
		<path fill="#FFFFFF" d="M71.336,22.374v-1.272c-0.337,0.522-0.695,0.887-1.076,1.093c-0.402,0.217-0.805,0.326-1.207,0.326
			c-0.925,0-1.637-0.25-2.137-0.75c-0.512-0.511-0.767-1.245-0.767-2.202v-4.519h0.782v4.355c0,0.74,0.174,1.316,0.522,1.729
			c0.358,0.414,0.858,0.62,1.501,0.62c0.565,0,1.055-0.174,1.468-0.522c0.424-0.348,0.729-0.701,0.913-1.06v-5.122h0.783v7.324
			H71.336z"/>
		<path fill="#FFFFFF" d="M78.759,16.501c-0.142-0.13-0.275-0.245-0.399-0.342c-0.126-0.098-0.248-0.185-0.367-0.261
			c-0.251-0.152-0.479-0.228-0.686-0.228c-0.457,0-0.913,0.255-1.37,0.767c-0.446,0.489-0.777,0.93-0.995,1.321v4.616h-0.783v-7.324
			h0.783v1.647c0.196-0.326,0.399-0.592,0.611-0.799c0.213-0.207,0.427-0.402,0.645-0.587c0.229-0.185,0.454-0.299,0.677-0.343
			c0.224-0.043,0.443-0.065,0.661-0.065c0.358,0,0.712,0.125,1.061,0.375c0.337,0.239,0.543,0.408,0.619,0.505L78.759,16.501z"/>
		<path fill="#FFFFFF" d="M80.047,18.442c-0.011,0.043-0.017,0.092-0.017,0.146c0,0.055,0,0.114,0,0.18
			c0,0.859,0.288,1.566,0.865,2.121c0.576,0.577,1.294,0.865,2.153,0.865c0.587,0,1.119-0.131,1.598-0.392
			c0.239-0.141,0.446-0.269,0.62-0.383s0.315-0.22,0.425-0.318v0.881c-0.142,0.109-0.303,0.218-0.481,0.326
			c-0.18,0.109-0.39,0.218-0.628,0.327c-0.489,0.217-1.022,0.326-1.599,0.326c-1.109,0-2.013-0.364-2.708-1.093
			c-0.707-0.739-1.061-1.68-1.061-2.822c0-1.044,0.315-1.919,0.946-2.626c0.631-0.718,1.44-1.077,2.431-1.077
			c0.957,0,1.734,0.332,2.332,0.995c0.609,0.674,0.914,1.523,0.914,2.545H80.047z M84.157,16.24
			c-0.381-0.381-0.896-0.571-1.549-0.571c-0.783,0-1.409,0.288-1.876,0.864c-0.251,0.315-0.452,0.74-0.604,1.272h4.746
			C84.756,17.121,84.517,16.599,84.157,16.24z"/>
		<path fill="#FFFFFF" d="M92.574,22.374v-4.176c0-0.783-0.168-1.403-0.505-1.86c-0.349-0.446-0.849-0.668-1.501-0.668
			c-0.599,0-1.082,0.152-1.452,0.457c-0.358,0.305-0.674,0.664-0.946,1.077v5.171h-0.782v-7.324h0.767v1.337
			c0.369-0.565,0.739-0.951,1.109-1.158c0.38-0.218,0.815-0.327,1.305-0.327c0.848,0,1.527,0.272,2.039,0.816
			c0.5,0.533,0.75,1.278,0.75,2.235v4.42H92.574z"/>
		<path fill="#FFFFFF" d="M109.687,22.374v-4.176c0-0.805-0.169-1.425-0.506-1.86c-0.348-0.446-0.832-0.668-1.451-0.668
			c-0.479,0-0.897,0.185-1.256,0.554c-0.359,0.381-0.658,0.767-0.897,1.158v4.992h-0.783v-4.176c0-0.794-0.158-1.414-0.473-1.86
			c-0.326-0.446-0.8-0.668-1.42-0.668c-0.532,0-0.979,0.152-1.337,0.457c-0.175,0.152-0.335,0.321-0.481,0.506
			s-0.285,0.38-0.416,0.587v5.155h-0.783v-7.324h0.767v1.337c0.349-0.554,0.707-0.94,1.077-1.158
			c0.38-0.218,0.805-0.327,1.272-0.327h0.195c0.413,0,0.805,0.12,1.175,0.359c0.38,0.24,0.723,0.702,1.027,1.387
			c0.206-0.392,0.522-0.783,0.946-1.174c0.413-0.381,0.935-0.571,1.565-0.571h0.196c0.718,0,1.288,0.283,1.713,0.849
			c0.435,0.565,0.652,1.299,0.652,2.202v4.42H109.687z"/>
		<path fill="#FFFFFF" d="M112.23,12.586v-1.338h0.783v1.338H112.23z M112.23,22.374v-7.324h0.783v7.324H112.23z"/>
		<path fill="#FFFFFF" d="M120.166,22.235c-0.125,0.038-0.28,0.084-0.465,0.139c-0.381,0.098-0.777,0.147-1.19,0.147
			c-1.142,0-2.039-0.343-2.691-1.028s-0.979-1.609-0.979-2.773c0-1.055,0.32-1.952,0.962-2.691c0.652-0.75,1.527-1.126,2.626-1.126
			c0.359,0,0.696,0.033,1.012,0.098c0.152,0.043,0.302,0.084,0.448,0.122c0.147,0.039,0.297,0.084,0.449,0.139v0.865
			c-0.109-0.054-0.231-0.103-0.367-0.147c-0.137-0.043-0.28-0.092-0.433-0.146c-0.293-0.109-0.658-0.163-1.093-0.163
			c-0.838,0-1.506,0.283-2.006,0.848c-0.512,0.576-0.768,1.311-0.768,2.202c0,0.924,0.256,1.658,0.768,2.202
			c0.5,0.555,1.201,0.832,2.104,0.832c0.402,0,0.777-0.049,1.126-0.147c0.337-0.098,0.604-0.19,0.799-0.277v0.815
			C120.392,22.167,120.291,22.197,120.166,22.235z"/>
		<path fill="#FFFFFF" d="M127.155,22.374v-4.176c0-0.783-0.168-1.403-0.505-1.86c-0.349-0.446-0.849-0.668-1.501-0.668
			c-0.599,0-1.082,0.152-1.452,0.457c-0.358,0.305-0.674,0.664-0.946,1.077v5.171h-0.782V11.249h0.782v5.138
			c0.37-0.565,0.74-0.951,1.109-1.158c0.381-0.218,0.811-0.327,1.289-0.327c0.848,0,1.527,0.272,2.039,0.816
			c0.5,0.533,0.75,1.278,0.75,2.235v4.42H127.155z"/>
		<path fill="#FFFFFF" d="M130.435,18.442c-0.011,0.043-0.017,0.092-0.017,0.146c0,0.055,0,0.114,0,0.18
			c0,0.859,0.288,1.566,0.865,2.121c0.576,0.577,1.294,0.865,2.153,0.865c0.587,0,1.119-0.131,1.598-0.392
			c0.239-0.141,0.446-0.269,0.62-0.383s0.315-0.22,0.425-0.318v0.881c-0.142,0.109-0.303,0.218-0.481,0.326
			c-0.18,0.109-0.39,0.218-0.628,0.327c-0.489,0.217-1.022,0.326-1.599,0.326c-1.109,0-2.013-0.364-2.708-1.093
			c-0.707-0.739-1.061-1.68-1.061-2.822c0-1.044,0.315-1.919,0.946-2.626c0.631-0.718,1.44-1.077,2.431-1.077
			c0.957,0,1.734,0.332,2.332,0.995c0.609,0.674,0.914,1.523,0.914,2.545H130.435z M134.545,16.24
			c-0.381-0.381-0.896-0.571-1.549-0.571c-0.783,0-1.409,0.288-1.876,0.864c-0.251,0.315-0.452,0.74-0.604,1.272h4.746
			C135.144,17.121,134.904,16.599,134.545,16.24z"/>
		<path fill="#FFFFFF" d="M137.905,22.374V11.249h0.783v11.125H137.905z"/>
		<path fill="#FFFFFF" d="M140.482,22.374V11.249h0.783v11.125H140.482z"/>
		<path fill="#FFFFFF" d="M143.892,18.442c-0.011,0.043-0.017,0.092-0.017,0.146c0,0.055,0,0.114,0,0.18
			c0,0.859,0.288,1.566,0.865,2.121c0.576,0.577,1.294,0.865,2.153,0.865c0.587,0,1.119-0.131,1.598-0.392
			c0.239-0.141,0.446-0.269,0.62-0.383s0.315-0.22,0.425-0.318v0.881c-0.142,0.109-0.303,0.218-0.481,0.326
			c-0.18,0.109-0.39,0.218-0.628,0.327c-0.489,0.217-1.022,0.326-1.599,0.326c-1.109,0-2.013-0.364-2.708-1.093
			c-0.707-0.739-1.061-1.68-1.061-2.822c0-1.044,0.315-1.919,0.946-2.626c0.631-0.718,1.44-1.077,2.431-1.077
			c0.957,0,1.734,0.332,2.332,0.995c0.609,0.674,0.914,1.523,0.914,2.545H143.892z M148.002,16.24
			c-0.381-0.381-0.896-0.571-1.549-0.571c-0.783,0-1.409,0.288-1.876,0.864c-0.251,0.315-0.452,0.74-0.604,1.272h4.746
			C148.601,17.121,148.361,16.599,148.002,16.24z"/>
		<path fill="#FFFFFF" d="M161.395,22.585V22.08c-0.141,0.087-0.274,0.177-0.399,0.269s-0.247,0.16-0.367,0.204
			c-0.185,0.065-0.378,0.112-0.579,0.139c-0.201,0.027-0.405,0.041-0.611,0.041c-1.109,0-2.039-0.386-2.789-1.158
			c-0.762-0.772-1.143-1.724-1.143-2.854c0-1.186,0.376-2.153,1.126-2.904c0.369-0.38,0.799-0.663,1.289-0.848
			c0.489-0.185,1.027-0.277,1.614-0.277c0.348,0,0.686,0.049,1.012,0.147c0.163,0.054,0.315,0.106,0.457,0.155
			c0.141,0.049,0.271,0.106,0.391,0.171v-4.127h1.191v11.549H161.395z M161.379,16.485c-0.088-0.065-0.19-0.128-0.311-0.188
			c-0.119-0.06-0.255-0.128-0.407-0.204c-0.338-0.152-0.724-0.229-1.158-0.229c-0.815,0-1.474,0.267-1.974,0.799
			c-0.522,0.522-0.783,1.208-0.783,2.056c0,0.805,0.267,1.474,0.799,2.006c0.555,0.555,1.24,0.832,2.056,0.832
			c0.261,0,0.492-0.022,0.693-0.065s0.378-0.103,0.53-0.179c0.13-0.076,0.241-0.155,0.334-0.237s0.166-0.144,0.221-0.188V16.485z"/>
		<path fill="#FFFFFF" d="M165.343,18.638v0.293c0.032,0.707,0.299,1.311,0.799,1.811c0.271,0.261,0.571,0.462,0.897,0.604
			c0.326,0.142,0.695,0.212,1.109,0.212c0.554,0,1.055-0.125,1.5-0.375c0.239-0.13,0.457-0.266,0.652-0.408
			c0.196-0.141,0.43-0.337,0.702-0.587v1.452c-0.186,0.141-0.373,0.272-0.563,0.391c-0.19,0.12-0.399,0.229-0.628,0.327
			c-0.532,0.25-1.109,0.375-1.729,0.375c-1.153,0-2.104-0.386-2.854-1.158c-0.74-0.793-1.109-1.783-1.109-2.969
			c0-1.098,0.331-2.017,0.995-2.757c0.674-0.772,1.533-1.158,2.577-1.158c1.011,0,1.843,0.359,2.496,1.077
			c0.314,0.348,0.554,0.753,0.717,1.215c0.164,0.462,0.245,1.014,0.245,1.656H165.343z M169.714,17.692
			c-0.055-0.261-0.131-0.506-0.229-0.734c-0.098-0.229-0.223-0.418-0.375-0.571c-0.163-0.163-0.358-0.291-0.587-0.383
			c-0.229-0.092-0.501-0.139-0.815-0.139c-0.718,0-1.289,0.267-1.713,0.799c-0.099,0.12-0.188,0.272-0.27,0.457
			c-0.081,0.185-0.149,0.37-0.204,0.555h4.192V17.692z"/>
		<path fill="#FFFFFF" d="M176.532,22.08c-0.489,0.446-1.099,0.668-1.827,0.668c-0.576,0-1.065-0.092-1.468-0.277
			c-0.207-0.087-0.383-0.171-0.53-0.252c-0.146-0.082-0.291-0.166-0.432-0.253v-1.272c0.282,0.185,0.521,0.324,0.718,0.416
			c0.195,0.092,0.391,0.171,0.587,0.236c0.392,0.142,0.767,0.212,1.125,0.212c0.425,0,0.772-0.104,1.045-0.31
			c0.25-0.185,0.375-0.446,0.375-0.783c0-0.228-0.093-0.435-0.277-0.62c-0.218-0.207-0.718-0.451-1.501-0.734
			c-0.315-0.12-0.596-0.248-0.84-0.384c-0.245-0.136-0.454-0.291-0.628-0.465c-0.37-0.359-0.555-0.821-0.555-1.386
			c0-0.631,0.261-1.153,0.783-1.566c0.25-0.196,0.516-0.348,0.799-0.457c0.282-0.108,0.587-0.163,0.913-0.163
			c0.479,0,0.919,0.076,1.321,0.229c0.37,0.142,0.675,0.315,0.914,0.522v1.337c-0.283-0.217-0.512-0.377-0.686-0.481
			s-0.343-0.193-0.506-0.269c-0.337-0.142-0.663-0.212-0.979-0.212c-0.239,0-0.443,0.027-0.611,0.082
			c-0.169,0.055-0.312,0.131-0.433,0.229c-0.239,0.229-0.358,0.473-0.358,0.734c0,0.283,0.119,0.511,0.358,0.685
			c0.142,0.098,0.305,0.193,0.489,0.286c0.186,0.093,0.402,0.182,0.652,0.269c0.664,0.229,1.202,0.511,1.615,0.848
			c0.457,0.359,0.686,0.871,0.686,1.534C177.283,21.101,177.032,21.634,176.532,22.08z"/>
		<path fill="#FFFFFF" d="M178.784,12.798v-1.762h1.19v1.745L178.784,12.798z M178.784,22.585v-7.748h1.19v7.748H178.784z"/>
		<path fill="#FFFFFF" d="M188.758,24.111c-0.027,0.147-0.095,0.337-0.203,0.571c-0.109,0.234-0.275,0.459-0.498,0.677
			c-0.223,0.217-0.53,0.405-0.922,0.562s-0.881,0.237-1.468,0.237c-0.315,0-0.642-0.027-0.979-0.082
			c-0.338-0.054-0.637-0.19-0.897-0.408c-0.261-0.217-0.489-0.481-0.686-0.791c-0.195-0.31-0.375-0.709-0.538-1.199l1.224-0.033
			c0.195,0.413,0.44,0.742,0.734,0.987c0.293,0.245,0.674,0.367,1.142,0.367c0.598,0,1.068-0.098,1.411-0.294
			s0.514-0.418,0.514-0.668v-1.762c-0.131,0.054-0.267,0.103-0.408,0.146c-0.141,0.043-0.282,0.087-0.424,0.13
			c-0.446,0.12-0.887,0.18-1.321,0.18c-1.076,0-1.974-0.359-2.691-1.077c-0.696-0.729-1.044-1.642-1.044-2.74
			c0-1.25,0.358-2.257,1.076-3.018c0.74-0.805,1.681-1.207,2.822-1.207c0.326,0,0.658,0.06,0.995,0.18
			c0.359,0.12,0.696,0.267,1.012,0.44v-0.473h1.174v9.021l0.017,0.016C188.799,23.885,188.785,23.964,188.758,24.111z
			 M187.608,16.518c-0.076-0.054-0.169-0.123-0.277-0.204c-0.109-0.082-0.239-0.155-0.392-0.22
			c-0.174-0.076-0.356-0.133-0.547-0.171c-0.19-0.038-0.399-0.057-0.628-0.057c-0.805,0-1.479,0.289-2.022,0.865
			c-0.533,0.565-0.8,1.289-0.8,2.169c0,0.827,0.239,1.479,0.718,1.958c0.25,0.25,0.53,0.438,0.841,0.563
			c0.31,0.125,0.671,0.188,1.084,0.188c0.49,0,0.897-0.065,1.224-0.196c0.152-0.054,0.294-0.114,0.425-0.18
			c0.13-0.065,0.255-0.13,0.375-0.195V16.518z"/>
		<path fill="#FFFFFF" d="M195.927,22.585v-4.388c0-0.381-0.04-0.718-0.122-1.012c-0.081-0.293-0.198-0.533-0.351-0.717
			c-0.305-0.402-0.75-0.604-1.338-0.604c-0.544,0-0.984,0.142-1.321,0.424c-0.174,0.142-0.332,0.293-0.473,0.457
			c-0.142,0.164-0.272,0.337-0.392,0.522v5.318h-1.19v-7.748h1.174v0.979c0.25-0.348,0.517-0.604,0.8-0.767
			c0.424-0.239,0.892-0.359,1.402-0.359c0.902,0,1.632,0.293,2.187,0.881c0.282,0.293,0.489,0.642,0.619,1.044
			c0.131,0.402,0.196,0.848,0.196,1.338v4.632H195.927z"/>
	</g>
</g>
<g id="Layer_3">
</g>
</svg>
