<?xml version="1.0" encoding="utf-8"?>
<!-- Generator: Adobe Illustrator 16.0.0, SVG Export Plug-In . SVG Version: 6.00 Build 0)  -->
<!DOCTYPE svg PUBLIC "-//W3C//DTD SVG 1.1//EN" "http://www.w3.org/Graphics/SVG/1.1/DTD/svg11.dtd">
<svg version="1.1" id="Layer_1" xmlns="http://www.w3.org/2000/svg" xmlns:xlink="http://www.w3.org/1999/xlink" x="0px" y="0px"
	 width="68.408px" height="69px" viewBox="0 0 68.408 69" enable-background="new 0 0 68.408 69" xml:space="preserve">
<text transform="matrix(1 0 0 1 77.9468 60.5078)" fill="#FFFFFF" font-family="'AvenirNext-Regular'" font-size="10.2004" letter-spacing="1">community development corporation</text>
<g>
	<defs>
		<circle id="SVGID_1_" cx="34.173" cy="33.779" r="33.173"/>
	</defs>
	<clipPath id="SVGID_2_">
		<use xlink:href="#SVGID_1_"  overflow="visible"/>
	</clipPath>
	<rect x="-11.486" y="0.607" clip-path="url(#SVGID_2_)" fill="#C4C4C3" width="89.589" height="65.313"/>
	<polygon clip-path="url(#SVGID_2_)" fill="#FFFFFF" points="46.071,14.384 49.562,10.822 52.949,14.483 	"/>
	<polygon clip-path="url(#SVGID_2_)" fill="#FFFFFF" points="19.301,17.033 22.793,13.472 26.179,17.133 	"/>
	<polygon clip-path="url(#SVGID_2_)" fill="#FFFFFF" points="5.528,69.977 20.581,46.834 20.328,16.647 25.108,16.467 
		24.775,46.938 17.763,70.11 6.111,69.984 	"/>
	<polygon clip-path="url(#SVGID_2_)" fill="#FFFFFF" points="39.785,70.468 51.672,70.48 37.248,46.665 37.499,23.711 
		33.537,23.667 33.286,46.623 	"/>
	<polygon clip-path="url(#SVGID_2_)" fill="#FFFFFF" points="56.449,70.533 68.451,70.663 44.119,47.093 44.322,28.563 
		39.894,28.515 39.691,47.043 	"/>
	<polyline clip-path="url(#SVGID_2_)" fill="#FFFFFF" points="74.822,70.258 86.28,70.384 51.46,46.696 51.821,13.602 
		47.043,13.549 46.682,46.644 74.627,70.256 	"/>
	<polygon clip-path="url(#SVGID_2_)" fill="#FFFFFF" points="22.773,70.166 26.873,46.903 27.27,10.548 31.465,10.593 
		31.068,46.948 34.892,70.298 	"/>
	<polyline clip-path="url(#SVGID_2_)" fill="#FFFFFF" points="-5.543,69.977 0.399,70.042 18.191,46.872 18.432,24.79 
		13.655,24.738 13.59,46.763 -11.952,69.907 -6.126,69.973 	"/>
</g>
</svg>
