<?xml version="1.0" encoding="utf-8"?>
<!-- Generator: Adobe Illustrator 16.0.0, SVG Export Plug-In . SVG Version: 6.00 Build 0)  -->
<!DOCTYPE svg PUBLIC "-//W3C//DTD SVG 1.1//EN" "http://www.w3.org/Graphics/SVG/1.1/DTD/svg11.dtd">
<svg version="1.1" id="Capa_1" class="animated animate" xmlns="http://www.w3.org/2000/svg" xmlns:xlink="http://www.w3.org/1999/xlink" x="0px" y="0px"
	 width="142.333px" height="184px" viewBox="-1.316 -4.315 142.333 184" enable-background="new -1.316 -4.315 142.333 184"
	 xml:space="preserve">
<g>
	<g>
		<polygon fill="none" stroke="#FFFFFF" stroke-width="2" stroke-miterlimit="10" points="18.75,116.871 3.768,159.312 
			30.921,150.252 46.365,174.351 61.532,131.389 47.123,118.832 		"/>
		<polygon fill="none" stroke="#FFFFFF" stroke-width="2" stroke-miterlimit="10" points="121.694,116.871 93.326,118.832 
			78.91,131.389 94.078,174.351 109.519,150.252 136.68,159.312 		"/>
		<path fill="none" stroke="#FFFFFF" stroke-width="2" stroke-miterlimit="10" d="M114.803,107.644l1.757-25.393l16.716-19.191
			L116.56,43.866l-1.757-25.394l-25.382-1.759L70.228,0L51.026,16.714l-25.385,1.759l-1.763,25.399L7.174,63.064l16.705,19.191
			l1.763,25.388l25.39,1.756l19.202,16.698l19.192-16.698L114.803,107.644z M69.893,98.041c-19.502,0-35.32-15.812-35.32-35.309
			c0-19.5,15.812-35.322,35.32-35.322s35.318,15.817,35.318,35.322C105.211,82.233,89.393,98.041,69.893,98.041z"/>
		<polygon fill="none" stroke="#FFFFFF" stroke-width="2" stroke-miterlimit="10" points="58.211,47.799 59.728,54.746 
			67.247,51.209 67.336,51.209 67.336,82.287 76.304,82.287 76.304,42.882 68.633,42.882 		"/>
	</g>
</g>
</svg>
