<?xml version="1.0" encoding="utf-8"?>
<!-- Generator: Adobe Illustrator 16.0.0, SVG Export Plug-In . SVG Version: 6.00 Build 0)  -->
<!DOCTYPE svg PUBLIC "-//W3C//DTD SVG 1.1//EN" "http://www.w3.org/Graphics/SVG/1.1/DTD/svg11.dtd">
<svg version="1.1" id="Layer_1" xmlns="http://www.w3.org/2000/svg" xmlns:xlink="http://www.w3.org/1999/xlink" x="0px" y="0px"
	 width="68.408px" height="69px" viewBox="0 0 68.408 69" enable-background="new 0 0 68.408 69" xml:space="preserve">
<text transform="matrix(1 0 0 1 77.9468 60.5078)" fill="#FFFFFF" font-family="'AvenirNext-Regular'" font-size="10.2004" letter-spacing="1">community development corporation</text>
<g>
	<circle fill="#C4C4C3" cx="87.56" cy="-62.519" r="32.75"/>
	<g>
		<defs>
			<circle id="SVGID_1_" cx="87.56" cy="-62.519" r="32.75"/>
		</defs>
		<clipPath id="SVGID_2_">
			<use xlink:href="#SVGID_1_"  overflow="visible"/>
		</clipPath>
		<path clip-path="url(#SVGID_2_)" fill="#AEADAE" d="M110.07-7.873l30.305-25.338l-23.512-30.484c0,0-8.134-11.339-18.62,6.355
			c-8.826,14.896-26.426,9.244-26.426,9.244L110.07-7.873z"/>
	</g>
	<path fill="#FFFFFF" d="M116.863-63.695L104.541-78.07L90.26-65.637l5.061,5.812l4.308-3.75
		c0.203,6.374-4.318,12.081-10.783,13.179c-7.059,1.2-13.755-3.55-14.954-10.609c-1.199-7.06,3.551-13.754,10.61-14.954
		c1.326-0.225,2.639-0.24,3.907-0.069l6.729-6.024c-3.709-1.729-7.963-2.388-12.301-1.651c-11.371,1.932-19.023,12.718-17.09,24.088
		c1.931,11.371,12.715,19.023,24.085,17.09c10.192-1.73,17.395-10.574,17.388-20.576l3.792,4.425L116.863-63.695z"/>
</g>
<g>
	<path fill="#C4C4C3" d="M14.403,25.385l-0.109,0.226c-0.073-0.729,0.269-1.497,0.662-2.253c-3.288,1.645-6.195,3.587,0.799,4.858
		c-3.72,0.138-5.449,1.733-4.533,1.766c0.681,0.332,1.239,0.667,1.698,1.006c-0.268-0.233-0.568-0.466-0.918-0.696
		c0.35,0.23,0.65,0.463,0.918,0.696c2.884,2.145,1.623,4.475,0.185,6.886c-0.716,1.337-1.528,4.97-2.605,6.34
		c-0.136,0.199-0.261,0.396-0.367,0.597c0.334-0.333,0.334-0.333,0.667-0.665c0.993,0.836,1.959,1.594,2.598,2.327
		c0.534-0.129,1.05-0.151,1.785-0.458l-0.354,0.374c1.544,0.341,1.475,1.127,2.127,1.497c-0.811-0.08-0.971,0.211-1.092,0.468
		l0.535-0.102c-0.336,0.975,0.322,2.106,0.222,2.978c0.001,0.122-0.301,0.213-0.58,0.269l0.625,0.835
		c-1.084-0.064-0.954,0.692-1.632,0.294c1.281,0.625,0.497,1.259,1.823,1.855c0.161,2.131,0.985,4.397,2.796,6.6l0.402-0.054
		c0.718,0.771,2.855,1.45,2.146,2.389c1.444,0.669,2.207,1.62,4.464,1.887c0.31,0.772,1.445,1.081,2.03,1.838
		c1.118-0.195,1.352,0.735,2.218,0.363c1.563-0.503,0.233-0.53,1.495-0.957l-0.376,0.013c1.681-1.989,2.641-3.982,3.161-6
		c-0.947-1.346-0.172-2.805-0.458-4.205c-0.403-1.506-1.132-3.136-2.061-4.429c-0.321-0.308,0.614-0.53,1.137-0.794
		c-0.503-1.188-0.123-2.7-0.735-4.042c-0.004,0.026-0.024,0.051-0.038,0.066c-0.187-0.712,0.962-1.246,0.771-1.94
		c-0.318,0.003-0.339-0.104-0.505-0.157c1.482-0.121-3.088-4.095-2.236-4.341c-0.07-0.072-0.134-0.146-0.173-0.224
		c0.665-1.468,3.556-2.986,3.295-4.246c-0.698-0.274-1.311-0.582-2.099-0.812c0.637-0.223-0.597-0.266-0.426-0.534
		c2.977-0.682,1.73-1.081,0.679-0.729c-0.402-0.561-0.139-1.124-0.241-1.622c-0.217-0.231-0.446-0.46-0.703-0.694
		c-0.249-0.198,0.192-0.309,0.897-0.408c-0.422-0.507,0.312-0.357,0.614-0.889c1.041-0.128-1.654-1.332-1.338-1.482l0.154,0.087
		c0.183-0.614,2.194-1.022,2.284-1.623c0.763-1.668-0.008-3.49,0.349-5.035c-1.089-0.016,0.241,0.341-1.202,0.358
		c0.189-0.911,1.542-1.83,1.725-2.75c0.294-0.166,0.841-0.369,1.188-0.444c0.406-0.294-0.521-0.174-0.38-0.389l0.984-0.029
		c-0.806-0.314,1.091-0.459,0.684-0.756c-0.396-0.016-0.448-0.124-0.417-0.229c1.043-0.005-0.073-0.324,0.88-0.309l-0.079-0.003
		c0.017-0.063-0.05-0.108,0.129-0.186c-0.367-0.12-3.227-1.25-3.67-1.372l0.172-0.058c-0.032-0.168-0.806-0.241-0.994-0.142
		l0.059-0.208l0.071,0.024l0.059-0.207c0.092-0.039,0.578-0.082,1.036-0.023c-0.364-0.117-0.562-0.249-0.375-0.366
		c-0.644,0.326-1.555,0.732-2.609,1.073c-0.359-0.14,0.197-0.393,0.083-0.545c0.689-0.182,1.276-0.555,1.751-0.846
		c-0.06-0.063-1.224-0.107-0.71-0.252c0.804-0.07-0.03-0.164,0.552-0.284c0.428,0.139,0.235,0.274,0.193,0.415
		c0.948-0.024,0.644-0.342,0.912-0.453c-0.299-0.052,0.011-0.322-0.252-0.492c0.911,0.074,0.582-0.138,1.071-0.238
		c0.11-0.114-0.257-0.188-0.578-0.142c-0.993-0.037-0.593,0.457-1.633,0.297c0.48-0.042,0.314-0.267,0.27-0.388
		c-0.541-0.001-0.411,0.083-0.927,0.004c0.119-0.134-0.532-0.276,0.029-0.354c0.147,0.025,0.055,0.081,0.041,0.12
		c0.055-0.175,3.53,0.949,3.215,0.722c-0.48,0.059-3.208-0.997-3.242-0.88c-0.267,0.106-0.977-0.077-1.166,0.034l0.655,0.123
		c-0.202,0.151-1.148,0.213-1.52,0.159c0.085-0.252,3.692,0.719,3.145,0.502l-0.257,0.088c-0.352-0.092-0.657-0.337-0.088-0.432
		c-0.533,0-0.723-0.124-0.916-0.227l0.09-0.036c-0.271-0.106-0.143-0.253-0.85-0.185c0.085,0.621-5.434-0.408-5.743,0.193
		c1.181-0.252,1.21,0.085,1.348,0.35c-0.401,0.025-0.99,0.144-1.297,0.333c0.092,0.165,0.432,0.097,0.731,0.128
		c-0.266,0.091-0.488,0.266-1.11,0.243c0.74,0.128-0.473,0.205-0.217,0.359c0.342,0.135,0.321-0.009,0.679,0.087
		c-0.079,0.204-0.184,0.489-0.327,0.651c-0.582,0.062-1.615,0.254-2.518,0.115c0.123-0.309,1.472,0.118,1.277-0.204
		c-1.332,0.138-0.365-0.285-1.373-0.343c-0.6,0.103-0.607,0.31-0.44,0.483l0.176-0.035c0.175,0.153,0.453,0.459-0.259,0.625
		c-0.467-0.039-0.819,0.033-0.934-0.079l-0.088,0.211c0.148,0.026,0.3,0.054,0.407-0.007c0.362,0.1,0.16,0.199-0.117,0.275
		c-0.494,0.023,2.08,1.12,1.769,1.086c0.015,0.151-0.728,0.188-0.225,0.336c0.402,0.015-1.693-1.451-1.533-1.25
		c-0.542,0.13,2.473,1.719,1.535,1.814c0.037,0.112,0.141,0.248,0.644,0.222c-0.244,0.19-0.958-0.057-1.427,0.078
		c0.079,0.003,0.25-0.011,0.233,0.032l-0.633,0.13c0.778,0.295-0.235,0.728,0.794,1.037c-0.543-0.09-1.496-0.192-1.988-0.391
		l0.264-0.035c-0.154-0.028-0.328-0.192-0.829-0.187c-0.333,0.188-0.242,0.35,0.251,0.549c-0.135,0.036-0.271,0.079-0.409,0.108
		c0.066-0.001,0.121-0.002,0.196-0.003c-0.312,0.065-0.362,0.058-0.558,0.034c-0.035-0.004-0.076-0.009-0.114-0.014
		c-1.467,0.118,0.93,0.741,0.17,1.086c0.207,0.102,0.249,0.01,0.53,0.136c-0.582,0.352-1.03,0.595-1.37,0.964
		c0.632,0.118,0.885,0.127,1.545-0.016l-0.206,0.279c-1.685-0.253-1.607,0.519-3.29,0.24c-0.385,0.082-0.464,0.248-0.192,0.404
		c0.425,0.016,1.105,0.041,1.103,0.236c-0.562,0.273-0.357,0.208-0.898,0.434c-0.551,0.053-0.769-0.03-1.21-0.02
		c0.707,0.348-1.199,0.304-1.094,0.633c0.163,0.206,0.229,0.612,1.195,0.623C15.896,25.412,15.188,25.412,14.403,25.385z"/>
	<g>
		<path fill="#FFFFFF" d="M36.339,67.429c-0.016,0.018-0.057,0.064-0.068,0.076C36.439,67.345,36.327,67.433,36.339,67.429z"/>
		<path fill="#FFFFFF" d="M37.172,65.849l0.087,0.027c0.01,0-0.134-0.232-0.145-0.232C37.12,65.644,37.177,65.849,37.172,65.849z"/>
		<path fill="#FFFFFF" d="M37.925,64.371c-0.43,0.069-0.436,0.203-0.413,0.353c0.028,0.149,0.073,0.313-0.096,0.445l-0.154,0.044
			l0.409,0.119C37.807,65.012,37.611,64.596,37.925,64.371z"/>
		<path fill="#FFFFFF" d="M40.423,63.583c-0.429,0.049-0.162-0.171-0.298,0.184c0.058-0.016,0.085-0.023,0.125-0.033
			C40.276,63.702,40.321,63.657,40.423,63.583z"/>
		<path fill="#FFFFFF" d="M40.25,63.733C40.12,63.889,40.662,63.632,40.25,63.733L40.25,63.733z"/>
		<path fill="#FFFFFF" d="M40.716,63.015l0.176,0.204c0.287-0.043,0.545-0.225,0.654-0.157
			C41.574,62.852,41.248,62.895,40.716,63.015z"/>
		<path fill="#FFFFFF" d="M40.051,62.82c0,0,0.093,0.106,0.089,0.106C40.264,62.907,40.329,62.879,40.051,62.82z"/>
		<path fill="#FFFFFF" d="M40.293,63.151c0,0-0.153-0.225-0.153-0.225c-0.208,0.029-0.566,0.032,0.041,0.104
			C39.867,63.011,40.152,63.056,40.293,63.151z"/>
		<path fill="#FFFFFF" d="M40.022,63.279c-0.329,0.115-0.562,0.264-0.773,0.058C39.127,63.729,39.816,63.671,40.022,63.279z"/>
		<path fill="#FFFFFF" d="M37.125,64.296l-0.264,0.153l0.225,0.133C36.972,64.516,37.377,64.285,37.125,64.296z"/>
		<path fill="#FFFFFF" d="M42.524,61.737c-0.283-0.013-0.844,0.069-1.225,0.084l0.207,0.151
			C41.764,61.896,42.078,61.748,42.524,61.737z"/>
		<path fill="#FFFFFF" d="M41.3,61.821l-0.339-0.227C40.759,61.798,40.97,61.834,41.3,61.821z"/>
		<path fill="#FFFFFF" d="M38.787,62.783c0.024,0,0.662,0.372,0.642,0.372c0.027,0-0.593-0.443-0.622-0.443L38.787,62.783z"/>
		<polygon fill="#FFFFFF" points="43.394,60.872 44.027,61 43.091,60.771 		"/>
		<path fill="#FFFFFF" d="M43.801,60.298c0.588,0.096,1.303-0.131,1.621-0.029c0.057-0.156-0.402-0.289-0.845-0.409
			C44.764,59.986,44.53,60.122,43.801,60.298z"/>
		<path fill="#FFFFFF" d="M43.939,59.658c0.121,0.063,0.378,0.129,0.638,0.201C44.475,59.792,44.296,59.725,43.939,59.658z"/>
		<path fill="#FFFFFF" d="M41.388,61.209c0.205-0.018,0.732-0.052,1.061-0.178l-0.982,0.089
			C41.442,61.147,41.415,61.178,41.388,61.209z"/>
		<path fill="#FFFFFF" d="M41.435,61.123l0.031-0.003c0.09-0.097,0.16-0.164,0.191-0.192C41.629,60.952,41.562,61.011,41.435,61.123
			z"/>
		<path fill="#FFFFFF" d="M41.367,61.232l0.021-0.023C41.293,61.218,41.26,61.223,41.367,61.232z"/>
		<path fill="#FFFFFF" d="M39.755,62.189c-0.342-0.134-0.729-0.411-1.504-0.142C38.749,62.144,39.209,61.989,39.755,62.189z"/>
		<path fill="#FFFFFF" d="M40.19,61.343l-0.33,0.24c0.225-0.005,0.582-0.048,0.773,0.018L40.19,61.343z"/>
		<polygon fill="#FFFFFF" points="39.973,61.225 40.19,61.343 40.316,61.253 		"/>
		<path fill="#FFFFFF" d="M42.6,60.07c-0.372-0.104-0.335-0.218-0.319-0.347c-0.31,0.139-0.513,0.28-0.601,0.415
			C41.991,60.158,42.522,60.218,42.6,60.07z"/>
		<path fill="#FFFFFF" d="M41.935,60.582c-0.018-0.007-0.021-0.017-0.039-0.023C41.803,60.573,41.769,60.584,41.935,60.582z"/>
		<path fill="#FFFFFF" d="M42.565,58.459c-0.062,0.007-0.135,0.014-0.203,0.021c0.069,0.002,0.132,0.004,0.198,0.006L42.565,58.459z
			"/>
		<path fill="#FFFFFF" d="M41.473,60.162c-0.263,0.104-0.051,0.165,0.216,0.225c-0.047-0.077-0.06-0.159-0.009-0.248
			C41.538,60.131,41.443,60.129,41.473,60.162z"/>
		<path fill="#FFFFFF" d="M43.704,59.305c-0.269,0.055-0.507,0.115-0.743,0.18C43.358,59.432,43.989,59.324,43.704,59.305z"/>
		<path fill="#FFFFFF" d="M42.193,60.524c0.013,0.005,0.025,0.009,0.031,0.016C42.462,60.506,42.355,60.51,42.193,60.524z"/>
		<path fill="#FFFFFF" d="M42.193,60.524c-0.102-0.054-0.315-0.096-0.505-0.138c0.036,0.063,0.102,0.121,0.208,0.172
			C41.976,60.549,42.091,60.536,42.193,60.524z"/>
		<path fill="#FFFFFF" d="M35.305,58.077c1.038,0.018,2.011,0.29,0.886,0.524c0.79,0.23,4.305,0.08,6.172-0.122
			c-0.455-0.007-0.894-0.007-1.536-0.244c-0.562,0.083-1.264,0.526-2.248,0.326c-0.569-0.314,0.348-0.258,0.892-0.411
			c-1.297,0.13-1.889-0.4-3.796-0.332l0.671,0.276C36.051,58.1,35.576,58,35.305,58.077z"/>
		<path fill="#FFFFFF" d="M42.35,58.934l0.128,0.098c0.196-0.111,0.618-0.192,1.403-0.339c-0.567-0.163-0.967-0.196-1.319-0.207
			c0,0-0.005,0.119-0.009,0.24c-0.003,0.12-0.043,0.241-0.043,0.241L42.35,58.934z"/>
		<path fill="#FFFFFF" d="M42.291,59.47c-1.056-0.076-1.485-0.312-2.764-0.167c-0.011,0.287,0.87,0.201,1.264,0.373
			c-0.023-0.464,0.534,0.133,1.369-0.201c0.129,0.09,0.129,0.173,0.121,0.249c0.191-0.083,0.416-0.164,0.681-0.239
			c-0.029,0.004-0.05,0.007-0.078,0.011l0.003,0.002c-0.008,0-0.011,0-0.017-0.001c-0.156,0.021-0.244,0.027-0.146,0.005
			c-0.014-0.002-0.015-0.007-0.016-0.01c-0.15-0.008-0.282-0.015-0.41-0.021c0.326-0.134,0.309-0.021,0.41,0.021
			c0.052,0.002,0.104,0.004,0.162,0.005c0.007,0,0.01,0,0.014-0.001c0,0-0.062-0.116-0.163-0.232
			c-0.093-0.115-0.243-0.231-0.243-0.231C42.307,59.129,42.306,59.252,42.291,59.47z"/>
		<path fill="#FFFFFF" d="M36.553,61.8c0.074-0.015,0.133-0.014,0.193-0.015C36.646,61.755,36.576,61.744,36.553,61.8z"/>
		<path fill="#FFFFFF" d="M37.076,61.608c0.115,0.034,0.447,0.062,0.341,0.172c-0.264,0.095-0.396-0.001-0.671,0.005
			c0.221,0.065,0.55,0.231,0.992,0.023l-0.106-0.032c0.309-0.187,1.488-0.427,1.603-0.395
			C38.423,61.437,37.844,61.484,37.076,61.608z"/>
		<path fill="#FFFFFF" d="M39.134,60.526c0,0-0.088-0.097-0.177-0.193c-0.095-0.097-0.189-0.193-0.189-0.193l-0.937,0.197
			l0.529-0.011C38.1,60.547,38.749,60.499,39.134,60.526z"/>
		<polygon fill="#FFFFFF" points="43.12,58.416 44.34,58.467 42.594,58.243 		"/>
		<polygon fill="#FFFFFF" points="42.937,57.913 43.978,57.932 43.35,57.799 		"/>
		<path fill="#FFFFFF" d="M30.028,29.564l-0.295-0.114C29.824,29.504,29.923,29.539,30.028,29.564z"/>
		<path fill="#FFFFFF" d="M29.957,30.387l0.512,0.02C30.188,30.369,29.979,30.353,29.957,30.387z"/>
		<path fill="#FFFFFF" d="M42.821,45.575c0.97-0.165,2.477-0.351,1.307-0.331l-1.14,0.052C43.192,45.411,43.064,45.5,42.821,45.575z
			"/>
		<path fill="#FFFFFF" d="M36.01,37.125c-0.111,0.016-0.23,0.032-0.347,0.049c0.39,0.04,0.753,0.077,1.091,0.112
			C36.524,37.236,36.273,37.182,36.01,37.125z"/>
		<path fill="#FFFFFF" d="M31.29,37.009l0.736-0.218C31.769,36.839,31.522,36.909,31.29,37.009z"/>
		<path fill="#FFFFFF" d="M28.818,25.073l-1.161-0.132C27.663,25.148,28.249,25.056,28.818,25.073z"/>
		<path fill="#FFFFFF" d="M42.518,52.768c0.444-0.143,0.632-0.256,0.687-0.356C42.55,52.584,41.567,52.723,42.518,52.768z"/>
		<path fill="#FFFFFF" d="M42.131,29.888c-0.207-0.07-0.439-0.099-0.693-0.097C41.635,29.862,41.852,29.902,42.131,29.888z"/>
		<path fill="#FFFFFF" d="M43.201,51.999c-0.113,0.024-0.172,0.05-0.268,0.075c0.191,0.104,0.345,0.21,0.272,0.337
			C43.693,52.284,43.993,52.139,43.201,51.999z"/>
		<path fill="#FFFFFF" d="M31.13,8.784c0.048-0.013,0.082-0.022,0.134-0.037C31.145,8.744,31.126,8.76,31.13,8.784z"/>
		<path fill="#FFFFFF" d="M37.265,4.039c0.047,0.046,0.104,0.123,0.16,0.195C37.417,4.198,37.369,4.14,37.265,4.039z"/>
		<path fill="#FFFFFF" d="M43.434,55.892C43.509,55.998,43.56,55.908,43.434,55.892L43.434,55.892z"/>
		<path fill="#FFFFFF" d="M38.923,56.41c-0.128-0.022-0.29-0.04-0.556-0.043C38.644,56.376,38.819,56.391,38.923,56.41z"/>
		<path fill="#FFFFFF" d="M36.104,50.938l0.002-0.009C35.883,50.96,35.925,50.955,36.104,50.938z"/>
		<path fill="#FFFFFF" d="M42.916,56.052c0.14-0.04,0.257-0.086,0.338-0.136C43.166,55.938,43.056,55.979,42.916,56.052z"/>
		<path fill="#FFFFFF" d="M43.455,56.03c-0.052,0.037-0.08,0.065-0.111,0.094C43.535,56.137,43.654,56.125,43.455,56.03z"/>
		<path fill="#FFFFFF" d="M43.374,55.743c0.017,0.061-0.037,0.118-0.12,0.173c0.078-0.021,0.143-0.03,0.18-0.024
			C43.417,55.86,43.393,55.816,43.374,55.743z"/>
		<path fill="#FFFFFF" d="M32.816,17.512c0.035-0.008,0.062-0.013,0.107-0.023C32.45,17.381,32.526,17.428,32.816,17.512z"/>
		<path fill="#FFFFFF" d="M30.975,42.802c0.016,0.004,0.039,0.009,0.055,0.013l0.041-0.016L30.975,42.802z"/>
		<path fill="#FFFFFF" d="M30.125,42.42c1.419,0.162,1.245,0.255,0.945,0.379l3.288-0.127L30.125,42.42z"/>
		<path fill="#FFFFFF" d="M29.699,27.595l-1.024,0.269c-1.686-0.324-1.104-0.559-2.547-0.307c3.571,0.038,0.367,1.044,3.933,1.082
			l-0.75,0.177c0.034-0.05-0.175-0.059-0.14-0.109c-1.71,0.345,2.582,0.256,2.073,0.7c-0.273,0.155-0.792,0.263-1.216,0.158
			l0.883,0.344c-0.069,0.101-0.688,0.076-0.622-0.024l0.285,0.526l-0.105-0.004c0.561,0.075,1.425,0.245,1.794,0.328
			c-0.511,0.134-0.377-0.067-0.824-0.033l0.865,0.292c-0.925,0.118-1.824-0.123-1.691-0.324c-3.564,0.272,0.9,0.242-1.182,0.829
			l-0.455-0.275c-2.025,0.177-1.291,0.392-2.554,0.702c0.659-0.073,3.182-0.622,4.073-0.306c-0.271,0.089-0.399,0.206,0.319,0.376
			c-1.269,0.001-0.958,0.168-0.885,0.376l-1.682-0.014c0.485,0.225,1.342,0.207,2.099,0.34c-0.166,0.25-1.469,0.303-2.566,0.362
			c-0.267,0.402,2.089-0.277,2.406,0.198c-0.644,0.334,0.043,0.569,1.05,0.969c-0.578,0.234-1.03-0.041-1.508,0.043l1.34,0.208
			c-0.032,0.051-0.444,0.035-0.652,0.026c0.52,0.175,1.68,0.015,2.138,0.289c1.851,0.074-2.708,0.564-0.604,0.904
			c-0.478,0.084-1.031-0.04-1.682-0.015c1.38,0.467,1.002,0.4,2.86,0.783l-1.104,0.327c1.262-0.24,2.756,0.066,3.984,0.334
			c0.609-0.084,1.143-0.157,1.398-0.206l0.902,0.428c-0.276,0.051-0.853,0.008-1.556-0.062c0.142,0.027,0.28,0.054,0.403,0.078
			c-0.621,0.153-1.592,0.074-2.531-0.036c0.334-0.049,0.689-0.102,1.037-0.154c-1.021-0.106-2.153-0.205-3.137-0.183
			c0.194,0.028,0.361,0.081,0.455,0.14c-0.277-0.028-0.525-0.045-0.693-0.032c-0.177,0.014,0.195,0.059,0.624,0.129l-1.875,0.097
			l0.745,0.023l-1.173,0.56c1.888,0.401,4.665,0.75,5.439,1.386c-1.375-0.158-2.245-0.034-3.874-0.043
			c1.725-0.173-0.733-0.492-0.382-0.822c-0.181,0.172-0.957,0.135-1.229,0.091l1.568,0.588c-1.331-0.014-0.999,0.125-1.55,0.278
			c2.634-0.116,1.754,0.438,2.562,0.678c-0.883,0.015-1.786-0.043-1.573-0.334c-1.982,0.321,3.092,0.415,1.408,0.731
			c-0.021-0.071,0.114-0.109-0.335-0.138c0.787,0.167,0.164,0.573-0.607,0.478l-0.018-0.071c-0.312,0.474-0.019,1.441,2.217,1.511
			c-0.288,0.006-2.695-0.062-3.147-0.09l7.525,0.844c-1.921-0.074-6.495,0.211-7.58-0.181c-0.273,0.112-0.592,0.251,0.085,0.489
			c0.273-0.077,2.778-0.191,2.952-0.087c-2.139,0.289-1.144,0.201-2.966,0.556c0.413-0.115,3.422,0.013,3.327,0.195
			c-0.452-0.029-2.973,0.015-3.286-0.052l2.956,0.453c-0.532-0.113-2.505-0.02-3.341,0.081c0.579-0.047-0.054,0.393,0.24,0.513
			l0.685-0.191c-0.447,0.512,4.156,0.505,4.002,1.012c-0.61-0.061-3.758-0.151-4.13,0.107c1.514,0.118,7.283,0.523,8.449,0.973
			l-0.867,0.086l0.987,0.345c-2.279-0.215-7.073-0.817-8.938-1.146c-0.686,0.191-1.02,0.054-0.942,0.341
			c-0.81,0.101-1.23-0.157-1.278-0.242l-0.524,0.668c1.768-0.029,1.773,0.511,3.245,0.485l-1.832-0.725
			c1.764-0.029,5.016,0.419,4.704,0.893c-0.703,0.119-3.146-0.091-3.735-0.081c0.609,0.062,1.163,0.449,0.731,0.492l-0.945-0.2
			c-0.665,0.264,2.343,0.43,0.656,0.746c-0.114,0.108-2.275,0.326-1.231,0.345c2.018-0.178,8.256-0.213,9.771-0.094
			c-0.136,0.038-1.928,0.573-2.925,0.698c-1.581,0.18-3.77-0.271-5.126-0.117c0.483,0.007,1.079,0.106,1.27,0.147
			c-0.412,0.114-1.495-0.048-1.277,0.201c1.792,0.042-0.151,0.507,1.515,0.118c0.512,0.243-0.369,0.259-0.29,0.546
			c1.158-0.092,3.941,0.256,4.452,0.501c-0.456-0.015-1.049,0.04-1.318,0.066c-0.163,0.5-0.977,0.768-0.992,1.234
			c-0.435,0.043-0.96,0.268-1.73,0.172c0.317,0.067,0.925,0.129,0.968,0.272c-1.549,0.278-0.241-0.32-2.102-0.108
			c1.042,0.019,1.437,0.372,2.087,0.576c1.608-0.063,0.308-0.473-0.342-0.678c2.218-0.001,4.542,0.356,5.567,0.843
			c0.551,0.387-1.434,0.168-1.118,0.234c-0.388,0.728,3.874,0.62,2.274,1.225c-1.415,0.239-2.813,0.01-3.833,0.062
			c-0.536-0.314,0.897-0.483,0.84-0.697l-0.669,0.263c-0.468-0.1-0.825-0.311-0.415-0.425c-1.271,0.201-0.245,1.229-1.417,1.789
			c0.475,0.101,0.964,0.272,1.532,0.19l-0.197-0.178c1.14-0.163,1.576,0.334,2.108,0.109c0.802,0.238,2.061,0.505,1.417,0.841
			l-1.612,0.062c0.471-0.007,0.961-0.219,0.469-0.313c0.714,0.14-2.182,0.515-0.071,0.668l1.117-0.235
			c0.81,0.238,2.521,0.534,2.013,0.831c1.592-0.135-0.182-0.068,1.68-0.279c-2.315,0.183,0.098-0.76-2.337-0.466
			c2.162-0.216,0.917-0.375,2.76-0.658c-0.532,0.009-1.017,0.101-0.755-0.148c-0.155-0.012-0.353-0.039-0.468-0.055
			c0.016-0.008,0.024-0.011,0.04-0.018l-0.063,0.014c-0.078-0.011-0.096-0.012-0.021,0.006c-0.231,0.059-0.512,0.107-0.809,0.127
			c-1.22-0.124-1.183-0.521-1.815-0.654c0.254-0.148,0.611,0.062,1.178-0.02l-0.944-0.2c1.18-0.021,1.96-0.394,2.652-0.044
			l0.053-0.314c0.662-0.185,0.925-0.438,0.429-0.596c0.256-0.147-1.307-0.374-0.383-0.244l-0.731-0.492l0.295-0.005
			c0.148-0.485-1.954-0.999,0.176-1.555c-0.298-0.163-0.663-0.332-0.326-0.605l1.019-0.054c-0.355-0.209,1.023-0.63-0.041-0.72
			c2.749-0.227,0.6-1.019,1.087-1.388l-1.334-0.014c0.076-0.254-0.302-0.498-0.837-0.812l-1.18,0.019
			c-0.967-0.271,0.838-0.698,0.716-1.129c0.452,0.029,0.334,0.139,0.062,0.216c2.663-0.515-1.936-1.084,0.003-1.55
			c-0.429-0.116-0.283-0.2,0.015-0.281c0.002,0.01,0.024,0.021,0.061,0.027c0.015-0.012,0.017-0.028,0.015-0.047
			c0.203-0.051,0.438-0.104,0.628-0.161c-0.288,0.049-0.524,0.095-0.633,0.136c-0.024-0.09-0.17-0.226-0.466-0.358l1.266-0.057
			c-0.017-0.011-0.014-0.02-0.036-0.031c0.468-0.131-0.6-0.104-1.551-0.035c-0.208-0.067-0.459-0.129-0.765-0.177
			c2.044-0.105-0.688-0.349,1.493-0.494c-1.064-0.09-0.801-0.669-3.036-0.74c0.29-0.004,0.429-0.043,0.447,0.028
			c0.255-0.147,0.509-0.297-0.121-0.429l1.609-0.063l-2.164-0.324c0.981-0.197,1.551-0.278,2.79-0.083
			c-1.904-0.472-0.717-0.383-2.606-0.784l1.041,0.02c-0.04-0.144-1.432-0.373-0.573-0.46c1.977-0.32,0.273-1.588,2.112-2.411
			c-3.065,0.159,1.372-0.384-1.003-0.416c0.725-0.048,1.134-0.163,1.765-0.03c-0.713-0.42,1.148-0.631-0.854-0.921
			c0.728-0.048,1.064,0.09,1.493,0.047c-0.155-0.034-0.63-0.134-0.197-0.178c0.431-0.043,0.608,0.062,0.924,0.128
			c-0.122-0.43-2.355-0.473-4.452-0.504c0.993-0.217,0.853-0.326-0.522-0.483c0.686-0.076,1.403-0.202,1.649,0.065
			c0.1-0.15,1.005-0.917-0.675-0.933c0.426-0.047,0.125-0.209-0.069-0.249c0.1-0.337,0.251-0.367,0.092-0.697l-0.274,0.092
			c-2.027-0.131-0.453-0.275-0.696-0.542l0.208,0.008c1.461-0.612-0.702-0.264,0.967-0.867l-1.261,0.032
			c-2.712-0.056,1.6-0.534,0.562-0.884l-0.72,0.126c-0.927-0.191,3.688-0.534,4.027-0.726c0.236-0.042,0.378,0.066,0.554,0.124
			c1.599-0.502-1.654-0.065-2.038-0.439c0.891-0.069,2.266,0.089,2.433-0.163c0.722-0.126-2.894-0.732-1.185-1.076
			c-0.687,0.076-1.372,0.151-1.888-0.023c-0.246-0.267,2.595-0.721,0.431-0.962c0.187-0.034,0.367-0.047,0.538-0.048
			c-0.559-0.204-0.928-0.663-2.102-0.786c4.356-0.188-2.118-1.268,1.898-1.263l-0.215-0.627l0.41,0.016
			c0.266-0.401-0.697-0.542-1.661-0.683c0.273-0.093,0.649-0.025,0.859-0.018c0.81-0.586,0.639-0.644-1.361-1.135l1.303-0.051
			c-0.758-0.134,2.042-0.847,0.522-1.422c0.148,0.006,0.4,0.018,0.584,0.063c-1.529-0.647,3.616-1.548-1.129-1.785l-1.169-0.426
			c-0.37,0.551-2.059-0.083-2.849,0.145c-0.278-0.217,1.432-0.561,1.675-0.294l-0.237,0.042c2.475,0.098,0.876-0.686,2.561-0.671
			c-0.121-1.086,1.248-2.145,1.353-3.162l-1.923,0.117l0.11-0.355c0.449-0.093,1.505-0.125,1.425,0.128
			c1.09-0.133-0.912-0.425-1.33-0.432c0.778-0.495,2.242,0.194,2.288,0.042l-0.144-0.207l-0.225,0.046
			c-0.786-0.167-1.617-0.182-1.523-0.486c0.385-0.192,1.186-0.099,1.26-0.174c0.136,0,0.2-0.025,0.055-0.116l0.163-0.447
			l-1.517,0.179c-0.747-0.198,0.08-0.421-1.641-0.214c2.652-0.303,0.953-1.667,1.776-1.854c-1.107-0.277-1.088-0.551-0.955-0.89
			c-0.316,0.084-2.023,0.135-1.813-0.158c3.521,0.107,1.528-0.536,4.062-0.773c-0.838,0.105-0.952-0.102-1.113-0.295
			c-0.159-0.193-0.413-0.371-1.648-0.205c0.322-0.244,1.337-0.015,2.217-0.2c-1.176-0.581,0.453-1.281-0.425-2
			c-0.398-0.011-0.962,0.109-1.623-0.045l1.733-0.379c-0.292-0.142-2.208-0.13-1.081-0.39c-0.28,0.037-0.714,0.091-0.869-0.004
			c0.54-0.704-0.221-1.423-0.702-2.145C38.19,6.117,38,5.755,37.901,5.395c-0.106-0.361-0.101-0.721-0.172-1.078
			c-0.057,0.193-0.194,0.064-0.304-0.083c0.018,0.096-0.265-0.002-0.393,0.017c0,0,0.03-0.15,0.019-0.299
			c-0.007-0.149-0.056-0.299-0.056-0.299c-0.165-0.054-0.256-0.215-0.352-0.369c-0.093-0.155-0.188-0.304-0.235-0.335l0.11,0.19
			c-0.127-0.126-0.126-0.038-0.219,0.077c-0.08,0.115-0.262,0.257-0.405,0.239c0.068,0.141-0.077,0.327-0.334,0.536
			c-0.231,0.208-0.602,0.44-0.271,0.671c-0.206,0.103-0.184-0.087-0.379-0.032c0.22,0.117,0.265,0.259-0.037,0.521l-0.078-0.03
			c-0.288,0.738-0.87,1.055-1.904,1.883l0.766-0.061c-0.198,0.178-0.461,0.216-0.705,0.299c1.042,0.204,0.366-0.5,1.475-0.314
			c-0.783,0.119-0.981,0.432-1.161,0.737c-0.192,0.305-0.397,0.6-1.522,0.679c-0.19,0.274,1.12-0.08,0.953,0.194l-0.639,0.073
			l0.739,0.069c-0.214,0.179-1.054,0.27-1.596,0.277c0.093-0.043-0.06-0.124-0.07-0.171c-0.921,0.233-0.231,0.657-0.528,0.737
			l0.598-0.263c0.059,0.374-0.26,0.789-0.496,1.201c-0.121,0.206-0.191,0.412-0.07,0.611c0.118,0.198,0.417,0.391,0.854,0.572
			l0.586-0.055c1.185,0.552-0.593,0.442-0.08,1.048l-0.14-0.022c0.585,0.122,0.881,0.283,0.814,0.449
			c-0.688-0.153-1.337,0.288-2.099,0.087c1.167,0.599,0.917,0.296,3.1,0.691l-0.974,0.091c0.881,0.134,1.346,0.146,1.598,0.449
			c-0.836-0.248-1.484,0.193-2.591-0.085c-2.131,0.635,2.153,0.943-0.965,1.234c2.698,0.292,1.498-0.55,2.076-0.386
			c0.883-0.137,2.017,0.241,1.746,0.44c-0.06,0.203-3.451,0.345-3.4,0.855c0.012-0.051-0.19-0.054-0.18-0.105
			c-0.688,0.191,0.932,0.374-0.185,0.608c1.63,0.131-0.095,0.304,1.986,0.342l-0.481-0.468c0.544,0.265,2.979,0.514,1.798,0.951
			c-0.419-0.034-0.97-0.165-1.279-0.253c-0.614,0.127,0.406,0.246-0.224,0.378c-2.083-0.038-0.453-0.569-2.041-0.853
			c-0.879,0.137,1.509,0.538-0.747,0.395c2.868,0.205-0.362,0.502,1.828,0.848l-1.247-0.023c0.195,0.055,0.785,0.168,0.753,0.269
			l-1.617-0.182c1.379,0.28-1.206,0.54-0.456,0.808c-0.038-0.562,1.503-0.126,2.414-0.364c1.669,0.693-3.262,0.398-2.665,1.174
			c-0.176-0.105,0.749-0.394,1.327-0.23c-0.257,0.148-0.736,0.343-1.39,0.434c0.258,0.514,1.282-0.079,2.049,0.14
			c-1.52,0.175,0.619,0.252,1.105,0.477l-1.268,0.002c-0.814,0.586,2.644,0.155,1.66,0.683l-1.759-0.223l0.455,0.275l-1.443-0.057
			c1.071,0.299,0.794,0.393,0.389,0.685c0.894-0.068,2.301,0.039,2.342,0.298c-0.754,0.177-1.207-0.099-1.024,0.269
			c-0.794-0.083-1.791-0.174-0.622-0.334c-0.413-0.016-0.796-0.082-1.204-0.099c-0.868,0.19-0.198,0.479-0.187,0.612
			c0.047-0.051,0.116-0.112,0.297-0.144l1.757,0.533c-0.477,0.084-0.859,0.018-1.233-0.049c0.137,0.108,0.72,0.183,0.829,0.341
			c-1.031-0.041-2.095-0.031-2.579-0.256l1.143,0.508c-0.448,0.034-1.23,0.261-1.611,0.195c-0.606,0.282,2,0.691,1.2,1.064
			c0.2,0.019,0.391,0.058,0.539,0.137c-0.233,0.351-1.498,0.662-0.084,1.077l-1.848,0.236c0.419,0.326,2.328-0.319,3.025,0.223
			c0.589,0.384-1.576,0.143-2.09,0.278c0.931,0.191,2.827,0.523,1.322,0.875C29.563,27.795,29.836,27.704,29.699,27.595z
			 M30.52,31.611c-0.267-0.078-1.087-0.233-0.34-0.29C31.632,31.41,30.937,31.479,30.52,31.611z M33.573,37.716
			c-0.42-0.058-0.213-0.147,0.267-0.248C33.945,37.542,33.897,37.625,33.573,37.716z M42.402,54.724
			c-0.021-0.002-0.037-0.005-0.062-0.009C42.835,54.542,42.64,54.604,42.402,54.724z M41.852,55.084
			c0.178,0.037,0.353,0.034,0.53,0.019c-0.321-0.025-0.344-0.105-0.253-0.198C41.797,54.93,41.567,54.977,41.852,55.084z
			 M41.352,16.374l-0.332,0.07C40.656,16.286,40.985,16.33,41.352,16.374z"/>
		<path fill="#FFFFFF" d="M31.836,37.024c0.214-0.021,0.451-0.028,0.689-0.033C32.313,36.96,32.066,36.96,31.836,37.024z"/>
		<path fill="#FFFFFF" d="M29.033,25.097c0.01-0.004,0.006-0.008,0.014-0.012c-0.077-0.004-0.155-0.009-0.229-0.013L29.033,25.097z"
			/>
		<path fill="#FFFFFF" d="M31.098,49.5c0.183-0.073,0.416-0.115,0.655-0.143C31.443,49.354,31.181,49.388,31.098,49.5z"/>
		<path fill="#FFFFFF" d="M44.007,56.994l-0.33-0.231c0.063,0.112-0.214,0.152-0.415,0.209
			C43.558,56.966,43.986,56.922,44.007,56.994z"/>
		<path fill="#FFFFFF" d="M36.155,58.998c0.16,0.034,0.018,0.072,0.179,0.105l0.602-0.01C36.9,58.95,36.411,58.851,36.155,58.998z"
			/>
		<path fill="#FFFFFF" d="M39.792,57.208c-1.067,0.019-0.705,0.163-0.507,0.325c-0.004-0.01-0.013-0.019,0-0.029
			C40.778,57.552,40.284,57.38,39.792,57.208z"/>
		<path fill="#FFFFFF" d="M39.321,57.571c0.05,0.05,0.08,0.1,0.027,0.148C39.948,57.738,39.473,57.659,39.321,57.571z"/>
		<path fill="#FFFFFF" d="M42.559,55.541c-0.274,0.077,1.364,0.049,0.931,0.092C44.846,55.719,41.845,55.122,42.559,55.541z"/>
		<polygon fill="#FFFFFF" points="36.278,57.339 37.595,57.281 36.533,57.191 		"/>
		<path fill="#FFFFFF" d="M37.245,56.062l-0.365,0.258c0.221-0.004,0.352,0.029,0.45,0.069
			C37.373,56.23,37.635,56.057,37.245,56.062z"/>
		<path fill="#FFFFFF" d="M37.329,56.39c-0.025,0.083,0.003,0.162,0.218,0.208C37.534,56.553,37.49,56.457,37.329,56.39z"/>
		<polygon fill="#FFFFFF" points="35.883,56.985 36.157,56.909 36.255,56.728 		"/>
		<path fill="#FFFFFF" d="M37.499,53.283l-0.377-0.281c-0.452-0.029-0.728,0.048-0.547,0.153
			C36.888,53.223,37.062,53.327,37.499,53.283z"/>
		<path fill="#FFFFFF" d="M33.893,54.137c0.273-0.076,0.566-0.081,1-0.124l-1.632-0.009L33.893,54.137z"/>
		<path fill="#FFFFFF" d="M33.51,53.314c-0.453-0.028-1.3-0.409-1.197-0.053C32.762,53.291,33.138,53.573,33.51,53.314z"/>
		<polygon fill="#FFFFFF" points="35.576,49.064 35.597,49.136 38.274,49.125 		"/>
		<path fill="#FFFFFF" d="M29.17,45.318c-0.642,0.334,1.652,0.079,0.851,0.382c0.633,0.078,0.654-0.247,1.201-0.166
			C30.554,45.332,30.932,45.226,29.17,45.318z"/>
		<path fill="#FFFFFF" d="M31.222,45.534c0.105,0.031,0.233,0.065,0.407,0.103C31.462,45.578,31.333,45.551,31.222,45.534z"/>
		<path fill="#FFFFFF" d="M36.82,3.251c0,0-0.04-0.054-0.08-0.107c-0.044-0.054-0.089-0.107-0.089-0.107
			c0.005,0,0.078,0.139,0.073,0.139L36.82,3.251z"/>
		<path fill="#FFFFFF" d="M36.387,2.838c0.003,0,0.003-0.05-0.001-0.05c-0.008,0-0.123-0.129-0.114-0.129
			C36.303,2.708,36.373,2.802,36.387,2.838z"/>
		<path fill="#FFFFFF" d="M27.081,32.208l0.41,0.017c0.445-0.034,0.478-0.084,0.547-0.185L27.081,32.208z"/>
		<polygon fill="#FFFFFF" points="28.358,29.293 28.323,29.344 29.867,29.25 		"/>
		<path fill="#FFFFFF" d="M26.39,26.847c-0.064,0.1,0.28,0.218,0.215,0.318C26.326,26.947,28.315,26.82,26.39,26.847z"/>
	</g>
	<path fill="#AEADAE" d="M40.042,32.829c0.354,0.005,0.708-0.146,0.871,0.089c0.336,0.74-0.852,1.334-0.514,2.074l0.572,0.053
		c-0.244,0.572-0.562,1.169-0.832,1.778c0.083,1.121,0.218,2.236,0.411,3.348c0.209-0.029,0.401-0.043,0.479,0.067
		c0.152,0.462-0.049,1.102-0.108,1.765l0.099,0.293c0.124,0.075,0.324,0.094,0.448,0.106c-0.02,0.3-0.074,0.566-0.136,0.813
		c1.127,3.254,2.451,6.56,3.759,10.141c0.527,0.758,1.054,1.516,1.295,2.245c0.219,1.082-0.154,2.462-0.22,3.516
		c2.021-0.161,3.01,2.408,5.053,1.896c-0.043,0.703-0.111,1.758,0.461,1.812c1.714,0.163,3.691,0.705,4.723,2.571
		c0.242,0.729-0.48,1.852-0.132,2.109c0.549,0.405,1.208-0.947,1.758-0.542c0.62-5.428-0.124-10.656-0.106-16.122
		c-0.896-1.861-1.29-14.411-0.894-17.634l-0.024-0.293c0.11-1.758-0.043-3.894-0.812-5.383c-0.475-0.682-1.053-1.376-1.611-2.067
		c-0.333,0.321-0.667,0.619-0.995,0.877c0.043-0.704,0.088-1.407-0.277-1.677c-0.864-1.498-1.876-0.649-3.252-0.073
		c-0.602,0.415-1.525-0.146-2.139,0.503c0.029-0.468,0.044-0.702,0.073-1.172c-0.571-0.054,0.293,1.444-0.644,1.118
		c0.218-0.451-0.132-0.956-0.102-1.424c-0.777,0.163-0.293,1.623-1.056,1.55c-0.176-0.252,1.041-1.315,0.088-1.406
		c-0.191-0.018-0.22,0.451-0.234,0.685c-0.293-1.442-1.201-2.237-2.241-0.92c0.028-0.458,0.433-1.104,0.302-1.587l-0.015,0.004
		c-0.033,0.241-0.229,0.657-0.243,0.879l0.051-0.823c-0.133,0.043-0.265,0.092-0.397,0.144c-0.117,0.205-0.212,0.411-0.226,0.625
		l0.034-0.546c-0.311,0.137-0.611,0.293-0.891,0.465c-0.615,0.649-1.517,1.271-1.539,1.623
		C40.425,27.145,40.106,29.994,40.042,32.829z"/>
	<g>
		<path fill="#FFFFFF" d="M27.844,19.088c0.077-0.547,0.54-0.907,0.792-0.1c-0.252-0.807-0.255-0.807-0.081-1.498
			c0.166,0.54,0.439,0.289,0.63,0.179c-0.29-0.331-0.544-0.319-1.054-0.297c-0.034,1.303-1.52-0.181-1.467,1.237
			C27.043,18.781,27.599,19.504,27.844,19.088z"/>
		<path fill="#FFFFFF" d="M30.821,22.021l-0.041-0.34l-0.532,0.729C30.304,22.103,30.681,21.648,30.821,22.021z"/>
		<path fill="#FFFFFF" d="M32.832,20.502c0.1,0.613,0.55,0.859,0.689,1.408c-0.335-1.198,0.491-0.4,0.755-0.633l-0.11-0.958
			c-0.472-0.59-1.164-0.086-1.833,0.007L32.832,20.502z"/>
		<path fill="#FFFFFF" d="M33.593,21.024l0.048-0.646C33.511,20.582,33.145,20.779,33.593,21.024z"/>
		<path fill="#FFFFFF" d="M32.285,17.906c-0.544,0.065,0.422,0.31-0.05,0.648C32.367,18.351,32.56,18.25,32.285,17.906z"/>
		<polygon fill="#FFFFFF" points="34.933,19.212 33.946,19.904 34.496,20.203 		"/>
		<path fill="#FFFFFF" d="M35.457,21.181c-0.14,0.025-0.441-0.267-0.317-0.632c0.555,0.649,0.556-0.44,1.053,0.104l-0.27,0.39
			c0.216,0.765,0.535-0.952,0.814,0.432c0.253-1.075-0.603-1.098-0.146-1.923c-0.52,0.377-1.004,0.176-1.545,0.042
			c0.206,0.25,0.25,0.184,0.499,0.37c-0.333,0.116-0.692,0.637-1.063,0.815C34.914,21.619,35.006,20.744,35.457,21.181z"/>
		<path fill="#FFFFFF" d="M37.192,20.994c0.374-0.019,0.937-0.062,0.842-1.138c-0.529-0.675-0.434,0.222-0.521,0.688
			c-0.146-0.159-0.523-0.142-0.486-0.726C37.126,20.032,36.948,20.634,37.192,20.994z"/>
		<path fill="#FFFFFF" d="M38.646,20.92l0.104-0.978l-0.145,0.187l-0.137-0.664c-0.003,0.171,0.083,1.409-0.291,1.396
			C38.459,21.339,38.413,20.72,38.646,20.92z"/>
		<path fill="#FFFFFF" d="M37.927,16.291c0.346,0.413,0.451,0.115,0.716-0.202c-0.411,0.165-1.022,0.239-1.079,0.643l0.003-0.17
			c0,0-0.312,0.549-0.461,1.249C37.409,17.093,38.347,17.944,37.927,16.291z"/>
		<path fill="#FFFFFF" d="M37.367,16.303l0.214-0.595L37.367,16.303z"/>
		<polygon fill="#FFFFFF" points="39.731,20.507 39.125,20.295 39.308,20.558 		"/>
		<path fill="#FFFFFF" d="M38.594,17.801c0.493,0.054-0.381-0.692,0.068-0.749c0.104-0.126-0.654,0.138-0.61,0.587
			C38.197,17.791,38.414,17.028,38.594,17.801z"/>
		<path fill="#FFFFFF" d="M40.105,20.52l0.359-0.782L40.105,20.52z"/>
		<path fill="#FFFFFF" d="M41.316,20.807l0.025-0.512c0.5,0.359,1.022-0.415,1.473,0.628c-0.148-0.611,0.041-1.305-0.378-1.443
			c-0.022,0.341-0.165,0.351-0.095,0.742c-0.183-0.1-0.203-0.551-0.337-0.712c-0.224,0.583-0.728,0.225-0.896,0.746
			c0.1-0.121,0.143-0.011,0.234,0.038c-0.375,0.933-0.752-1.187-0.771,0.284C40.686,20.118,41.116,21.047,41.316,20.807z"/>
		<path fill="#FFFFFF" d="M40.825,17.395l-0.435-0.137c0.038-0.682,0.497-0.095,0.483-0.715c-0.075-0.391-0.514-0.526-0.398-0.818
			c0.159,1.571-0.554,0.155-0.102,1.873c-0.502,0.269-0.297-0.937-0.854-0.76l-0.035,0.858
			C40.051,17.167,40.261,17.885,40.825,17.395z"/>
		<path fill="#FFFFFF" d="M42.431,17.443l0.256,0.49l-0.19-0.722c0.907-0.25,1.74,2.755,2.224,2.274
			c0.594-1.06,1.333,0.368,1.992,0.196c0.302-0.656-0.338-0.362-0.396-0.752c0.03-1.253,0.361,0.643,0.467-0.389
			c0.005-0.908-0.768-0.943-1.114-1.472c-0.256,0.151-0.231,0.432-0.274,0.95c-0.103-0.498-0.382-0.627-0.49-1.125
			c-0.491,0.756-0.901-0.554-1.374,0.256c-0.239-0.668,0.395-0.169,0.204-0.255l-0.296,0.042l0.042,0.109
			c-0.334,0.723-1.129,0.182-1.445-0.251c0.23,0.208,0.434,0.758,0.222,1.001l-0.288-0.771l-0.371,1.217
			C41.897,17.425,42.523,18.908,42.431,17.443z"/>
		<path fill="#FFFFFF" d="M41.693,16.083c-0.669-0.345,0.218,1.173-0.5,0.888l0.698-0.166L41.693,16.083z"/>
		<path fill="#FFFFFF" d="M44.841,17.758l0.344,0.519C44.934,17.175,44.58,18.708,44.841,17.758z"/>
		<polygon fill="#FFFFFF" points="45.957,17.66 45.864,18.692 46.11,18.099 		"/>
		<path fill="#FFFFFF" d="M47.035,18.853c0.204-0.531-0.082-0.955-0.341-0.814C46.934,18.07,47.074,18.51,47.035,18.853z"/>
		<path fill="#FFFFFF" d="M48.673,20.795c-0.467,0,0.412,0.259,0.07,1.18C48.803,21.54,49.05,20.959,48.673,20.795z"/>
		<path fill="#FFFFFF" d="M49.998,23.27c-0.153,0.186-0.196,0-0.202-0.251C49.897,23.046,49.976,23.11,49.998,23.27z"/>
		<path fill="#FFFFFF" d="M44.15,20.293c-0.056,0.009-0.117,0.015-0.176-0.012L44.15,20.293z"/>
		<path fill="#FFFFFF" d="M44.265,20.302l-0.115-0.008C44.192,20.287,44.231,20.291,44.265,20.302z"/>
		<path fill="#FFFFFF" d="M47.958,22.267l-0.001,0.001c-0.014-0.033-0.022-0.056-0.039-0.096L47.958,22.267z"/>
		<path fill="#FFFFFF" d="M32.351,22.056c-0.079,0.077-0.146,0.114-0.206,0.121l0.202-0.127L32.351,22.056z"/>
		<path fill="#FFFFFF" d="M31.693,20.759c0.223-0.744,0.854,1.366,1.366,0.733c-0.221,0.208-0.463,0.389-0.713,0.557
			C31.693,21.167,32.484,21.446,31.693,20.759z"/>
		<path fill="#FFFFFF" d="M36.94,18.203c0.005-0.014,0.012-0.017,0.018-0.034C36.993,18.127,36.978,18.164,36.94,18.203z"/>
		<polygon fill="#FFFFFF" points="15.321,28.792 15.453,29.043 14.957,28.904 		"/>
		<path fill="#FFFFFF" d="M15.61,29.217l0.802,0.18c0,0-0.784,0.476-1.568,0.951c-0.773,0.491-1.546,0.982-1.546,0.982l-0.096-0.396
			C12.895,30.505,15.919,29.551,15.61,29.217z"/>
		<path fill="#FFFFFF" d="M15.554,28.742c-0.236-1.2,0.727,0.09,0.728-0.849c-0.003,0.629,0.104,1.266-0.286,1.138L15.554,28.742z"
			/>
		<path fill="#FFFFFF" d="M15.595,26.162c0.29,0.116,0.275-0.435,0.459-0.331C16.405,26.662,15.807,26.189,15.595,26.162z"/>
		<path fill="#FFFFFF" d="M14.507,22.877c0.021-0.031,0.05-0.044,0.083-0.051c-0.009,0.066-0.014,0.132-0.011,0.194L14.507,22.877z"
			/>
		<path fill="#FFFFFF" d="M14.579,23.021l0.181,0.361C14.627,23.273,14.585,23.152,14.579,23.021z"/>
		<path fill="#FFFFFF" d="M14.59,22.826c0.018-0.155,0.049-0.32,0.021-0.492l-0.108-0.012c0.062-0.152,0.107-0.544,0.263-0.367
			c-0.249,0.051-0.124,0.303,0.128,0.81l0.385-0.113C15.822,23.882,14.944,22.741,14.59,22.826z"/>
		<path fill="#FFFFFF" d="M15.555,21.967l-0.014,0.874C15.107,22.232,15.417,22.031,15.555,21.967z"/>
		<path fill="#FFFFFF" d="M16.479,22.484c0.012,0.237-0.371,0.347-0.003,0.554c0.011,0.165-0.071,0.17-0.144,0.204
			C16.486,22.96,15.858,22.255,16.479,22.484z"/>
		<path fill="#FFFFFF" d="M16.332,23.242c-0.018,0.034-0.042,0.065-0.083,0.086C16.267,23.28,16.299,23.258,16.332,23.242z"/>
		<path fill="#FFFFFF" d="M14.242,28.121c0.092,0.07,0.138,0.155,0.165,0.246L14.242,28.121z"/>
		<path fill="#FFFFFF" d="M17.568,22.881l0.138-0.059c-0.039,0.019-0.067,0.052-0.092,0.087L17.568,22.881z"/>
		<path fill="#FFFFFF" d="M10.736,34.941c0.463-0.034,0.996-0.08,1.295-0.872c-0.531-0.805,0.092-0.376-0.412-1.256
			c-0.568,0.491,2.046-1.958,1.339-2.016l0.074,0.473l-0.354-0.961c0.437,0.031,1.264,0.49,1.185-0.133
			c0.206,0.226-2.592,1.589-2.333,1.784c-0.427-0.423,0.312-1.212,1.158-1.943c0.849-0.724,1.792-1.4,1.72-1.65l0.34,0.513
			c0.174-0.834,0.071-1.785,0.289-2.391l0.442,0.601c-0.419-0.049-0.266,0.441-0.422,0.891c0.472-0.413,0.784-0.063,1.124-0.414
			c-0.461-0.841-0.576-0.229-0.301-0.977c0.338,0.28,0.48,1.391,0.853,0.976c0.68-0.059-0.082-1.262,0.376-1.593l-0.497-0.147
			c0.162-0.135,0.413-0.496,0.821-0.124c-0.239,0.046-0.524,0.794-0.069,1.642c0.11-0.298,0.733-0.208,0.893-0.341l0.19,0.656
			c0.478,0.466,0.166-0.447,0.674-0.046c0.069-0.457-0.572-0.8-0.561-1.11c0.151,0.18,0.772,0.286,0.741-0.189
			c-0.733-1.221-0.365,0.643-1.27-0.446l0.554,0.013c-0.334-1.39-0.703,0.356-1.055-0.717c-0.303-1.466,1.311,0.915,0.816-0.896
			c-0.36-0.215-1.045,0.075-1.183-0.419c0.468,0.356,0.199-0.618,0.452-0.939l0.681,0.4c-0.023-0.48-0.161-0.422-0.418-0.619
			c0.931,0.454,1.52-0.882,2.772-0.331c0.413-0.402-0.188-0.593-0.163-1.147c0.611,0.67,0.772-0.18,1.055-0.29
			c0.107,0.023-0.069-0.812-0.284-1.095l-0.496,0.792c-0.146-0.428-0.543-1.061-0.757-0.857c0.842,1.429-1.409-0.479-0.697,1.242
			l-0.34-0.776l-0.658,0.931l0.074,0.09c-0.117-0.256-0.499,0.885-1.142,0.789c0.021-0.315,0.98-0.413,0.099-1.021
			c0.157-0.618,1.133-0.24,1.662-0.862l-0.369-0.462c0.39-1.053,1.76-0.522,2.489-1.016l0.065,0.816c0.398,0.158,1,0.603,1.009-0.12
			c-0.325,0.175-0.32-0.306-0.386-0.641c0.302-0.585,1.164-0.414,1.687-0.956c0,0,0.029,0.168,0.099,0.266l0.505-0.695
			c0.367,0.001,0.637,0.39,1.012,0.804c0.08-0.144,0.375-0.236,0.107-0.626c-0.078-0.018-0.155-0.035-0.181,0.022
			c0.048-0.928,0.324,0.147,0.574-0.5c-0.087,0.796,0.449,0.925,0.655,1.629c0.386-0.478-0.389-1.24-0.441-1.579
			c0.747,0.174,1.029,0.739,1.688,0.678c-0.108-0.438-0.533-0.147-0.751-0.611c0.215,0.057,0.406-0.054,0.384-0.224l-0.496-0.214
			c0.822,0.299,1.477,0.237,2.083-0.34l-0.125-0.199l0.452-0.123l0.09,0.854c0.175-0.283,0.647,0.35,0.579-0.334l-0.105-0.03
			l0.224-0.346l-0.068,0.889c0.476,0.226,0.524-1.569,1.202-1.612c0.443,1.056-0.982,0.688-0.643,2.114
			c0.271,0.168,0.687,0.306,0.702-0.103c-0.134-0.375-0.284-0.34-0.435-0.305c0.337-0.887,1.478,0.067,1.49-1.266l-0.537-0.34
			c0.449-0.277,1.146,1.128,1.096,0.271l-0.009,1.508c0.296-0.83,0.96-0.841,1.297-1.469c-0.185-0.824-0.665,0.177-0.67,0.006
			l0.076-0.644c0.842,0.306,0.333,0.456,1.316,0.738L34.55,15.44c0.479,0.774,0.909-1.021,0.933,0.523l-0.311-0.288l0.165,0.658
			l0.907-0.678c0.001,0.513,0.458,0.27,0.458,0.957l0.258-0.657c0.347,0.92-0.462,1.249-0.349,1.987
			c0.101,0.432,0.257,0.34,0.328,0.261C36.655,19,36.106,17.4,35.665,17.479l-0.084,0.645l-0.17-0.828
			c-0.146,0.196-0.178,0.775-0.166,1.117c-0.683-1.025-0.825,0.432-1.518,0.327c0.412-0.597-0.536-0.699-0.5-0.929
			c-0.301,0.068-0.623,1.704-1.139,0.778c-0.277-0.342,0.197-0.681-0.26-0.75c-0.239,0.17-0.297,0.646-0.019,0.987
			c-0.51,0.407-1.258,0.392-1.872,0.629l-0.016-0.581c-0.535-0.322-0.688,0.538-0.703,1.186c-0.124-0.2-0.103-0.031-0.146-0.368
			c-0.792-0.721-0.278,1.302-1.15,1.363c0.307,0.734,0.688,0.689,0.821,0.245l0.222,0.875c0.699-0.19,1.411-0.617,1.816-1.311
			l-0.062,0.718c0.834,1.007,0.004-1.239,0.859-0.044c0.249-0.403-0.378-0.377-0.23-0.814c0.314,0.182,0.383,1.511,0.795,1.456
			c-0.683,0.407-1.427,0.783-2.201,1.084c-0.775,0.299-1.56,0.596-2.286,0.95c0.029,0.168,0.129,0.196,0.229,0.225
			c-0.048,0.676-1.401,0.587-2.652,0.72c-1.257,0.105-2.423,0.357-2.009,1.479c-0.211-0.283-0.125-0.739-0.422-0.563
			c0.039,0.166,0.049,0.405,0.26,0.686c-1.313-0.826-1.808,0.874-3.098,0.572c0.192,0.347,0.079,0.64,0.199,0.896
			c-0.723-0.673-0.841,0.467-1.368,0.155l0.301,0.36l-0.929,0.479c0.049,0.164,0.178,0.105,0.281,0.121
			c-0.104,0.295-0.384-0.137-0.584-0.478l0.042,1.092c-1.989-0.826-2.24,2.245-4.085,2.121c0.195,0.792,0.194,1.176-0.091,1.453
			l0.285,0.105c0,0.765-0.225-0.328-0.346,0.119c0.063,0.541,0.554,1.047,0.589,0.517c0.301,0.131,0.339,0.424,0.321,0.656
			C13.519,35.468,12.263,35.634,10.736,34.941z"/>
		<path fill="#FFFFFF" d="M53.235,21.125c-0.042,0.031-0.022,0.015,0.028-0.019c0.03-0.019,0.062-0.039,0.097-0.059l0.037-0.033
			c0.057-0.041,0.113-0.067,0.016-0.012c-0.185,0.1-0.563,0.417-1.024,1.13c-0.047,0.083-0.091,0.167-0.13,0.253l-0.055,0.131
			l-0.111,0.18c-0.146,0.244-0.278,0.497-0.394,0.757c-0.044,0.068,0.062-0.014-0.052-0.019c-0.211-0.105-0.708-0.188-1.116-0.836
			c-0.217-0.613-0.296-0.634-0.533-0.974c-0.013,0.129-0.024,0.294-0.021,0.439c-0.276-0.087-0.779,0.138-1.086-0.243
			c-0.091,0.162-0.16,0.775,0.007,0.63c-0.458,0.539-0.805-1.159-1.083-0.656c0.246,0.393-0.221,0.595,0.069,0.903
			c-0.499,0.107-0.527-2.06-0.962-2.297c-0.018,0.171-0.035,0.343,0.051,0.392c-0.507-0.917-1.367,0.604-1.528-0.898l-0.14,0.649
			c-0.243-0.478-0.219-0.822-0.582-0.998c-0.204,0.258,0.057,0.562-0.005,0.799c-0.148-0.604-0.721-0.276-1.083-1.11
			c-0.109-0.955,0.617,1.236,0.805,0.353c-0.009-0.191-0.053-0.243-0.111-0.26c1.489,0.085,2.68,2.733,3.75,1.974
			c0.248,0.678,0.419,0.048,0.532-0.614c-0.196-0.308-0.799-0.957-0.783,0.395l-0.381-0.854c-0.134,0.071-0.179-1.282-0.248-1.502
			c0.264,0.143,0.534-1.188,0.153-1.658c0.704-0.186-0.138,2.863,0.462,2.493l0.067-0.975c-0.101,0.517,0.426,0.968,0.617,0.645
			l-0.082-0.193c1.613,0.456,3.721,0.037,5.488,0.594c-0.218,0.579-0.297,0.828-0.252,0.929c0.024,0.105,0.131,0.069,0.323,0.06
			c0.122-0.005,0.358,0.027,0.349,0.131c0.023,0.092-0.146,0.219-0.635,0.19c0.167,0.031,0.374,0.059,0.584,0.039
			c0.207-0.01,0.425-0.058,0.551,0.161c0.097,0.247-0.512,0.062-0.678-0.005c0.049,0.042,0.095,0.111,0.148,0.147
			c-0.525-0.259-1.022-0.536-1.483-0.834c-0.107-0.088-0.246-0.122-0.385-0.146c-0.07-0.013-0.141-0.021-0.212-0.024l-0.109-0.002
			l-0.007,0h-0.003l1.704,0.767l0,0l-0.003-0.002l-0.006-0.003l-0.013-0.007c-0.067-0.036-0.159-0.076-0.27-0.104
			c-0.012-0.009-0.013,0.006,0.072,0.001c-0.025,0.004,0.007,0-0.035,0.012c-0.047,0.014-0.09,0.034-0.126,0.059
			c-0.018,0.012-0.034,0.025-0.048,0.04L53.235,21.125z"/>
	</g>
	<path fill="#FFFFFF" d="M44.793,10.087c-0.274-0.379-0.55-0.687-0.834-0.884c-0.515-0.905-1.012-1.398-1.555-1.814
		c-0.272-0.211-0.57-0.395-0.867-0.628c-0.148-0.117-0.296-0.247-0.445-0.392c-0.074-0.074-0.147-0.152-0.218-0.238
		c-0.106-0.109-0.217-0.223-0.338-0.347c-0.359-0.314-0.705-0.601-1.031-0.868c-0.411-0.166-0.808-0.327-1.196-0.484
		c-0.269-0.145-0.53-0.291-0.791-0.446l-0.394-0.241l-0.2-0.127l-0.123-0.113c-0.147-0.146-0.365-0.329-0.476-0.469
		c0,0.005-0.001,0.01-0.003,0.012c0.002,0.041-0.105-0.06-0.097-0.202l0.01-0.116l0.034-0.066l0.002-0.004l0-0.001
		c0.062,0.399-0.538-3.476-0.284-1.834l0,0.006l0,0.012l-0.001,0.047l-0.004,0.094l-0.007,0.189
		c-0.021,0.499-0.042,1.033-0.066,1.602c0.006,0.196-0.036,0.161-0.067,0.177l-0.099,0.036L35.54,3.052
		c-0.115,0.048-0.326,0.054-0.506,0.072c-0.292,0.065-0.939-0.021-1.255,0.128c-0.069,0.284-0.126,0.544-0.136,0.819
		c-0.467,1.332-0.165,2.232,0.42,1.805c-0.3,0.613-0.56,0.693-0.792,0.802c-0.231,0.106-0.442,0.245-0.546,0.712l-0.346-0.593
		c-0.284,0.186-0.702,0.315-0.82,0.717l0.257,0.722c-1.107,0.587-0.555,1.77-1.582,2.549c0.779-0.417,0.031,0.486,0.415,0.672
		c-0.277,0.025-0.808,0.56-0.772,0.26c-0.737,0.743-0.716,2.031-1.628,2.043l-0.088,0.434c-0.213,0.69-0.828,0.85-1.295,1.242
		l0.127,0.23c-0.163,0.395-0.688,0.917-1.083,1.025c-0.802,0.691-1.35,2.003-1.975,2.942c-0.938,0.602-0.176,0.704-0.82,1.466
		c-0.548,0.335-1.188,1.25-1.655,1.308c0.643-0.593,0.377-1.054,1.121-1.602c-0.374,0.113,0.975-1.221,0.202-0.849
		c-0.946,1.559-2.807,2.759-3.789,4.091c-0.185-0.398-1.667,1.136-2.195,1.614l-0.095-0.044c-0.501,0.35-0.851,0.632-1.546,1.314
		c-0.891,0.74-1.797,1.445-2.663,1.906c-0.627,0.341-1.258,0.847-1.846,1.111c-0.077,0.033-0.133,0.023-0.11,0.039
		c-0.013-0.016,0.02-0.111,0.051-0.17c0.067-0.135,0.15-0.257,0.225-0.369c0.156-0.221,0.297-0.396,0.393-0.519
		c-0.31,0.323-0.655,0.571-0.835,1.043c-0.028,0.104,0.119,0.204,0.18,0.18c0.078,0.005,0.122-0.018,0.183-0.028
		c0.106-0.035,0.206-0.075,0.301-0.12c0.19-0.09,0.37-0.19,0.544-0.291c0.697-0.403,1.304-0.826,1.966-1.031
		c-1.074,0.616-1.087,0.735-1.893,1.261l0.481-0.187l-0.351,0.223c0.226-0.041-0.252,0.243-0.17,0.264c0,0,0.36-0.156,0.698-0.327
		c0.335-0.175,0.671-0.35,0.671-0.35c-0.75,0.329-0.314,0.019-0.158-0.166l0.679-0.368c-0.176,0.061-0.599,0.279-0.148-0.05
		c0.271-0.148,0.587-0.408,0.909-0.543c0,0-0.407,0.474-0.407,0.474c0.706-0.616,1.544-0.672,2.234-1.313l0.394,0.04l0.737-0.495
		l-0.026,0.127l0.923-0.548c0.456-0.351,0.435-0.508,0.452-0.646c0.357-0.261,0.673-0.545,0.864-0.597l-0.297,0.443l0.432-0.224
		c-0.31,0.137,0.248-0.319,0.291-0.447c0.899-0.585,0.623-0.428,1.289-0.683c0.464-0.517,1.331-0.822,1.155-1.075
		c1.132-0.629,2.211-1.454,3.15-2.218l0.248-0.505c1.286-0.737,1.53-1.415,2.571-2.477l0.003,0.165l0.35-0.789
		c1.001-0.608,0.827-1.349,2.025-2.038c1.128-0.896,1.191-1.682,0.98-2.429c0.198-0.706,1.112-1.076,1.55-1.523l-0.066,0.452
		l0.556-0.229c0.481-0.754,0.712-0.653,1.194-1.745c0.624-0.55,0.637-0.957,0.489-1.314c-0.073-0.179-0.185-0.346-0.279-0.52
		c-0.109-0.155-0.206-0.312-0.229-0.492c-0.008,0.009,0.329-0.167,0.573-0.224c0.259-0.072,0.476-0.081,0.476-0.081l-0.117-0.127
		c-0.118-0.431-0.139-0.689-0.103-0.846c0.058-0.321,0.31-0.336,0.664-1.191l-0.207-0.66c0.213,0.145,0.249-0.09,0.299-0.493
		c0.011-0.098,0.022-0.203,0.034-0.311c-0.024,0-0.043,0.005-0.043,0.026c-0.019,0.042-0.014,0.135,0.059,0.322
		c0.018,0.063,0.042,0.146,0.072,0.257c0.092,0.368,0.321,0.855,0.475,1.241c0.187,0.37,0.389,0.58,0.573,0.53
		c0.263,0.544,0.532,0.688,0.848,0.822c0.578,0.206,1.287,0.357,1.933,0.895c0.492,0.672,1.243,0.627,1.082,1.096l-0.118-0.084
		l-0.025,0.537l0.218-0.234c0.316,0.392,0.98,0.658,1.192,1.082c0.02-0.025,1.195,0.244,1.176,0.27
		c-0.246-0.127-0.491-0.309-0.73-0.501l-0.01,0.068c-0.246-0.157-0.881-0.487-1.097-0.764l0.388,0.15
		c-0.344-0.317,0.052-0.205,0.177-0.159c0.675,0.655,0.61,0.305,1.179,0.724c0.11,0.122,0.334,0.333,0.22,0.303
		c0.336,0.248,1.173,0.99,1.237,0.958c0.022,0.023,0.038,0.04,0.059,0.062C45.265,11.339,45.017,10.841,44.793,10.087z"/>
</g>
</svg>
