<?xml version="1.0" encoding="utf-8"?>
<!-- Generator: Adobe Illustrator 16.0.0, SVG Export Plug-In . SVG Version: 6.00 Build 0)  -->
<!DOCTYPE svg PUBLIC "-//W3C//DTD SVG 1.1//EN" "http://www.w3.org/Graphics/SVG/1.1/DTD/svg11.dtd">
<svg version="1.1" id="Layer_1" xmlns="http://www.w3.org/2000/svg" xmlns:xlink="http://www.w3.org/1999/xlink" x="0px" y="0px"
	 width="68.408px" height="69px" viewBox="0 0 68.408 69" enable-background="new 0 0 68.408 69" xml:space="preserve">
<text transform="matrix(1 0 0 1 77.9468 60.5078)" fill="#FFFFFF" font-family="'AvenirNext-Regular'" font-size="10.2004" letter-spacing="1">community development corporation</text>
<g>
	<circle fill="#C4C4C3" cx="33.56" cy="34.481" r="32.75"/>
	<g>
		<defs>
			<circle id="SVGID_1_" cx="33.56" cy="34.481" r="32.75"/>
		</defs>
		<clipPath id="SVGID_2_">
			<use xlink:href="#SVGID_1_"  overflow="visible"/>
		</clipPath>
		<path clip-path="url(#SVGID_2_)" fill="#AEADAE" d="M56.07,89.127l30.305-25.338L62.863,33.305c0,0-8.134-11.339-18.62,6.355
			c-8.826,14.896-26.426,9.244-26.426,9.244L56.07,89.127z"/>
	</g>
	<path fill="#FFFFFF" d="M62.863,33.305L50.541,18.93L36.26,31.363l5.061,5.812l4.308-3.75c0.203,6.374-4.318,12.081-10.783,13.179
		c-7.059,1.2-13.755-3.55-14.954-10.609c-1.199-7.06,3.551-13.754,10.61-14.954c1.326-0.225,2.639-0.24,3.907-0.069l6.729-6.024
		c-3.709-1.729-7.963-2.388-12.301-1.651c-11.371,1.932-19.023,12.718-17.09,24.088c1.931,11.371,12.715,19.023,24.085,17.09
		c10.192-1.73,17.395-10.574,17.388-20.576l3.792,4.425L62.863,33.305z"/>
</g>
</svg>
