<?xml version="1.0" encoding="utf-8"?>
<!-- Generator: Adobe Illustrator 16.0.0, SVG Export Plug-In . SVG Version: 6.00 Build 0)  -->
<!DOCTYPE svg PUBLIC "-//W3C//DTD SVG 1.1//EN" "http://www.w3.org/Graphics/SVG/1.1/DTD/svg11.dtd">
<svg version="1.1" id="Layer_1" xmlns="http://www.w3.org/2000/svg" xmlns:xlink="http://www.w3.org/1999/xlink" x="0px" y="0px"
	 width="292.5px" height="244px" viewBox="0 0 292.5 244" enable-background="new 0 0 292.5 244" xml:space="preserve">
<rect x="-7" y="-6" fill="#F15E22" width="305" height="255"/>
<g>
	<g>
		<g>
			<path fill="#194798" d="M111.851,83.708h7.621v24.676h14.244v7.078h-21.865V83.708z"/>
			<path fill="#194798" d="M146.053,110.199l-1.907,5.263h-8.027l12.247-31.754h8.665l12.296,31.754h-8.165l-1.906-5.263H146.053z
				 M154.49,96.951c-0.997-2.631-1.724-4.627-1.77-4.671h-0.134c-0.046,0.044-0.772,1.994-1.771,4.627l-2.267,6.352h8.21
				L154.49,96.951z"/>
			<path fill="#194798" d="M180.119,96.499h-0.135c0,0.046,0.092,3.946,0.092,8.073v10.89h-7.624V83.708h7.714l13.518,18.597h0.138
				c0-0.046-0.047-4.127-0.047-7.574V83.708h7.622v31.754h-7.756L180.119,96.499z"/>
			<path fill="#194798" d="M219.993,83.708c9.485,0,16.743,6.44,16.743,16.012c0,9.616-7.305,15.742-16.696,15.742h-13.563V83.708
				H219.993z M219.587,108.384c4.717,0,9.482-2.404,9.482-8.664c0-6.214-4.766-8.937-9.482-8.937h-5.488v17.601H219.587z"/>
			<path fill="#194798" d="M240.545,83.708h7.622v31.754h-7.622V83.708z"/>
			<path fill="#194798" d="M259.189,105.573c0.635,2.404,2.858,3.809,6.304,3.809c2.905,0,4.676-0.998,4.676-3.04
				c0-3.04-3.812-2.855-7.713-3.81c-4.311-1.044-9.662-3.04-9.662-9.754c0-6.488,4.899-9.706,12.021-9.706
				c6.483,0,11.114,2.63,12.884,8.3l-7.26,1.952c-0.772-2.314-2.585-3.586-5.762-3.586c-2.903,0-4.127,1.135-4.127,2.813
				c0,2.677,3.039,3.083,7.485,3.993c4.67,0.908,9.844,2.902,9.844,9.752c0,6.533-4.581,9.798-12.339,9.798
				c-5.536,0-11.795-1.678-13.61-8.572L259.189,105.573z"/>
		</g>
		<path fill="#FFFFFF" d="M131.516,150.116c0-1.6,0.042-1.76,0.042-1.958h-0.08c-1.601,1.358-4.642,2.518-7.881,2.518
			c-7.798,0-14.398-5.879-14.398-14.601c0-8.558,6.16-14.516,14.519-14.516c6.358,0,11.239,3.519,13.038,8.079l-6.638,1.799
			c-1.079-1.799-3.161-3.559-6.72-3.559c-4.521,0-7.439,3.358-7.439,8.238c0,4.958,3.24,8.199,8.199,8.199
			c3.84,0,6.239-1.682,7.119-2.879v-1.32h-7.038v-6.239h13.276v16.238H131.516z"/>
		<path fill="#FFFFFF" d="M151.233,140.875h-1.399h-1.599v9.241h-6.721V122.12h10.639c7.04,0,11.158,3.679,11.158,9.477
			c0,3.841-1.878,6.68-5.278,7.961l6.399,10.559h-7.958L151.233,140.875z M152.594,135.518c2.479,0,3.839-1.24,3.839-3.6
			c0-2.32-1.279-3.72-3.879-3.72h-4.318v7.319H152.594z"/>
		<path fill="#FFFFFF" d="M174.871,145.477l-1.68,4.64h-7.08l10.797-27.996h7.641l10.839,27.996h-7.198l-1.68-4.64H174.871z
			 M182.311,133.796c-0.881-2.319-1.521-4.077-1.562-4.118h-0.12c-0.039,0.041-0.681,1.76-1.559,4.08l-2,5.601h7.24L182.311,133.796
			z"/>
		<path fill="#FFFFFF" d="M210.066,122.12c8.36,0,14.759,5.679,14.759,14.117c0,8.479-6.439,13.879-14.719,13.879h-11.959V122.12
			H210.066z M209.705,143.876c4.161,0,8.359-2.12,8.359-7.639c0-5.479-4.198-7.881-8.359-7.881h-4.838v15.52H209.705z"/>
		<path fill="#FFFFFF" d="M228.184,122.12h20.398v6.236h-13.679v4.803h10.078v5.598h-10.078v5.119h13.878v6.24h-20.598V122.12z"/>
		<path fill="#FFFFFF" d="M259.461,133.399h-0.121c0,0.038,0.08,3.479,0.08,7.118v9.599h-6.719V122.12h6.799l11.92,16.397h0.119
			c0-0.041-0.038-3.64-0.038-6.679v-9.719h6.718v27.996h-6.84L259.461,133.399z"/>
	</g>
	<g>
		<path fill="#FFFFFF" d="M111.588,156.159h5.162v0.729h-4.359v3.067h4.056v0.731h-4.056v4.091h-0.803V156.159z"/>
		<path fill="#FFFFFF" d="M120.598,160.467c0-0.658,0.11-1.261,0.328-1.812c0.221-0.551,0.524-1.03,0.914-1.433
			c0.39-0.4,0.859-0.715,1.406-0.942c0.546-0.226,1.152-0.34,1.808-0.34c0.657,0,1.262,0.114,1.808,0.34
			c0.549,0.228,1.019,0.542,1.406,0.942c0.391,0.402,0.694,0.882,0.914,1.433c0.219,0.552,0.328,1.154,0.328,1.812
			c0,0.659-0.109,1.265-0.328,1.822c-0.22,0.555-0.523,1.035-0.914,1.436c-0.388,0.403-0.857,0.715-1.406,0.938
			c-0.546,0.223-1.15,0.335-1.808,0.335c-0.655,0-1.262-0.112-1.808-0.335c-0.547-0.223-1.017-0.534-1.406-0.938
			c-0.39-0.4-0.693-0.881-0.914-1.436C120.708,161.731,120.598,161.126,120.598,160.467z M121.401,160.467
			c0,0.538,0.086,1.036,0.256,1.498c0.171,0.464,0.413,0.865,0.73,1.206s0.701,0.609,1.15,0.805
			c0.451,0.194,0.957,0.292,1.516,0.292c0.561,0,1.066-0.098,1.516-0.292c0.452-0.195,0.835-0.464,1.152-0.805
			c0.315-0.341,0.56-0.742,0.729-1.206c0.171-0.462,0.257-0.96,0.257-1.498c0-0.534-0.086-1.033-0.257-1.496
			c-0.17-0.464-0.414-0.865-0.729-1.204c-0.317-0.343-0.7-0.609-1.152-0.806c-0.449-0.193-0.955-0.291-1.516-0.291
			c-0.559,0-1.064,0.098-1.516,0.291c-0.449,0.196-0.833,0.463-1.15,0.806c-0.317,0.339-0.56,0.74-0.73,1.204
			C121.487,159.434,121.401,159.933,121.401,160.467z"/>
		<path fill="#FFFFFF" d="M134.112,156.159h2.265c0.114,0,0.268,0.004,0.463,0.012s0.406,0.03,0.634,0.072
			c0.227,0.04,0.458,0.105,0.693,0.196c0.235,0.088,0.445,0.218,0.632,0.39c0.188,0.17,0.342,0.385,0.463,0.645
			c0.123,0.259,0.184,0.577,0.184,0.948c0,0.415-0.072,0.756-0.212,1.024c-0.145,0.268-0.321,0.484-0.537,0.652
			c-0.214,0.165-0.452,0.289-0.712,0.368c-0.26,0.083-0.507,0.139-0.743,0.172l2.509,4.14h-0.914l-2.422-4.091h-1.498v4.091h-0.804
			V156.159z M134.916,159.956h1.703c0.423,0,0.767-0.053,1.031-0.158c0.263-0.105,0.468-0.233,0.615-0.39
			c0.146-0.152,0.244-0.318,0.297-0.499c0.054-0.18,0.08-0.342,0.08-0.487c0-0.146-0.026-0.307-0.08-0.487
			c-0.053-0.178-0.151-0.343-0.297-0.499c-0.147-0.152-0.353-0.285-0.615-0.389c-0.265-0.106-0.608-0.158-1.031-0.158h-1.703
			V159.956z"/>
		<path fill="#FFFFFF" d="M148.881,156.159h0.864l2.775,7.561l2.803-7.561h0.85l-3.275,8.619h-0.802L148.881,156.159z"/>
		<path fill="#FFFFFF" d="M162.09,156.159h0.83l3.626,8.619h-0.899l-0.94-2.289h-4.563l-0.974,2.289h-0.841L162.09,156.159z
			 M162.469,157.035l-2.011,4.724h3.959L162.469,157.035z"/>
		<path fill="#FFFFFF" d="M170.589,156.159h0.803v7.889h4.019v0.73h-4.821V156.159z"/>
		<path fill="#FFFFFF" d="M179.478,156.159h0.803v7.889h4.019v0.73h-4.821V156.159z"/>
		<path fill="#FFFFFF" d="M188.365,156.159h5.271v0.729h-4.469v3.067h4.188v0.731h-4.188v3.36h4.664v0.73h-5.467V156.159z"/>
		<path fill="#FFFFFF" d="M201.892,162.247c0,0.259-0.018,0.546-0.055,0.863c-0.038,0.316-0.135,0.614-0.291,0.896
			c-0.159,0.28-0.396,0.514-0.706,0.705c-0.313,0.189-0.751,0.286-1.31,0.286c-0.633,0-1.134-0.16-1.504-0.479
			c-0.369-0.321-0.615-0.75-0.738-1.285l0.804-0.146c0.196,0.787,0.674,1.182,1.438,1.182c0.283,0,0.524-0.047,0.723-0.14
			c0.198-0.094,0.36-0.222,0.483-0.385c0.121-0.162,0.211-0.354,0.265-0.576c0.059-0.228,0.088-0.467,0.088-0.726v-6.282h0.803
			V162.247z"/>
		<path fill="#FFFFFF" d="M206.493,160.467c0-0.658,0.109-1.261,0.33-1.812c0.219-0.551,0.523-1.03,0.912-1.433
			c0.39-0.4,0.858-0.715,1.406-0.942c0.548-0.226,1.15-0.34,1.808-0.34s1.262,0.114,1.81,0.34c0.546,0.228,1.015,0.542,1.405,0.942
			c0.388,0.402,0.694,0.882,0.913,1.433c0.22,0.552,0.329,1.154,0.329,1.812c0,0.659-0.109,1.265-0.329,1.822
			c-0.219,0.555-0.525,1.035-0.913,1.436c-0.391,0.403-0.859,0.715-1.405,0.938c-0.548,0.223-1.152,0.335-1.81,0.335
			s-1.26-0.112-1.808-0.335s-1.017-0.534-1.406-0.938c-0.389-0.4-0.693-0.881-0.912-1.436
			C206.603,161.731,206.493,161.126,206.493,160.467z M207.299,160.467c0,0.538,0.084,1.036,0.253,1.498
			c0.172,0.464,0.415,0.865,0.731,1.206c0.317,0.341,0.701,0.609,1.15,0.805c0.452,0.194,0.956,0.292,1.516,0.292
			c0.561,0,1.065-0.098,1.518-0.292c0.449-0.195,0.834-0.464,1.15-0.805c0.315-0.341,0.558-0.742,0.73-1.206
			c0.17-0.462,0.254-0.96,0.254-1.498c0-0.534-0.084-1.033-0.254-1.496c-0.173-0.464-0.415-0.865-0.73-1.204
			c-0.316-0.343-0.701-0.609-1.15-0.806c-0.452-0.193-0.957-0.291-1.518-0.291c-0.56,0-1.063,0.098-1.516,0.291
			c-0.449,0.196-0.833,0.463-1.15,0.806c-0.316,0.339-0.56,0.74-0.731,1.204C207.383,159.434,207.299,159.933,207.299,160.467z"/>
		<path fill="#FFFFFF" d="M225.888,156.159h1.206l3.141,7.23l3.144-7.23h1.144v8.619h-0.807v-7.599h-0.021l-3.288,7.599h-0.353
			l-3.337-7.599h-0.023v7.599h-0.805V156.159z"/>
		<path fill="#FFFFFF" d="M242.239,156.159h0.83l3.627,8.619h-0.9l-0.938-2.289h-4.565l-0.974,2.289h-0.843L242.239,156.159z
			 M242.617,157.035l-2.008,4.724h3.957L242.617,157.035z"/>
		<path fill="#FFFFFF" d="M251.749,161.065l-3.165-4.906h0.962l2.604,4.09l2.667-4.09h0.899l-3.165,4.906v3.713h-0.803V161.065z"/>
		<path fill="#FFFFFF" d="M259.064,160.467c0-0.658,0.111-1.261,0.329-1.812c0.221-0.551,0.523-1.03,0.913-1.433
			c0.39-0.4,0.86-0.715,1.409-0.942c0.546-0.226,1.148-0.34,1.808-0.34c0.657,0,1.259,0.114,1.806,0.34
			c0.55,0.228,1.017,0.542,1.408,0.942c0.388,0.402,0.693,0.882,0.913,1.433c0.218,0.552,0.327,1.154,0.327,1.812
			c0,0.659-0.109,1.265-0.327,1.822c-0.22,0.555-0.525,1.035-0.913,1.436c-0.392,0.403-0.858,0.715-1.408,0.938
			c-0.547,0.223-1.148,0.335-1.806,0.335c-0.659,0-1.262-0.112-1.808-0.335c-0.549-0.223-1.02-0.534-1.409-0.938
			c-0.39-0.4-0.692-0.881-0.913-1.436C259.176,161.731,259.064,161.126,259.064,160.467z M259.87,160.467
			c0,0.538,0.086,1.036,0.256,1.498c0.169,0.464,0.414,0.865,0.73,1.206c0.317,0.341,0.7,0.609,1.149,0.805
			c0.45,0.194,0.957,0.292,1.518,0.292c0.559,0,1.062-0.098,1.515-0.292c0.449-0.195,0.833-0.464,1.15-0.805
			c0.315-0.341,0.56-0.742,0.731-1.206c0.169-0.462,0.255-0.96,0.255-1.498c0-0.534-0.086-1.033-0.255-1.496
			c-0.172-0.464-0.416-0.865-0.731-1.204c-0.317-0.343-0.701-0.609-1.15-0.806c-0.452-0.193-0.956-0.291-1.515-0.291
			c-0.561,0-1.067,0.098-1.518,0.291c-0.449,0.196-0.832,0.463-1.149,0.806c-0.316,0.339-0.562,0.74-0.73,1.204
			C259.956,159.434,259.87,159.933,259.87,160.467z"/>
		<path fill="#FFFFFF" d="M272.581,156.159h2.263c0.114,0,0.271,0.004,0.465,0.012c0.193,0.008,0.403,0.03,0.631,0.072
			c0.228,0.04,0.46,0.105,0.695,0.196c0.235,0.088,0.446,0.218,0.634,0.39c0.187,0.17,0.341,0.385,0.462,0.645
			c0.122,0.259,0.183,0.577,0.183,0.948c0,0.415-0.069,0.756-0.214,1.024c-0.141,0.268-0.32,0.484-0.534,0.652
			c-0.217,0.165-0.454,0.289-0.711,0.368c-0.261,0.083-0.508,0.139-0.743,0.172l2.508,4.14h-0.914l-2.423-4.091h-1.499v4.091h-0.802
			V156.159z M273.383,159.956h1.705c0.423,0,0.764-0.053,1.03-0.158c0.263-0.105,0.469-0.233,0.614-0.39
			c0.146-0.152,0.246-0.318,0.299-0.499c0.051-0.18,0.078-0.342,0.078-0.487c0-0.146-0.027-0.307-0.078-0.487
			c-0.053-0.178-0.152-0.343-0.299-0.499c-0.146-0.152-0.352-0.285-0.614-0.389c-0.267-0.106-0.607-0.158-1.03-0.158h-1.705V159.956
			z"/>
	</g>
	<g>
		<circle fill="#194798" cx="56.988" cy="121.709" r="42.707"/>
		<g>
			<defs>
				<circle id="SVGID_1_" cx="56.988" cy="121.709" r="42.707"/>
			</defs>
			<clipPath id="SVGID_2_">
				<use xlink:href="#SVGID_1_"  overflow="visible"/>
			</clipPath>
			<path clip-path="url(#SVGID_2_)" fill="#172A53" d="M86.34,192.967l39.52-33.039l-30.66-39.751c0,0-10.606-14.787-24.278,8.285
				c-11.511,19.426-34.462,12.057-34.462,12.057L86.34,192.967z"/>
		</g>
		<path fill="#FFFFFF" d="M95.199,120.177l-16.068-18.746L60.51,117.643l6.599,7.579l5.616-4.891
			c0.265,8.312-5.631,15.755-14.06,17.185c-9.206,1.565-17.938-4.628-19.501-13.834s4.631-17.937,13.837-19.501
			c1.729-0.293,3.442-0.312,5.095-0.09l8.773-7.855c-4.836-2.255-10.384-3.114-16.04-2.152
			c-14.828,2.518-24.807,16.583-22.285,31.411c2.518,14.827,16.579,24.807,31.408,22.283c13.289-2.255,22.682-13.788,22.674-26.831
			l4.944,5.77L95.199,120.177z"/>
	</g>
</g>
</svg>
