<?xml version="1.0" encoding="utf-8"?>
<!-- Generator: Adobe Illustrator 16.0.0, SVG Export Plug-In . SVG Version: 6.00 Build 0)  -->
<!DOCTYPE svg PUBLIC "-//W3C//DTD SVG 1.1//EN" "http://www.w3.org/Graphics/SVG/1.1/DTD/svg11.dtd">
<svg version="1.1" id="Layer_1" xmlns="http://www.w3.org/2000/svg" xmlns:xlink="http://www.w3.org/1999/xlink" x="0px" y="0px"
	 width="1200px" height="500px" viewBox="-200 150 1200 500" enable-background="new -200 150 1200 500" xml:space="preserve">
<g>
	<polygon fill="none" stroke="#FFFFFF" stroke-width="3" stroke-miterlimit="10" points="1000,162.405 953.934,150.467 
		993.023,205.014 1000,203.65 	"/>
	<polygon fill="none" stroke="#FFFFFF" stroke-width="3" stroke-miterlimit="10" points="-200,650 -126.65,650 -140.629,611.372 
		-200,621.916 	"/>
	<polygon fill="none" stroke="#FFFFFF" stroke-width="3" stroke-miterlimit="10" points="-200,621.916 -140.629,611.372 
		-179.715,603.193 -200,608.541 	"/>
	<polygon fill="none" stroke="#FFFFFF" stroke-width="3" stroke-miterlimit="10" points="838.977,150 953.934,207.743 
		953.934,150.467 946.494,150 	"/>
	<polygon id="triangle36_2405_" fill="none" stroke="#FFFFFF" stroke-width="3" stroke-miterlimit="10" points="953.934,150.467 
		993.023,205.014 953.934,207.743 	"/>
	<polygon fill="none" stroke="#FFFFFF" stroke-width="3" stroke-miterlimit="10" points="-175.082,150 -199.268,155.926 
		-140.629,166.833 -94.672,150 	"/>
	<polygon fill="none" stroke="#FFFFFF" stroke-width="3" stroke-miterlimit="10" points="-94.672,150 -140.629,166.833 
		28.765,235.011 51.757,150 	"/>
	<polygon fill="none" stroke="#FFFFFF" stroke-width="3" stroke-miterlimit="10" points="51.757,150 28.765,235.011 243.765,202.29 
		161.512,150 	"/>
	<polygon fill="none" stroke="#FFFFFF" stroke-width="3" stroke-miterlimit="10" points="161.512,150 243.765,202.29 202.937,150 	
		"/>
	<polygon fill="none" stroke="#FFFFFF" stroke-width="3" stroke-miterlimit="10" points="636.719,150 615.148,218.651 802.572,150 	
		"/>
	<polygon fill="none" stroke="#FFFFFF" stroke-width="3" stroke-miterlimit="10" points="1000,625.134 979.996,619.555 934.783,650 
		978.066,650 1000,639.552 	"/>
	<polygon fill="none" stroke="#FFFFFF" stroke-width="3" stroke-miterlimit="10" points="1000,639.552 978.066,650 1000,650 	"/>
	<polygon fill="none" stroke="#FFFFFF" stroke-width="3" stroke-miterlimit="10" points="1000,608.515 979.996,619.555 
		1000,625.134 	"/>
	<polygon fill="none" stroke="#FFFFFF" stroke-width="3" stroke-miterlimit="10" points="-200,431.6 -200,442.775 -75.477,466.832 
		-49.414,423.189 	"/>
	<polygon id="triangle36_2343_" fill="none" stroke="#FFFFFF" stroke-width="3" stroke-miterlimit="10" points="563.022,330.467 
		725.896,289.559 510.891,278.65 	"/>
	<polygon id="triangle36_2342_" fill="none" stroke="#FFFFFF" stroke-width="3" stroke-miterlimit="10" points="615.148,218.651 
		725.896,289.559 510.891,278.65 	"/>
	<polygon fill="none" stroke="#FFFFFF" stroke-width="3" stroke-miterlimit="10" points="-200,593.935 -200,605.316 
		-179.715,603.193 	"/>
	<polygon fill="none" stroke="#FFFFFF" stroke-width="3" stroke-miterlimit="10" points="-200,605.316 -200,608.541 
		-179.715,603.193 	"/>
	<polygon fill="none" stroke="#FFFFFF" stroke-width="3" stroke-miterlimit="10" points="1000,599.815 979.996,619.555 
		1000,608.515 	"/>
	<polygon fill="none" stroke="#FFFFFF" stroke-width="3" stroke-miterlimit="10" points="-200,256.321 -200,305.339 
		-179.715,267.736 	"/>
	<polygon fill="none" stroke="#FFFFFF" stroke-width="3" stroke-miterlimit="10" points="-200,150 -200,155.117 -199.268,155.926 
		-175.082,150 	"/>
	<polygon fill="none" stroke="#FFFFFF" stroke-width="3" stroke-miterlimit="10" points="-37.929,650 -3.813,625.008 
		-140.629,611.372 -126.65,650 	"/>
	<polygon fill="none" stroke="#FFFFFF" stroke-width="3" stroke-miterlimit="10" points="-14.812,650 -3.813,625.008 -37.929,650 	
		"/>
	<polygon fill="none" stroke="#FFFFFF" stroke-width="3" stroke-miterlimit="10" points="591.168,650 563.022,595.01 
		497.861,581.375 564.139,650 	"/>
	<polygon id="triangle36_2291_" fill="none" stroke="#FFFFFF" stroke-width="3" stroke-miterlimit="10" points="497.861,581.375 
		595.602,420.467 406.652,518.648 	"/>
	<polygon fill="none" stroke="#FFFFFF" stroke-width="3" stroke-miterlimit="10" points="-200,442.775 -200,500.822 
		-75.477,466.832 	"/>
	<polygon fill="none" stroke="#FFFFFF" stroke-width="3" stroke-miterlimit="10" points="39.605,650 -3.813,625.008 -14.812,650 	
		"/>
	<polygon id="triangle36_2251_" fill="none" stroke="#FFFFFF" stroke-width="3" stroke-miterlimit="10" points="843.177,575.921 
		875.755,535.01 810.602,575.921 	"/>
	<polygon id="triangle36_2250_" fill="none" stroke="#FFFFFF" stroke-width="3" stroke-miterlimit="10" points="-75.477,466.832 
		-49.414,423.189 126.492,453.195 	"/>
	<polygon id="triangle36_2249_" fill="none" stroke="#FFFFFF" stroke-width="3" stroke-miterlimit="10" points="28.765,346.828 
		263.318,363.195 126.492,453.195 	"/>
	<polygon id="triangle36_2248_" fill="none" stroke="#FFFFFF" stroke-width="3" stroke-miterlimit="10" points="230.74,485.92 
		361.046,401.376 126.492,453.195 	"/>
	<polygon id="triangle36_2247_" fill="none" stroke="#FFFFFF" stroke-width="3" stroke-miterlimit="10" points="263.318,363.195 
		361.046,401.376 126.492,453.195 	"/>
	<polygon id="triangle36_2235_" fill="none" stroke="#FFFFFF" stroke-width="3" stroke-miterlimit="10" points="843.177,575.921 
		875.755,535.01 888.787,584.105 	"/>
	<polygon fill="none" stroke="#FFFFFF" stroke-width="3" stroke-miterlimit="10" points="1000,550.848 888.787,584.105 
		979.996,619.555 1000,599.815 	"/>
	<polygon id="triangle36_2228_" fill="none" stroke="#FFFFFF" stroke-width="3" stroke-miterlimit="10" points="361.046,401.376 
		595.602,420.467 413.177,464.102 	"/>
	<polygon id="triangle36_2227_" fill="none" stroke="#FFFFFF" stroke-width="3" stroke-miterlimit="10" points="406.652,518.648 
		595.602,420.467 413.177,464.102 	"/>
	<polygon id="triangle36_2226_" fill="none" stroke="#FFFFFF" stroke-width="3" stroke-miterlimit="10" points="230.74,485.92 
		361.046,401.376 413.177,464.102 	"/>
	<polygon id="triangle36_2225_" fill="none" stroke="#FFFFFF" stroke-width="3" stroke-miterlimit="10" points="230.74,485.92 
		250.286,496.829 413.177,464.102 	"/>
	<polygon id="triangle36_2224_" fill="none" stroke="#FFFFFF" stroke-width="3" stroke-miterlimit="10" points="250.286,496.829 
		406.652,518.648 413.177,464.102 	"/>
	<polygon fill="none" stroke="#FFFFFF" stroke-width="3" stroke-miterlimit="10" points="719.469,650 764.996,622.285 
		563.022,595.01 591.168,650 	"/>
	<polygon id="triangle36_2216_" fill="none" stroke="#FFFFFF" stroke-width="3" stroke-miterlimit="10" points="563.022,595.01 
		810.602,575.921 764.996,622.285 	"/>
	<polygon fill="none" stroke="#FFFFFF" stroke-width="3" stroke-miterlimit="10" points="783.381,650 764.996,622.285 719.469,650 	
		"/>
	<polygon id="triangle36_2214_" fill="none" stroke="#FFFFFF" stroke-width="3" stroke-miterlimit="10" points="810.602,575.921 
		843.177,575.921 764.996,622.285 	"/>
	<polygon fill="none" stroke="#FFFFFF" stroke-width="3" stroke-miterlimit="10" points="934.783,650 979.996,619.555 
		764.996,622.285 783.381,650 	"/>
	<polygon id="triangle36_2212_" fill="none" stroke="#FFFFFF" stroke-width="3" stroke-miterlimit="10" points="843.177,575.921 
		888.787,584.105 764.996,622.285 	"/>
	<polygon id="triangle36_2211_" fill="none" stroke="#FFFFFF" stroke-width="3" stroke-miterlimit="10" points="888.787,584.105 
		979.996,619.555 764.996,622.285 	"/>
	<polygon fill="none" stroke="#FFFFFF" stroke-width="3" stroke-miterlimit="10" points="-200,508.268 35.281,513.195 
		-75.477,466.832 -200,500.822 	"/>
	<polygon id="triangle36_2190_" fill="none" stroke="#FFFFFF" stroke-width="3" stroke-miterlimit="10" points="-75.477,466.832 
		126.492,453.195 35.281,513.195 	"/>
	<polygon id="triangle36_2189_" fill="none" stroke="#FFFFFF" stroke-width="3" stroke-miterlimit="10" points="126.492,453.195 
		230.74,485.92 35.281,513.195 	"/>
	<polygon id="triangle36_2188_" fill="none" stroke="#FFFFFF" stroke-width="3" stroke-miterlimit="10" points="230.74,485.92 
		250.286,496.829 35.281,513.195 	"/>
	<polygon id="triangle36_2174_" fill="none" stroke="#FFFFFF" stroke-width="3" stroke-miterlimit="10" points="849.685,420.467 
		921.36,368.651 986.501,420.467 	"/>
	<polygon fill="none" stroke="#FFFFFF" stroke-width="3" stroke-miterlimit="10" points="1000,381.533 921.36,368.651 
		986.501,420.467 1000,416.123 	"/>
	<polygon fill="none" stroke="#FFFFFF" stroke-width="3" stroke-miterlimit="10" points="1000,416.123 986.501,420.467 
		1000,430.225 	"/>
	<polygon id="triangle36_2142_" fill="none" stroke="#FFFFFF" stroke-width="3" stroke-miterlimit="10" points="563.022,330.467 
		595.602,420.467 706.364,393.192 	"/>
	<polygon id="triangle36_2141_" fill="none" stroke="#FFFFFF" stroke-width="3" stroke-miterlimit="10" points="563.022,330.467 
		725.896,289.559 706.364,393.192 	"/>
	<polygon id="triangle36_2140_" fill="none" stroke="#FFFFFF" stroke-width="3" stroke-miterlimit="10" points="725.896,289.559 
		836.656,338.646 706.364,393.192 	"/>
	<polygon fill="none" stroke="#FFFFFF" stroke-width="3" stroke-miterlimit="10" points="-200,177.322 -166.688,180.471 
		-199.268,155.926 -200,155.949 	"/>
	<polygon fill="none" stroke="#FFFFFF" stroke-width="3" stroke-miterlimit="10" points="-200,177.322 -200,256.321 
		-179.715,267.736 -166.688,180.471 	"/>
	<polygon id="triangle36_2133_" fill="none" stroke="#FFFFFF" stroke-width="3" stroke-miterlimit="10" points="-199.268,155.926 
		-140.629,166.833 -166.688,180.471 	"/>
	<polygon id="triangle36_2132_" fill="none" stroke="#FFFFFF" stroke-width="3" stroke-miterlimit="10" points="-179.715,267.736 
		-121.077,251.379 -166.688,180.471 	"/>
	<polygon id="triangle36_2131_" fill="none" stroke="#FFFFFF" stroke-width="3" stroke-miterlimit="10" points="-140.629,166.833 
		28.765,235.011 -166.688,180.471 	"/>
	<polygon id="triangle36_2130_" fill="none" stroke="#FFFFFF" stroke-width="3" stroke-miterlimit="10" points="-121.077,251.379 
		28.765,235.011 -166.688,180.471 	"/>
	<polygon fill="none" stroke="#FFFFFF" stroke-width="3" stroke-miterlimit="10" points="615.148,150 615.148,218.651 636.719,150 	
		"/>
	<polygon fill="none" stroke="#FFFFFF" stroke-width="3" stroke-miterlimit="10" points="1000,516.805 875.755,535.01 
		888.787,584.105 1000,519.436 	"/>
	<polygon fill="none" stroke="#FFFFFF" stroke-width="3" stroke-miterlimit="10" points="1000,519.436 888.787,584.105 
		1000,550.848 	"/>
	<polygon fill="none" stroke="#FFFFFF" stroke-width="3" stroke-miterlimit="10" points="-200,533.352 -200,578.53 
		-147.141,586.826 	"/>
	<polygon fill="none" stroke="#FFFFFF" stroke-width="3" stroke-miterlimit="10" points="-200,578.53 -200,593.935 
		-179.715,603.193 -147.141,586.826 	"/>
	<polygon fill="none" stroke="#FFFFFF" stroke-width="3" stroke-miterlimit="10" points="-200,508.268 -200,533.352 
		-147.141,586.826 35.281,513.195 	"/>
	<polygon id="triangle36_2109_" fill="none" stroke="#FFFFFF" stroke-width="3" stroke-miterlimit="10" points="-179.715,603.193 
		-140.629,611.372 -147.141,586.826 	"/>
	<polygon id="triangle36_2108_" fill="none" stroke="#FFFFFF" stroke-width="3" stroke-miterlimit="10" points="-140.629,611.372 
		-3.813,625.008 -147.141,586.826 	"/>
	<polygon id="triangle36_2107_" fill="none" stroke="#FFFFFF" stroke-width="3" stroke-miterlimit="10" points="-3.813,625.008 
		35.281,513.195 -147.141,586.826 	"/>
	<polygon fill="none" stroke="#FFFFFF" stroke-width="3" stroke-miterlimit="10" points="-200,349.839 -140.629,344.106 
		-179.715,267.736 -200,305.339 	"/>
	<polygon id="triangle36_2074_" fill="none" stroke="#FFFFFF" stroke-width="3" stroke-miterlimit="10" points="-179.715,267.736 
		-121.077,251.379 -140.629,344.106 	"/>
	<polygon id="triangle36_2073_" fill="none" stroke="#FFFFFF" stroke-width="3" stroke-miterlimit="10" points="-121.077,251.379 
		28.765,346.828 -140.629,344.106 	"/>
	<polygon id="triangle36_2072_" fill="none" stroke="#FFFFFF" stroke-width="3" stroke-miterlimit="10" points="706.364,393.192 
		836.656,338.646 817.122,417.736 	"/>
	<polygon id="triangle36_2071_" fill="none" stroke="#FFFFFF" stroke-width="3" stroke-miterlimit="10" points="836.656,338.646 
		921.36,368.651 817.122,417.736 	"/>
	<polygon id="triangle36_2070_" fill="none" stroke="#FFFFFF" stroke-width="3" stroke-miterlimit="10" points="849.685,420.467 
		921.36,368.651 817.122,417.736 	"/>
	<polygon id="triangle36_2062_" fill="none" stroke="#FFFFFF" stroke-width="3" stroke-miterlimit="10" points="615.148,218.651 
		725.896,289.559 882.26,267.736 	"/>
	<polygon fill="none" stroke="#FFFFFF" stroke-width="3" stroke-miterlimit="10" points="802.572,150 615.148,218.651 
		882.26,267.736 827.225,150 	"/>
	<polygon id="triangle36_2060_" fill="none" stroke="#FFFFFF" stroke-width="3" stroke-miterlimit="10" points="725.896,289.559 
		836.656,338.646 882.26,267.736 	"/>
	<polygon fill="none" stroke="#FFFFFF" stroke-width="3" stroke-miterlimit="10" points="827.225,150 882.26,267.736 
		953.934,207.743 838.977,150 	"/>
	<polygon id="triangle36_2058_" fill="none" stroke="#FFFFFF" stroke-width="3" stroke-miterlimit="10" points="836.656,338.646 
		921.36,368.651 882.26,267.736 	"/>
	<polygon id="triangle36_2057_" fill="none" stroke="#FFFFFF" stroke-width="3" stroke-miterlimit="10" points="953.934,207.743 
		993.023,205.014 882.26,267.736 	"/>
	<polygon fill="none" stroke="#FFFFFF" stroke-width="3" stroke-miterlimit="10" points="1000,208.42 993.023,205.014 
		882.26,267.736 1000,264.924 	"/>
	<polygon id="triangle36_2026_" fill="none" stroke="#FFFFFF" stroke-width="3" stroke-miterlimit="10" points="849.685,420.467 
		986.501,420.467 914.839,445.014 	"/>
	<polygon fill="none" stroke="#FFFFFF" stroke-width="3" stroke-miterlimit="10" points="1000,511.216 914.839,445.014 
		875.755,535.01 1000,516.805 	"/>
	<polygon fill="none" stroke="#FFFFFF" stroke-width="3" stroke-miterlimit="10" points="1000,430.225 986.501,420.467 
		914.839,445.014 1000,461.217 	"/>
	<polygon fill="none" stroke="#FFFFFF" stroke-width="3" stroke-miterlimit="10" points="1000,461.217 914.839,445.014 
		1000,511.216 	"/>
	<polygon fill="none" stroke="#FFFFFF" stroke-width="3" stroke-miterlimit="10" points="202.937,150 243.765,202.29 291.238,150 	
		"/>
	<polygon fill="none" stroke="#FFFFFF" stroke-width="3" stroke-miterlimit="10" points="497.549,650 354.53,581.375 338.134,650 	
		"/>
	<polygon id="triangle36_1978_" fill="none" stroke="#FFFFFF" stroke-width="3" stroke-miterlimit="10" points="406.652,518.648 
		497.861,581.375 354.53,581.375 	"/>
	<polygon fill="none" stroke="#FFFFFF" stroke-width="3" stroke-miterlimit="10" points="564.139,650 497.861,581.375 
		354.53,581.375 497.549,650 	"/>
	<polygon id="triangle36_1976_" fill="none" stroke="#FFFFFF" stroke-width="3" stroke-miterlimit="10" points="250.286,496.829 
		406.652,518.648 354.53,581.375 	"/>
	<polygon id="triangle36_1975_" fill="none" stroke="#FFFFFF" stroke-width="3" stroke-miterlimit="10" points="510.891,278.65 
		563.022,330.467 491.342,289.559 	"/>
	<polygon fill="none" stroke="#FFFFFF" stroke-width="3" stroke-miterlimit="10" points="-200,359.217 -200,425.687 -55.93,398.648 
			"/>
	<polygon fill="none" stroke="#FFFFFF" stroke-width="3" stroke-miterlimit="10" points="-200,431.6 -49.414,423.189 
		-55.93,398.648 -200,425.687 	"/>
	<polygon fill="none" stroke="#FFFFFF" stroke-width="3" stroke-miterlimit="10" points="-200,359.217 -55.93,398.648 
		-140.629,344.106 -200,349.839 	"/>
	<polygon id="triangle36_1953_" fill="none" stroke="#FFFFFF" stroke-width="3" stroke-miterlimit="10" points="-140.629,344.106 
		28.765,346.828 -55.93,398.648 	"/>
	<polygon id="triangle36_1952_" fill="none" stroke="#FFFFFF" stroke-width="3" stroke-miterlimit="10" points="-49.414,423.189 
		126.492,453.195 -55.93,398.648 	"/>
	<polygon id="triangle36_1951_" fill="none" stroke="#FFFFFF" stroke-width="3" stroke-miterlimit="10" points="28.765,346.828 
		126.492,453.195 -55.93,398.648 	"/>
	<polygon id="triangle36_1950_" fill="none" stroke="#FFFFFF" stroke-width="3" stroke-miterlimit="10" points="491.342,289.559 
		510.891,278.65 400.13,254.101 	"/>
	<polygon id="triangle36_1949_" fill="none" stroke="#FFFFFF" stroke-width="3" stroke-miterlimit="10" points="510.891,278.65 
		615.148,218.651 400.13,254.101 	"/>
	<polygon id="triangle36_1948_" fill="none" stroke="#FFFFFF" stroke-width="3" stroke-miterlimit="10" points="263.318,363.195 
		302.414,235.011 400.13,254.101 	"/>
	<polygon id="triangle36_1919_" fill="none" stroke="#FFFFFF" stroke-width="3" stroke-miterlimit="10" points="497.861,581.375 
		563.022,595.01 804.073,466.832 	"/>
	<polygon id="triangle36_1918_" fill="none" stroke="#FFFFFF" stroke-width="3" stroke-miterlimit="10" points="497.861,581.375 
		595.602,420.467 804.073,466.832 	"/>
	<polygon id="triangle36_1917_" fill="none" stroke="#FFFFFF" stroke-width="3" stroke-miterlimit="10" points="563.022,595.01 
		810.602,575.921 804.073,466.832 	"/>
	<polygon id="triangle36_1916_" fill="none" stroke="#FFFFFF" stroke-width="3" stroke-miterlimit="10" points="595.602,420.467 
		706.364,393.192 804.073,466.832 	"/>
	<polygon id="triangle36_1915_" fill="none" stroke="#FFFFFF" stroke-width="3" stroke-miterlimit="10" points="706.364,393.192 
		817.122,417.736 804.073,466.832 	"/>
	<polygon id="triangle36_1914_" fill="none" stroke="#FFFFFF" stroke-width="3" stroke-miterlimit="10" points="810.602,575.921 
		875.755,535.01 804.073,466.832 	"/>
	<polygon id="triangle36_1913_" fill="none" stroke="#FFFFFF" stroke-width="3" stroke-miterlimit="10" points="817.122,417.736 
		849.685,420.467 804.073,466.832 	"/>
	<polygon id="triangle36_1912_" fill="none" stroke="#FFFFFF" stroke-width="3" stroke-miterlimit="10" points="849.685,420.467 
		914.839,445.014 804.073,466.832 	"/>
	<polygon id="triangle36_1911_" fill="none" stroke="#FFFFFF" stroke-width="3" stroke-miterlimit="10" points="875.755,535.01 
		914.839,445.014 804.073,466.832 	"/>
	<polygon fill="none" stroke="#FFFFFF" stroke-width="3" stroke-miterlimit="10" points="338.134,650 354.53,581.375 
		159.075,649.553 159.619,650 	"/>
	<polygon fill="none" stroke="#FFFFFF" stroke-width="3" stroke-miterlimit="10" points="159.033,650 159.075,649.553 
		-3.813,625.008 39.605,650 	"/>
	<polygon fill="none" stroke="#FFFFFF" stroke-width="3" stroke-miterlimit="10" points="499.164,150 302.414,235.011 
		400.13,254.101 502.176,150 	"/>
	<polygon fill="none" stroke="#FFFFFF" stroke-width="3" stroke-miterlimit="10" points="502.176,150 400.13,254.101 
		615.148,218.651 507.914,150 	"/>
	<polygon fill="none" stroke="#FFFFFF" stroke-width="3" stroke-miterlimit="10" points="507.914,150 615.148,218.651 615.148,150 	
		"/>
	<polygon fill="none" stroke="#FFFFFF" stroke-width="3" stroke-miterlimit="10" points="493.602,150 243.765,202.29 
		302.414,235.011 499.164,150 	"/>
	<polygon fill="none" stroke="#FFFFFF" stroke-width="3" stroke-miterlimit="10" points="291.238,150 243.765,202.29 493.602,150 	
		"/>
	<polygon id="triangle36_1864_" fill="none" stroke="#FFFFFF" stroke-width="3" stroke-miterlimit="10" points="-3.813,625.008 
		35.281,513.195 93.917,616.829 	"/>
	<polygon id="triangle36_1863_" fill="none" stroke="#FFFFFF" stroke-width="3" stroke-miterlimit="10" points="-3.813,625.008 
		159.075,649.553 93.917,616.829 	"/>
	<polygon id="triangle36_1862_" fill="none" stroke="#FFFFFF" stroke-width="3" stroke-miterlimit="10" points="35.281,513.195 
		250.286,496.829 93.917,616.829 	"/>
	<polygon id="triangle36_1861_" fill="none" stroke="#FFFFFF" stroke-width="3" stroke-miterlimit="10" points="159.075,649.553 
		354.53,581.375 93.917,616.829 	"/>
	<polygon id="triangle36_1860_" fill="none" stroke="#FFFFFF" stroke-width="3" stroke-miterlimit="10" points="250.286,496.829 
		354.53,581.375 93.917,616.829 	"/>
	<polygon id="triangle36_1854_" fill="none" stroke="#FFFFFF" stroke-width="3" stroke-miterlimit="10" points="361.046,401.376 
		595.602,420.467 452.258,357.738 	"/>
	<polygon id="triangle36_1853_" fill="none" stroke="#FFFFFF" stroke-width="3" stroke-miterlimit="10" points="491.342,289.559 
		563.022,330.467 452.258,357.738 	"/>
	<polygon id="triangle36_1852_" fill="none" stroke="#FFFFFF" stroke-width="3" stroke-miterlimit="10" points="563.022,330.467 
		595.602,420.467 452.258,357.738 	"/>
	<polygon id="triangle36_1851_" fill="none" stroke="#FFFFFF" stroke-width="3" stroke-miterlimit="10" points="361.046,401.376 
		452.258,357.738 439.225,357.738 	"/>
	<polygon id="triangle36_1850_" fill="none" stroke="#FFFFFF" stroke-width="3" stroke-miterlimit="10" points="400.13,254.101 
		491.342,289.559 439.225,357.738 	"/>
	<polygon id="triangle36_1849_" fill="none" stroke="#FFFFFF" stroke-width="3" stroke-miterlimit="10" points="452.258,357.738 
		491.342,289.559 439.225,357.738 	"/>
	<polygon id="triangle36_1848_" fill="none" stroke="#FFFFFF" stroke-width="3" stroke-miterlimit="10" points="263.318,363.195 
		361.046,401.376 439.225,357.738 	"/>
	<polygon id="triangle36_1847_" fill="none" stroke="#FFFFFF" stroke-width="3" stroke-miterlimit="10" points="263.318,363.195 
		400.13,254.101 439.225,357.738 	"/>
	<polygon id="triangle36_1824_" fill="none" stroke="#FFFFFF" stroke-width="3" stroke-miterlimit="10" points="-121.077,251.379 
		28.765,346.828 54.828,256.832 	"/>
	<polygon id="triangle36_1823_" fill="none" stroke="#FFFFFF" stroke-width="3" stroke-miterlimit="10" points="-121.077,251.379 
		28.765,235.011 54.828,256.832 	"/>
	<polygon id="triangle36_1822_" fill="none" stroke="#FFFFFF" stroke-width="3" stroke-miterlimit="10" points="28.765,346.828 
		263.318,363.195 54.828,256.832 	"/>
	<polygon id="triangle36_1821_" fill="none" stroke="#FFFFFF" stroke-width="3" stroke-miterlimit="10" points="28.765,235.011 
		243.765,202.29 54.828,256.832 	"/>
	<polygon id="triangle36_1820_" fill="none" stroke="#FFFFFF" stroke-width="3" stroke-miterlimit="10" points="243.765,202.29 
		302.414,235.011 54.828,256.832 	"/>
	<polygon id="triangle36_1819_" fill="none" stroke="#FFFFFF" stroke-width="3" stroke-miterlimit="10" points="263.318,363.195 
		302.414,235.011 54.828,256.832 	"/>
	<polygon fill="none" stroke="#FFFFFF" stroke-width="3" stroke-miterlimit="10" points="1000,150 957.839,150 953.934,150.467 
		1000,162.405 	"/>
	<polygon fill="none" stroke="#FFFFFF" stroke-width="3" stroke-miterlimit="10" points="1000,313.842 882.26,267.736 
		921.36,368.651 1000,358.114 	"/>
	<polygon fill="none" stroke="#FFFFFF" stroke-width="3" stroke-miterlimit="10" points="1000,264.924 882.26,267.736 1000,313.842 
			"/>
	<polygon fill="none" stroke="#FFFFFF" stroke-width="3" stroke-miterlimit="10" points="1000,358.114 921.36,368.651 1000,381.533 
			"/>
</g>
</svg>
