<?xml version="1.0" encoding="utf-8"?>
<!-- Generator: Adobe Illustrator 16.0.0, SVG Export Plug-In . SVG Version: 6.00 Build 0)  -->
<!DOCTYPE svg PUBLIC "-//W3C//DTD SVG 1.1//EN" "http://www.w3.org/Graphics/SVG/1.1/DTD/svg11.dtd">
<svg version="1.1" id="Layer_1" xmlns="http://www.w3.org/2000/svg" xmlns:xlink="http://www.w3.org/1999/xlink" x="0px" y="0px"
	 width="1558.31px" height="174.5px" viewBox="0 0 1558.31 174.5" enable-background="new 0 0 1558.31 174.5" xml:space="preserve">
<g>
	<g>
		<g>
			<polygon fill="#FFFFFF" points="38.384,48.199 90.384,78.221 142.384,48.199 142.384,79 170.384,79 170.384,3 170.186,3 
				89.447,46 8.708,3 8.384,3 8.384,79 38.384,79 			"/>
			<polygon fill="#FFFFFF" points="15.659,54 17.11,54 16.384,53.581 			"/>
		</g>
	</g>
</g>
<polygon fill="#FFFFFF" points="142.384,94 142.384,123.603 90.509,93.603 38.384,123.603 38.384,94 8.384,94 8.384,169 8.708,169 
	89.447,126 170.186,169 170.384,169 170.384,94 "/>
<g>
	<path fill="#FFFFFF" d="M225.47,34.235h13.987l36.452,83.924l36.451-83.924h13.281v100.031h-9.325V46.103h-0.283l-38.147,88.163
		h-4.097l-38.712-88.163h-0.283v88.163h-9.325V34.235z"/>
	<path fill="#FFFFFF" d="M352.061,34.235h9.325v100.031h-9.325V34.235z"/>
	<path fill="#FFFFFF" d="M471.165,118.583c-4.803,6.499-10.363,11.162-16.672,13.988c-6.312,2.825-13.14,4.238-20.486,4.238
		c-7.629,0-14.624-1.295-20.981-3.885c-6.358-2.589-11.798-6.217-16.318-10.879c-4.521-4.663-8.053-10.219-10.596-16.672
		c-2.544-6.451-3.815-13.493-3.815-21.122c0-7.629,1.271-14.645,3.815-21.051c2.543-6.405,6.075-11.939,10.596-16.601
		c4.521-4.663,9.96-8.312,16.318-10.95c6.357-2.636,13.352-3.956,20.981-3.956c6.782,0,13.115,1.201,19.003,3.603
		c5.885,2.402,11.043,6.428,15.47,12.081l-7.628,6.357c-3.108-4.708-7.089-8.146-11.939-10.313c-4.852-2.166-9.819-3.25-14.906-3.25
		c-6.5,0-12.362,1.13-17.59,3.391c-5.228,2.261-9.679,5.37-13.352,9.325c-3.674,3.957-6.5,8.619-8.477,13.987
		c-1.978,5.37-2.967,11.163-2.967,17.379c0,6.217,0.99,12.009,2.967,17.378c1.978,5.369,4.803,10.031,8.477,13.987
		c3.673,3.956,8.124,7.064,13.352,9.325c5.228,2.26,11.09,3.391,17.59,3.391c2.543,0,5.179-0.305,7.912-0.919
		c2.731-0.611,5.391-1.554,7.982-2.825c2.59-1.271,5.062-2.872,7.417-4.803c2.354-1.93,4.427-4.261,6.217-6.994L471.165,118.583z"/>
	<path fill="#FFFFFF" d="M488.259,34.235h9.325v44.081h55.95V34.235h9.324v100.031h-9.324V86.793h-55.95v47.472h-9.325V34.235z"/>
	<path fill="#FFFFFF" d="M590.265,34.235h61.178v8.478H599.59v35.604h48.603v8.478H599.59v38.995h54.112v8.477h-63.438V34.235z"/>
	<path fill="#FFFFFF" d="M674.046,34.235h9.325v91.554h46.625v8.477h-55.95V34.235z"/>
	<path fill="#FFFFFF" d="M744.69,34.235h9.325v91.554h46.624v8.477H744.69V34.235z"/>
	<path fill="#FFFFFF" d="M815.333,34.235h61.177v8.478h-51.852v35.604h48.602v8.478h-48.602v38.995h54.111v8.477h-63.437V34.235z"/>
	<path fill="#FFFFFF" d="M934.858,34.235h33.345l23.03,65.274h0.281l23.172-65.274h33.202v100.031h-22.041V57.547h-0.282
		l-26.28,76.719h-16.812l-25.292-76.719H956.9v76.719h-22.042V34.235z"/>
	<path fill="#FFFFFF" d="M1101.151,34.235h18.226l43.516,100.031h-24.866l-8.617-21.192h-38.855l-8.336,21.192h-24.301
		L1101.151,34.235z M1109.628,63.34l-12.151,31.083h24.442L1109.628,63.34z"/>
	<path fill="#FFFFFF" d="M1173.771,34.235h22.04v79.685h40.833v20.346h-62.873V34.235z"/>
	<path fill="#FFFFFF" d="M1255.15,53.732h-28.54V34.235h79.121v19.498h-28.54v80.533h-22.041V53.732z"/>
	<path fill="#FFFFFF" d="M1316.889,34.235h37.302c4.33,0,8.688,0.307,13.066,0.919c4.381,0.613,8.313,1.837,11.799,3.672
		c3.484,1.837,6.309,4.405,8.477,7.701c2.167,3.298,3.25,7.678,3.25,13.14c0,5.651-1.579,10.338-4.733,14.058
		c-3.156,3.722-7.324,6.382-12.504,7.982v0.283c3.296,0.473,6.287,1.392,8.972,2.756c2.686,1.366,4.992,3.108,6.924,5.228
		c1.93,2.119,3.413,4.592,4.45,7.417c1.034,2.825,1.554,5.841,1.554,9.042c0,5.276-1.131,9.678-3.39,13.21
		c-2.262,3.533-5.182,6.382-8.76,8.548c-3.581,2.168-7.607,3.723-12.08,4.663c-4.475,0.942-8.927,1.413-13.352,1.413h-40.975V34.235
		z M1338.931,74.219h15.965c1.695,0,3.366-0.188,5.017-0.565c1.646-0.375,3.129-0.989,4.45-1.836
		c1.318-0.847,2.378-1.978,3.179-3.39c0.799-1.413,1.201-3.109,1.201-5.087c0-2.071-0.448-3.791-1.343-5.157
		c-0.897-1.364-2.049-2.424-3.461-3.179c-1.412-0.752-3.017-1.293-4.805-1.625c-1.789-0.329-3.531-0.495-5.228-0.495h-14.976V74.219
		z M1338.931,115.616h19.78c1.695,0,3.413-0.188,5.156-0.565c1.742-0.375,3.321-1.036,4.733-1.978
		c1.412-0.941,2.564-2.167,3.461-3.674c0.895-1.506,1.344-3.343,1.344-5.51c0-2.354-0.591-4.261-1.768-5.722
		c-1.178-1.459-2.661-2.565-4.449-3.32c-1.792-0.753-3.724-1.271-5.793-1.554c-2.073-0.283-4.005-0.425-5.793-0.425h-16.672V115.616
		z"/>
	<path fill="#FFFFFF" d="M1408.16,34.235h22.041v100.031h-22.041V34.235z"/>
	<path fill="#FFFFFF" d="M1483.181,34.235h18.227l43.516,100.031h-24.866l-8.617-21.192h-38.855l-8.336,21.192h-24.301
		L1483.181,34.235z M1491.66,63.34l-12.151,31.083h24.442L1491.66,63.34z"/>
</g>
</svg>
