<?xml version="1.0" encoding="utf-8"?>
<!-- Generator: Adobe Illustrator 16.0.0, SVG Export Plug-In . SVG Version: 6.00 Build 0)  -->
<!DOCTYPE svg PUBLIC "-//W3C//DTD SVG 1.1//EN" "http://www.w3.org/Graphics/SVG/1.1/DTD/svg11.dtd">
<svg version="1.1" id="Layer_1" xmlns="http://www.w3.org/2000/svg" xmlns:xlink="http://www.w3.org/1999/xlink" x="0px" y="0px"
	 width="309px" height="238.773px" viewBox="0 0 309 238.773" enable-background="new 0 0 309 238.773" xml:space="preserve">
<rect x="-4" y="-2" fill="#D6D6D6" stroke="#000000" stroke-miterlimit="10" width="317" height="243"/>
<g>
	<path fill="#58595B" d="M81.62,186.465v12.031c0,0.273-0.231,0.504-0.504,0.504s-0.504-0.231-0.504-0.504v-13.479
		c-0.063-0.21,0-0.42,0.189-0.567c0.231-0.147,0.567-0.105,0.714,0.126l8.902,12.346v-11.968c0-0.273,0.231-0.504,0.504-0.504
		c0.294,0,0.525,0.231,0.525,0.504v13.542c0,0.273-0.231,0.504-0.525,0.504c-0.168,0-0.294-0.063-0.399-0.189
		c-0.021-0.021-0.063-0.042-0.084-0.084L81.62,186.465z"/>
	<path fill="#58595B" d="M102.136,184.093c3.926,0,7.013,3.338,7.034,7.454c-0.021,4.115-3.107,7.454-7.034,7.454
		c-3.968,0-7.076-3.338-7.097-7.454C95.06,187.431,98.167,184.093,102.136,184.093z M102.136,197.971
		c3.233,0,5.963-2.834,5.984-6.425c-0.021-3.632-2.75-6.404-5.984-6.404c-3.338,0-6.068,2.771-6.068,6.404
		C96.068,195.137,98.797,197.971,102.136,197.971z"/>
	<path fill="#58595B" d="M119.986,184.807c0-0.273,0.231-0.504,0.504-0.504c0.294,0,0.525,0.231,0.525,0.504v13.689
		c0,0.273-0.231,0.504-0.525,0.504c-0.273,0-0.504-0.231-0.504-0.504V184.807z"/>
	<path fill="#58595B" d="M137.583,186.402l-4.703,6.53c-0.105,0.168-0.273,0.231-0.42,0.231h-0.042
		c-0.189,0-0.336-0.063-0.441-0.231l-4.703-6.509v12.073c0,0.273-0.231,0.504-0.504,0.504c-0.294,0-0.525-0.231-0.525-0.504v-13.605
		c0-0.168,0.084-0.315,0.21-0.399c0-0.021,0.021-0.021,0.042-0.042c0.231-0.147,0.546-0.105,0.714,0.126l5.228,7.244l5.207-7.244
		c0.147-0.231,0.483-0.273,0.714-0.126c0.063,0.063,0.105,0.105,0.147,0.168c0.042,0.084,0.084,0.189,0.084,0.273v13.605
		c0,0.273-0.231,0.504-0.504,0.504c-0.294,0-0.504-0.231-0.504-0.504V186.402z"/>
	<path fill="#58595B" d="M150.645,195.2h-6.698l-1.302,3.464c-0.084,0.21-0.273,0.336-0.483,0.336c-0.042,0-0.126-0.021-0.189-0.021
		c-0.252-0.105-0.399-0.42-0.294-0.672l5.102-13.626c0.084-0.189,0.294-0.315,0.504-0.315c0.231,0,0.441,0.126,0.504,0.315
		l5.102,13.626c0.105,0.252-0.021,0.567-0.273,0.672c-0.084,0-0.126,0.021-0.189,0.021c-0.189,0-0.399-0.126-0.483-0.336
		L150.645,195.2z M144.325,194.171h5.942l-2.96-7.895L144.325,194.171z"/>
	<path fill="#58595B" d="M162.363,192.386c-0.294,0-0.525-0.21-0.525-0.504s0.231-0.525,0.525-0.525h4.535h0.063
		c0.252,0.021,0.462,0.252,0.462,0.525v5.039v0.084c-0.021,0.147-0.084,0.294-0.189,0.378c-1.302,1.029-2.939,1.617-4.745,1.617
		c-4.22-0.021-7.643-3.317-7.643-7.475c0-4.094,3.422-7.433,7.643-7.433c1.827,0,3.443,0.63,4.766,1.659
		c0.189,0.147,0.252,0.504,0.063,0.714c-0.168,0.21-0.483,0.252-0.735,0.084c-1.071-0.882-2.52-1.428-4.094-1.428
		c-3.674,0-6.614,2.876-6.614,6.404c0,3.569,2.939,6.446,6.614,6.446c1.428,0,2.792-0.462,3.884-1.26v-4.325H162.363z"/>
	<path fill="#58595B" d="M172.591,184.807c0-0.273,0.231-0.504,0.504-0.504h0.042h7.517c0.294,0,0.504,0.231,0.504,0.504
		c0,0.294-0.21,0.525-0.504,0.525h-7.034v5.816h6.152c0.273,0,0.504,0.231,0.504,0.525c0,0.273-0.231,0.504-0.504,0.504h-6.152
		v5.795h7.034c0.294,0,0.504,0.231,0.504,0.525c0,0.273-0.21,0.504-0.504,0.504h-7.496h-0.063h-0.042
		c-0.252-0.021-0.462-0.231-0.462-0.504V184.807z"/>
	<path fill="#58595B" d="M195.375,191.945l-4.934-6.74c-0.147-0.231-0.105-0.567,0.105-0.714c0.231-0.189,0.567-0.147,0.714,0.084
		l4.598,6.32l4.619-6.32c0.147-0.231,0.483-0.273,0.714-0.084c0.231,0.147,0.273,0.483,0.105,0.714l-4.913,6.698v6.593
		c0,0.273-0.21,0.504-0.504,0.504c-0.273,0-0.504-0.231-0.504-0.504V191.945z"/>
	<path fill="#58595B" d="M204.028,184.807c0-0.273,0.231-0.504,0.504-0.504h0.042h7.517c0.294,0,0.504,0.231,0.504,0.504
		c0,0.294-0.21,0.525-0.504,0.525h-7.034v5.816h6.152c0.273,0,0.504,0.231,0.504,0.525c0,0.273-0.231,0.504-0.504,0.504h-6.152
		v5.795h7.034c0.294,0,0.504,0.231,0.504,0.525c0,0.273-0.21,0.504-0.504,0.504h-7.496h-0.063h-0.042
		c-0.252-0.021-0.462-0.231-0.462-0.504V184.807z"/>
	<path fill="#58595B" d="M220.281,185.332h-4.43c-0.273,0-0.504-0.231-0.504-0.525c0-0.273,0.231-0.504,0.504-0.504h9.868
		c0.273,0,0.504,0.231,0.504,0.504c0,0.294-0.231,0.525-0.504,0.525h-4.43v13.165c0,0.273-0.231,0.504-0.504,0.504
		s-0.504-0.231-0.504-0.504V185.332z"/>
</g>
<g>
	<path fill="#58595B" d="M144.207,97.363c16.654-5.205,20.818-8.675,20.818-13.3c0-4.049-2.429-8.096-9.947-8.096
		c-7.17,0-10.292,2.891-12.375,7.979l-18.272-4.857c3.469-12.838,14.803-21.512,31.226-21.512c18.273,0,28.913,10.524,28.913,23.94
		c0,14.225-11.102,21.049-20.818,24.634v10.871h-19.544V97.363z M143.975,132.058c0-5.088,3.354-9.02,9.947-9.02
		c6.477,0,9.83,3.932,9.83,9.02c0,5.09-3.238,9.137-9.83,9.137C147.33,141.194,143.975,137.147,143.975,132.058z"/>
</g>
</svg>
