<?xml version="1.0" encoding="utf-8"?>
<!-- Generator: Adobe Illustrator 16.0.0, SVG Export Plug-In . SVG Version: 6.00 Build 0)  -->
<!DOCTYPE svg PUBLIC "-//W3C//DTD SVG 1.1//EN" "http://www.w3.org/Graphics/SVG/1.1/DTD/svg11.dtd">
<svg version="1.1" xmlns="http://www.w3.org/2000/svg" xmlns:xlink="http://www.w3.org/1999/xlink" x="0px" y="0px" width="47.25px"
	 height="38.25px" viewBox="0 0 47.25 38.25" enable-background="new 0 0 47.25 38.25" xml:space="preserve">
<g id="Layer_2">
</g>
<g id="Layer_1">
	<g>
		<path fill="#FFFFFF" d="M38.153,26.918c-0.319,0.421-0.645,0.959-1.091,1.529c-0.23,0.28-0.475,0.577-0.733,0.891
			c-0.267,0.305-0.582,0.594-0.88,0.922c-0.291,0.335-0.659,0.62-1.013,0.939c-0.347,0.329-0.749,0.615-1.159,0.91
			c-0.4,0.31-0.842,0.582-1.292,0.862c-0.438,0.3-0.928,0.533-1.418,0.783c-0.972,0.517-2.042,0.913-3.146,1.262
			c-0.559,0.151-1.13,0.28-1.703,0.404c-0.582,0.068-1.164,0.193-1.754,0.217c-1.178,0.068-2.369,0.058-3.521-0.127l-0.864-0.124
			l-0.839-0.203c-0.272-0.069-0.57-0.129-0.817-0.205c-0.272-0.093-0.543-0.186-0.811-0.278c-0.549-0.167-1.043-0.393-1.527-0.615
			c-0.494-0.201-0.953-0.459-1.4-0.713c-0.457-0.235-0.878-0.503-1.271-0.786c-0.401-0.27-0.792-0.529-1.127-0.829
			c-0.714-0.55-1.293-1.136-1.806-1.66c-0.504-0.531-0.882-1.048-1.226-1.448c-0.586-0.876-0.921-1.377-0.921-1.377l-0.088,0.05
			c0,0,0.317,0.518,0.871,1.425c0.329,0.416,0.691,0.957,1.179,1.515c0.497,0.552,1.062,1.173,1.766,1.763
			c0.33,0.32,0.716,0.601,1.115,0.894c0.391,0.305,0.81,0.598,1.268,0.859c0.446,0.28,0.909,0.561,1.422,0.788
			c0.501,0.249,1.015,0.5,1.549,0.68c0.265,0.1,0.532,0.201,0.802,0.303c0.3,0.103,0.571,0.163,0.862,0.248l0.864,0.237l0.893,0.157
			c1.193,0.229,2.436,0.28,3.672,0.246c0.619-0.001,1.232-0.106,1.849-0.156c0.607-0.105,1.214-0.217,1.81-0.354
			c1.182-0.313,2.324-0.715,3.368-1.24c0.516-0.273,1.029-0.53,1.49-0.854c0.475-0.3,0.935-0.601,1.335-0.958
			c0.416-0.336,0.819-0.662,1.166-1.027c0.353-0.356,0.717-0.676,1.004-1.044c0.298-0.355,0.592-0.689,0.836-1.033
			c0.235-0.35,0.458-0.682,0.667-0.994c0.408-0.63,0.687-1.233,0.938-1.703c0.403-0.981,0.615-1.55,0.615-1.55l-0.09-0.044
			C38.995,25.478,38.688,26.001,38.153,26.918z"/>
		<path fill="#FFFFFF" d="M5.58,20.755l0.1-0.007c0,0-0.013-0.222-0.036-0.637c-0.02-0.415-0.085-1.026-0.022-1.795
			c0.009-0.77,0.135-1.703,0.339-2.755c0.236-1.046,0.562-2.218,1.109-3.419c0.497-1.223,1.264-2.439,2.139-3.66
			c0.92-1.194,2.025-2.34,3.301-3.369c1.298-1,2.772-1.848,4.363-2.477c1.589-0.646,3.314-0.959,5.055-1.055
			c1.704-0.084,3.463,0.113,5.093,0.581c1.635,0.463,3.192,1.107,4.575,1.948c1.389,0.83,2.623,1.801,3.688,2.837
			c1.032,1.061,1.948,2.146,2.595,3.274c0.693,1.101,1.188,2.195,1.553,3.193c0.204,0.448,0.276,0.994,0.407,1.431
			c0.121,0.453,0.231,0.625,0.332,1C40.353,17.372,40.458,18,40.458,18h0.1c0,0-0.017-0.655-0.045-2.228
			c-0.147-0.774-0.241-1.56-0.538-2.653c-0.316-1.051-0.726-2.18-1.412-3.358c-0.634-1.209-1.547-2.354-2.595-3.515
			c-1.069-1.147-2.392-2.145-3.843-3.047c-1.476-0.867-3.132-1.523-4.87-1.957c-1.741-0.445-3.562-0.602-5.397-0.462
			c-1.791,0.137-3.601,0.507-5.24,1.215c-1.644,0.69-3.153,1.604-4.471,2.664c-1.292,1.091-2.412,2.29-3.317,3.543
			C7.965,9.48,7.22,10.744,6.747,12.006c-0.523,1.238-0.821,2.44-1.029,3.507c-0.178,1.074-0.278,2.019-0.266,2.803
			c-0.04,0.784,0.043,1.389,0.074,1.804C5.562,20.534,5.58,20.755,5.58,20.755z"/>
		<path fill="#FFFFFF" d="M44.183,17.976c-0.609,0.477-1.421,1.113-2.232,1.75c-0.793,0.611-1.545,1.203-2.096,1.654
			c-0.106,0.082-0.198,0.152-0.291,0.223c-0.021,0.013-0.035,0.021-0.056,0.035c-0.833,0.536-1.465,0.889-1.896,1.059
			c-0.556,0.221-1.071,0.268-1.547,0.139c-0.701-0.183-0.835-2.402-0.401-6.662c0.083-0.872-0.081-1.375-0.492-1.508
			c-0.322-0.105-0.688,0.006-1.092,0.33c-0.29,0.238-0.979,1.282-2.069,3.134c-1.065,1.807-1.694,2.984-1.89,3.528
			c-0.176,0.501-0.312,0.701-0.404,0.601c-0.086-0.087-0.119-0.432-0.102-1.035c0.05-1.515,0.114-2.636,0.194-3.367
			c0.101-0.932,0.137-1.488,0.108-1.672c-0.062-0.347-0.34-0.637-0.83-0.873c-0.417-0.21-1.165,0.401-2.244,1.837
			c-0.35,0.472-0.783,1.091-1.297,1.861c-0.655,0.974-1.012,1.507-1.069,1.597c-0.258,0.372-0.438,0.592-0.541,0.664
			c-0.169,0.121-0.231-0.036-0.186-0.469c0.15-1.959,0.315-3.261,0.496-3.904c0.276-0.981,0.188-1.472-0.263-1.474
			c-0.259-0.002-0.456,0.229-0.593,0.69c-0.017,0.052-0.148,0.674-0.394,1.868c-0.133,0.613-0.304,1.458-0.51,2.526
			c-0.049,0.023-0.1,0.05-0.16,0.092c-0.143,0.104-0.283,0.23-0.423,0.376c-0.837,0.845-2.022,1.737-3.555,2.678
			c-0.779,0.483-1.5,0.745-2.163,0.788c-0.641,0.049-1.146-0.109-1.518-0.474c-0.256-0.252-0.258-0.836-0.006-1.75
			c0.225-0.812,0.434-1.315,0.626-1.51c2.924-2.972,5.011-5.495,6.264-7.567c1.513-2.5,2.401-4.409,2.666-5.725
			c0.29-1.455-0.135-2.36-1.271-2.718c-0.99-0.311-2.015,0.208-3.071,1.556c-0.543,0.679-1.184,1.752-1.923,3.22
			c-0.685,1.355-1.797,4.08-3.339,8.172c-0.271,0.72-0.51,1.374-0.725,1.978c-0.223,0.189-0.448,0.382-0.677,0.579
			c-0.483,0.413-0.983,0.84-1.49,1.274c-0.502,0.425-1.035,0.86-1.557,1.212c-0.544,0.378-1.113,0.694-1.703,0.988
			c-0.585,0.282-1.166,0.542-1.743,0.71c-0.576,0.164-1.145,0.261-1.661,0.212c-0.518-0.045-0.976-0.234-1.341-0.52
			c-0.726-0.587-1.104-1.39-1.323-1.927c-0.223-0.548-0.328-0.879-0.328-0.879s0.015,0.342,0.14,0.938
			c0.063,0.296,0.16,0.655,0.323,1.056c0.16,0.4,0.399,0.849,0.803,1.247c0.392,0.404,0.972,0.727,1.622,0.832
			c0.647,0.121,1.332,0.057,1.991-0.102c0.66-0.16,1.312-0.396,1.938-0.695c0.617-0.296,1.255-0.626,1.832-1.028
			c0.976-0.692,1.808-1.456,2.594-2.203c-0.199,0.61-0.354,1.129-0.464,1.554c-0.14,0.519-0.178,1.045-0.116,1.577
			c0.081,0.688,0.336,1.11,0.763,1.263c1.532,0.556,3.259,0.192,5.18-1.095c0.382-0.258,1.572-1.212,3.573-2.861
			c0.002-0.001,0.003-0.002,0.004-0.004c-0.142,0.737-0.253,1.305-0.328,1.672c-0.114,0.566-0.116,0.954-0.008,1.161
			c0.169,0.331,0.617,0.39,1.346,0.177c0.75-0.215,1.609-1.334,2.579-3.356c0.814-1.716,1.479-2.763,1.994-3.138
			c0.298-0.218,0.459-0.085,0.48,0.392c0.012,0.336-0.049,0.949-0.181,1.84c-0.186,1.225-0.295,1.956-0.326,2.195
			c-0.078,0.759-0.054,1.228,0.075,1.413c0.259,0.387,0.618,0.629,1.076,0.722c0.466,0.094,0.844-0.003,1.138-0.29
			c0.227-0.226,0.732-1.105,1.517-2.641c0.904-1.752,1.521-2.877,1.847-3.374c0.379-0.574,0.606-0.875,0.684-0.902
			c0.062-0.026,0.059,0.158-0.012,0.549c-0.31,1.664-0.46,2.975-0.451,3.933c0.022,1.789,0.521,2.704,1.499,2.744
			c1.655,0.05,3.214-0.757,4.677-2.416c0.085-0.081,0.166-0.159,0.262-0.251c0.611-0.567,1.409-1.333,2.165-2.081
			c0.729-0.731,1.46-1.461,2.007-2.01c0.537-0.558,0.895-0.93,0.895-0.93S44.782,17.486,44.183,17.976z M19.42,9.693
			c0.612-1.085,1.104-1.774,1.475-2.068c0.406-0.317,0.625-0.115,0.659,0.605c0.042,1.114-0.879,3.064-2.764,5.851
			c-0.946,1.39-1.898,2.67-2.854,3.838C16.955,14.77,18.117,12.028,19.42,9.693z"/>
	</g>
	<rect x="53.752" y="11.037" fill="none" width="198.748" height="27.213"/>
	<text transform="matrix(1 0 0 1 53.752 22.3735)"><tspan x="0" y="0" fill="#FFFFFF" font-family="'PetitaLight'" font-size="16.3122">lauren michelle </tspan><tspan x="101.885" y="0" fill="#FFFFFF" font-family="'PetitaMedium'" font-size="16.3122">design</tspan></text>
</g>
<g id="Layer_3">
</g>
</svg>
